<svg xmlns="http://www.w3.org/2000/svg" fill="none" viewBox="0 0 24 24"><path fill="#000" fill-rule="evenodd" d="M19.274 4.697c-1.021-1.014-2.791-.898-3.7.2l-.004.004-1.816 2.166a1 1 0 0 1-.95.34L5.11 5.967c-.342-.043-.638.055-.841.245-.386.452-.326 1.003-.02 1.308l.107.104.047.017a1 1 0 0 1 .169.074l4.903 2.707a1 1 0 0 1 .274 1.528l-5.448 6.317-.012.014c-.353.395-.319 1.054.05 1.421.372.37 1.044.405 1.447.051h.001l6.17-5.502.028-.024 7.082-5.866q.105-.086.227-.141c.947-.965.94-2.568-.021-3.523m-5.239-1.079c1.633-1.968 4.764-2.212 6.648-.34 1.756 1.745 1.756 4.638 0 6.382l-.008.008a2 2 0 0 1-.235.209c-.048.035-.13.093-.24.144l-6.924 5.734-6.16 5.493-.004.003c-1.232 1.089-3.1.944-4.181-.13-1.082-1.075-1.23-2.937-.138-4.166l4.638-5.378-3.752-2.072a2 2 0 0 1-.475-.246 3 3 0 0 1-.348-.305l-.016-.016C1.699 7.804 1.755 6.023 2.8 4.855l.04-.042c.7-.697 1.66-.952 2.57-.823l.044.007 7.143 1.337z" clip-rule="evenodd"/><path fill="#000" fill-rule="evenodd" d="M17.345 10.122a1 1 0 0 1 1.185.77l1.623 7.65.009.048a2.85 2.85 0 0 1-.932 2.616c-1.489 1.321-3.815.92-4.846-.648l-1.42-2.16a1 1 0 1 1 1.672-1.099l1.42 2.16c.388.591 1.307.73 1.846.251a.85.85 0 0 0 .288-.782l-1.616-7.62a1 1 0 0 1 .77-1.186" clip-rule="evenodd"/></svg>