<svg xmlns="http://www.w3.org/2000/svg" fill="none" viewBox="0 0 24 25"><path fill="#000" d="M7.544 22.296c-.506 0-1.114-.1-1.62-.4C4.71 21.296 4 20.195 4 18.894V5.684c0-1.3.709-2.402 1.924-3.002s2.734-.5 3.848.3l8.81 6.605c.912.7 1.418 1.601 1.418 2.702s-.506 2.101-1.418 2.702l-8.81 6.605c-.607.5-1.418.7-2.228.7m0-18.013c-.202 0-.506.1-.709.2-.506.2-.81.7-.81 1.201v13.11c0 .5.304 1 .81 1.3.406.2 1.114.3 1.722-.2l8.81-6.604c.405-.3.608-.7.608-1.101 0-.4-.203-.8-.608-1.101l-8.81-6.505c-.304-.2-.608-.3-1.013-.3"/></svg>