<svg xmlns="http://www.w3.org/2000/svg" fill="none" viewBox="0 0 24 25"><path fill="#000" d="m22.1 5.234-4.8-3.492c-.7-.5-1.6-.599-2.3-.2-.8.4-1.2 1.098-1.2 1.996v.499h-2.1c-5.4-.1-9.7 4.29-9.7 9.58V21.5c0 .998.8 1.796 1.8 1.796h2.4c1 0 1.8-.798 1.8-1.796v-7.883c0-2.096 1.7-3.693 3.7-3.693h2.2v.6c0 .798.5 1.596 1.2 1.995.3.2.7.2 1 .2.5 0 .9-.1 1.3-.4l4.8-3.492c.5-.5.8-1.098.8-1.796 0-.699-.3-1.397-.9-1.797M20.9 7.13l-4.8 3.493c-.1.1-.1.1-.2 0-.1 0-.1-.1-.1-.2V8.927c0-.6-.4-.998-1-.998h-3.1c-3.2 0-5.7 2.594-5.7 5.688V21.3H4v-7.683c0-4.191 3.4-7.684 7.7-7.684h3.2c.6 0 1-.4 1-.998V3.438c0-.1 0-.1.1-.2h.2L21 6.732v.3c0 .1 0 .1-.1.1"/></svg>