<svg xmlns="http://www.w3.org/2000/svg" fill="none" viewBox="0 0 24 25"><path fill="#000" d="m22.903 8.8-2.161-6.287c-.197-.699-.786-1.098-1.474-1.198s-1.375.2-1.768.798l-.59.899a9.75 9.75 0 0 0-4.715-1.198c-4.028 0-7.564 2.495-9.136 6.288-.098.3-.098.699.196.998.197.3.59.5.983.5h2.849q1.03 0 1.473-.6c.786-1.197 2.162-1.996 3.635-1.996.59 0 1.179.1 1.67.3L13.178 8.4c-.394.6-.394 1.298-.099 1.897s.983.998 1.572.998l6.484-.1c.295 0 .59-.1.786-.2.884-.299 1.277-1.297.982-2.195m-2.208 5.278h-2.99q-1.083 0-1.547.594c-.928 1.188-2.372 1.881-3.919 1.881-.618 0-1.237-.099-1.753-.297l.722-1.089c.413-.594.413-1.287.103-1.88-.31-.595-1.03-.991-1.65-.991l-6.805.099c-.31 0-.619.099-.825.198-.825.396-1.238 1.386-.928 2.277l2.268 6.238c.207.693.825 1.089 1.547 1.188h.31c.618 0 1.237-.297 1.546-.792l.619-.891a10.7 10.7 0 0 0 4.95 1.188c4.227 0 7.94-2.475 9.59-6.238.102-.396.102-.792-.104-1.089-.412-.297-.722-.396-1.134-.396"/></svg>