<svg xmlns="http://www.w3.org/2000/svg" fill="none" viewBox="0 0 24 25"><path fill="#000" d="M12.215 21.296c-.519 0-.934-.1-1.452-.3-1.14-.5-1.763-1.6-1.763-2.799V6.401c0-1.2.726-2.2 1.867-2.8 1.14-.5 2.489-.4 3.422.4l7.57 5.899c.726.6 1.141 1.4 1.141 2.399 0 .9-.415 1.8-1.14 2.399l-7.571 5.898c-.622.5-1.348.7-2.074.7m-.519-15.895c-.207.1-.622.4-.622 1v11.896c0 .6.415.9.622 1 .415.2.934.1 1.245-.1l7.57-5.898c.311-.2.415-.5.415-.8s-.104-.6-.415-.8l-7.57-5.898c-.415-.5-.934-.5-1.245-.4M6 18.296c-.6 0-1-.4-1-1v-10c0-.6.4-1 1-1s1 .4 1 1v10c0 .6-.4 1-1 1m-4-2c-.6 0-1-.4-1-1v-6c0-.6.4-1 1-1s1 .4 1 1v6c0 .6-.4 1-1 1"/></svg>