<svg xmlns="http://www.w3.org/2000/svg" fill="none" viewBox="0 0 24 25"><path fill="#000" d="M15.5 11.696h3.9c1 0 1.9-.6 2.3-1.6s.2-2-.5-2.7l-1.5-1.5 1.9-1.9c.4-.4.4-1 0-1.4s-1-.4-1.4 0l-2.6 2.6c-.2.2-.3.5-.3.7 0 .3.1.5.3.7l2.2 2.2c.3.2.2.5.2.5 0 .1-.2.3-.5.3h-3.9c-.5 0-.9-.4-.9-.9v-3.9c0-.3.2-.4.3-.5.1 0 .3-.1.6.1.4.4 1 .4 1.4 0s.4-1 0-1.4c-.7-.7-1.8-.9-2.7-.5s-1.6 1.3-1.6 2.3v3.9c-.1 1.7 1.2 3 2.8 3m-5.7-9.2c-.9-.4-2-.2-2.7.5l-1.5 1.5-1.9-1.9c-.4-.4-1-.4-1.4 0s-.4 1 0 1.4l2.6 2.6c.2.2.5.3.7.3s.5-.1.7-.3l2.2-2.2c.2-.2.4-.1.5-.1s.3.2.3.5v3.9c.1.6-.3 1-.8 1h-4c-.3 0-.4-.3-.5-.4 0-.1-.1-.3.1-.6.4-.4.4-1 0-1.4s-1-.4-1.4 0c-.7.8-.9 1.9-.5 2.8s1.3 1.6 2.3 1.6h3.9c1.6 0 2.9-1.3 2.9-2.9v-4c.1-1-.5-1.9-1.5-2.3m9.3 15.5c-.4-.4-1-.4-1.4 0l-2.2 2.2c-.2.2-.4.1-.5.1s-.3-.2-.3-.5v-3.9c0-.5.4-.9.9-.9h3.9c.3 0 .4.2.5.3 0 .1.1.3-.1.6-.4.4-.4 1 0 1.4s1 .4 1.4 0c.7-.7.9-1.8.5-2.7s-1.3-1.6-2.3-1.6h-3.9c-1.6 0-2.9 1.3-2.9 2.9v3.9c0 1 .6 1.9 1.6 2.3.3.1.6.2 1 .2.7 0 1.3-.3 1.8-.7l1.5-1.5 1.9 1.9c.2.2.5.3.7.3s.5-.1.7-.3c.4-.4.4-1 0-1.4zm-10.6-5.1h-4c-1 0-1.9.6-2.3 1.6-.4.9-.2 2 .5 2.7l1.5 1.5-1.9 1.9c-.4.4-.4 1 0 1.4.2.2.4.3.7.3s.5-.1.7-.3l2.6-2.6c.4-.4.4-1 0-1.4l-2.2-2.2c-.2-.2-.1-.4-.1-.5s.2-.3.5-.3h3.9c.5 0 .9.4.9.9v3.9c0 .3-.2.4-.3.5-.1 0-.3.1-.6-.1-.4-.4-1-.4-1.4 0s-.4 1 0 1.4c.6.4 1.2.7 1.8.7.3 0 .7-.1 1-.2.9-.4 1.6-1.3 1.6-2.3v-3.9c0-1.7-1.3-3-2.9-3"/></svg>