<svg xmlns="http://www.w3.org/2000/svg" fill="none" viewBox="0 0 24 25"><path fill="#000" d="m22.872 9.62-2.078-5.83c-.283-.74-.944-1.387-1.794-1.48s-1.7.278-2.172.925l-.378.463a10.1 10.1 0 0 0-4.44-1.018C6.439 2.773 2 7.121 2 12.488s4.439 9.808 10.011 9.808c4.439 0 8.405-2.96 9.633-7.125.095-.462-.189-1.017-.66-1.11-.473-.092-1.04.185-1.134.648-.945 3.423-4.156 5.736-7.839 5.736-4.439 0-8.122-3.516-8.122-7.957 0-4.349 3.683-7.957 8.122-7.957q2.267 0 4.25 1.11c.378.278.944.185 1.228-.278l.85-1.202h.283c.094 0 .283.092.283.277l2.078 5.83c.095.184 0 .37-.189.462H20.7l-6.328.093c-.189 0-.283-.093-.283-.186 0-.092-.095-.184 0-.37l1.039-1.48c.094-.185.188-.463.094-.74-.094-.278-.189-.463-.472-.648-.85-.463-1.795-.648-2.739-.648-3.211 0-5.855 2.591-5.855 5.737s2.644 5.737 5.855 5.737c2.078 0 4.061-1.11 5.1-2.869.283-.462.094-1.017-.378-1.295-.472-.277-1.039-.092-1.322.37-.756 1.203-1.983 1.943-3.495 1.943-2.172 0-3.966-1.758-3.966-3.886s1.794-3.886 3.966-3.886c.284 0 .567 0 .85.092l-.283.463a2.26 2.26 0 0 0-.189 2.313c.378.74 1.228 1.203 1.984 1.203l6.327-.092c.378 0 .756-.093 1.04-.278 1.133-.463 1.605-1.573 1.227-2.683"/></svg>