<svg xmlns="http://www.w3.org/2000/svg" fill="none" viewBox="0 0 24 25"><path fill="#000" d="M12.2 22.296c-.4 0-.9-.1-1.3-.3-1.2-.501-1.9-1.703-1.9-3.004v-1.803H3.8c-1.6 0-2.8-1.302-2.8-2.904V10.38c0-1.603 1.3-2.904 2.8-2.904H9V5.573c0-1.302.7-2.503 1.9-3.004 1.1-.5 2.4-.3 3.4.5l7.6 6.71c.7.6 1.1 1.502 1.1 2.503s-.4 1.903-1.1 2.504l-7.6 6.709c-.6.5-1.4.801-2.1.801M3.8 9.478c-.4 0-.8.401-.8.902v3.805c0 .5.4.901.8.901H10c.6 0 1 .4 1 1.001v2.804c0 .701.4 1.102.8 1.202.2.1.7.2 1.2-.2l7.6-6.71c.3-.3.5-.6.5-1 0-.401-.2-.802-.5-1.002L13 4.47c-.5-.4-1-.3-1.2-.2-.4.3-.8.701-.8 1.302v2.804c0 .6-.4 1.001-1 1.001H3.8z"/></svg>