<svg xmlns="http://www.w3.org/2000/svg" fill="none" viewBox="0 0 24 25"><path fill="#000" d="M13.9 22.296h-3.3c-.9 0-1.6-.5-2-1.2-.4-.8-.3-1.7.2-2.4l1.5-2.1H4.6c-1.5 0-2.6-1.2-2.6-2.6v-3.3c0-1.5 1.2-2.6 2.6-2.6h5.5l-1.4-2.2c-.5-.7-.6-1.6-.2-2.4.4-.7 1.2-1.2 2.1-1.2H14c1.1 0 2.2.5 2.8 1.5l4.6 6.5c.8 1.2.8 2.8 0 4l-4.6 6.5c-.7 1-1.7 1.5-2.9 1.5m-9.3-12.3c-.3 0-.6.3-.6.7v3.3c0 .3.3.6.6.6H12c.4 0 .7.2.9.5s.1.7-.1 1l-2.6 3.7c-.1.1-.1.3 0 .3 0 .1.1.2.3.2h3.4q.75 0 1.2-.6l4.6-6.5c.4-.5.4-1.2 0-1.7l-4.6-6.5c-.2-.5-.7-.7-1.2-.7h-3.3c-.2 0-.3.1-.3.2s-.1.2 0 .3l2.6 3.7c.2.3.2.7.1 1-.2.3-.5.5-.9.5z"/></svg>