<svg xmlns="http://www.w3.org/2000/svg" fill="none" viewBox="0 0 24 25"><path fill="#000" d="M20.824 3.363c-1.303-1.303-3.508-1.504-6.113-.601-.902.3-1.804.802-2.706 1.303C8.397 1.96 4.99 1.559 3.186 3.363c-1.904 1.804-1.403 5.212.702 8.821-2.205 3.709-2.506 7.117-.702 8.821.702.802 1.804 1.203 3.107 1.203 1.703 0 3.708-.702 5.712-1.904 2.004 1.202 4.009 1.904 5.712 1.904 1.303 0 2.305-.4 3.107-1.103 1.804-1.804 1.403-5.212-.701-8.82 2.204-3.81 2.505-7.218.701-8.922m-5.512 1.303c1.904-.702 3.307-.601 4.109.1.902.903.702 3.108-.501 5.514-.702-.903-1.403-1.805-2.305-2.707s-1.804-1.604-2.706-2.305c.501-.2 1.002-.502 1.403-.602M4.59 19.602c-.902-.902-.702-3.108.501-5.513.702.902 1.403 1.804 2.305 2.706S9.2 18.5 10.101 19.101c-2.506 1.303-4.61 1.403-5.512.5m14.832 0c-.902.902-3.006.701-5.612-.501.902-.702 1.804-1.504 2.706-2.306.4-.4.802-.802 1.102-1.203.401-.4.3-1.002-.1-1.403s-1.002-.3-1.403.1c-.3.401-.702.702-1.002 1.103a24 24 0 0 1-3.107 2.606 24 24 0 0 1-3.107-2.606C4.488 10.982 3.086 6.27 4.59 4.766c.3-.4.902-.601 1.704-.601 1.002 0 2.405.4 3.808 1.103-.902.701-1.804 1.503-2.706 2.305-.4.501-.902 1.002-1.303 1.504-.4.4-.3 1.002.1 1.403.401.401 1.103.3 1.404-.1.4-.501.801-.902 1.202-1.303a24 24 0 0 1 3.107-2.607c1.002.702 2.104 1.604 3.207 2.607 4.41 4.31 5.812 9.021 4.309 10.525"/><path fill="#000" d="M12 13.808a1.6 1.6 0 1 0 0-3.2 1.6 1.6 0 0 0 0 3.2"/></svg>