<svg xmlns="http://www.w3.org/2000/svg" fill="none" viewBox="0 0 24 25"><path fill="#000" d="M6.524 6.696C7.617 5.623 8.808 4.647 10 3.769 8.113 2.696 6.326 2.208 4.936 2.208c-.993 0-1.688.293-2.185.78-1.192 1.171-.993 3.903.794 7.22a16.6 16.6 0 0 1 2.98-3.512m13.932 7.512a47 47 0 0 1-2.935 3.522c-1.076 1.076-2.25 2.152-3.522 2.935.685.391 1.467.685 2.152.978 2.348.783 4.11.783 5.088-.195.978-.979.978-2.837.195-5.088-.195-.782-.587-1.467-.978-2.152m-16.914 0c-.391.685-.685 1.467-.978 2.152-.783 2.25-.783 4.11.195 5.088.88.978 2.837.978 5.088.195.684-.293 1.37-.587 2.152-.978a47 47 0 0 1-3.522-2.935 47 47 0 0 1-2.935-3.522m15.457-2c-.863-1.342-1.918-2.589-3.164-3.836S13.246 6.071 12 5.208c-1.342.863-2.589 1.918-3.836 3.164S5.863 10.866 5 12.208c.863 1.247 1.918 2.589 3.164 3.836s2.494 2.301 3.836 3.164c1.342-.863 2.589-1.918 3.836-3.164S18.137 13.55 19 12.208m-7 1.63c-.863 0-1.63-.767-1.63-1.63s.767-1.63 1.63-1.63 1.63.767 1.63 1.63-.767 1.63-1.63 1.63m8.438-3.63c.396-.691.693-1.481.99-2.173.793-2.271.793-4.148-.198-5.136-.495-.395-1.287-.691-2.179-.691s-1.782.198-2.872.593c-.693.296-1.387.592-2.179.987a47 47 0 0 1 3.566 2.963 23 23 0 0 1 2.872 3.457"/></svg>