<svg xmlns="http://www.w3.org/2000/svg" fill="none" viewBox="0 0 24 25"><path fill="#000" d="M22 5.708c0-2-1.5-3.5-3.5-3.5h-13c-2 0-3.5 1.5-3.5 3.5v4.1c0 3.3 2.7 5.9 5.9 5.9h8.2c.8 0 1.6-.2 2.3-.5v3.5c0 .8-.7 1.5-1.5 1.5H7.1c-.8 0-1.5-.7-1.5-1.5v-1.6c0-.6-.4-1-1-1s-1 .4-1 1v1.6c0 1.9 1.5 3.5 3.5 3.5h9.8c1.9 0 3.5-1.5 3.5-3.5v-4.9c1-1.1 1.6-2.5 1.6-4.1zm-14.1 8c-2.1 0-3.9-1.8-3.9-4v-4c0-.8.7-1.5 1.5-1.5h13.1c.7 0 1.4.7 1.4 1.5v4.1c0 2.2-1.8 3.9-3.9 3.9z"/><path fill="#000" d="M14.5 10.408h-5c-.6 0-1 .4-1 1s.4 1 1 1h4.9c.6 0 1-.4 1-1s-.4-1-.9-1"/></svg>