<svg xmlns="http://www.w3.org/2000/svg" fill="none" viewBox="0 0 24 24"><path fill="#000" fill-rule="evenodd" d="M8 3c-1.064 0-2 .876-2 2.017v11.966C6 18.067 6.879 19 8 19h8c1.043 0 2-.854 2-2.117V5.017C18 3.933 17.121 3 16 3zM4 5.017C4 2.739 5.864 1 8 1h8c2.279 0 4 1.883 4 4.017v11.866C20 19.24 18.157 21 16 21H8c-2.279 0-4-1.883-4-4.017z" clip-rule="evenodd"/><path fill="#000" fill-rule="evenodd" d="M9 19a1 1 0 0 1 1 1v2a1 1 0 1 1-2 0v-2a1 1 0 0 1 1-1m6 0a1 1 0 0 1 1 1v2a1 1 0 1 1-2 0v-2a1 1 0 0 1 1-1M9.9 6.1a1 1 0 0 1 1 1v7.7a1 1 0 1 1-2 0V7.1a1 1 0 0 1 1-1m4.2 0a1 1 0 0 1 1 1v7.7a1 1 0 1 1-2 0V7.1a1 1 0 0 1 1-1" clip-rule="evenodd"/></svg>