<svg xmlns="http://www.w3.org/2000/svg" fill="none" viewBox="0 0 24 24"><path fill="#000" d="M22.2 5.2c-.5-.6-1.2-1-2-1H8.4c-.6 0-1 .4-1 1s.4 1 1 1h11.7c.2 0 .4.1.4.2.1.2.2.4.1.6l-1.4 6.1c-.2 1-1.1 1.7-2.1 1.7h-6.4c-1 0-1.8-.6-2.1-1.6l-.8-2.5-2.1-6.9C5.2 2.1 3.7 1 2 1c-.6 0-1 .4-1 1s.4 1 1 1c.8 0 1.6.6 1.8 1.4l.7 2.3 2.2 7.1c.5 1.8 2.1 3 4 3h6.6c2 0 3.6-1.4 4.1-3.3l1.4-6.1c.1-.7-.1-1.5-.6-2.2M9.9 17.8c-1.4 0-2.6 1.2-2.6 2.6S8.5 23 9.9 23s2.6-1.2 2.6-2.6-1.2-2.6-2.6-2.6m0 3.2c-.3 0-.6-.3-.6-.6s.3-.6.6-.6.6.3.6.6-.3.6-.6.6m7.9-3.2c-1.4 0-2.6 1.2-2.6 2.6s1.2 2.6 2.6 2.6 2.6-1.2 2.6-2.6-1.2-2.6-2.6-2.6m0 3.2c-.3 0-.6-.3-.6-.6s.3-.6.6-.6.6.3.6.6-.3.6-.6.6"/></svg>