<svg xmlns="http://www.w3.org/2000/svg" fill="none" viewBox="0 0 24 25"><path fill="#000" d="M17.854 11.796q.147-.15 0 0c1.075-1.1 1.662-2.5 1.662-4 0-3-2.444-5.5-5.375-5.5H3.977c-.586 0-.977.4-.977 1s.39 1 .977 1h.587v16h-.587c-.586 0-.977.4-.977 1s.39 1 .977 1h11.63a5.33 5.33 0 0 0 3.81-1.6c.978-1 1.564-2.4 1.564-3.9.196-2.3-1.172-4.2-3.127-5m-.293-4c0 .9-.39 1.8-.977 2.5-.684.7-1.466 1-2.443 1h-4.007v-7h4.007c1.954 0 3.42 1.6 3.42 3.5m.586 11.5c-.684.7-1.465 1-2.443 1h-5.57v-7h5.57c1.857 0 3.42 1.6 3.42 3.5.098.9-.293 1.8-.977 2.5"/></svg>