<svg xmlns="http://www.w3.org/2000/svg" fill="none" viewBox="0 0 24 25"><path fill="#000" d="M23 12.408c0-2.2-1.2-4.2-3-5.2v-.5c0-2.5-2-4.5-4.5-4.5-1.4 0-2.7.7-3.5 1.7-.8-1-2.1-1.7-3.5-1.7-2.5 0-4.5 2-4.5 4.5v.5c-1.8 1-3 3-3 5.2s1.2 4.2 3 5.2v.5c0 2.5 2 4.5 4.5 4.5 1.4 0 2.7-.7 3.5-1.7.8 1 2.1 1.7 3.5 1.7 2.5 0 4.5-2 4.5-4.5v-.5c1.8-1.1 3-3 3-5.2m-4.5 3.7c-.5.2-.7.7-.6 1.2.1.2.1.5.1.7 0 1.4-1.1 2.5-2.5 2.5-1.3 0-2.4-1-2.5-2.4 0-.1 0-.1-.1-.2v-.1c0-.1-.1-.2-.1-.2s0-.1-.1-.1l-.2-.2s-.1 0-.1-.1c-.1 0-.2 0-.2-.1H12c-.1 0-.1 0-.2.1-.1 0-.1.1-.2.1s-.1.1-.2.1l-.1.1c0 .1-.1.1-.1.2v.1c0 .1-.1.1-.1.2-.1 1.3-1.2 2.4-2.5 2.4-1.4 0-2.5-1.1-2.5-2.5 0-.3 0-.5.1-.7.2-.5-.1-1-.6-1.2-1.6-.5-2.6-2-2.6-3.6s1-3.1 2.5-3.7c.5-.2.8-.8.6-1.3-.1-.2-.1-.4-.1-.7 0-1.4 1.1-2.5 2.5-2.5s2.5 1.1 2.5 2.5v8.2c0 .6.4 1 1 1s1-.4 1-1v-8.2c0-1.4 1.1-2.5 2.5-2.5s2.5 1.1 2.5 2.5c0 .3 0 .5-.1.7-.2.5.1 1 .6 1.2 1.5.7 2.5 2.1 2.5 3.8 0 1.6-1 3.1-2.5 3.7"/></svg>