<svg xmlns="http://www.w3.org/2000/svg" fill="none" viewBox="0 0 24 25"><path fill="#000" d="M15.667 13.529h4.52A2.81 2.81 0 0 0 23 10.715v-2.11a2.81 2.81 0 0 0-2.813-2.813h-4.52a2.81 2.81 0 0 0-2.813 2.813H3.009V2.981c0-.603-.402-1.005-1.004-1.005C1.402 1.976 1 2.378 1 2.981v14.465a3.71 3.71 0 0 0 3.717 3.717h8.137a2.81 2.81 0 0 0 2.813 2.813h4.52A2.81 2.81 0 0 0 23 21.163v-2.11a2.81 2.81 0 0 0-2.813-2.812h-4.52a2.81 2.81 0 0 0-2.813 2.813H4.717a1.693 1.693 0 0 1-1.708-1.708v-6.73h9.845c0 1.607 1.306 2.912 2.813 2.912m-.804 5.625c0-.502.402-.804.804-.804h4.52c.502 0 .804.402.804.804v2.11a.79.79 0 0 1-.804.803h-4.52a.79.79 0 0 1-.804-.803zm0-10.548c0-.502.402-.803.804-.803h4.52c.502 0 .804.401.804.803v2.11a.79.79 0 0 1-.804.803h-4.52a.79.79 0 0 1-.804-.803z"/></svg>