<svg xmlns="http://www.w3.org/2000/svg" fill="none" viewBox="0 0 24 25"><path fill="#000" d="M22.4 2.468c-.8-.7-1.9-.7-2.9.1-3.2 2.5-6.3 5.8-9.4 9.8.3.1.6.2.9.4s.6.3.9.5c.3.3.6.5.9.9.2.3.4.5.6.8 0 0 0 .1.1.1.2.3.3.5.4.8q5.25-4.95 8.7-10.5c.6-1 .5-2.2-.2-2.9m-10.5 13.9c0-.1-.1-.2-.1-.3-.1-.2-.3-.4-.4-.6-.2-.2-.4-.4-.7-.6s-.6-.4-.9-.5-.7-.2-1-.3h-.6c-.8 0-1.5.2-2.2.6-.5.3-.9.8-1.3 1.3v.1c-.7 1-.8 1.9-1 2.8-.2 1.3-.3 2.1-2.2 2.8-.3.1-.5.4-.5.8s.2.7.5.8c1.1.4 2.3.7 3.5.7 2.9 0 5.8-1.3 7-3.8.4-.9.5-1.8.3-2.8-.1-.3-.2-.7-.4-1"/></svg>