<svg xmlns="http://www.w3.org/2000/svg" fill="none" viewBox="0 0 24 25"><path fill="#000" d="M22.4 2.468c-.7-.7-1.9-.7-2.9 0-3.6 2.9-7.1 6.7-10.5 11.5-1-.2-2.1 0-3 .6-.5.3-1 .8-1.3 1.3l-.1.1c-.7 1-.9 2-1 2.8-.2 1.3-.3 2-2 2.7-.3.1-.6.5-.6.9s.2.8.6.9c1.2.5 2.4.7 3.6.7 3.1 0 6-1.5 7.1-3.9.6-1.3.5-2.9-.3-4.1-.3-.5-.7-.9-1.1-1.2 3.2-4.4 6.5-8 9.8-10.6.2-.1.3-.2.3-.2s0 .2-.1.4c-2.1 3.4-4.9 6.8-8.2 10-.4.4-.4 1 0 1.4s1 .4 1.4 0c3.5-3.3 6.3-6.8 8.5-10.4.2-.4.4-.9.4-1.4q0-.9-.6-1.5m-12 16.8c-.8 1.9-3.4 2.9-5.9 2.7.8-.9 1-2 1.2-2.9.1-.7.2-1.3.6-1.9.1-.1.1-.1.1-.2.2-.3.5-.6.8-.8.5-.3 1.1-.4 1.7-.3.5.2 1.1.6 1.4 1.1.4.7.5 1.6.1 2.3"/></svg>