<svg xmlns="http://www.w3.org/2000/svg" fill="none" viewBox="0 0 24 24"><path fill="#000" d="M18.418 4.6h-1.493V4c0-.6-.398-1-.995-1s-.995.4-.995 1v.6h-3.78c-.598 0-.996.4-.996 1s.398 1 .995 1h3.88v.6c0 .6.399 1 .996 1s.995-.4.995-1v-.6h1.492c.697 0 1.393.6 1.393 1.4v1.4H3.99V8c0-.8.697-1.4 1.493-1.4h1.492v.6c0 .6.398 1 .995 1s.995-.4.995-1V4c0-.6-.398-1-.995-1s-.995.4-.995 1v.6H5.483C3.493 4.6 2 6.1 2 8v9.6C2 19.5 3.493 21 5.483 21h13.034C20.408 21 22 19.5 22 17.6V8c-.1-1.9-1.592-3.4-3.582-3.4m0 14.4H5.483c-.796 0-1.493-.6-1.493-1.4v-6.2h15.92v6.2c0 .8-.696 1.4-1.492 1.4"/></svg>