<svg xmlns="http://www.w3.org/2000/svg" fill="none" viewBox="0 0 24 25"><path fill="#000" d="M18.5 21.012h-13c-1.9 0-3.5-1.5-3.5-3.5v-7.3c0-1.9 1.5-3.4 3.5-3.4h1.2l.9-1.2c.6-.8 1.6-1.3 2.6-1.3h3.5c1.1 0 2 .5 2.7 1.3l.9 1.2h1.2c2 0 3.5 1.5 3.5 3.4v7.4c0 1.9-1.5 3.4-3.5 3.4m-13-12.2c-.8 0-1.5.6-1.5 1.4v7.4c0 .8.7 1.5 1.5 1.5h13.1c.8 0 1.5-.7 1.5-1.5v-7.4c0-.8-.7-1.5-1.5-1.5H17c-.3 0-.6-.1-.8-.4l-1.2-1.5c-.4-.3-.8-.5-1.2-.5h-3.6c-.4 0-.8.2-1.1.5l-1.2 1.6c-.2.2-.5.4-.8.4z"/><path fill="#000" d="M12 17.812c-2.4 0-4.3-1.9-4.3-4.3s1.9-4.3 4.3-4.3 4.3 1.9 4.3 4.3c0 2.3-1.9 4.3-4.3 4.3m0-6.6c-1.3 0-2.3 1-2.3 2.3s1 2.3 2.3 2.3 2.3-1 2.3-2.3-1-2.3-2.3-2.3"/></svg>