<svg xmlns="http://www.w3.org/2000/svg" fill="none" viewBox="0 0 24 25"><path fill="#000" d="m12.863 5.988-1.624-1.6c-.711-.7-1.625-1.1-2.538-1.1H4.74c-1.522 0-2.74 1.2-2.74 2.7v12.5c0 1.6 1.218 2.8 2.741 2.8H19.26c1.523 0 2.741-1.2 2.741-2.7v-9.8c0-1.5-1.218-2.7-2.741-2.7h-6.396z"/><path fill="#fff" d="M11.8 9.988c-2.2 0-4.1 1.8-4.1 4.1 0 2.2 1.8 4.1 4.1 4.1 2.2 0 4.1-1.8 4.1-4.1s-1.8-4.1-4.1-4.1m0 1.6c.3 0 .6.1.8.2l-2.8 3.5c-.2-.4-.4-.8-.4-1.3 0-1.3 1.1-2.4 2.4-2.4m0 4.9c-.3 0-.6-.1-.8-.2l2.9-3.6c.2.4.4.8.4 1.3 0 1.4-1.1 2.5-2.5 2.5"/></svg>