<svg xmlns="http://www.w3.org/2000/svg" fill="none" viewBox="0 0 24 25"><path fill="#000" d="m18.872 7.488-4.103-4.1a3.3 3.3 0 0 0-2.461-1.1H6.667C5.23 2.288 4 3.488 4 4.988v14.7c0 1.4 1.23 2.6 2.667 2.6h10.666c1.436 0 2.667-1.2 2.667-2.7v-9.6c0-1-.41-1.9-1.128-2.5"/><path fill="#fff" d="M11.8 11.488c-2.1 0-3.8 1.7-3.8 3.8s1.7 3.8 3.8 3.8 3.8-1.7 3.8-3.8-1.7-3.8-3.8-3.8m0 1.6c.2 0 .4 0 .6.1l-2.5 3.2c-.2-.3-.3-.7-.3-1.1 0-1.2 1-2.2 2.2-2.2m0 4.4c-.2 0-.4 0-.6-.1l2.5-3.2c.2.3.3.7.3 1.1 0 1.2-1 2.2-2.2 2.2"/></svg>