<svg xmlns="http://www.w3.org/2000/svg" fill="none" viewBox="0 0 24 25"><path fill="#000" d="M18.156 15.776h.404c2.523-.2 4.44-2.2 4.44-4.7 0-2.6-2.12-4.8-4.844-4.8h-.505c-1.11-2-3.229-3.3-5.651-3.3-2.321 0-4.541 1.3-5.651 3.3h-.505C3.119 6.176 1 8.376 1 10.976c0 2.5 2.018 4.6 4.44 4.7h1.918v3.4H4.734c-.606 0-1.01.4-1.01 1s.404 1 1.01 1h3.633c.605 0 1.01-.4 1.01-1v-5.4c0-.6-.405-1-1.01-1H5.844c-1.615.1-2.826-1.1-2.826-2.7 0-1.5 1.211-2.8 2.826-2.8.303 0 .606 0 .807.1.505.2 1.01-.1 1.211-.6A4.55 4.55 0 0 1 12 4.976c1.816 0 3.431 1.1 4.138 2.8.201.5.706.7 1.21.6.303-.1.505-.1.808-.1 1.514 0 2.826 1.2 2.826 2.8 0 1.5-1.211 2.8-2.826 2.8H12c-.605 0-1.01.4-1.01 1v7.1c0 .6.405 1 1.01 1s1.01-.4 1.01-1v-6.2h1.614v4.4c0 .6.403 1 1.009 1h3.633c.606 0 1.01-.4 1.01-1s-.404-1-1.01-1h-2.624v-3.4z"/></svg>