<svg xmlns="http://www.w3.org/2000/svg" fill="none" viewBox="0 0 24 24"><path fill="#000" d="M12 2C6.5 2 2 6.5 2 12s4.5 10 10 10 10-4.5 10-10S17.5 2 12 2m0 18c-4.4 0-8-3.6-8-8s3.6-8 8-8 8 3.6 8 8-3.6 8-8 8"/><path fill="#000" d="M13.3 11h-2.6c-.5 0-.9-.4-.9-.9s.4-.9.9-.9h3.7c.6 0 1-.4 1-1s-.4-1-1-1H13v-.9c0-.6-.4-1-1-1s-1 .4-1 1v.9h-.3c-1.6 0-2.9 1.3-2.9 2.9S9.1 13 10.7 13h2.5c.5 0 .9.4.9.9s-.4.9-.9.9H9.5c-.6 0-1 .4-1 1s.4 1 1 1H11v.9c0 .6.4 1 1 1s1-.4 1-1v-.9h.3c1.6 0 2.9-1.3 2.9-2.9S14.9 11 13.3 11"/></svg>