<svg xmlns="http://www.w3.org/2000/svg" fill="none" viewBox="0 0 24 24"><path fill="#000" d="M12.4 9.9c4.1 0 7.4-2 7.4-4.5S16.5 1 12.4 1C8.2 1 5 3 5 5.5s3.2 4.4 7.4 4.4m0-6.9c3.1 0 5.4 1.3 5.4 2.5S15.5 8 12.4 8C9.3 7.9 7 6.6 7 5.5S9.3 3 12.4 3"/><path fill="#000" d="M18.9 9.7c-.5-.3-1.1-.1-1.4.3-.5 1-2.5 1.9-5.1 1.9-2.7 0-4.6-.9-5.2-1.9-.3-.4-.9-.6-1.4-.3s-.6.9-.3 1.4c1.1 1.7 3.8 2.8 6.9 2.8s5.8-1.1 6.9-2.8c.2-.5.1-1.1-.4-1.4m0 4.5c-.5-.3-1.1-.1-1.4.3-.6.9-2.5 1.9-5.2 1.9-2.6 0-4.6-.9-5.2-1.9-.3-.5-.9-.6-1.4-.3s-.6.9-.3 1.4c1.1 1.7 3.8 2.8 6.9 2.8s5.8-1.1 6.9-2.8c.3-.5.2-1.1-.3-1.4m0 4.6c-.5-.3-1.1-.1-1.4.3-.5 1-2.5 1.9-5.1 1.9s-4.6-.9-5.2-1.9c-.3-.5-.9-.6-1.4-.3s-.6.9-.3 1.4c1 1.7 3.7 2.8 6.9 2.8 3.1 0 5.8-1.1 6.9-2.8.2-.5.1-1.1-.4-1.4"/></svg>