<svg xmlns="http://www.w3.org/2000/svg" fill="none" viewBox="0 0 24 24"><path fill="#000" d="M12 20.8c-2.9 0-5.4-.9-7-2.4v.2c0 2.5 3.1 4.4 7 4.4s7-1.9 7-4.4v-.2c-1.6 1.5-4.1 2.4-7 2.4"/><path fill="#000" d="M18.5 14.3c-.2.2-.5.4-.8.5-.3.2-.6.3-1 .5-1.3.6-3 .9-4.7.9s-3.4-.3-4.7-.9c-.3-.1-.7-.3-1-.5s-.5-.3-.8-.5c-.2-.1-.3-.2-.5-.4v.9c0 .4.1.7.2 1s.3.6.5.8C6.9 18 9.2 19 12 19s5.1-1 6.3-2.4c.2-.3.4-.5.5-.8.2-.3.2-.7.2-1v-.2c0-.2 0-.4-.1-.7z"/><path fill="#000" d="M18 10c-.3.2-.6.4-.9.5-.3.2-.7.3-1.1.5-1.2.4-2.6.7-4.1.7s-2.8-.3-4-.7c-.4-.2-.7-.3-1.1-.5-.3-.1-.6-.3-.8-.5-.4-.2-.7-.4-.9-.7-.1.3-.1.5-.1.7s0 .4.1.7.2.6.4.9c.1.3.3.5.5.7.4.4.8.7 1.3 1 .4.2.7.4 1.2.5.6.2 1.3.4 2 .5.5.1 1 .1 1.5.1s1 0 1.5-.1c.7-.1 1.4-.3 2-.5.4-.1.8-.3 1.2-.5.5-.3.9-.6 1.3-1 .2-.2.4-.5.5-.7.2-.3.3-.6.4-.9s.1-.5.1-.7 0-.4-.1-.7c-.2.3-.5.5-.9.7"/><path fill="#000" d="M5.4 7c.2.2.4.5.6.7.5.5 1.1 1 1.9 1.3.5.2 1 .4 1.5.5.8.2 1.7.3 2.6.3s1.8-.1 2.6-.3c.5-.1 1.1-.3 1.5-.5.8-.3 1.4-.8 1.9-1.3.2-.2.4-.5.5-.7.2-.3.3-.6.4-.9.1-.2.1-.5.1-.7C19 2.9 15.9 1 12 1S5 2.9 5 5.4c0 .2 0 .5.1.7z"/></svg>