<svg xmlns="http://www.w3.org/2000/svg" fill="none" viewBox="0 0 24 24"><path fill="#000" d="M21.63 1.202c-.395-.296-.986-.296-1.38.197L17.387 4.95c-1.578-1.085-3.452-1.677-5.524-1.677C6.44 3.273 2 7.712 2 13.137 2 18.56 6.439 23 11.864 23s9.865-4.439 9.865-9.863c0-1.973-.592-3.748-1.579-5.327l-.69.79-.69.789-5.722 7.2c-.197.197-.493.394-.79.394-.295 0-.492-.098-.69-.296L7.327 12.15c-.296-.296-.296-.789-.198-1.085 0-.098.1-.197.198-.296a.954.954 0 0 1 1.38 0l3.453 3.749 5.426-6.806.592-.79.591-.788 2.861-3.551c.493-.395.493-.987 0-1.381"/></svg>