<svg xmlns="http://www.w3.org/2000/svg" fill="none" viewBox="0 0 24 25"><path fill="#000" d="M16.18 2.208H7.82C6.255 2.208 5 3.42 5 4.834v5.758c0 3.333 2.612 6.161 5.955 6.667v2.929H7.821c-.627 0-1.045.404-1.045 1.01s.418 1.01 1.045 1.01h8.358c.627 0 1.045-.404 1.045-1.01s-.418-1.01-1.045-1.01h-3.134v-2.93C16.388 16.754 19 14.027 19 10.593V4.834c0-1.414-1.254-2.626-2.82-2.626m.73 8.384c0 2.626-2.194 4.747-4.91 4.747s-4.91-2.12-4.91-4.747V4.834c0-.303.313-.606.73-.606h8.36c.313 0 .73.303.73.606zM3 3.208c-.6 0-1 .416-1 1.039v5.922c0 .623.4 1.039 1 1.039s1-.416 1-1.039V4.247c0-.52-.4-1.039-1-1.039m18 0c-.6 0-1 .416-1 1.039v5.922c0 .623.4 1.039 1 1.039s1-.416 1-1.039V4.247c0-.52-.4-1.039-1-1.039"/></svg>