<svg xmlns="http://www.w3.org/2000/svg" fill="none" viewBox="0 0 24 24"><path fill="#000" d="M5 14.3c.2.3.5.4.8.4.2 0 .4-.1.6-.2.4-.3.5-1 .2-1.4-1.8-2.2-2.8-4.4-3.4-5.8-.4-1-.2-2.1.6-2.8L5 3.2c.2-.1.4-.2.7-.2s.5.2.6.4L8.4 7c.2.3.1.7-.1 1l-1 .9c-.3.4-.4.8-.2 1.2s.5.8.8 1.2.9.6 1.4.2c.4-.3.6-.9.2-1.4-.1 0-.2-.2-.2-.3l.4-.4c.8-.9 1-2.3.4-3.4L8 2.4C7.6 1.6 6.8 1.1 5.9 1c-.8-.1-1.7.2-2.3.8L2.4 3C1 4.4.6 6.3 1.3 8 2 9.6 3.1 11.9 5 14.3m17.981 3.8c-.1-.9-.6-1.6-1.399-2.1l-3.597-2.1c-1.099-.6-2.497-.4-3.397.4l-.4.4c-.699-.4-1.398-1-1.998-1.6L22.681 2.7c.4-.4.4-1 0-1.4s-.999-.4-1.399 0l-11.19 11.2-2.897 2.9L1.3 21.3c-.4.4-.4 1 0 1.4.2.2.4.3.7.3s.499-.1.699-.3l5.195-5.2c2.898 2.7 5.895 4.3 8.093 5.1.6.2 1.2.3 1.699.3 1.199 0 2.398-.5 3.297-1.4l1.199-1.2c.6-.5.899-1.4.8-2.2m-2.198.9-1.199 1.2c-.7.7-1.898 1-2.798.6-1.998-.8-4.796-2.3-7.393-4.7l1.499-1.5c.999.9 2.098 1.7 3.097 2.3.4.2.899.2 1.199-.2l.899-.9c.3-.3.7-.3 1-.1l3.596 2.1c.2.1.4.3.4.6z"/></svg>