<svg xmlns="http://www.w3.org/2000/svg" fill="none" viewBox="0 0 24 24"><path fill="#000" d="M9.992 18.084c.502.61 1.205.916 2.008.916s1.506-.305 2.008-.916l5.521-6.719c.502-.61.603-1.527.302-2.24-.302-.712-1.004-1.22-1.808-1.22h-2.309V4.34C15.715 3.018 14.712 2 13.406 2h-2.71c-1.305 0-2.41 1.018-2.41 2.341v3.563h-2.31c-.803.102-1.505.51-1.807 1.222-.3.712-.2 1.629.302 2.24z"/><path fill="#000" d="M20.906 15.1c-.598 0-.996.4-.996 1v2.5c0 .8-.696 1.5-1.492 1.5H5.483c-.796-.1-1.493-.8-1.493-1.6V16c0-.6-.398-1-.995-1S2 15.4 2 16v2.5c0 2 1.493 3.5 3.483 3.5h13.034A3.47 3.47 0 0 0 22 18.5V16c-.1-.5-.497-.9-1.094-.9"/></svg>