<svg xmlns="http://www.w3.org/2000/svg" fill="none" viewBox="0 0 24 25"><path fill="#000" d="m12.863 5.988-1.624-1.6c-.711-.7-1.625-1.1-2.538-1.1H4.74c-1.522 0-2.74 1.2-2.74 2.7v12.5c0 1.6 1.218 2.8 2.741 2.8H19.26c1.523 0 2.741-1.2 2.741-2.7v-9.8c0-1.5-1.218-2.7-2.741-2.7h-6.396z"/><path fill="#fff" d="M15.1 13.888c-.3-.4-1-.5-1.4-.2l-.8.7v-2.8c0-.6-.4-1-1-1s-1 .4-1 1v2.8l-.9-.7c-.4-.3-1-.2-1.4.2-.3.4-.3 1.1.2 1.4l2.5 2 .1.1s.1 0 .1.1c.1.1.3.1.4.1s.3 0 .4-.1l.1-.1h.1l2.5-2c.4-.4.4-1.1.1-1.5"/></svg>