<svg xmlns="http://www.w3.org/2000/svg" fill="none" viewBox="0 0 24 25"><path fill="#000" d="M21.995 20.993h-8.639l8.539-8.198c.703-.691 1.105-1.58 1.105-2.568 0-.987-.402-1.876-1.105-2.568l-3.817-3.654c-1.407-1.383-3.818-1.383-5.224 0L2.105 14.375C1.402 15.067 1 15.955 1 16.943s.402 1.877 1.105 2.568l2.913 2.766c.503.493 1.105.691 1.808.691h15.17c.602 0 1.004-.395 1.004-.988 0-.592-.502-.987-1.005-.987m-15.169 0c-.1 0-.3-.1-.401-.1L3.51 18.129c-.301-.395-.502-.79-.502-1.185s.201-.79.502-1.086L9.64 9.93l4.722 4.543a.92.92 0 0 0 .703.297.92.92 0 0 0 .703-.297.944.944 0 0 0 0-1.383l-4.721-4.543 3.114-3.061c.402-.297.904-.494 1.306-.494s.904.197 1.205.494L20.49 9.14c.301.296.502.691.502 1.086s-.201.79-.502 1.087l-10.046 9.679z"/></svg>