<svg xmlns="http://www.w3.org/2000/svg" fill="none" viewBox="0 0 24 25"><path fill="#000" fill-rule="evenodd" d="M12 4.312a8 8 0 1 0 0 16 8 8 0 0 0 0-16m-10 8c0-5.523 4.477-10 10-10s10 4.477 10 10-4.477 10-10 10-10-4.477-10-10m12.749-2.74-2.914.996c-.836.306-1.372.883-1.567 1.534l-.011.036-.997 2.911 2.905-.993c.836-.306 1.372-.883 1.567-1.534l.016-.049.494-1.383zm1.746-1.857c.42.382.583.947.47 1.509q-.012.06-.032.12l-.797 2.389-.007.02-.49 1.37c-.407 1.325-1.457 2.328-2.8 2.816l-.018.006-3.785 1.294-.08.024a1.58 1.58 0 0 1-1.451-.354c-.42-.381-.583-.947-.47-1.509q.013-.065.034-.128l1.29-3.765c.406-1.328 1.457-2.334 2.802-2.822l.018-.006 3.785-1.294.08-.024a1.58 1.58 0 0 1 1.451.354" clip-rule="evenodd"/></svg>