<svg xmlns="http://www.w3.org/2000/svg" fill="none" viewBox="0 0 24 25"><path fill="#000" fill-rule="evenodd" d="M4.519 4.312c-.263 0-.519.176-.519.613v5.407c0 .675.268 1.371.846 1.949l7.668 7.663c.589.514 1.394.46 1.834.02l5.295-5.291c.51-.582.453-1.355-.036-1.795l-.038-.037-7.689-7.683-.045-.049c-.45-.513-1.108-.797-1.906-.797zM2 4.925c0-1.461 1.073-2.613 2.519-2.613h5.41c1.28 0 2.508.466 3.387 1.453l7.65 7.645c1.382 1.265 1.325 3.312.148 4.619l-.036.038-5.316 5.312c-1.264 1.263-3.295 1.213-4.603.036l-.038-.036-7.689-7.684C2.492 12.755 2 11.555 2 10.332z" clip-rule="evenodd"/><path fill="#000" d="M8.91 9.255a1.427 1.427 0 1 0-2.018-2.017 1.427 1.427 0 0 0 2.017 2.017"/></svg>