<svg xmlns="http://www.w3.org/2000/svg" fill="none" viewBox="0 0 24 24"><path fill="#000" fill-rule="evenodd" d="M5.364 2C3.55 2 2 3.513 2 5.333v2.244c0 1.945 1.574 3.3 3.293 3.42l.07.003h2.273C9.45 11 11 9.487 11 7.667V5.333C11 3.563 9.59 2 7.727 2zm11 0C14.55 2 13 3.513 13 5.333v2.334C13 9.487 14.55 11 16.364 11h2.272C20.45 11 22 9.487 22 7.667V5.333C22 3.563 20.59 2 18.727 2zm-11 11C3.55 13 2 14.512 2 16.333v2.334c0 1.878 1.6 3.211 3.293 3.33l.07.003h2.273C9.45 22 11 20.488 11 18.667v-2.334C11 14.563 9.59 13 7.727 13zm11 0C14.55 13 13 14.512 13 16.333v2.334C13 20.487 14.55 22 16.364 22h2.272C20.45 22 22 20.488 22 18.667v-2.334C22 14.563 20.59 13 18.727 13z" clip-rule="evenodd"/></svg>