<svg xmlns="http://www.w3.org/2000/svg" fill="none" viewBox="0 0 24 25"><path fill="#000" d="M16.5 9.776c0-.1 0-.2-.1-.2-.4-1-1-1.6-1.8-2.1.5-.6.8-1.3.8-2.1 0-1.9-1.5-3.4-3.4-3.4s-3.4 1.5-3.4 3.4c0 .8.3 1.5.8 2.1-.8.5-1.4 1.1-1.8 2.1 0 .1-.1.1-.1.2l-1.5 7.6c-.1.5.2 1.1.8 1.2.5.1 1.1-.2 1.2-.8l1.5-7.4c.5-1.1 1.2-1.5 2.5-1.5s2 .4 2.5 1.5l1.5 7.4c.1.5.5.8 1 .8h.2c.5-.1.9-.6.8-1.2zm-4.5-5.8c.8 0 1.4.6 1.4 1.4s-.6 1.3-1.4 1.3-1.4-.6-1.4-1.4.6-1.3 1.4-1.3"/><path fill="#000" d="M14 18.376c-.6 0-1 .4-1 1v1.8c0 .4-.4.8-1 .8s-1-.4-1-.8v-1.8c0-.6-.4-1-1-1s-1 .4-1 1v1.8c0 1.5 1.3 2.8 3 2.8s3-1.3 3-2.8v-1.8c0-.6-.4-1-1-1"/></svg>