<svg xmlns="http://www.w3.org/2000/svg" fill="none" viewBox="0 0 24 25"><path fill="#000" fill-rule="evenodd" d="M4 5.688c0-1.802 1.404-3.4 3.313-3.4h5.03a4.13 4.13 0 0 1 2.917 1.19l.01.01 3.617 3.696a3.85 3.85 0 0 1 1.094 3.061v8.643c0 1.802-1.404 3.4-3.314 3.4H7.314c-1.91 0-3.314-1.598-3.314-3.4zm3.313-1.4C6.607 4.288 6 4.89 6 5.688v13.2c0 .798.607 1.4 1.313 1.4h9.355c.706 0 1.313-.602 1.313-1.4v-8.7q0-.062.008-.125c.061-.49-.133-1.083-.518-1.466l-.01-.01-3.615-3.694a2.13 2.13 0 0 0-1.504-.605z" clip-rule="evenodd"/></svg>