<svg xmlns="http://www.w3.org/2000/svg" fill="none" viewBox="0 0 24 25"><path fill="#000" fill-rule="evenodd" d="M2.748 6.8c-1.613-1.614-.455-4.488 1.878-4.488h14.748c2.333 0 3.49 2.874 1.878 4.489l-.002.003-5.822 5.9v5.157c0 .829-.402 1.708-1.175 2.187l-2.856 1.96-.012.009c-.636.423-1.368.35-1.894.04a1.85 1.85 0 0 1-.919-1.591v-7.763zm1.308-2.085c-.107.258-.058.508.108.674l.005.005 6.115 6.197a1 1 0 0 1 .288.702v7.856l2.57-1.765.053-.033c.106-.064.233-.251.233-.49v-5.568a1 1 0 0 1 .288-.702l6.12-6.202c.166-.166.215-.416.108-.674-.104-.253-.312-.403-.57-.403H4.626c-.258 0-.466.15-.57.403" clip-rule="evenodd"/></svg>