<svg xmlns="http://www.w3.org/2000/svg" fill="none" viewBox="0 0 24 24"><path fill="#000" d="M19.065 4.63H16.24c-1.304 0-2.609-.55-3.478-1.43-1.304-1.43-3.044-2.2-5-2.2H4.826C3.304 1 2 2.32 2 3.86V21.9c0 .66.435 1.1 1.087 1.1s1.087-.44 1.087-1.1V3.86c0-.33.326-.66.652-.66h2.935c1.304 0 2.609.55 3.478 1.43a7.13 7.13 0 0 0 5 2.09h2.826c.435 0 .652.33.652.66v7.92c0 .44-.326.66-.652.66H16.24c-1.304 0-2.609-.55-3.478-1.43a7.13 7.13 0 0 0-5-2.09H6.674c-.652 0-1.087.44-1.087 1.1s.435 1.1 1.087 1.1H7.87c1.304 0 2.608.55 3.478 1.43a7.13 7.13 0 0 0 5 2.09h2.826c1.63 0 2.826-1.32 2.826-2.86V7.49c0-1.54-1.304-2.86-2.935-2.86"/></svg>