<svg xmlns="http://www.w3.org/2000/svg" fill="none" viewBox="0 0 24 25"><path fill="#000" fill-rule="evenodd" d="M5 5.494c0-1.787 1.382-3.206 3.178-3.206h3.124a3.92 3.92 0 0 1 2.794 1.16l1.032 1.046h4.695C21.617 4.494 23 5.912 23 7.699v7.384c0 1.786-1.383 3.205-3.177 3.205H8.178C6.382 18.288 5 16.87 5 15.083zm3.178-1.206C7.51 4.288 7 4.788 7 5.494v9.589c0 .706.511 1.205 1.178 1.205h11.645c.666 0 1.177-.499 1.177-1.205V7.699c0-.706-.511-1.205-1.177-1.205H14.71a1 1 0 0 1-.712-.298l-1.325-1.342a1.92 1.92 0 0 0-1.371-.566z" clip-rule="evenodd"/><path fill="#000" fill-rule="evenodd" d="M2 6.288a1 1 0 0 1 1 1v9.725c0 1.826 1.449 3.275 3.156 3.275H18a1 1 0 1 1 0 2H6.156C3.29 22.288 1 19.89 1 17.013V7.288a1 1 0 0 1 1-1" clip-rule="evenodd"/></svg>