<svg xmlns="http://www.w3.org/2000/svg" fill="none" viewBox="0 0 24 25"><path fill="#000" d="M18.178 10.208c-1.808 0-3.415 1.042-4.22 2.5h-3.716c-.904-1.562-2.411-2.5-4.32-2.5-2.712 0-4.922 2.188-4.922 5s2.21 5 4.922 5c2.713 0 4.923-2.292 4.923-5v-.417h2.31v.417c0 2.812 2.21 5 4.923 5s4.922-2.292 4.922-5-2.11-5-4.822-5m-16.561-.094c.107.094.321.094.428.094.428 0 .856-.187.963-.562l1.07-2.25c.428-.844 1.284-1.313 2.247-1.313H7.93c.642 0 1.07-.375 1.07-.937s-.535-.938-1.07-.938H6.325c-1.819 0-3.531.938-4.173 2.344l-1.07 2.344a.89.89 0 0 0 .535 1.218m15.326-4.001h1.416c.849 0 1.603.476 1.886 1.238l.944 2.286q.284.57.849.571c.094 0 .283 0 .377-.095.472-.19.755-.762.472-1.238l-.943-2.286c-.472-1.429-1.982-2.381-3.585-2.381h-1.416c-.566 0-.943.381-.943.952a.95.95 0 0 0 .943.953"/></svg>