<svg xmlns="http://www.w3.org/2000/svg" fill="none" viewBox="0 0 24 25"><path fill="#000" d="M18.712 2.507a.96.96 0 0 0-1.393 0 .96.96 0 0 0 0 1.393c1.79 1.79 2.785 4.179 2.785 6.766s-.994 4.975-2.785 6.766c-1.79 1.79-4.178 2.786-6.764 2.786a9.65 9.65 0 0 1-6.068-2.19l1.293-1.392c1.393 1.094 3.084 1.592 4.675 1.592 1.99 0 3.88-.697 5.372-2.19 2.984-2.984 2.984-7.86 0-10.745-2.984-2.985-7.859-2.985-10.743 0-2.686 2.686-2.985 6.965-.697 9.95l-2.089 2.189a.96.96 0 0 0 0 1.393 11.43 11.43 0 0 0 8.157 3.383c3.084 0 5.969-1.194 8.157-3.383a11.44 11.44 0 0 0 3.382-8.16c.1-3.084-1.094-5.97-3.282-8.158M6.576 6.686C7.67 5.59 9.162 4.994 10.555 4.994c1.492 0 2.885.597 3.979 1.692 2.188 2.189 2.188 5.77 0 7.96-2.189 2.189-5.77 2.189-7.958 0s-2.189-5.771 0-7.96"/></svg>