<svg xmlns="http://www.w3.org/2000/svg" fill="none" viewBox="0 0 24 25"><path fill="#000" fill-rule="evenodd" d="M12 4.208c-4.448 0-8 3.552-8 8v.294a3.9 3.9 0 0 1 1.9-.494c2.065 0 3.765 1.747 3.898 3.734l.002.066v2.5c0 2.152-1.748 3.9-3.9 3.9-2.13 0-3.9-1.725-3.9-3.8v-6.2c0-5.552 4.448-10 10-10s10 4.448 10 10v6.2c0 2.152-1.748 3.9-3.9 3.9a3.9 3.9 0 0 1-3.9-3.9v-2.5a3.902 3.902 0 0 1 5.8-3.406v-.294c0-4.448-3.552-8-8-8m8 11.693a1.9 1.9 0 0 0-1.9-1.893c-1.048 0-1.9.852-1.9 1.9v2.5c0 1.048.852 1.9 1.9 1.9s1.9-.852 1.9-1.9zM4 17.108v-1.2c0-1.048.852-1.9 1.9-1.9.926 0 1.817.836 1.9 1.837v2.463c0 1.048-.852 1.9-1.9 1.9-1.07 0-1.9-.875-1.9-1.8z" clip-rule="evenodd"/></svg>