<svg xmlns="http://www.w3.org/2000/svg" fill="none" viewBox="0 0 24 25"><path fill="#000" d="m20.935 13.376-2.562-5.5c-1.084-2.1-2.858-3.8-4.927-4.4-.788-.4-1.478-.5-2.267-.5-4.533 0-8.179 3.7-8.179 8.3 0 1.8.591 3.6 1.675 5v4c0 1.5 1.183 2.7 2.661 2.7h4.336c1.478 0 2.562-1.2 2.562-2.6v-.6h1.577c1.478 0 2.562-1.2 2.562-2.6v-1.7l1.872-.6q.444-.15.592-.6c.197-.4.197-.7.098-.9m-3.744.3c-.395.1-.69.5-.69.9v2.5c0 .4-.296.6-.592.6h-2.562c-.591 0-.985.4-.985 1v1.6c0 .4-.296.6-.591.6H7.336c-.394 0-.69-.3-.69-.7v-4.2c0-.2-.098-.5-.197-.6-.985-1.1-1.478-2.6-1.478-4 0-3.6 2.76-6.4 6.208-6.4.493 0 1.084.1 1.675.3 1.577.5 2.957 1.8 3.745 3.4l2.07 4.5z"/></svg>