<svg xmlns="http://www.w3.org/2000/svg" fill="none" viewBox="0 0 24 25"><path fill="#000" d="M15.8 23.968c-2.5 0-4.8-1.3-6.1-3.4s-1.4-4.7-.3-7l5.5-11.1c.3-.7 1.4-.7 1.8 0l5.5 11.1c1.1 2.2 1 4.9-.3 7s-3.6 3.4-6.1 3.4m0-18.8-4.6 9.3c-.8 1.6-.7 3.5.2 5s2.6 2.5 4.4 2.5 3.5-.9 4.4-2.5c1-1.5 1-3.4.2-5zm-11 7.8c-1.3 0-2.5-.7-3.2-1.8s-.8-2.5-.2-3.7l2.5-5c.3-.7 1.5-.7 1.8 0l2.5 5c.6 1.2.5 2.6-.2 3.7-.6 1.2-1.9 1.8-3.2 1.8m0-7.8-1.6 3.2c-.3.6-.3 1.2.1 1.8.3.5.9.8 1.5.8s1.2-.3 1.6-.8q.45-.9 0-1.8z"/></svg>