<svg xmlns="http://www.w3.org/2000/svg" fill="none" viewBox="0 0 24 25"><path fill="#000" d="m22.632 17.997-5.579-9.35a2.85 2.85 0 0 0-2.434-1.335 2.85 2.85 0 0 0-2.434 1.336L8.027 15.53c-.304.514-.101 1.13.304 1.438.507.309 1.116.103 1.42-.308l4.158-6.883a.88.88 0 0 1 .71-.411c.203 0 .507 0 .71.41l5.578 9.35c.203.411.102.72 0 .822-.101.103-.304.411-.71.411H3.87c-.406 0-.609-.308-.71-.411s-.203-.411 0-.822l2.535-4.11c.203-.308.508-.41.812-.41.507.102 1.115-.309 1.115-.925.102-.514-.304-1.13-.912-1.13-1.116-.103-2.232.41-2.739 1.335l-2.535 4.11c-.507.925-.609 1.952-.102 2.877a2.73 2.73 0 0 0 2.434 1.438h16.329a2.73 2.73 0 0 0 2.434-1.438c.609-.925.609-1.952.101-2.877M6 9.312c2.244 0 4-1.831 4-3.952S8.244 1.312 6 1.312 2 3.143 2 5.264s1.756 4.048 4 4.048M6 3.24c1.17 0 2.049.964 2.049 2.024S7.17 7.384 6 7.384A2.05 2.05 0 0 1 3.951 5.36c0-1.06.878-2.12 2.049-2.12"/></svg>