<svg xmlns="http://www.w3.org/2000/svg" fill="none" viewBox="0 0 24 24"><path fill="#000" d="M21.8 9.8C19.8 8.1 16.5 6 12 6c-.5 0-1 0-1.3.1-.6.1-1 .6-.9 1.2.1.5.6.9 1.1.9.3 0 .7-.1 1.1-.1 3.9 0 6.8 1.8 8.5 3.3.3.2.5.6.5 1.1s-.2.8-.5 1.1c-.6.5-1.3 1-2 1.4-.5.3-.6.9-.4 1.4.2.3.5.5.9.5.2 0 .3 0 .5-.1.8-.5 1.6-1 2.3-1.6.8-.7 1.2-1.6 1.2-2.6 0-1.2-.4-2.1-1.2-2.8M4.2 3.3c-.4-.4-1-.4-1.4 0s-.4 1 0 1.4l2.8 2.8C4.2 8.3 3 9.2 2.2 9.8Q1 10.85 1 12.5c0 1.1.4 2 1.2 2.6 2 1.7 5.3 3.8 9.8 3.8 1.5 0 2.9-.2 4.3-.7l3.5 3.5c.2.2.5.3.7.3s.5-.1.7-.3c.4-.4.4-1 0-1.4zM12 16.8c-3.9 0-6.8-1.8-8.5-3.3-.3-.2-.5-.6-.5-1s.2-.8.5-1.1c.8-.7 2.1-1.6 3.7-2.3l2.6 2.6c-.1.2-.1.5-.1.8 0 1.3 1 2.3 2.3 2.3.3 0 .5-.1.8-.1l1.9 1.9c-.9.1-1.8.2-2.7.2"/></svg>