<svg xmlns="http://www.w3.org/2000/svg" fill="none" viewBox="0 0 24 24"><path fill="#000" d="M22.37 8.133a31.1 31.1 0 0 0-6.575-6.56C14.48.7 12.726.81 11.63 2.012L8.014 5.728C6.918 6.82 6.699 8.57 7.575 9.773l.987 1.311-6.904 6.887C1.219 18.3 1 18.846 1 19.392v2.624a.98.98 0 0 0 .986.984h2.63c.548 0 .987-.219 1.425-.547l6.904-6.887 1.315.984c1.316.875 2.96.656 4.055-.437l3.726-3.717c1.096-1.202 1.315-2.951.33-4.263m-5.041.765c-.329.328-.658.437-1.096.437s-.767-.109-1.096-.437c-.548-.547-.548-1.53 0-2.077s1.534-.547 2.082 0c.658.437.658 1.421.11 2.077"/></svg>