<svg xmlns="http://www.w3.org/2000/svg" fill="none" viewBox="0 0 24 24"><path fill="#000" d="M22.288 7.584c-1.676-2.258-3.647-4.32-5.913-5.89-1.479-1.081-3.548-.885-4.928.49L8.096 5.522C6.815 6.8 6.618 8.861 7.603 10.334c.099.098.197.294.394.392l-6.209 6.186C1.296 17.403 1 18.091 1 18.876v3.142c0 .295.099.491.296.687s.394.295.69.295h3.153c.789 0 1.479-.295 1.971-.785l6.21-6.186c.196.098.295.196.492.294 1.478.982 3.548.786 4.83-.49l3.35-3.34c1.183-1.374 1.38-3.436.296-4.909m-1.873 3.535-3.35 3.339c-.69.687-1.676.785-2.366.294-.394-.294-.69-.49-1.084-.785s-.986-.295-1.281.098l-6.8 6.775q-.297.294-.592.294H2.774v-2.16q0-.295.296-.589l6.8-6.775c.394-.393.394-.884.098-1.276-.197-.393-.492-.786-.69-1.179a1.68 1.68 0 0 1 .296-2.258l3.351-3.338c.296-.393.788-.59 1.281-.59.395 0 .69.099.986.295 2.168 1.473 3.942 3.338 5.42 5.4.592.786.493 1.768-.197 2.455"/><path fill="#000" d="M15.526 7c-.42 0-.736.214-1.052.429-.632.642-.632 1.607 0 2.142.316.322.631.429 1.052.429s.737-.107 1.053-.429C16.895 9.25 17 8.93 17 8.5s-.105-.75-.421-1.071c-.21-.322-.632-.429-1.053-.429"/></svg>