<svg xmlns="http://www.w3.org/2000/svg" fill="none" viewBox="0 0 24 25"><path fill="#000" d="M12 13.012c-.7 0-1.3-.1-2-.4l-6.9-3.2c-.7-.3-1.1-1-1.1-1.8s.4-1.4 1.1-1.8l6.9-3.1c1.3-.6 2.7-.6 3.9 0l6.9 3.1c.7.3 1.1 1 1.1 1.8s-.4 1.4-1.1 1.8l-6.8 3.1c-.7.3-1.3.5-2 .5"/><path fill="#000" d="M12 17.612c-.7 0-1.3-.1-2-.4l-6.9-3.1c-.5-.2-.7-.8-.5-1.3.3-.6.9-.8 1.4-.6l6.9 3.1c.7.3 1.6.3 2.3 0l6.8-3.1c.5-.2 1.1 0 1.3.5s0 1.1-.5 1.3l-6.8 3.2c-.7.2-1.3.4-2 .4"/><path fill="#000" d="M12 22.312c-.7 0-1.3-.1-2-.4l-6.9-3.1c-.5-.2-.7-.8-.5-1.3s.8-.7 1.3-.5l6.9 3.1c.7.3 1.6.3 2.3 0l6.9-3.1c.5-.2 1.1 0 1.3.5s0 1.1-.5 1.3l-6.8 3.1c-.7.3-1.3.4-2 .4"/></svg>