<svg xmlns="http://www.w3.org/2000/svg" fill="none" viewBox="0 0 24 25"><path fill="#000" d="m3.1 9.412 6.9 3.1c.6.3 1.3.4 2 .4s1.3-.1 2-.4l6.9-3.1c.7-.3 1.1-1 1.1-1.8s-.4-1.4-1.1-1.8l-6.9-3.1c-1.3-.6-2.7-.6-3.9 0l-7 3.2c-.7.3-1.1 1-1.1 1.7 0 .8.4 1.5 1.1 1.8m7.8-4.9c.7-.3 1.6-.3 2.3 0l6.8 3.1-6.8 3.1c-.7.3-1.6.3-2.3 0l-6.8-3.1z"/><path fill="#000" d="m20 12.212-6.9 3.1c-.7.3-1.6.3-2.3 0l-6.8-3.1c-.5-.2-1.1 0-1.3.5s0 1.1.5 1.3l6.8 3.2c.6.3 1.3.4 2 .4s1.3-.1 2-.4l6.9-3.1c.5-.2.7-.8.5-1.3-.3-.6-.9-.8-1.4-.6"/><path fill="#000" d="m20 16.912-6.9 3.1c-.7.3-1.6.3-2.3 0l-6.8-3.1c-.5-.2-1.1 0-1.3.5s0 1.1.5 1.3l6.8 3.2c.6.3 1.3.4 2 .4s1.3-.1 2-.4l6.9-3.1c.5-.2.7-.8.5-1.3-.3-.6-.9-.8-1.4-.6"/></svg>