<svg xmlns="http://www.w3.org/2000/svg" fill="none" viewBox="0 0 24 25"><path fill="#000" d="M17.622 2.4H6.279C3.89 2.4 2 4.3 2 6.7v11.5c0 2.3 1.89 4.2 4.279 4.2H17.72c2.39 0 4.28-1.9 4.28-4.3V6.7c-.1-2.4-1.99-4.3-4.378-4.3m-11.343 2H17.72c1.194 0 2.19 1 2.19 2.3v1.5H3.99V6.7c0-1.3.995-2.3 2.289-2.3m11.343 16H6.279c-1.294 0-2.289-1-2.289-2.3v-8h15.92v8c0 1.3-.995 2.3-2.288 2.3"/><path fill="#000" d="M17.7 12.2H6.3c-.6 0-1 .4-1 1s.4 1 1 1h11.5c.6 0 1-.4 1-1-.1-.5-.5-1-1.1-1m0 4.1H6.3c-.6 0-1 .4-1 1s.4 1 1 1h11.5c.6 0 1-.4 1-1s-.5-1-1.1-1"/></svg>