<svg xmlns="http://www.w3.org/2000/svg" fill="none" viewBox="0 0 24 24"><path fill="#000" d="M3 21c-.6 0-1-.4-1-1v-9c0-.6.4-1 1-1s1 .4 1 1v9c0 .6-.4 1-1 1m13.276 1H8.04C6.373 22 5 20.6 5 18.9v-8.4c0-1.1.392-2.1 1.079-3L10 3c.588-.6 1.47-1 2.45-1 1.08 0 1.962.5 2.55 1.3.589.9.785 1.9.49 2.9l-.588 1.9h4.118c.98 0 1.863.4 2.354 1.2.588.8.784 1.8.49 2.7l-2.06 7.1c-.49 1.8-1.862 2.9-3.53 2.9M7.647 8.9c-.392.5-.588 1-.588 1.6v8.4c0 .6.49 1.1 1.079 1.1h8.236c.784 0 1.47-.5 1.667-1.3L20 11.6c.099-.3 0-.7-.195-1-.196-.3-.49-.4-.785-.4h-5.49c-.295 0-.589-.2-.785-.4s-.196-.6-.098-.9l1.079-3.3c.098-.4.098-.8-.197-1.1-.392-.6-1.372-.7-1.862-.1z"/></svg>