<svg xmlns="http://www.w3.org/2000/svg" fill="none" viewBox="0 0 24 25"><path fill="#000" d="M21 5.896H9.5c-.6 0-1-.4-1-1s.4-1 1-1H21c.6 0 1 .4 1 1s-.4 1-1 1m0 7.4H9.5c-.6 0-1-.4-1-1s.4-1 1-1H21c.6 0 1 .4 1 1s-.4 1-1 1m0 7.4H9.5c-.6 0-1-.4-1-1s.4-1 1-1H21c.6 0 1 .4 1 1s-.4 1-1 1M4.6 7.596c-1.4 0-2.6-1.2-2.6-2.7 0-1.4 1.2-2.6 2.6-2.6 1.5 0 2.6 1.2 2.6 2.6.1 1.5-1.1 2.7-2.6 2.7m0-3.3c-.3 0-.6.3-.6.6 0 .4.3.7.6.7.4 0 .7-.3.7-.7 0-.3-.3-.6-.7-.6m0 10.6c-1.4 0-2.6-1.1-2.6-2.6s1.2-2.6 2.6-2.6c1.5 0 2.6 1.2 2.6 2.6.1 1.5-1.1 2.6-2.6 2.6m0-3.2c-.3 0-.6.2-.6.6s.3.6.6.6c.4 0 .6-.3.6-.6.1-.4-.2-.6-.6-.6m0 10.6c-1.4 0-2.6-1.2-2.6-2.6 0-1.5 1.2-2.6 2.6-2.6 1.5 0 2.6 1.2 2.6 2.6.1 1.4-1.1 2.6-2.6 2.6m0-3.3c-.3 0-.6.3-.6.7 0 .3.3.6.6.6.4 0 .6-.3.6-.6.1-.4-.2-.7-.6-.7"/></svg>