<svg xmlns="http://www.w3.org/2000/svg" fill="none" viewBox="0 0 24 25"><path fill="#000" d="M4.6 7.496a2.6 2.6 0 1 0 0-5.2 2.6 2.6 0 0 0 0 5.2m0 7.4a2.6 2.6 0 1 0 0-5.2 2.6 2.6 0 0 0 0 5.2m0 7.4a2.6 2.6 0 1 0 0-5.2 2.6 2.6 0 0 0 0 5.2m5.8-15.5h9.8c1 0 1.9-.8 1.9-1.9 0-1-.8-1.9-1.9-1.9h-9.8c-1 0-1.9.8-1.9 1.9 0 1 .8 1.9 1.9 1.9m9.7 3.6h-9.7c-1 0-1.9.8-1.9 1.9 0 1 .8 1.9 1.9 1.9h9.8c1 0 1.9-.8 1.9-1.9-.1-1-.9-1.9-2-1.9m0 7.4h-9.7c-1 0-1.9.8-1.9 1.9 0 1 .8 1.9 1.9 1.9h9.8c1 0 1.9-.8 1.9-1.9-.1-1.1-.9-1.9-2-1.9"/></svg>