<svg xmlns="http://www.w3.org/2000/svg" fill="none" viewBox="0 0 24 25"><path fill="#000" d="M12 2.312c-.6 0-1 .4-1 1v2.5c0 .6.4 1 1 1s1-.4 1-1v-2.5c0-.6-.4-1-1-1m-5.3 6.1c.2.2.5.3.7.3s.5-.1.7-.3c.4-.4.4-1 0-1.4l-1.8-1.8c-.4-.4-1-.4-1.4 0s-.4 1 0 1.4zm-.2 3.9c0-.6-.4-1-1-1H3c-.6 0-1 .4-1 1s.4 1 1 1h2.5c.5 0 1-.4 1-1m.2 3.9-1.7 1.7c-.4.4-.4 1 0 1.4.2.2.5.3.7.3s.5-.1.7-.3l1.7-1.7c.4-.4.4-1 0-1.4s-1-.4-1.4 0m5.3 1.6c-.6 0-1 .4-1 1v2.5c0 .6.4 1 1 1s1-.4 1-1v-2.5c0-.5-.4-1-1-1m5.3-1.6c-.4-.4-1-.4-1.4 0s-.4 1 0 1.4l1.7 1.7c.2.2.5.3.7.3s.5-.1.7-.3c.4-.4.4-1 0-1.4zm3.7-4.9h-2.5c-.6 0-1 .4-1 1s.4 1 1 1H21c.6 0 1-.4 1-1s-.4-1-1-1m-4.4-2.6c.3 0 .5-.1.7-.3l1.7-1.7c.4-.4.4-1 0-1.4s-1-.4-1.4 0l-1.7 1.7c-.4.4-.4 1 0 1.4.2.2.5.3.7.3"/></svg>