<svg xmlns="http://www.w3.org/2000/svg" fill="none" viewBox="0 0 24 25"><path fill="#000" d="M12 2.312c-.8 0-1.4.6-1.4 1.4v2.3c0 .8.6 1.4 1.4 1.4s1.4-.6 1.4-1.4v-2.3c0-.8-.6-1.4-1.4-1.4m-5.4 6.6c.3.3.6.4 1 .4s.7-.1 1-.4c.6-.6.6-1.5 0-2l-1.7-1.7c-.6-.6-1.5-.6-2 0-.6.6-.6 1.5 0 2zm.6 3.4c0-.8-.6-1.4-1.4-1.4H3.4c-.8 0-1.4.6-1.4 1.4s.6 1.4 1.4 1.4h2.3c.9 0 1.5-.6 1.5-1.4m-.6 3.4-1.7 1.7c-.6.6-.6 1.5 0 2 .3.3.6.4 1 .4s.7-.1 1-.4l1.7-1.7c.6-.6.6-1.5 0-2-.6-.6-1.5-.6-2 0m5.4 1.4c-.8 0-1.4.6-1.4 1.4v2.3c0 .8.6 1.4 1.4 1.4s1.4-.6 1.4-1.4v-2.3c0-.8-.6-1.4-1.4-1.4m5.4-1.4c-.6-.6-1.5-.6-2 0s-.6 1.5 0 2l1.7 1.7c.3.3.6.4 1 .4s.7-.1 1-.4c.6-.6.6-1.5 0-2zm3.2-4.8h-2.3c-.8 0-1.4.6-1.4 1.4s.6 1.4 1.4 1.4h2.3c.8 0 1.4-.6 1.4-1.4s-.6-1.4-1.4-1.4m-4.2-1.6c.4 0 .7-.1 1-.4l1.7-1.7c.6-.6.6-1.5 0-2-.6-.6-1.5-.6-2 0l-1.7 1.7c-.6.6-.6 1.5 0 2 .3.3.6.4 1 .4"/></svg>