<svg xmlns="http://www.w3.org/2000/svg" fill="none" viewBox="0 0 24 24"><path fill="#000" fill-rule="evenodd" d="M11.06 1.034C16.393.589 20.886 4.602 21 9.777V9.8c0 1.809-.567 3.5-1.57 4.951l-.01.014-5.077 7.072-.03.041c-1.168 1.46-3.462 1.55-4.583-.045l-5.077-7.074c-1.324-1.877-2.02-4.246-1.457-6.753.694-3.76 3.971-6.527 7.833-6.968zm.18 1.992c-3.09.36-5.572 2.56-6.08 5.358l-.009.043c-.424 1.866.074 3.67 1.134 5.175l5.08 7.078c.27.387.946.477 1.371-.034l5.053-7.04c.782-1.133 1.209-2.425 1.211-3.796-.093-3.978-3.55-7.127-7.76-6.784" clip-rule="evenodd"/><path fill="#000" fill-rule="evenodd" d="M12 7.9a1.9 1.9 0 1 0 0 3.8 1.9 1.9 0 0 0 0-3.8M8.1 9.8a3.9 3.9 0 1 1 7.8 0 3.9 3.9 0 0 1-7.8 0" clip-rule="evenodd"/><path fill="#000" fill-rule="evenodd" d="M12 7.9a1.9 1.9 0 1 0 0 3.8 1.9 1.9 0 0 0 0-3.8M8.1 9.8a3.9 3.9 0 1 1 7.8 0 3.9 3.9 0 0 1-7.8 0" clip-rule="evenodd"/><path fill="#000" fill-rule="evenodd" d="M12 7.9a1.9 1.9 0 1 0 0 3.8 1.9 1.9 0 0 0 0-3.8M8.1 9.8a3.9 3.9 0 1 1 7.8 0 3.9 3.9 0 0 1-7.8 0" clip-rule="evenodd"/></svg>