<svg xmlns="http://www.w3.org/2000/svg" fill="none" viewBox="0 0 24 25"><path fill="#000" fill-rule="evenodd" d="M11.51 2.904C13.28 1.277 16 2.668 16 4.964V19.47c0 2.17-2.584 3.687-4.471 2.077-2.305-1.884-4.493-3.453-6.76-4.722C3.067 15.938 2 14.082 2 12.218c0-1.955 1.06-3.822 2.778-4.713 2.55-1.366 4.73-2.93 6.732-4.6M14 4.964c0-.715-.768-.934-1.145-.58l-.043.038c-2.089 1.746-4.389 3.4-7.096 4.85l-.013.006C4.693 9.8 4 10.951 4 12.218c0 1.152.682 2.312 1.703 2.838l.029.016c2.409 1.347 4.702 2.997 7.072 4.934l.019.016c.26.223.531.226.759.113A.74.74 0 0 0 14 19.47zm4.186 4.663a1 1 0 0 1 1.395-.233c.96.686 1.419 1.768 1.419 2.814 0 1.124-.632 2.144-1.35 2.76a1 1 0 0 1-1.3-1.52c.393-.337.65-.84.65-1.24 0-.478-.208-.92-.581-1.186a1 1 0 0 1-.233-1.395" clip-rule="evenodd"/></svg>