<svg xmlns="http://www.w3.org/2000/svg" fill="none" viewBox="0 0 24 25"><path fill="#000" d="M14.6 7.476c.5-.6.8-1.3.8-2.1 0-1.9-1.5-3.4-3.4-3.4s-3.4 1.5-3.4 3.4c0 .8.3 1.5.8 2.1-1.5.8-2.4 2.3-2.4 4v2.8c0 .6.4 1 1 1s1-.4 1-1v-2.8c0-1.1.7-2.1 1.8-2.5.9-.3 1.9-.3 2.8.1.8.5 1.4 1.4 1.4 2.4v2.9c0 .6.4 1 1 1s1-.4 1-1v-2.9c0-1.7-.9-3.2-2.4-4m-2.6-3.5c.8 0 1.4.6 1.4 1.4s-.6 1.3-1.4 1.3-1.4-.6-1.4-1.4.6-1.3 1.4-1.3m2 11.6c-.6 0-1 .4-1 1v4.5c0 .5-.4.9-1 .9s-1-.4-1-.8v-4.5c0-.6-.4-1-1-1s-1 .4-1 1v4.5c0 1.5 1.3 2.8 3 2.8s3-1.3 3-2.8v-4.5c0-.6-.4-1.1-1-1.1"/></svg>