<svg xmlns="http://www.w3.org/2000/svg" fill="none" viewBox="0 0 24 24"><path fill="#000" d="M17.133 22h-2.296A1.84 1.84 0 0 1 13 20.163c0-1.01.826-1.837 1.837-1.837h2.296c.643 0 1.194-.55 1.194-1.193v-2.296c0-1.01.826-1.837 1.836-1.837S22 13.826 22 14.837v2.296C22 19.796 19.796 22 17.133 22m-8.062 0H6.867C4.204 22 2 19.796 2 17.133v-2.296C2 13.827 2.827 13 3.837 13s1.836.826 1.836 1.837v2.296c0 .643.551 1.194 1.194 1.194h2.296c1.01 0 1.837.826 1.837 1.836S10.082 22 9.071 22M3.837 11A1.85 1.85 0 0 1 2 9.144V6.918C2 4.227 4.204 2 6.867 2h2.296C10.173 2 11 2.835 11 3.856c0 1.02-.826 1.855-1.837 1.855H6.867c-.643 0-1.194.557-1.194 1.207v2.32c0 .927-.826 1.762-1.836 1.762m16.326 0a1.85 1.85 0 0 1-1.837-1.856V6.918c0-.65-.55-1.207-1.193-1.207h-2.296A1.85 1.85 0 0 1 13 3.856C13 2.835 13.826 2 14.837 2h2.296C19.796 2 22 4.227 22 6.918v2.32c0 .927-.826 1.762-1.837 1.762"/></svg>