<svg xmlns="http://www.w3.org/2000/svg" fill="none" viewBox="0 0 24 24"><path fill="#000" fill-rule="evenodd" d="M1 5.667C1 3.114 3.114 1 5.667 1h12.666C20.886 1 23 3.114 23 5.667v8.11c0 2.553-2.114 4.667-4.667 4.667h-8.222c-1.04 0-1.932.283-2.622.8l-.012.01-4.889 3.555A1 1 0 0 1 1 22zm2 14.37 3.295-2.397c1.086-.812 2.414-1.196 3.816-1.196h8.222c1.448 0 2.667-1.218 2.667-2.666V5.667C21 4.219 19.781 3 18.333 3H5.667C4.219 3 3 4.219 3 5.667z" clip-rule="evenodd"/><path fill="#000" fill-rule="evenodd" d="M6 7a1 1 0 0 1 1-1h10a1 1 0 1 1 0 2H7a1 1 0 0 1-1-1m0 5a1 1 0 0 1 1-1h5a1 1 0 1 1 0 2H7a1 1 0 0 1-1-1" clip-rule="evenodd"/></svg>