<svg xmlns="http://www.w3.org/2000/svg" fill="none" viewBox="0 0 24 25"><path fill="#000" fill-rule="evenodd" d="M11.9 3.208c-1.848 0-3.4 1.552-3.4 3.4v3.9c0 1.848 1.552 3.4 3.4 3.4 1.986 0 3.476-1.48 3.4-3.36v-3.94c0-1.848-1.552-3.4-3.4-3.4m-5.4 3.4c0-2.952 2.448-5.4 5.4-5.4s5.4 2.448 5.4 5.4v3.881c.113 3.11-2.393 5.419-5.4 5.419-2.952 0-5.4-2.448-5.4-5.4zM4 9.508a1 1 0 0 1 1 1c0 3.852 3.152 6.987 6.977 6.9H12c3.756 0 6.9-3.06 6.9-6.9a1 1 0 1 1 2 0c0 4.65-3.564 8.403-8 8.854v2.846a1 1 0 1 1-2 0v-2.846C6.453 18.894 3 15.078 3 10.508a1 1 0 0 1 1-1" clip-rule="evenodd"/></svg>