<svg xmlns="http://www.w3.org/2000/svg" fill="none" viewBox="0 0 24 25"><path fill="#000" d="M15.6 12.308c.2.2.4.3.7.3h.3c.3-.1.6-.4.7-.7.1-.4.2-.9.2-1.3v-4c0-1.4-.6-2.8-1.6-3.8s-2.4-1.6-3.8-1.6c-1.8 0-3.3.8-4.3 2.1-.4.4-.3.9 0 1.3zm2.9 2.9c.2.1.3.1.5.1.4 0 .7-.2.9-.5.7-1.3 1.1-2.8 1.1-4.3 0-.6-.4-1-1-1s-1 .4-1 1c0 1.2-.3 2.3-.8 3.3-.4.5-.2 1.1.3 1.4m4.1 6.3-7.8-7.8-6.5-6.5-5.6-5.6c-.4-.4-1-.4-1.4 0s-.4 1 0 1.4l5.3 5.3v2.2c0 3 2.4 5.4 5.4 5.4.6 0 1.3-.1 1.9-.3l1.2 1.2c-.9.5-2 .7-3 .7-1.9 0-3.6-.7-4.9-2s-2-3.1-2-4.9c0-.6-.4-1-1-1s-1 .4-1 1c0 2.4.9 4.6 2.6 6.3 1.3 1.4 3.2 2.3 5.2 2.5v2.8c0 .6.4 1 1 1s1-.4 1-1v-2.8c1.2-.1 2.4-.5 3.5-1.2l4.7 4.7c.2.2.5.3.7.3s.5-.1.7-.3c.4-.4.4-1 0-1.4"/></svg>