<svg xmlns="http://www.w3.org/2000/svg" fill="none" viewBox="0 0 24 24"><path fill="#000" d="M20.163 13h-2.296C15.204 13 13 15.227 13 17.918v2.226c0 1.02.826 1.856 1.837 1.856 1.01 0 1.837-.835 1.837-1.856v-2.32c0-.649.55-1.205 1.193-1.205h2.296c1.01 0 1.837-.835 1.837-1.856 0-1.02-.826-1.763-1.837-1.763m-14.03 0H3.837C2.827 13 2 13.835 2 14.856c0 1.02.827 1.855 1.837 1.855h2.296c.643 0 1.194.557 1.194 1.207v2.226c0 1.02.826 1.856 1.836 1.856S11 21.165 11 20.144v-2.32C10.908 15.135 8.796 13 6.133 13M9.071 2c-1.01 0-1.836.827-1.836 1.837v2.296c0 .643-.551 1.194-1.194 1.194H3.837C2.827 7.327 2 8.153 2 9.163S2.827 11 3.837 11h2.296C8.796 11 11 8.796 11 6.133V3.837C10.908 2.827 10.082 2 9.071 2m8.796 9h2.296C21.173 11 22 10.165 22 9.144c0-1.02-.826-1.855-1.837-1.855h-2.296c-.643 0-1.194-.557-1.194-1.207V3.856c0-1.021-.826-1.856-1.836-1.856S13 2.835 13 3.856v2.32C13.092 8.865 15.204 11 17.867 11"/></svg>