<svg xmlns="http://www.w3.org/2000/svg" fill="none" viewBox="0 0 24 24"><path fill="#000" d="M16.4 20.1H3.6c-1.4 0-2.6-1.2-2.6-2.6v-7.3c0-1.4 1.2-2.6 2.6-2.6h12.8c1.4 0 2.6 1.2 2.6 2.6v7.3c0 1.4-1.2 2.6-2.6 2.6"/><path fill="#000" d="M22 16.1c-.6 0-1-.4-1-1V6.7c0-.4-.2-.7-.5-.7H5.1c-.6 0-1-.4-1-1s.4-1 1-1h15.4C21.9 4 23 5.2 23 6.7v8.4c0 .5-.4 1-1 1"/><path fill="#fff" d="M10 16.8c-1.7 0-3-1.3-3-3s1.3-3 3-3 3 1.3 3 3-1.3 3-3 3m-5.7-2.3a.7.7 0 1 0 0-1.4.7.7 0 0 0 0 1.4m11.4 0a.7.7 0 1 0 0-1.4.7.7 0 0 0 0 1.4"/></svg>