<svg xmlns="http://www.w3.org/2000/svg" fill="none" viewBox="0 0 24 25"><path fill="#000" d="M22.2 11.454 19.1 9.25c-.6-.4-1.3-.4-1.9-.1s-1 .901-1 1.602v1.201H13V8.651h1.2c.7 0 1.3-.4 1.6-1.002.3-.6.3-1.301-.1-1.902l-2.2-3.103c-.7-.901-2.3-.901-2.9 0L8.3 5.747c-.4.601-.4 1.302-.1 1.902.3.601.9 1.002 1.6 1.002H11v3.303H7.7v-1.301c0-.7-.4-1.302-1-1.602s-1.3-.2-1.8.2l-3.1 2.203c-.5.3-.8.9-.8 1.502 0 .6.3 1.1.8 1.501l3.1 2.203c.3.2.7.3 1 .3s.6-.1.8-.2c.6-.3 1-.901 1-1.602v-1.201H11v3.303H9.8c-.7 0-1.3.4-1.6 1.002-.3.6-.3 1.301.1 1.902l2.2 3.103c.4.4.9.701 1.5.701s1.1-.3 1.5-.8l2.2-3.104c.4-.601.4-1.302.1-1.903-.3-.6-.9-1-1.6-1H13v-3.204h3.3v1.201c0 .7.4 1.301 1 1.602.3.1.5.2.8.2.4 0 .7-.1 1-.3l3.1-2.203c.5-.3.8-.9.8-1.501s-.3-1.202-.8-1.502"/></svg>