<svg xmlns="http://www.w3.org/2000/svg" fill="none" viewBox="0 0 24 25"><path fill="#000" d="m22.2 11.468-3.1-2.2c-.5-.3-1.1-.2-1.4.2s-.2 1.1.3 1.4l2.9 2.1-2.6 1.8v-1.8c0-.6-.4-1-1-1H13v-3.3h1.2c.7 0 1.3-.4 1.6-1s.3-1.3-.1-1.9l-2.2-3.1c-.7-.9-2.3-.9-2.9 0l-2.3 3.1c-.3.5-.2 1.1.2 1.4.5.3 1.1.2 1.4-.2l2.1-2.9 1.8 2.6H12c-.6 0-1 .4-1 1v4.3H7.7v-1.3c0-.7-.4-1.3-1-1.6s-1.3-.2-1.8.2l-3.1 2.2c-.5.3-.8.9-.8 1.5s.3 1.1.8 1.5l3.1 2.2c.2.1.4.2.6.2.3 0 .6-.1.8-.4.3-.5.2-1.2-.3-1.5l-2.9-2 2.6-1.8v1.8c0 .6.4 1 1 1H11v3.3H9.8c-.7 0-1.3.4-1.6 1s-.3 1.3.1 1.9l2.2 3.1c.4.4.9.7 1.5.7s1.1-.3 1.5-.8l2.2-3.1c.3-.4.2-1.1-.2-1.4-.5-.3-1.1-.2-1.4.2l-2.1 2.9-1.8-2.6H12c.6 0 1-.4 1-1v-4.2h3.3v1.2c0 .7.4 1.3 1 1.6.3.1.5.2.8.2.4 0 .7-.1 1-.3l3.1-2.2c.5-.3.8-.9.8-1.5s-.3-1.2-.8-1.5"/></svg>