<svg xmlns="http://www.w3.org/2000/svg" fill="none" viewBox="0 0 24 25"><path fill="#000" fill-rule="evenodd" d="M12.162 4.662a1 1 0 0 1 1.384-.292l8.02 5.222a3.102 3.102 0 0 1 0 5.232l-8.02 5.222a1 1 0 0 1-1.092-1.676l8.029-5.228c.69-.442.69-1.426 0-1.868l-.006-.004-8.023-5.224a1 1 0 0 1-.292-1.384" clip-rule="evenodd"/><path fill="#000" fill-rule="evenodd" d="M1 7.206c0-2.407 2.59-3.748 4.546-2.554l.006.003 8.067 5.002.025.016c1.808 1.196 1.808 3.874 0 5.07l-.025.016-8.073 5.006C3.591 20.958 1 19.617 1 17.21zm3.502-.849A.98.98 0 0 0 3 7.206V17.21a.98.98 0 0 0 1.502.849l8.049-4.991a1.048 1.048 0 0 0 0-1.72z" clip-rule="evenodd"/></svg>