<svg xmlns="http://www.w3.org/2000/svg" fill="none" viewBox="0 0 24 25"><path fill="#000" d="m21.673 9.503-8.087-5.146c-.506-.31-1.112-.103-1.415.308-.304.515-.203 1.133.303 1.442l8.087 5.146c.404.309.506.72.506.926s0 .618-.506.927l-8.087 5.146c-.506.31-.607.927-.303 1.441.202.31.505.515.808.515.203 0 .405 0 .506-.206l8.087-5.146c.91-.618 1.415-1.544 1.415-2.677.101-1.029-.404-2.058-1.314-2.676"/><path fill="#000" d="M15 12.24c0-1.096-.504-1.993-1.41-2.59L5.532 4.67c-.906-.598-2.014-.598-3.021-.1C1.604 5.168 1 6.164 1 7.26v9.96c0 1.096.604 2.092 1.51 2.59a2.87 2.87 0 0 0 1.512.398c.503 0 1.108-.2 1.51-.498l8.058-4.98c.906-.498 1.41-1.395 1.41-2.49"/></svg>