<svg xmlns="http://www.w3.org/2000/svg" fill="none" viewBox="0 0 24 25"><path fill="#000" fill-rule="evenodd" d="M13.842 1.397c.68.248 1.158.905 1.158 1.715v6.4h3.5c.773 0 1.328.509 1.578 1.033.253.53.29 1.274-.189 1.882l-1.295 1.693a1 1 0 0 1-1.588-1.215l1.064-1.393H14a1 1 0 0 1-1-1v-6.62l-1.994 2.712A1 1 0 0 1 9.394 5.42l2.49-3.385a1.665 1.665 0 0 1 1.958-.638m-12.55.208a1 1 0 0 1 1.415 0l13.79 13.79.021.021 6.19 6.189a1 1 0 0 1-1.415 1.414l-5.4-5.4-3.886 4.984a1.665 1.665 0 0 1-1.949.624c-.68-.248-1.158-.905-1.158-1.715v-6.4H5.4c-.809 0-1.334-.55-1.557-1.069-.217-.507-.242-1.176.1-1.745a1 1 0 0 1 .07-.104l2.84-3.614-5.56-5.56a1 1 0 0 1 0-1.415m6.986 8.4-2.442 3.107H9.9a1 1 0 0 1 1 1v6.658l3.568-4.576z" clip-rule="evenodd"/></svg>