<svg xmlns="http://www.w3.org/2000/svg" fill="none" viewBox="0 0 24 25"><path fill="#000" d="m21.7 20.508-5-5-8.6-8.6-4.4-4.4c-.4-.4-1-.4-1.4 0s-.4 1 0 1.4l3.5 3.5c-.1 0-.2.1-.2.1-1.8 1-2.9 2.7-2.9 4.7 0 .9.3 1.9.8 2.7s1.2 1.5 2.1 1.9c2.3 1.2 4.6 2.8 6.9 4.7q.75.6 1.8.6.6 0 1.2-.3c1-.5 1.6-1.4 1.6-2.5v-.8l3.3 3.3c.2.2.5.3.7.3s.5-.1.7-.3c.3-.3.3-.9-.1-1.3m-6.4-8.6c.2.2.4.3.7.3.1 0 .3 0 .4-.1.4-.1.6-.5.6-.9v-6.2c0-1.1-.6-2-1.6-2.5s-2.1-.3-3 .4c-.8.7-1.7 1.3-2.5 1.9-.3.2-.4.5-.4.8s.1.6.3.8z"/></svg>