<svg xmlns="http://www.w3.org/2000/svg" fill="none" viewBox="0 0 24 25"><path fill="#000" d="M21.36 13.288H6.766a3.56 3.56 0 0 0-2.185.762c-.397.286-.695.762-.893 1.238l-.894 2.095-.695 1.715c-.099.19-.099.38-.099.571 0 .286.1.572.199.762.297.476.794.857 1.489.857h14.495c1.39 0 2.582-.762 3.078-2l1.589-3.81c.496-1.047-.298-2.19-1.49-2.19"/><path fill="#000" d="M1.985 14.696c.197-.415.394-.83.69-1.245.197-.311.394-.519.69-.83a4.9 4.9 0 0 1 3.35-1.348H21V9.407c0-1.97-1.478-3.526-3.35-3.526h-5.517l-1.28-1.348c-.69-.83-1.774-1.245-2.858-1.245H4.35C2.478 3.288 1 4.844 1 6.814v10.474l.788-2.178z"/></svg>