<svg xmlns="http://www.w3.org/2000/svg" fill="none" viewBox="0 0 24 24"><path fill="#000" d="M9.8 3v7l1.7-1.3q.6-.45 1.2 0l1.7 1.3V2H9.8z"/><path fill="#000" d="M17.743 2h-1.486v10c0 .4-.198.7-.495.9-.198.1-.297.1-.495.1s-.396-.1-.594-.2L12 10.8l-2.673 2c-.297.2-.693.3-.99.1q-.594-.3-.594-.9V2H6.257C3.881 2 2 3.9 2 6.3v11.4C2 20.1 3.881 22 6.257 22h11.486C20.119 22 22 20.1 22 17.7V6.3C22 3.9 20.119 2 17.743 2"/><path fill="#fff" d="M11.3 18.8h-5c-.6 0-1-.4-1-1s.4-1 1-1h5c.6 0 1 .4 1 1s-.5 1-1 1"/></svg>