<svg xmlns="http://www.w3.org/2000/svg" fill="none" viewBox="0 0 24 24"><path fill="#000" d="M17.7 2H6.3C3.9 2 2 3.9 2 6.3v11.5C2 20.1 3.9 22 6.3 22h11.5c2.4 0 4.3-1.9 4.3-4.3V6.3C22 3.9 20.1 2 17.7 2M20 17.7c0 1.3-1 2.3-2.3 2.3H6.3C5 20 4 19 4 17.7V6.3C4 5 5 4 6.3 4h1.5v8q0 .6.6.9c0 .1.2.1.3.1.2 0 .4-.1.6-.2l2.7-2 2.7 2c.3.2.7.3 1 .1s.6-.5.6-.9V6c0-.6-.4-1-1-1s-1 .4-1 1v4l-1.7-1.3q-.6-.45-1.2 0L9.7 10V4h8C19 4 20 5 20 6.3z"/><path fill="#000" d="M11.2 16.7H6.3c-.6 0-1 .4-1 1s.4 1 1 1h4.9c.6 0 1-.4 1-1s-.5-1-1-1"/></svg>