<svg xmlns="http://www.w3.org/2000/svg" fill="none" viewBox="0 0 24 25"><g clip-path="url(#a)"><path fill="#000" d="M22.9 13.268q-.3-.6-.9-.6H3.2c.1-.3.3-.5.5-.8l7.5-7.5 6.7 6.7c.4.4 1 .4 1.4 0s.4-1 0-1.4l-7.3-7.4c-.4-.4-1-.4-1.4 0l-8.3 8.2c-.8.9-1.3 2-1.3 3.2v.2c0 1.2.5 2.3 1.3 3.1l5.8 5.8c.9.9 2 1.3 3.2 1.3s2.3-.4 3.2-1.3l8.2-8.3c.3-.4.4-.8.2-1.2m-9.9 8c-1 1-2.6 1-3.5 0l-5.8-5.8c-.2-.2-.4-.5-.5-.8h16.4z"/></g><defs><clipPath id="a"><path fill="#fff" d="M0 .968h24v24H0z"/></clipPath></defs></svg>