<svg xmlns="http://www.w3.org/2000/svg" fill="none" viewBox="0 0 22 24"><path fill="#000" fill-rule="evenodd" d="M3 3.791C3 2.259 4.216 1 5.762 1h11.259a1 1 0 1 1 0 2H5.762A.77.77 0 0 0 5 3.791c0 .458.35.791.762.791h9.595C17.393 4.582 19 6.24 19 8.27v11.044C19 21.343 17.393 23 15.357 23H6.643q-.034 0-.067-.002C4.606 22.864 3 21.256 3 19.214zm2 2.685v12.738c0 .933.728 1.706 1.68 1.786h8.677c.9 0 1.643-.731 1.643-1.687V8.27c0-.956-.742-1.687-1.643-1.687H5.762Q5.364 6.581 5 6.476" clip-rule="evenodd"/><path fill="#000" fill-rule="evenodd" d="M11.1 10.8a1.6 1.6 0 1 0 0 3.2 1.6 1.6 0 0 0 0-3.2m-3.6 1.6a3.6 3.6 0 1 1 7.2 0 3.6 3.6 0 0 1-7.2 0m.8 5.5a1 1 0 0 1 1-1h3.5a1 1 0 1 1 0 2H9.3a1 1 0 0 1-1-1" clip-rule="evenodd"/></svg>