<svg xmlns="http://www.w3.org/2000/svg" fill="none" viewBox="0 0 24 25"><path fill="#000" d="M19.38 7.741h-2.611V5.03c-.1-2.01-1.708-3.717-3.817-3.717H4.716C2.707 1.312 1 3.02 1 5.029v8.237a3.71 3.71 0 0 0 3.716 3.717h2.612v2.612a3.71 3.71 0 0 0 3.716 3.717h8.236a3.71 3.71 0 0 0 3.716-3.717v-8.237c.1-2.01-1.607-3.617-3.616-3.617M4.716 14.974a1.693 1.693 0 0 1-1.707-1.708V5.03c0-.904.803-1.708 1.707-1.708h8.236c1.004 0 1.707.804 1.707 1.708v8.237a1.693 1.693 0 0 1-1.707 1.708H9.437v-3.516c0-1.004.803-1.708 1.707-1.708.603 0 1.005-.401 1.005-1.004s-.402-1.005-1.005-1.005c-2.109 0-3.716 1.608-3.716 3.717v3.516zm16.271 4.722c0 1.004-.703 1.707-1.607 1.707h-8.236a1.693 1.693 0 0 1-1.707-1.707v-2.612h3.515a3.71 3.71 0 0 0 3.716-3.717V9.75h2.612c1.004 0 1.707.804 1.707 1.708z"/></svg>