<svg xmlns="http://www.w3.org/2000/svg" fill="none" viewBox="0 0 24 25"><path fill="#000" fill-rule="evenodd" d="M5.5 4.208c-.848 0-1.5.652-1.5 1.5v13c0 .848.652 1.5 1.5 1.5h1.6c.724 0 1.42-.635 1.5-1.443V5.708c0-.848-.652-1.5-1.5-1.5zM2 5.708c0-1.952 1.548-3.5 3.5-3.5h1.6c1.952 0 3.5 1.548 3.5 3.5v13.1q0 .038-.003.077c-.137 1.776-1.63 3.323-3.497 3.323H5.5a3.476 3.476 0 0 1-3.5-3.5zm14.9-1.5c-.848 0-1.5.652-1.5 1.5v13c0 .848.652 1.5 1.5 1.5h1.6c.875 0 1.5-.679 1.5-1.4v-13.1c0-.848-.652-1.5-1.5-1.5zm-3.5 1.5c0-1.952 1.548-3.5 3.5-3.5h1.6c1.952 0 3.5 1.548 3.5 3.5v13.1c0 1.879-1.574 3.4-3.5 3.4h-1.6a3.476 3.476 0 0 1-3.5-3.5z" clip-rule="evenodd"/></svg>