<svg xmlns="http://www.w3.org/2000/svg" fill="none" viewBox="0 0 24 25"><path fill="#000" d="M1.965 23.968c-.301 0-.503-.1-.704-.299-.301-.298-.301-.597-.2-.995l1.508-4.977c.201-.797.704-1.693 1.408-2.29l12.17-12.244a4.05 4.05 0 0 1 2.917-1.195c1.006 0 2.012.398 2.817 1.095 1.509 1.493 1.509 4.081-.1 5.674L11.52 18.991a.98.98 0 0 1-1.408 0 .955.955 0 0 1 0-1.394l10.26-10.154c.805-.796.905-2.19.1-2.986a2 2 0 0 0-1.408-.598c-.603 0-1.106.2-1.609.697L5.485 16.502l3.521 3.484c.201.2.302.498.302.796 0 .3-.201.598-.402.697l-.202.1c-.502.299-1.005.597-1.609.796L2.167 23.87c-.101.099-.101.099-.202.099m2.515-5.873c0 .1 0 .1-.1.199L3.374 21.58l3.218-.996c.1 0 .1 0 .201-.1z"/></svg>