<svg xmlns="http://www.w3.org/2000/svg" fill="none" viewBox="0 0 24 25"><path fill="#000" d="M21.709 13.632a.974.974 0 0 0-1.415 0l-.404.406-.707-.812a4.6 4.6 0 0 1-1.111-1.928c-.303-1.217-.505-2.638-.505-3.653-.101-1.218-.91-2.13-2.02-2.435L5.14 3.079c-.505-.203-1.01-.102-1.516.101l.809.812L5.646 5.21 9.99 9.573a.984.984 0 0 1 0 1.42 1.1 1.1 0 0 1-.707.305c-.303 0-.505-.101-.707-.304L4.232 6.63 3.019 5.413 2.211 4.6c-.202.507-.303 1.015-.1 1.522l2.222 10.35c.202 1.117 1.212 2.03 2.424 2.03.808 0 2.425.102 3.738.507.606.203 1.212.61 1.717 1.117l.707.71-.404.406a.984.984 0 0 0 0 1.42c.202.203.506.305.708.305s.505-.102.707-.304l1.111-1.117 5.455-5.48 1.112-1.116c.505-.304.505-1.014.1-1.319"/></svg>