<svg xmlns="http://www.w3.org/2000/svg" fill="none" viewBox="0 0 24 25"><path fill="#000" d="M6.4 15.712v-6.8c1-.3 1.8-1 2.2-2l4.1 1h.2c.4 0 .9-.3 1-.8s-.2-1.1-.7-1.2l-4.5-1c-.4-1.5-1.7-2.6-3.3-2.6-1.9 0-3.4 1.5-3.4 3.4 0 1.5 1 2.8 2.4 3.2v6.7c-1.4.5-2.4 1.8-2.4 3.3 0 1.9 1.5 3.4 3.4 3.4s3.4-1.5 3.4-3.4c0-1.5-1-2.8-2.4-3.2m13.2-2.1v-2.6c1.4-.4 2.4-1.7 2.4-3.2 0-1.9-1.5-3.4-3.4-3.4s-3.4 1.5-3.4 3.4c0 1.5 1 2.8 2.4 3.2v2.6c-1.1.4-2 1.3-2.3 2.4l-4.5 1.1c-.6.2-.9.7-.8 1.3.1.5.5.8 1 .8h.2l4.2-1c.5 1.3 1.7 2.2 3.2 2.2 1.9 0 3.4-1.5 3.4-3.4 0-1.7-1-3-2.4-3.4"/></svg>