<svg xmlns="http://www.w3.org/2000/svg" fill="none" viewBox="0 0 24 24"><path fill="#000" d="m22.67 9.291-7.906-7.96a1.057 1.057 0 0 0-1.537 0 1.074 1.074 0 0 0 0 1.548l.22.221-6.37 4.533-3.513.442c-1.098.11-2.086.995-2.416 1.99s-.11 2.211.66 2.875l3.842 3.869-2.745 2.764a1.074 1.074 0 0 0 0 1.548c.22.22.55.331.769.331.22 0 .549-.11.768-.331l2.746-2.764 3.843 3.87c.549.552 1.208.773 1.976.773.33 0 .66 0 .879-.11 1.098-.332 1.867-1.327 1.977-2.433l.549-3.537 3.294-4.644c.33-.552.22-1.216-.22-1.547-.549-.332-1.208-.221-1.537.22l-3.404 4.865c-.11.11-.11.332-.22.442l-.549 3.76c-.11.441-.44.552-.549.662-.11 0-.44.11-.659-.11l-4.612-4.643-4.502-4.423c-.33-.22-.22-.552-.22-.663s.22-.442.66-.553l3.733-.552c.22 0 .33-.11.44-.221l6.807-4.865 6.26 6.302c.219.22.548.331.768.331s.549-.11.769-.331c.439-.442.439-1.216 0-1.659"/></svg>