<svg xmlns="http://www.w3.org/2000/svg" fill="none" viewBox="0 0 24 25"><path fill="#000" d="M23 5.868c0-1.1-.3-2.1-1.1-2.8-.7-.8-1.7-1.1-2.8-1.1-1 0-2 .5-2.8 1.3l-3.7 3.7-.5-.5c-.4-.4-1-.4-1.4 0s-.4 1 0 1.4l4.6 4.6-7.3 7.3c-.7.7-1.6 1.3-2.6 1.7-.8.2-1.6.4-2.4.5.1-.8.2-1.6.5-2.3.4-.9 1-1.8 1.7-2.6l5.8-5.7c.4-.4.4-1 0-1.4s-1-.4-1.4 0l-5.7 5.7c-.9.9-1.7 2-2.2 3.2s-.7 2.5-.7 3.7c0 .4.1.7.4 1s.6.4 1 .4h.2c1.2 0 2.4-.2 3.6-.7s2.3-1.2 3.2-2.1l7.3-7.3.5.5c.2.2.5.3.7.3s.5-.1.7-.3c.4-.4.4-1 0-1.4l-.5-.5 3.7-3.7c.7-.8 1.2-1.8 1.2-2.9m-2.7 1.4-3.6 3.7-2.7-2.7 3.7-3.7c.4-.3.9-.6 1.5-.6.5 0 1 .2 1.3.5s.5.8.5 1.3c0 .6-.3 1.1-.7 1.5"/></svg>