<svg xmlns="http://www.w3.org/2000/svg" fill="none" viewBox="0 0 24 25"><path fill="#000" d="M18.477 2.976H5.62c-2.51 0-4.62 2.1-4.62 4.6v9.8c0 2.5 2.11 4.6 4.62 4.6h12.756c2.612 0 4.62-2.1 4.62-4.6v-9.8c.101-2.5-2.008-4.6-4.52-4.6m2.611 14.4c0 1.4-1.205 2.6-2.611 2.6H5.62c-1.406 0-2.611-1.2-2.611-2.6v-7.9H19.28c.603 0 1.005-.4 1.005-1s-.503-1-1.005-1H3.01c.1-1.4 1.205-2.5 2.611-2.5h12.756c1.507 0 2.712 1.2 2.712 2.6z"/><path fill="#000" d="M10.656 11.314c-.291-.381-.97-.476-1.358-.096l-3.007 2.57c-.194.19-.291.476-.291.762 0 .285.097.57.291.761l3.007 2.475c.194.19.388.19.679.19s.582-.095.776-.285c.388-.381.291-.952-.097-1.333L8.522 14.55l2.134-1.809c.388-.476.388-1.047 0-1.427m3.949-.092c-.388-.386-1.067-.29-1.358.096-.388.386-.291.965.097 1.351l2.134 1.833-2.134 1.834c-.388.386-.485.965-.097 1.35.194.194.485.29.776.29.194 0 .485-.096.679-.193l3.007-2.605c.194-.193.291-.483.291-.772s-.097-.58-.291-.772z"/></svg>