<svg xmlns="http://www.w3.org/2000/svg" fill="none" viewBox="0 0 24 24"><path fill="#000" d="M19.8 10.6h-.5v-2c0-2.2-1.8-4-4-4h-2v-.4c0-1.8-1.4-3.2-3.2-3.2S6.9 2.4 6.9 4.2v.5H5c-2.2 0-4 1.8-4 4v3c0 .6.4 1 1 1h1.5c.3 0 .6.1.9.4s.4.6.4 1c0 .6-.6 1.1-1.3 1.1H2c-.6 0-1 .4-1 1v3c0 2.2 1.8 4 4 4h3c.6 0 1-.4 1-1v-1.5c0-.3.1-.6.4-.9s.6-.4 1-.4c.6 0 1.1.6 1.1 1.3V22c0 .6.4 1 1 1h3c2.2 0 4-1.8 4-4v-2h.5c1.8 0 3.2-1.4 3.2-3.2-.2-1.7-1.6-3.2-3.4-3.2m0 4.5h-1.5c-.6 0-1 .4-1 1v3c0 1.1-.9 2-2 2h-2v-.4c0-1.8-1.3-3.2-3-3.3-.9-.1-1.9.3-2.5.9s-.9 1.4-.9 2.3v.4H5c-1.1 0-2-.9-2-2v-2h.4c1.8 0 3.2-1.3 3.3-3 .1-.9-.3-1.8-.9-2.5-.7-.5-1.5-.9-2.3-.9H3v-2c0-1.1.9-2 2-2h3c.6 0 1-.4 1-1V4.2c-.1-.7.5-1.2 1.1-1.2.7 0 1.2.5 1.2 1.2v1.5c0 .6.4 1 1 1h3c1.1 0 2 .9 2 2v3c0 .6.4 1 1 1h1.5c.7 0 1.2.5 1.2 1.2s-.5 1.2-1.2 1.2"/></svg>