<svg xmlns="http://www.w3.org/2000/svg" fill="none" viewBox="0 0 24 24"><path fill="#000" d="M7.475 22c-.5 0-.999-.2-1.499-.5-.8-.6-1.299-1.6-1.099-2.6l.6-3.9-2.698-2.8c-.7-.7-1-1.8-.6-2.8.3-1 1.1-1.6 2.099-1.8L8.075 7l1.699-3.5c.4-.9 1.299-1.5 2.298-1.5s1.899.6 2.398 1.5l1.6 3.5 3.697.6c.999.1 1.798.8 2.098 1.8s.1 2-.6 2.8L18.568 15l.6 3.9c.2 1-.2 2.1-1.1 2.6-.799.6-1.798.6-2.697.2l-3.298-1.9-3.298 1.8c-.4.3-.8.4-1.299.4m4.597-18c-.1 0-.4 0-.5.4l-1.898 4c-.2.3-.5.5-.8.5l-4.297.7c-.3 0-.4.3-.5.4 0 .1-.1.4.2.7l3.098 3.1q.3.3.3.9l-.7 4.4c-.1.4.2.6.3.7s.3.2.6 0l3.797-2.1c.3-.2.7-.2 1 0l3.797 2.1c.3.1.5 0 .6 0 .1-.1.3-.3.3-.7l-.7-4.4q-.15-.45.3-.9l3.097-3.1c.1-.2 0-.6 0-.7s-.2-.4-.5-.4L15.27 9c-.3 0-.6-.3-.8-.6l-1.898-4c-.1-.4-.4-.4-.5-.4"/></svg>