<svg xmlns="http://www.w3.org/2000/svg" fill="none" viewBox="0 0 24 24"><path fill="#000" d="M21.828 9.448c-.273-.909-1.093-1.635-2.003-1.726L16 7.177l-1.73-3.633C13.815 2.545 12.996 2 11.994 2s-1.82.545-2.276 1.453l-1.73 3.633-3.824.636c-.91.182-1.73.817-2.003 1.726-.365.999-.091 1.998.637 2.724l2.823 2.816-.638 3.997a2.53 2.53 0 0 0 1.093 2.543c.455.272.91.454 1.457.454.455 0 .82-.091 1.183-.273l3.46-1.907 3.46 1.907c.82.454 1.822.364 2.641-.181a2.53 2.53 0 0 0 1.093-2.543l-.638-3.997 2.823-2.815c.364-.727.637-1.817.273-2.725"/></svg>