<svg xmlns="http://www.w3.org/2000/svg" fill="none" viewBox="0 0 24 24"><path fill="#000" fill-rule="evenodd" d="M4.835 10.598a1 1 0 0 1 1.367-.363l5 2.9.028.017a1.62 1.62 0 0 0 1.668-.017l5-2.9a1 1 0 0 1 1.004 1.73l-4.987 2.893a3.62 3.62 0 0 1-3.73 0l-4.987-2.893a1 1 0 0 1-.363-1.367" clip-rule="evenodd"/><path fill="#000" fill-rule="evenodd" d="M11.173 3.182 4.74 6.943C3.677 7.69 3 8.796 3 10.1v8.3C3 19.848 4.152 21 5.6 21h12.8c1.448 0 2.6-1.152 2.6-2.6v-8.3c0-1.304-.677-2.41-1.74-3.157l-6.433-3.761a1.97 1.97 0 0 0-1.654 0m-.92-1.776a3.97 3.97 0 0 1 3.552.03l6.5 3.8q.033.02.064.042C21.89 6.33 23 8.016 23 10.1v8.3c0 2.552-2.048 4.6-4.6 4.6H5.6A4.585 4.585 0 0 1 1 18.4v-8.3c0-2.084 1.11-3.77 2.63-4.822l.065-.041 6.5-3.8z" clip-rule="evenodd"/></svg>