<svg xmlns="http://www.w3.org/2000/svg" fill="none" viewBox="0 0 24 24"><path fill="#000" d="M23 9.885v9.11C23 21.198 21.2 23 19 23H5c-2.2 0-4-1.802-4-4.005v-9.11c0-1.802.9-3.404 2.5-4.305l7.1-4.205c.9-.5 2-.5 2.9 0l7.1 4.205c1.5.801 2.4 2.503 2.4 4.305"/><path fill="#fff" d="M11.979 15c-.574 0-1.244-.19-1.722-.477L5.475 11.76c-.478-.287-.574-.859-.383-1.335.192-.382.861-.572 1.244-.286l4.782 2.765a1.65 1.65 0 0 0 1.626 0l4.782-2.765c.478-.286 1.052-.096 1.34.381.286.477.095 1.049-.383 1.335L13.7 14.619c-.478.19-1.147.381-1.721.381"/></svg>