<svg xmlns="http://www.w3.org/2000/svg" fill="none" viewBox="0 0 24 24"><path fill="#000" d="M12 22c-.2 0-.4-.1-.6-.2l-2.9-2.1-2.9 2.1c-.3.2-.7.2-1 .1Q4 21.6 4 21V5.5C4 3.5 5.5 2 7.3 2h9.3C18.5 2 20 3.5 20 5.5V21c0 .4-.2.7-.5.9s-.7.1-1-.1l-2.9-2.1-2.9 2.1c-.3.1-.5.2-.7.2m-3.5-4.5c.2 0 .4.1.6.2l2.9 2.1 2.9-2.1c.3-.2.8-.2 1.1 0l1.9 1.3V5.5c.1-.8-.5-1.5-1.2-1.5H7.3C6.6 4 6 4.7 6 5.5v13.6l1.9-1.3q.3-.3.6-.3"/><path fill="#000" d="M11.5 14.2c-.2 0-.5-.1-.6-.2l-2-1.6c-.4-.4-.5-1.1-.1-1.5s1-.5 1.4-.1l1.2 1 2.3-2.6c.4-.4 1-.4 1.4-.1.4.4.4 1 .1 1.4l-2.9 3.4c-.2.2-.5.3-.8.3"/></svg>