<svg xmlns="http://www.w3.org/2000/svg" fill="none" viewBox="0 0 24 25"><path fill="#000" fill-rule="evenodd" d="M7.254 2.775c-1.154-.786-2.5-.702-3.52-.086A3.62 3.62 0 0 0 2 5.808v12.8c0 2.719 2.908 4.5 5.23 3.048l.013-.008 9.9-6.4.012-.008c2.093-1.396 2.093-4.668 0-6.064zM4.767 4.402A1.62 1.62 0 0 0 4 5.808v12.8c0 1.279 1.286 1.898 2.164 1.355l9.886-6.39c.9-.606.9-2.124 0-2.73L6.157 4.448l-.024-.016c-.443-.305-.941-.287-1.366-.03M21 2.208a1 1 0 0 1 1 1v18a1 1 0 1 1-2 0v-18a1 1 0 0 1 1-1" clip-rule="evenodd"/></svg>