<svg xmlns="http://www.w3.org/2000/svg" fill="none" viewBox="0 0 24 25"><path fill="#000" d="M20.1 5.996H3.9c-1.1 0-1.9-.8-1.9-1.8 0-1.1.8-1.9 1.9-1.9h16.3c1 0 1.9.8 1.9 1.9-.1 1-.9 1.8-2 1.8m-16.2 7.2h7.3c1 0 1.9.8 1.9 1.9 0 1-.8 1.9-1.9 1.9H3.9c-1 0-1.9-.8-1.9-1.9s.8-1.9 1.9-1.9m0-5.5h7.3c1 0 1.9.8 1.9 1.9 0 1-.8 1.9-1.9 1.9H3.9c-1.1-.1-1.9-.9-1.9-1.9s.8-1.9 1.9-1.9m0 10.9h16.3c1 0 1.9.8 1.9 1.9 0 1-.8 1.9-1.9 1.9H3.9c-1 0-1.9-.8-1.9-1.9s.8-1.9 1.9-1.9m17.1-1.4c-.3.1-.5.2-.8.2-.4 0-.8-.1-1.1-.4l-4.4-3.3c-.4-.3-.7-.8-.7-1.4s.3-1.1.7-1.5l4.4-3.3c.6-.4 1.3-.5 1.9-.2s1 .9 1 1.6v6.5c0 .9-.4 1.5-1 1.8"/></svg>