<svg xmlns="http://www.w3.org/2000/svg" fill="none" viewBox="0 0 24 25"><path fill="#000" d="M19.9 9.312c.6.1 1.3-.1 1.7-.6q.6-.75.3-1.8l-1.1-3.4c-.2-.5-.7-.8-1.3-.6-.5.2-.8.7-.6 1.3l1 3.1-2.9-.5 1-1.2c.2-.2.3-.5.2-.8s-.1-.5-.4-.6c-1.7-1.2-3.7-1.9-5.8-1.9-5.5 0-10 4.5-10 10s4.5 10 10 10c.6 0 1.2-.1 1.8-.2.5-.1.9-.6.8-1.2-.1-.5-.6-.9-1.2-.8-.4.2-.9.2-1.4.2-4.4 0-8-3.6-8-8s3.6-8 8-8c1.3 0 2.6.3 3.7.9l-.5.5c-.4.5-.6 1.2-.3 1.8s.8 1.1 1.4 1.2z"/><path fill="#000" d="M21 11.312c-.6 0-1 .4-1 1 0 .5 0 1-.1 1.5s.3 1.1.8 1.2h.2c.5 0 .9-.3 1-.8.1-.6.2-1.2.2-1.8-.1-.7-.5-1.1-1.1-1.1m-2.5 5.6c-.6.9-1.5 1.7-2.5 2.3-.5.3-.6.9-.3 1.4.2.3.5.5.9.5.2 0 .4 0 .5-.1 1.2-.7 2.3-1.7 3.1-2.8.3-.5.2-1.1-.2-1.4-.5-.5-1.1-.4-1.5.1m-6.5-8.1c-1.9 0-3.5 1.5-3.5 3.5 0 1.9 1.5 3.5 3.5 3.5 1.9 0 3.5-1.5 3.5-3.5 0-1.9-1.6-3.5-3.5-3.5m0 5c-.8 0-1.5-.7-1.5-1.5s.7-1.5 1.5-1.5 1.5.7 1.5 1.5-.7 1.5-1.5 1.5"/></svg>