<svg xmlns="http://www.w3.org/2000/svg" fill="none" viewBox="0 0 24 24"><path fill="#000" fill-rule="evenodd" d="M5 3a2 2 0 1 0 0 4 2 2 0 0 0 0-4M1 5a4 4 0 1 1 8 0 4 4 0 0 1-8 0m18 12a2 2 0 1 0 0 4 2 2 0 0 0 0-4m-4 2a4 4 0 1 1 8 0 4 4 0 0 1-8 0" clip-rule="evenodd"/><path fill="#000" fill-rule="evenodd" d="M10 5a1 1 0 0 1 1-1h6.3c3.098 0 4.215 4.053 1.49 5.572L7.186 16.174A.972.972 0 0 0 7.7 18H13a1 1 0 1 1 0 2H7.7c-3.098 0-4.215-4.053-1.49-5.571l11.604-6.603A.972.972 0 0 0 17.3 6H11a1 1 0 0 1-1-1" clip-rule="evenodd"/></svg>