<svg xmlns="http://www.w3.org/2000/svg" fill="none" viewBox="0 0 24 25"><path fill="#000" d="m22.283 5.149-3.19-3.193c-.997-.997-2.592-.997-3.489 0L1.748 15.825c-.997.998-.997 2.594 0 3.492l3.19 3.193c.498.498 1.096.698 1.794.698s1.296-.3 1.794-.698L22.283 8.74c.498-.498.698-1.097.698-1.795.1-.698-.2-1.297-.698-1.796"/><path fill="#fff" d="M7.5 17.808c-.3 0-.5-.1-.7-.3l-1.4-1.4c-.4-.4-.4-1 0-1.4s1-.4 1.4 0l1.4 1.4c.4.4.4 1 0 1.4-.2.2-.4.3-.7.3m4.5-4.6c-.3 0-.5-.1-.7-.3l-1.4-1.4c-.4-.4-.4-1 0-1.4s1-.4 1.4 0l1.4 1.4c.4.4.4 1 0 1.4-.1.2-.4.3-.7.3m4.6-4.5c-.3 0-.5-.1-.7-.3l-1.4-1.4c-.4-.4-.4-1 0-1.4s1-.4 1.4 0l1.4 1.4c.4.4.4 1 0 1.4-.2.2-.5.3-.7.3"/></svg>