<svg xmlns="http://www.w3.org/2000/svg" fill="none" viewBox="0 0 24 25"><path fill="#000" d="m22.302 5.149-3.193-3.193c-.998-.997-2.594-.997-3.492 0L1.748 15.725c-.997.998-.997 2.594 0 3.492l3.193 3.193c.499.499 1.098.798 1.796.798s1.297-.3 1.796-.698L22.302 8.74C22.7 8.243 23 7.644 23 6.946s-.3-1.297-.698-1.796m-1.397 2.095L7.036 21.113c-.1.1-.2.1-.299.1-.1 0-.3-.1-.4-.1L3.146 17.92c-.2-.2-.2-.499 0-.698l1.696-1.697 1.996 1.996c.2.2.399.3.698.3.3 0 .499-.1.699-.3a.965.965 0 0 0 0-1.397L6.238 14.13l3.093-3.093 1.995 1.995c.2.2.4.3.699.3.3 0 .499-.1.698-.3a.965.965 0 0 0 0-1.397L10.728 9.64l3.093-3.093 1.995 1.995c.2.2.4.3.699.3.3 0 .499-.1.698-.3a.965.965 0 0 0 0-1.396L15.218 5.15l1.796-1.796c.1-.1.2-.1.299-.1.1 0 .3 0 .399.1l3.193 3.193c.1.1.1.3.1.399s0 .2-.1.3"/></svg>