<svg xmlns="http://www.w3.org/2000/svg" fill="none" viewBox="0 0 24 25"><path fill="#000" d="m12.863 5.988-1.624-1.6c-.711-.7-1.625-1.1-2.538-1.1H4.74c-1.522 0-2.74 1.2-2.74 2.7v12.5c0 1.6 1.218 2.8 2.741 2.8H19.26c1.523 0 2.741-1.2 2.741-2.7v-9.8c0-1.5-1.218-2.7-2.741-2.7h-6.396z"/><path fill="#fff" d="m15.8 16.588-1.3-1.3c.8-1.4.6-3.2-.6-4.3-1.4-1.4-3.8-1.4-5.2 0s-1.4 3.7 0 5.2c.7.7 1.6 1.1 2.6 1.1.6 0 1.2-.2 1.8-.5l1.3 1.3c.2.2.5.3.7.3s.5-.1.7-.3c.4-.5.4-1.1 0-1.5m-5.6-1.9c-.6-.6-.6-1.7 0-2.3.3-.3.7-.5 1.2-.5.4 0 .9.2 1.2.5.6.6.6 1.7 0 2.3-.7.6-1.8.6-2.4 0"/></svg>