<svg xmlns="http://www.w3.org/2000/svg" fill="none" viewBox="0 0 24 25"><path fill="#000" fill-rule="evenodd" d="M2 6.852c0-1.959 1.513-3.564 3.486-3.564h3.48c1.129 0 2.209.394 3.019 1.341l1.164 1.12h5.365C20.487 5.75 22 7.356 22 9.315v8.41c0 1.959-1.513 3.564-3.486 3.564H5.486C3.513 21.288 2 19.683 2 17.724zm3.486-1.564C4.676 5.288 4 5.94 4 6.852v10.872c0 .913.675 1.564 1.486 1.564h13.028c.81 0 1.486-.651 1.486-1.564v-8.41c0-.913-.675-1.564-1.486-1.564h-5.768a1 1 0 0 1-.694-.28l-1.491-1.436a1 1 0 0 1-.076-.081c-.379-.456-.874-.665-1.518-.665z" clip-rule="evenodd"/><path fill="#000" fill-rule="evenodd" d="M10.318 11.495a1.7 1.7 0 1 0 2.404 2.404 1.7 1.7 0 0 0-2.404-2.404m-1.414 3.818a3.7 3.7 0 1 1 5.232-5.232 3.7 3.7 0 0 1-5.232 5.232" clip-rule="evenodd"/><path fill="#000" fill-rule="evenodd" d="M12.674 13.9a1 1 0 0 1 1.414-.038l1.9 1.8a1 1 0 1 1-1.376 1.452l-1.9-1.8a1 1 0 0 1-.038-1.414" clip-rule="evenodd"/></svg>