<svg xmlns="http://www.w3.org/2000/svg" fill="none" viewBox="0 0 24 25"><path fill="#000" fill-rule="evenodd" d="M10.184 2.362a4.4 4.4 0 0 1 3.606 0l.017.008 6.183 2.896.024.012c1.385.694 2.205 2.218 1.935 3.852-.514 3.19-2.07 9.479-7.84 14.102l-.011.009a3.395 3.395 0 0 1-4.221 0l-.011-.009C4.095 18.608 2.54 12.317 2.026 9.128l-.01-.07c-.128-1.41.502-3.074 2.07-3.792l6.075-2.893zm.825 1.822-6.07 2.89-.016.008c-.612.279-.976.993-.917 1.765.489 3.01 1.933 8.672 7.105 12.82a1.395 1.395 0 0 0 1.752 0c5.193-4.165 6.628-9.856 7.111-12.857l.001-.006c.126-.757-.244-1.426-.847-1.733l-6.16-2.885a2.4 2.4 0 0 0-1.96-.002" clip-rule="evenodd"/><path fill="#000" fill-rule="evenodd" d="M16.599 8.175a1 1 0 0 1 .202 1.4l-4.487 6a1 1 0 0 1-1.597.007l-2.513-3.3a1 1 0 1 1 1.592-1.212l1.71 2.246 3.693-4.939a1 1 0 0 1 1.4-.202" clip-rule="evenodd"/></svg>