<svg xmlns="http://www.w3.org/2000/svg" fill="none" viewBox="0 0 24 24"><path fill="#000" d="m9.48 1.026-5.06.986C2.99 2.232 2 3.547 2 4.972v14.031c0 1.425.99 2.74 2.42 2.96l5.06.986c1.76.33 3.3-.986 3.52-2.74V3.766c-.22-1.754-1.76-2.96-3.52-2.74M18.898 4H15v16h3.898c1.72 0 3.095-1.387 3.095-2.987V6.987C22.108 5.28 20.733 4 18.898 4"/><path fill="#fff" d="M9.235 13.99c-.663 0-1.106-.442-1.106-1.105v-1.77c0-.663.443-1.106 1.106-1.106.664 0 1.106.443 1.106 1.106v1.88c0 .553-.442.996-1.106.996"/></svg>