<svg xmlns="http://www.w3.org/2000/svg" fill="none" viewBox="0 0 24 25"><path fill="#000" d="m20.7 14.368-2.9.8-3.8-2.2 3.8-2.2 2.9.8h.3c.4 0 .8-.3 1-.7.1-.5-.2-1.1-.7-1.2l-2.4-.7.6-2.4c.1-.5-.2-1.1-.7-1.2s-1.1.2-1.2.7l-.8 2.9-3.8 2.2v-4.3l2.2-2.2c.4-.4.4-1 0-1.4s-1-.4-1.4 0l-1.8 1.7-1.7-1.7c-.4-.4-1-.4-1.4 0s-.4 1 0 1.4l2.1 2.2v4.4l-3.8-2.2-.8-3c-.1-.5-.7-.8-1.2-.7s-.9.7-.7 1.2l.6 2.4-2.4.6c-.5.2-.8.7-.7 1.3.1.4.5.7 1 .7h.3l2.9-.8 3.8 2.2-3.8 2.2-2.9-.8c-.5-.1-1.1.2-1.2.7s.2 1.1.7 1.2l2.3.7-.6 2.4c-.1.5.2 1.1.7 1.2h.3c.4 0 .8-.3 1-.7l.8-2.9 3.7-2.3v4.4l-2.2 2.2c-.4.4-.4 1 0 1.4s1 .4 1.4 0l1.7-1.7 1.7 1.7c.2.2.5.3.7.3s.5-.1.7-.3c.4-.4.4-1 0-1.4l-2-2.2v-4.4l3.8 2.2.8 2.9c.1.4.5.7 1 .7h.3c.5-.1.8-.7.7-1.2l-.7-2.3 2.4-.6c.5-.1.8-.7.7-1.2-.2-.6-.7-1-1.3-.8"/></svg>