<svg xmlns="http://www.w3.org/2000/svg" fill="none" viewBox="0 0 24 24"><path fill="#000" d="M17.346 2.31c-.973-.496-2.043-.397-3.016.3l-1.07.993c-1.168.995-2.53 1.592-4.087 1.592H5.67c-1.265 0-2.432.497-3.405 1.491C1.486 7.581 1 8.874 1 10.166c0 2.387 1.654 4.376 3.795 4.873v4.077C4.795 20.707 6.059 22 7.519 22c1.557 0 2.724-1.293 2.724-2.884v-3.878c1.168.199 2.238.696 3.114 1.492l1.167.994c.876.597 1.946.696 2.92.199.972-.497 1.556-1.591 1.556-2.685V4.996c0-1.194-.584-2.188-1.654-2.685M23 8c0-.6-.5-1-1-1-.6 0-1 .5-1 1v4c0 .6.5 1 1 1 .6 0 1-.5 1-1z"/></svg>