<svg xmlns="http://www.w3.org/2000/svg" fill="none" viewBox="0 0 24 25"><path fill="#000" d="M15.6 16.668c-.4 0-.7-.2-.9-.5l-1.2-2.1c-.5-1.1-1.5-2.1-2.6-2.7l-2.1-1.2c-.3-.1-.5-.5-.5-.8 0-.4.2-.7.5-.9l2.1-1.2c1.1-.6 2.1-1.5 2.7-2.7l1.2-2.1c.1-.3.5-.5.8-.5.4 0 .7.2.9.5l1.2 2.1c.6 1.1 1.6 2.1 2.7 2.7l2.1 1.2c.3.2.5.5.5.9s-.2.7-.5.9l-2.1 1.2c-1.1.6-2.1 1.6-2.7 2.7l-1.2 2.1c-.2.2-.5.4-.9.4m-4.2-7.3.5.3c1.5.8 2.7 2 3.5 3.5l.3.5.3-.5c.8-1.5 2-2.7 3.5-3.5l.5-.3-.5-.3c-1.5-.8-2.7-2-3.5-3.5l-.3-.5-.3.5c-.8 1.5-2 2.7-3.5 3.5zm-4.9 14.6c-.4 0-.7-.2-.9-.5l-.6-1.2c-.5-1-1.3-1.8-2.3-2.3l-1.2-.6c-.3-.2-.5-.6-.5-.9 0-.4.2-.7.5-.9l1.2-.6c1-.5 1.8-1.3 2.3-2.3l.6-1.2c.4-.6 1.4-.6 1.8 0l.6 1.2c.5 1 1.3 1.8 2.3 2.3l1.2.6c.3.2.5.5.5.9s-.2.7-.5.9l-1.1.6c-1 .5-1.8 1.3-2.3 2.3l-.6 1.2c-.3.3-.6.5-1 .5m-2.4-5.5c1 .6 1.9 1.5 2.5 2.5.6-1 1.5-1.9 2.5-2.5-1.1-.7-1.9-1.5-2.6-2.5-.6 1-1.4 1.8-2.4 2.5"/></svg>