<svg xmlns="http://www.w3.org/2000/svg" fill="none" viewBox="0 0 24 24"><path fill="#000" d="M15 10.5c-.8.7-1.9 1-3 1s-2.1-.4-3-1c-.8.7-1.9 1-3 1-.7 0-1.4-.2-2-.5v5.9C4 19.2 5.7 21 7.8 21h2.1c.5 0 .9-.4.9-1v-3c0-.7.5-1.3 1.2-1.3s1.2.6 1.2 1.3v3c0 .5.4 1 .9 1h2.1c2.1 0 3.8-1.8 3.8-3.9v-6c-.6.3-1.3.5-2 .5-1.2 0-2.2-.4-3-1.1m6.8-5.1L21.3 4c-.2-.6-.8-1-1.5-1H4.2c-.7 0-1.3.4-1.5 1l-.5 1.4c-.5 1.3 0 2.7 1.1 3.5.6.5 1.4.7 2.2.7 1.1 0 2-.5 2.6-1.2.2-.2.4-.3.7-.3.2 0 .5.1.7.3.5.8 1.4 1.3 2.5 1.3s2-.5 2.6-1.2c.2-.2.4-.3.7-.3s.5.1.7.3c.6.7 1.5 1.2 2.6 1.2.9 0 1.6-.3 2.2-.7 1-.9 1.5-2.2 1-3.6"/></svg>