<svg xmlns="http://www.w3.org/2000/svg" fill="none" viewBox="0 0 24 25"><path fill="#000" d="M5.1 10.796c.2 0 .3 0 .5-.1.5-.2.7-.8.4-1.3s-.4-1-.4-1.6c0-.9.4-1.8 1-2.5.7-.6 1.5-1 2.4-1-.8 1-1.3 2.2-1.3 3.5 0 .9.2 1.7.6 2.5.2.3.5.5.9.5.2 0 .3 0 .5-.1.5-.3.7-.9.4-1.3-.3-.5-.4-1-.4-1.6 0-.9.4-1.8 1-2.5s1.5-1 2.5-1h3.7c.6 0 1-.4 1-1s-.4-1-1-1H9.1c-1.4 0-2.8.6-3.9 1.6-1 1-1.6 2.4-1.6 3.9 0 .9.2 1.7.6 2.5.2.3.6.5.9.5m15.9.5H3c-.6 0-1 .4-1 1s.4 1 1 1h7c.9 0 1.8.4 2.5 1 .7.7 1 1.5 1 2.5 0 1.9-1.6 3.5-3.5 3.5H5.5c-.6 0-1 .4-1 1s.4 1 1 1H14c3 0 5.5-2.5 5.5-5.5 0-1.3-.5-2.5-1.3-3.5H21c.6 0 1-.4 1-1s-.4-1-1-1m-6.8 9c.8-.9 1.2-2.2 1.2-3.5s-.5-2.5-1.3-3.5c.9 0 1.7.4 2.3 1 .7.7 1 1.5 1 2.5.1 1.9-1.3 3.4-3.2 3.5"/></svg>