<svg xmlns="http://www.w3.org/2000/svg" fill="none" viewBox="0 0 24 25"><path fill="#000" d="M12 6.168c-3.6 0-6.5 2.9-6.5 6.5s2.9 6.5 6.5 6.5 6.5-2.9 6.5-6.5-2.9-6.5-6.5-6.5m0 10.9c-2.5 0-4.5-2-4.5-4.5s2-4.5 4.5-4.5 4.5 2 4.5 4.5-2 4.5-4.5 4.5m0-11.5c.6 0 1-.4 1-1v-1.6c0-.6-.4-1-1-1s-1 .4-1 1v1.6c0 .5.4 1 1 1m-6.7 2.1c.2.2.5.3.7.3s.5-.1.7-.3c.4-.4.4-1 0-1.4l-1.1-1.1c-.4-.4-1-.4-1.4 0s-.4 1 0 1.4zm-.7 5.3c0-.6-.4-1-1-1H2c-.6 0-1 .4-1 1s.4 1 1 1h1.6c.5 0 1-.4 1-1m.7 5.3-1.1 1.1c-.4.4-.4 1 0 1.4.2.2.5.3.7.3s.5-.1.7-.3l1.1-1.1c.4-.4.4-1 0-1.4s-1-.4-1.4 0m6.7 2.1c-.6 0-1 .4-1 1v1.6c0 .6.4 1 1 1s1-.4 1-1v-1.6c0-.5-.4-1-1-1m6.7-2.1c-.4-.4-1-.4-1.4 0s-.4 1 0 1.4l1.1 1.1c.2.2.5.3.7.3s.5-.1.7-.3c.4-.4.4-1 0-1.4zm3.3-6.3h-1.6c-.6 0-1 .4-1 1s.4 1 1 1H22c.6 0 1-.4 1-1s-.4-1-1-1m-4-4c.3 0 .5-.1.7-.3l1.1-1.1c.4-.4.4-1 0-1.4s-1-.4-1.4 0l-1.1 1.1c-.4.4-.4 1 0 1.4.2.2.4.3.7.3"/></svg>