<svg xmlns="http://www.w3.org/2000/svg" fill="none" viewBox="0 0 24 25"><path fill="#000" d="M15.5 17.396c0-.6-.4-1-1-1H4.4c-.8 0-1.4-.6-1.4-1.4v-5.4c0-.8.6-1.4 1.4-1.4h10.1c.6 0 1-.4 1-1s-.4-1-1-1H4.4c-1.9 0-3.4 1.5-3.4 3.4v5.4c0 1.9 1.5 3.4 3.4 3.4h10.1c.5 0 1-.4 1-1"/><path fill="#000" d="M19.6 6.196h-.9v-1.9h1.5c.6 0 1-.4 1-1s-.4-1-1-1h-4.9c-.6 0-1 .4-1 1s.4 1 1 1h1.5v16h-1.5c-.6 0-1 .4-1 1s.4 1 1 1h4.9c.6 0 1-.4 1-1s-.4-1-1-1h-1.5v-1.9h.9c1.9 0 3.4-1.5 3.4-3.4v-5.4c0-1.9-1.5-3.4-3.4-3.4m1.4 8.8c0 .8-.6 1.4-1.4 1.4h-.9v-8.2h.9c.8 0 1.4.6 1.4 1.4z"/></svg>