<svg xmlns="http://www.w3.org/2000/svg" fill="none" viewBox="0 0 24 25"><path fill="#000" d="M6.4 15.712v-6.8c1.1-.3 1.9-1.2 2.2-2.2H13c.6 0 1-.4 1-1s-.4-1-1-1H8.6c-.4-1.4-1.7-2.4-3.2-2.4-1.9 0-3.4 1.5-3.4 3.4 0 1.5 1 2.8 2.4 3.2v6.7c-1.4.5-2.4 1.8-2.4 3.3 0 1.9 1.5 3.4 3.4 3.4s3.4-1.5 3.4-3.4c0-1.5-1-2.8-2.4-3.2m13.2 0v-6.8c1.4-.4 2.4-1.7 2.4-3.2 0-1.9-1.5-3.4-3.4-3.4s-3.4 1.5-3.4 3.4c0 1.5 1 2.8 2.4 3.2v6.7c-1.1.3-1.9 1.2-2.2 2.2H11c-.6 0-1 .4-1 1s.4 1 1 1h4.4c.4 1.4 1.7 2.4 3.2 2.4 1.9 0 3.4-1.5 3.4-3.4 0-1.4-1-2.7-2.4-3.1"/></svg>