<svg xmlns="http://www.w3.org/2000/svg" fill="none" viewBox="0 0 24 25"><path fill="#000" fill-rule="evenodd" d="M7.4 2.312a1 1 0 0 1 1-1h7.2a1 1 0 1 1 0 2H8.4a1 1 0 0 1-1-1M1 5.912a1 1 0 0 1 1-1h20a1 1 0 1 1 0 2h-1.4v11.8c0 2.552-2.048 4.6-4.6 4.6H8c-2.57 0-4.6-2.066-4.6-4.7v-11.7H2a1 1 0 0 1-1-1m4.4 1v11.7c0 1.566 1.17 2.7 2.6 2.7h8c1.448 0 2.6-1.152 2.6-2.6v-11.8zm3.9 2.6a1 1 0 0 1 1 1v7.3a1 1 0 1 1-2 0v-7.3a1 1 0 0 1 1-1m5.4 0a1 1 0 0 1 1 1v7.3a1 1 0 1 1-2 0v-7.3a1 1 0 0 1 1-1" clip-rule="evenodd"/></svg>