<svg xmlns="http://www.w3.org/2000/svg" fill="none" viewBox="0 0 24 25"><path fill="#000" d="M22.922 10.468c-1.123-5-5.614-8.5-10.922-8.5s-9.799 3.5-10.922 8.5c-.204.8 0 1.7.51 2.4.613.7 1.43 1.1 2.246 1.1h7.145v6.7c0 .7-.612 1.3-1.327 1.3-.714 0-1.327-.6-1.327-1.3v-.5c0-.6-.408-1-1.02-1s-1.021.4-1.021 1v.5c0 1.8 1.531 3.3 3.368 3.3 1.838 0 3.369-1.5 3.369-3.3v-6.7h7.145c.918 0 1.735-.4 2.245-1.1.51-.6.715-1.5.51-2.4m-2.144 1.2c-.102.1-.306.3-.612.3H3.834c-.306 0-.51-.2-.612-.3-.204-.2-.204-.5-.204-.7a9.23 9.23 0 0 1 8.982-7 9.23 9.23 0 0 1 8.982 7c0 .2 0 .5-.204.7"/></svg>