<svg xmlns="http://www.w3.org/2000/svg" fill="none" viewBox="0 0 24 25"><path fill="#000" d="M19.989 21.296H4.01c-.607 0-1.011.4-1.011 1s.404 1 1.011 1h15.98c.607 0 1.011-.4 1.011-1s-.404-1-1.011-1m1.01-20h-3.6c-.6 0-1 .393-1 .982s.4.981 1 .981h.8v6.97c0 1.964-1 3.731-2.4 4.811-1.1.785-2.6.884-3.7.098-1.4-1.08-2.2-3.043-2.2-4.908V3.26h.4c.6 0 1-.393 1-.982 0-.59-.4-.982-1-.982H3c-.6 0-1 .393-1 .982s.4.981 1 .981h.8v6.676c0 4.32 3.3 8.05 7.6 8.345 4.8.294 8.8-3.436 8.8-8.05V3.26h.8c.6 0 1-.393 1-.982 0-.59-.4-.982-1-.982"/></svg>