<svg xmlns="http://www.w3.org/2000/svg" fill="none" viewBox="0 0 24 24"><path fill="#000" d="M23 11c0 2.6-2.129 4.8-4.866 4.8h-5.17v2.8l1.013-1a.99.99 0 0 1 1.42 0c.405.4.405 1 0 1.4l-2.738 2.7c-.203.2-.405.3-.71.3s-.507-.1-.71-.3l-.709-.7-1.52-1.5-.406-.5a.96.96 0 0 1 0-1.4c.101-.1.202-.2.405-.2.304-.1.71 0 1.014.2l1.014 1v-8.3c0-.6-.507-1-1.014-1s-1.014.4-1.014 1v5.5H5.866C3.13 15.7 1 13.6 1 11s2.129-4.8 4.866-4.8h.507C7.488 4.3 9.618 3 11.95 3s4.461 1.3 5.678 3.3h.507C20.87 6.2 23 8.4 23 11"/></svg>