<svg xmlns="http://www.w3.org/2000/svg" fill="none" viewBox="0 0 24 25"><path fill="#000" d="M12.4 22.176c-.2-.3-.4-.5-.5-.8-.5-.9-.7-1.9-.7-2.9 0-1.5.6-2.9 1.5-4 .2-.2.3-.4.5-.5 0-.1.5-.4.8-.6 1.8-1.1 2.9-3.1 2.7-5.2-.1-.8-.3-1.5-.6-2-.8-1.5-2.2-2.6-3.9-2.9-3.6-.7-6.8 2-6.8 5.5 0 1.9.9 3.5 2.3 4.5-2.5.9-4.5 2.8-5.6 5.3-.4 1-.3 2.1.3 3 .8.8 1.8 1.4 3 1.4h7.8c-.3-.3-.6-.5-.8-.8"/><path fill="#000" d="M21.6 16.476c-.2-.5-.6-1-1-1.4-.8-.8-2-1.3-3.2-1.3-.4 0-.9.1-1.3.2-.3.1-.7.2-1 .4-.3.1-.5.3-.8.5-1 .8-1.6 2.1-1.6 3.5 0 1.1.4 2.1 1.1 2.9.3.3.6.6.9.8.7.5 1.5.8 2.3.8h.3c2.5 0 4.6-2.1 4.6-4.6.1-.6-.1-1.2-.3-1.8"/><path fill="#fff" d="M22.1 14.676c-.2-.2-.6-.3-.9-.1-.1 0-.2.1-.3.2l-.3.4-1.5 1.7-.6.6-.6.6-.5.6-.9-1c-.3-.3-.8-.4-1.2-.1-.3.3-.4.8-.1 1.2l1.5 1.7q.3.3.6.3c.2 0 .5-.1.6-.3l.5-.5.8-.9.6-.7 1.7-1.9.6-.6c.4-.4.3-.9 0-1.2"/></svg>