<svg xmlns="http://www.w3.org/2000/svg" fill="none" viewBox="0 0 24 25"><path fill="#000" d="M8.8 21.276c.2-1.9 1-3.6 2.4-5l3.8-3.8c.8-.8 1.4-1.8 1.6-2.9.1-.9 0-1.9-.2-2.6-.7-2.2-2.7-3.9-5.1-4-3.2-.1-5.8 2.4-5.8 5.6 0 1.9.9 3.5 2.3 4.5-2.5.9-4.5 2.8-5.6 5.3-.4 1-.3 2.1.3 3 .7 1 1.7 1.6 2.9 1.6h3.5c-.1-.3-.2-.5-.2-.8s.1-.6.1-.9"/><path fill="#000" d="M21.3 12.076c-.5-.5-1.1-.7-1.8-.7-.6 0-1.3.2-1.8.7l-1.7 1.8-.6.6-.6.6-2.4 2.4c-1 1-1.7 2.4-1.8 3.8 0 .3-.1.5-.1.8 0 .5.4.8.8.8 1.1 0 2.2-.3 3.2-.8.5-.3 1-.6 1.4-1.1l3-3 .6-.6 1.8-1.8c.5-.5.7-1.1.7-1.8 0-.6-.3-1.2-.7-1.7"/></svg>