<svg xmlns="http://www.w3.org/2000/svg" fill="none" viewBox="0 0 24 25"><path fill="#000" d="M6.8 19.076H3.5c-.2 0-.3-.1-.4-.2s-.2-.3-.1-.5c.6-1.7 2.1-2.7 3.8-2.7 2.1 0 3.8-1.8 3.8-3.9s-1.7-4.1-3.8-4.1-3.8 1.8-3.8 4c0 1 .4 2 1 2.7-1.3.7-2.3 1.8-2.9 3.3-.2.7-.1 1.6.4 2.3s1.2 1.1 2 1.1h3.3c.6 0 1-.4 1-1s-.4-1-1-1m-1.8-7.4c0-1.1.8-1.9 1.8-1.9s1.8.9 1.8 1.9c0 1.1-.8 1.9-1.8 1.9s-1.8-.9-1.8-1.9"/><path fill="#000" d="M22.9 17.076c-.7-1.9-2.1-3.3-3.7-4.1.9-.8 1.4-2 1.4-3.4 0-2.6-2-4.7-4.4-4.7s-4.4 2.1-4.4 4.7c0 1.3.5 2.5 1.4 3.4-1.6.8-3 2.2-3.7 4.1-.5.9-.3 1.9.2 2.7s1.4 1.2 2.3 1.2h8.3c.9 0 1.8-.5 2.3-1.2.6-.8.7-1.8.3-2.7m-9.2-7.4c0-1.5 1.1-2.7 2.4-2.7s2.4 1.2 2.4 2.7-1.1 2.7-2.4 2.7-2.4-1.3-2.4-2.7m7.2 9c-.1.1-.3.4-.6.4H12c-.4 0-.6-.3-.6-.4-.1-.1-.3-.5-.1-.9.8-2.1 2.8-3.5 4.9-3.5s4.1 1.4 4.9 3.5c.1.4-.1.8-.2.9"/></svg>