<svg xmlns="http://www.w3.org/2000/svg" fill="none" viewBox="0 0 24 25"><path fill="#000" d="M8.8 10.776c.6 0 1-.4 1-1 0-1.2 1-2.2 2.2-2.2s2.2 1 2.2 2.2c0 .6.4 1 1 1s1-.4 1-1c0-2.3-1.9-4.2-4.2-4.2s-4.2 1.9-4.2 4.2c0 .5.5 1 1 1m13.2 1.2H2c-.6 0-1 .4-1 1s.4 1 1 1h5.1c-.6.6-1.1 1.3-1.4 2.1s-.2 1.7.2 2.4c.5.7 1.3 1.2 2.2 1.2h7.6c.9 0 1.7-.4 2.2-1.2.5-.7.6-1.6.2-2.4-.3-.8-.8-1.5-1.4-2.1H22c.6 0 1-.4 1-1s-.4-1-1-1m-5.6 4.9c.1.2 0 .4-.1.5q-.15.3-.6.3H8.2q-.3 0-.6-.3c-.1-.1-.2-.3-.1-.5.6-1.5 2-2.6 3.6-2.9h1.6c1.7.3 3.1 1.4 3.7 2.9m5.6-.4c-.6 0-1 .4-1 1v1.8c0 1.5-1.2 2.6-2.6 2.6h-1.8c-.6 0-1 .4-1 1s.4 1 1 1h1.8c2.6 0 4.6-2.1 4.6-4.6v-1.8c0-.5-.4-1-1-1m-14.5 5.5H5.6c-1.4 0-2.6-1.2-2.6-2.6v-1.8c0-.6-.4-1-1-1s-1 .4-1 1v1.8c0 2.5 2.1 4.6 4.6 4.6h1.8c.6 0 1-.4 1-1s-.4-1-.9-1M2 9.476c.6 0 1-.4 1-1v-1.9c0-1.4 1.2-2.6 2.6-2.6h1.8c.6 0 1-.4 1-1s-.4-1-.9-1H5.6c-2.5 0-4.6 2.1-4.6 4.6v1.8c0 .6.4 1.1 1 1.1m16.4-7.5h-1.8c-.6 0-1 .4-1 1s.4 1 1 1h1.8c1.4 0 2.6 1.2 2.6 2.6v1.8c0 .6.4 1 1 1s1-.4 1-1v-1.8c0-2.5-2.1-4.6-4.6-4.6"/></svg>