<svg xmlns="http://www.w3.org/2000/svg" fill="none" viewBox="0 0 24 25"><path fill="#000" d="M14.9 14.376c.6-.7 1-1.6 1-2.5 0-2.2-1.8-3.9-3.9-3.9s-3.9 1.7-3.9 3.8c0 1 .4 1.9 1 2.5-1.3.7-2.3 1.7-2.9 3.1-.3.7-.2 1.6.2 2.3.5.7 1.3 1.1 2.1 1.1h6.9c.8 0 1.6-.4 2.1-1.1s.5-1.5.2-2.3c-.5-1.3-1.5-2.4-2.8-3m-4.8-2.6c0-1 .9-1.8 1.9-1.8s1.9.8 1.9 1.9-.9 1.8-1.9 1.8-1.9-.8-1.9-1.9m5.8 6.8c-.1.1-.3.2-.4.2h-7c-.2 0-.3-.1-.4-.2-.1 0-.1-.2-.1-.4.7-1.6 2.2-2.6 4-2.6s3.3 1 4 2.6c0 .2 0 .4-.1.4"/><path fill="#000" d="M7.3 13.576c0-.5-.4-1-1-1H3c.4-1 1.4-1.6 2.5-1.6 1.7 0 3-1.3 3-3s-1.4-3-3-3-3 1.3-3 3c0 .6.2 1.2.6 1.7-.9.5-1.6 1.2-1.9 2.1-.3.6-.2 1.3.1 1.9.4.6 1 .9 1.7.9h3.2c.6 0 1.1-.4 1.1-1m-2.8-5.6c0-.6.5-1 1-1s1 .5 1 1c0 .6-.5 1-1 1s-1-.5-1-1m18.3 3.8c-.4-.9-1.1-1.7-1.9-2.2.3-.5.6-1.1.6-1.7 0-1.6-1.4-3-3-3s-3 1.3-3 3 1.4 3 3 3c1.1 0 2.1.6 2.4 1.7h-3.2c-.6 0-1 .4-1 1 0 .5.4 1 1 1h3.2c.7 0 1.3-.3 1.7-.9s.5-1.3.2-1.9m-4.3-4.8c.6 0 1 .5 1 1 0 .6-.5 1-1 1s-1-.5-1-1c0-.6.4-1 1-1"/></svg>