<svg xmlns="http://www.w3.org/2000/svg" fill="none" viewBox="0 0 24 25"><path fill="#000" d="M11.2 20.976H5.5c-.5 0-1-.3-1.2-.7-.3-.4-.3-.8-.1-1.3 1.2-2.8 3.9-4.7 7-4.7s5.7-2.6 5.7-5.7-2.6-5.6-5.8-5.6c-3.1 0-5.7 2.6-5.7 5.7 0 1.8.8 3.4 2.1 4.4-2.3.9-4.3 2.8-5.3 5.2-.4 1-.3 2.2.3 3.1.7 1 1.7 1.6 2.9 1.6h5.7c.6 0 1-.4 1-1s-.4-1-.9-1m-3.8-12.3c0-2 1.7-3.7 3.7-3.7s3.7 1.7 3.7 3.7-1.7 3.7-3.7 3.7-3.7-1.7-3.7-3.7"/><path fill="#000" d="M21 17.276h-2.6v-2.6c0-.6-.4-1-1-1s-1 .4-1 1v2.6h-2.6c-.6 0-1 .4-1 1s.4 1 1 1h2.6v2.6c0 .6.4 1 1 1s1-.4 1-1v-2.6H21c.6 0 1-.4 1-1s-.4-1-1-1"/></svg>