<svg xmlns="http://www.w3.org/2000/svg" fill="none" viewBox="0 0 24 25"><path fill="#000" d="M8.5 5.776c1.1-.5 2.3-.8 3.5-.8 4.4 0 8 3.6 8 8 0 1.2-.3 2.4-.8 3.5-.2.5 0 1.1.5 1.3.1.1.3.1.4.1q.6 0 .9-.6c.7-1.4 1-2.9 1-4.4 0-5.5-4.5-10-10-10-1.5.1-3 .4-4.4 1.1-.5.3-.7.9-.5 1.4.3.5.9.7 1.4.4"/><path fill="#000" d="M15.2 13.176h.1c.5 0 .9-.4 1-.9v-.5c0-2.4-1.9-4.3-4.3-4.3h-.5c-.6.1-1 .6-.9 1.2.1.5.6.9 1.1.9h.3c1.3 0 2.3 1 2.3 2.3v.3c-.1.4.3.9.9 1m-11.5-9.9c-.4-.4-1-.4-1.4 0s-.4 1 0 1.4l2 2c-1.5 1.8-2.3 4-2.3 6.3 0 5.5 4.5 10 10 10 2.3 0 4.5-.8 6.3-2.3l2 2c.2.2.5.3.7.3s.5-.1.7-.3c.4-.4.4-1 0-1.4zm8.3 17.7c-4.4 0-8-3.6-8-8 0-1.8.6-3.5 1.7-4.9l2.3 2.3q-.3.75-.3 1.5c0 1.2.5 2.2 1.2 3-.9.4-1.7.9-2.4 1.6-.4.4-.4 1 0 1.4.2.1.5.2.7.2.3 0 .5-.1.7-.3 1.6-1.6 4.1-2.1 6.2-1.2l2.7 2.7c-1.3 1.1-3 1.7-4.8 1.7"/></svg>