<svg xmlns="http://www.w3.org/2000/svg" fill="none" viewBox="0 0 24 25"><path fill="#000" fill-rule="evenodd" d="M3 7.908c0-.962.748-1.7 1.66-1.7h7.68c.912 0 1.66.738 1.66 1.7v7.6c0 .886-.772 1.7-1.66 1.7H4.66c-.888 0-1.66-.814-1.66-1.7zm13 1.467v6.133c0 1.914-1.592 3.7-3.66 3.7H4.66c-2.068 0-3.66-1.786-3.66-3.7v-7.6c0-2.038 1.615-3.7 3.66-3.7h7.68c1.804 0 3.274 1.294 3.595 2.998l4.003-1.825a2.38 2.38 0 0 1 2.043.123C22.56 5.835 23 6.452 23 7.23v8.92c0 .805-.49 1.429-1.05 1.755-.558.326-1.325.44-2.032.084l-1.833-.836a1 1 0 0 1 .83-1.82l1.853.846.047.023a.1.1 0 0 0 .037.006.2.2 0 0 0 .09-.03.2.2 0 0 0 .058-.049V7.248l-.01-.006a.38.38 0 0 0-.278-.016z" clip-rule="evenodd"/></svg>