<svg xmlns="http://www.w3.org/2000/svg" fill="none" viewBox="0 0 24 25"><path fill="#000" d="M13.7 2.508c-1-.5-2.1-.3-3 .4-2.1 1.7-4.4 3.3-6.9 4.6-1.7.9-2.8 2.7-2.8 4.7 0 1.9 1.1 3.7 2.8 4.7 2.3 1.2 4.6 2.8 6.9 4.7q.75.6 1.8.6.6 0 1.2-.3c1-.5 1.6-1.4 1.6-2.5v-14.4c0-1.1-.6-2.1-1.6-2.5m3.6 12.5c.2.2.5.3.7.3s.5-.1.7-.3c.8-.7 1.2-1.8 1.2-2.9s-.4-2.1-1.2-2.9c-.4-.4-1-.4-1.4 0s-.4 1 0 1.4.6.9.6 1.4-.2 1-.6 1.4c-.4.6-.4 1.2 0 1.6"/><path fill="#000" d="M18.5 5.308c-.5-.2-1.1 0-1.3.5s0 1.1.5 1.3c2 .9 3.3 2.9 3.3 5 0 2.2-1.3 4.2-3.4 5.1-.5.2-.7.8-.5 1.3q.3.6.9.6c.1 0 .3 0 .4-.1 2.8-1.1 4.6-3.8 4.6-6.8s-1.8-5.7-4.5-6.9"/></svg>