<svg xmlns="http://www.w3.org/2000/svg" fill="none" viewBox="0 0 24 24"><path fill="#000" d="M19 8.7h-2.8c-1.8 0-3.3 1.5-3.3 3.3v.1c0 1.8 1.5 3.3 3.3 3.3H18v.6c0 1.2-.9 2.1-1.9 2.1H5.9c-1-.1-1.9-1-1.9-2.2V8.1C4 6.9 4.9 6 5.9 6h10.2c.7 0 1.4.4 1.7 1.2.2.5.8.7 1.3.5s.7-.8.5-1.3C19 4.9 17.6 4 16.1 4H5.9C3.8 4 2 5.8 2 8.1v7.8C2 18.2 3.8 20 5.9 20h10.2c2.2 0 3.9-1.8 3.9-4.1v-.8c.9-.4 1.5-1.3 1.5-2.3v-1.6c0-1.4-1.1-2.5-2.5-2.5m-4.1 3.4v-.2c0-.7.6-1.3 1.3-1.3H19c.3 0 .5.2.5.5v1.7c0 .3-.2.5-.5.5h-2.8c-.7 0-1.3-.5-1.3-1.2"/></svg>