<svg xmlns="http://www.w3.org/2000/svg" fill="none" viewBox="0 0 24 25"><path fill="#000" d="M12 22.412a2.2 2.2 0 1 0 0-4.4 2.2 2.2 0 0 0 0 4.4m4.1-8.5c-1.2-.7-2.6-1.1-4.1-1.1s-2.9.4-4.1 1.1c-.7.4-.9 1.3-.5 2s1.3.9 2 .5c1.4-.9 3.8-.9 5.2 0 .2.1.5.2.7.2.5 0 1-.2 1.2-.7.5-.7.3-1.6-.4-2m3.2-4.1c-2-1.3-4.6-2.1-7.3-2.1s-5.3.7-7.3 2.1c-.7.4-.9 1.3-.4 2 .4.7 1.3.8 2 .4 1.5-1 3.6-1.6 5.7-1.6s4.2.6 5.7 1.6c.2.2.5.2.8.2q.75 0 1.2-.6c.5-.7.3-1.6-.4-2"/><path fill="#000" d="M22.4 5.412c-2.8-2-6.5-3.1-10.4-3.1s-7.6 1.1-10.4 3.1c-.6.4-.8 1.3-.3 2 .2.3.7.6 1.1.6.3 0 .6-.1.8-.3 2.4-1.6 5.5-2.5 8.8-2.5s6.4.9 8.7 2.5c.6.5 1.5.3 2-.3.5-.7.3-1.6-.3-2"/></svg>