<svg xmlns="http://www.w3.org/2000/svg" fill="none" viewBox="0 0 24 25"><path fill="#000" d="M12 21.112c-1.1 0-2-.9-2-2s.9-2 2-2 2 .9 2 2-.9 2-2 2m3.7-4.9c-.2 0-.4-.1-.6-.2-1.7-1.3-4.4-1.3-6.1 0-.4.3-1.1.3-1.4-.2-.3-.4-.3-1.1.2-1.4 1.1-1 2.6-1.5 4.2-1.5s3.1.5 4.3 1.4c.4.3.5 1 .2 1.4-.3.3-.5.5-.8.5"/><path fill="#000" d="M18.8 13.112c-.2 0-.5-.1-.7-.3-1.7-1.5-3.9-2.3-6.2-2.3s-4.4.9-6.1 2.4c-.4.4-1 .3-1.4-.1s-.3-1 .1-1.4c2-1.8 4.7-2.8 7.5-2.8s5.5 1 7.5 2.8c.4.4.4 1 .1 1.4-.2.2-.5.3-.8.3"/><path fill="#000" d="M2 10.212c-.3 0-.5-.1-.7-.3-.4-.4-.4-1 0-1.4 2.9-2.7 6.7-4.2 10.7-4.2s7.8 1.5 10.7 4.1c.4.4.4 1 0 1.4s-1 .4-1.4 0a14.1 14.1 0 0 0-9.3-3.5c-3.5 0-6.8 1.3-9.3 3.6-.2.2-.5.3-.7.3"/></svg>