<svg xmlns="http://www.w3.org/2000/svg" fill="none" viewBox="0 0 24 25"><path fill="#000" d="m21.16 18.07-1.937-1.939a.984.984 0 0 0-1.427 0 .987.987 0 0 0 0 1.429l1.937 1.939a.8.8 0 0 1 0 1.122.8.8 0 0 1-1.122 0l-3.057-3.061c.204-.204.408-.306.612-.51 1.528-1.531 2.445-3.674 2.445-5.817 0-2.245-.815-4.285-2.445-5.816a8.235 8.235 0 0 0-11.72 0 8.26 8.26 0 0 0 0 11.735c1.529 1.53 3.669 2.449 5.809 2.449a7.9 7.9 0 0 0 3.465-.817l3.363 3.368c.51.51 1.325.816 2.038.816s1.427-.306 2.038-.816c1.121-1.225 1.121-3.062 0-4.082M5.872 15.52c-2.446-2.449-2.446-6.429 0-8.775 1.223-1.225 2.751-1.837 4.382-1.837s3.159.612 4.382 1.837c1.223 1.224 1.834 2.755 1.834 4.387 0 1.633-.611 3.266-1.834 4.388-1.223 1.123-2.752 1.837-4.382 1.837s-3.261-.613-4.382-1.837"/></svg>