<svg xmlns="http://www.w3.org/2000/svg" fill="none" viewBox="0 0 24 25"><path fill="#000" d="m17.463 8.451-5.485 2.965-5.485-2.965c-.5-.296-1.097-.099-1.397.396-.2.494-.1 1.087.4 1.383l5.484 2.966v6.128c0 .593.4.988.998.988s.997-.395.997-.988v-6.128l5.486-2.966c.498-.296.698-.89.398-1.383-.299-.495-.897-.692-1.396-.396"/><path fill="#000" d="m19.9 5.332-6-3.496a3.89 3.89 0 0 0-3.9 0L4.1 5.332C2.8 6.032 2 7.53 2 9.028v6.593c0 1.498.8 2.996 2.1 3.696l6 3.496c.6.3 1.2.499 1.9.499s1.3-.2 1.9-.5l6-3.495c1.3-.7 2.1-2.198 2.1-3.696V9.028c0-1.498-.8-2.996-2.1-3.696m.1 10.289c0 .799-.4 1.598-1.1 1.998l-6 3.496c-.6.3-1.3.3-1.9 0l-6-3.496c-.7-.4-1.1-1.1-1.1-1.998V9.028c0-.799.4-1.598 1.1-1.997l6-3.497c.4-.1.7-.2 1-.2q.45 0 .9.3l6 3.496c.7.4 1.1 1.1 1.1 1.998z"/></svg>