<svg xmlns="http://www.w3.org/2000/svg" fill="none" viewBox="0 0 24 25"><path fill="#000" d="M15.1 10.696h5.3c1.3 0 1.9-1.6 1-2.5l-2-2 2.3-2.3c.4-.4.4-1 0-1.4s-1-.4-1.4 0l-2.3 2.3-2-2c-.9-.9-2.5-.3-2.5 1v5.3c.1.9.8 1.6 1.6 1.6m-7.2-7.8-2 2-2.2-2.3c-.4-.4-1-.4-1.4 0s-.4 1 0 1.4l2.3 2.3-2 2c-.9.9-.3 2.5 1 2.5h5.3c.8 0 1.4-.6 1.4-1.4v-5.5c.1-1.3-1.5-1.9-2.4-1m1 11H3.6c-1.3 0-1.9 1.6-1 2.5l2 2-2.3 2.3c-.4.4-.4 1 0 1.4.2.1.4.2.7.2s.5-.1.7-.3l2.3-2.3 2 2c.9.9 2.5.3 2.5-1v-5.3c-.1-.8-.8-1.5-1.6-1.5m10.6 4.5 2-2c.9-.9.3-2.5-1-2.5h-5.3c-.8 0-1.4.6-1.4 1.4v5.3c0 1.3 1.6 1.9 2.5 1l2-2 2.3 2.3c.2.2.4.3.7.3s.5-.1.7-.3c.4-.4.4-1 0-1.4z"/></svg>