<svg xmlns="http://www.w3.org/2000/svg" fill="none" viewBox="0 0 24 25"><path fill="#000" d="m22.864 9.03-2.056-6.136c-.293-.791-.978-1.385-1.859-1.583-.88-.099-1.664.297-2.25.99l-.392.494a10.1 10.1 0 0 0-4.502-1.088c-4.502 0-8.612 3.068-9.786 7.521-.098.495.195 1.089.685 1.287.49.099 1.076-.198 1.174-.693a8.206 8.206 0 0 1 7.927-6.037c1.468 0 2.936.396 4.306 1.188.392.297.979.198 1.272-.297l.881-1.188c.098-.198.294-.198.392-.198.097 0 .195.1.293.198l2.153 6.136c.098.198 0 .396-.196.495h-.098l-6.556.099c-.196 0-.294-.1-.294-.198 0-.1-.098-.198 0-.396l.979-1.484c.195-.198.195-.495.195-.792-.098-.297-.195-.495-.489-.693-.88-.495-1.86-.693-2.838-.693-2.153 0-4.11 1.188-5.187 3.068-.195.495-.098 1.089.392 1.386.49.198 1.076.099 1.37-.396.685-1.287 2.055-2.078 3.523-2.078.293 0 .587 0 .88.099l-.293.494a2.48 2.48 0 0 0-.196 2.474 2.28 2.28 0 0 0 2.056 1.287l6.458-.099c.392 0 .783-.099 1.077-.297.88-.594 1.37-1.781.979-2.87m-1.479 4.982c-.496-.202-1.092.201-1.191.706-.993 3.532-4.268 6.055-7.94 6.055a8.05 8.05 0 0 1-4.268-1.211c-.397-.303-.993-.202-1.29.303l-.894 1.21c-.1.102-.298.102-.397.102s-.199-.101-.298-.202l-2.084-6.156c-.1-.202 0-.404.198-.505h.1l6.451-.1c.199 0 .298.1.298.201s.1.202 0 .404l-.993 1.514c-.198.202-.198.504-.198.807.1.303.198.505.496.706.893.505 1.787.707 2.879.707 2.183 0 4.168-1.211 5.16-3.028.298-.504.1-1.11-.396-1.412-.497-.303-1.092-.101-1.39.403-.695 1.312-2.084 2.019-3.474 2.019-.297 0-.595 0-.794-.101l.298-.404c.496-.707.596-1.716.199-2.422a2.31 2.31 0 0 0-2.085-1.312l-6.451.1c-.397 0-.794.102-1.092.304-.993.504-1.489 1.816-1.092 2.926l2.084 6.156c.298.808.993 1.413 1.886 1.514h.298c.794 0 1.489-.404 1.886-1.01l.298-.504c1.39.707 2.878 1.01 4.466 1.01 4.566 0 8.536-3.129 9.826-7.57.298-.504 0-1.11-.496-1.21"/></svg>