<svg xmlns="http://www.w3.org/2000/svg" fill="none" viewBox="0 0 24 25"><path fill="#000" d="m21.99 5.252-5.045-3.508a2.34 2.34 0 0 0-2.422-.2c-.707.4-1.211 1.102-1.211 1.904v.501h-2.22C5.542 3.95 1 8.26 1 13.573c0 5.312 4.541 9.723 10.092 9.723h8.275c1.01 0 1.816-.802 1.816-1.804v-2.406a1.803 1.803 0 0 0-1.816-1.804h-8.275c-2.22 0-3.936-1.705-3.936-3.71s1.816-3.608 3.936-3.608h2.32v.601c0 .802.505 1.604 1.212 2.005.303.2.706.3 1.11.3.504 0 .908-.1 1.312-.4l5.046-3.509c.605-.4.908-1.102.908-1.804s-.404-1.504-1.01-1.905"/></svg>