<svg xmlns="http://www.w3.org/2000/svg" fill="none" viewBox="0 0 24 25"><path fill="#000" d="M19.1 2.296h-3.9c-1 0-1.9.6-2.3 1.6-.4.9-.2 2 .5 2.7l1.5 1.5-1.9 1.9c-.4.4-.4 1 0 1.4.2.2.5.3.7.3s.5-.1.7-.3l2.6-2.6c.2-.2.3-.5.3-.7 0-.3-.1-.5-.3-.7l-2.2-2.2c-.2-.2-.2-.5-.1-.6s.1-.3.5-.3h3.9c.5 0 .9.4.9.9v3.9c0 .3-.2.4-.3.5-.1 0-.3.1-.6-.1-.4-.4-1-.4-1.4 0s-.4 1 0 1.4c.5.5 1.1.7 1.8.7.3 0 .7-.1 1-.2.9-.3 1.5-1.2 1.5-2.3v-3.9c0-1.6-1.3-2.9-2.9-2.9m-10.6 5c-.4-.3-1.1-.3-1.5 0l-2.1 2.2c-.2.2-.5.2-.6.1-.1 0-.3-.1-.3-.5v-3.9c0-.5.4-.9.9-.9h3.9c.3 0 .4.2.5.3 0 .1.1.3-.1.6-.4.4-.4 1 0 1.4s1 .4 1.4 0c.7-.7.9-1.8.5-2.7-.3-1-1.2-1.6-2.3-1.6H4.9c-1.6 0-2.9 1.3-2.9 2.9v3.9c0 1 .6 1.9 1.6 2.3.3.1.6.2 1 .2.7 0 1.3-.3 1.8-.7l1.5-1.5 1.9 1.9c.2.2.5.3.7.3s.5-.1.7-.3c.4-.4.4-1 0-1.4zm11.9 5.8c-.9-.4-2-.2-2.7.5l-1.5 1.5-1.9-1.9c-.4-.4-1-.4-1.4 0s-.4 1 0 1.4l2.6 2.6c.2.2.5.3.7.3s.5-.1.7-.3l2.2-2.2c.2-.2.5-.2.6-.1.1 0 .3.2.3.5v3.9c0 .5-.4.9-.9.9h-3.9c-.3 0-.4-.2-.5-.3s-.1-.3.1-.6c.4-.4.4-1 0-1.4s-1-.4-1.4 0c-.7.7-.9 1.8-.5 2.7s1.3 1.6 2.3 1.6h3.9c1.6 0 2.9-1.3 2.9-2.9v-3.9c0-1-.6-1.9-1.6-2.3m-9.3.1c-.4-.4-1-.4-1.4 0l-2.7 2.6c-.4.4-.4 1 0 1.4l2.2 2.2c.2.2.2.5.1.6s-.1.3-.5.3H4.9c-.5 0-.9-.4-.9-.9v-3.9c0-.3.2-.4.3-.5.1 0 .3-.1.6.1.4.4 1 .4 1.4 0s.4-1 0-1.4c-.7-.7-1.8-.9-2.7-.5-1 .3-1.6 1.2-1.6 2.3v3.9c0 1.6 1.3 2.9 2.9 2.9h3.9c1 0 1.9-.6 2.3-1.6.4-.9.2-2-.5-2.7l-1.5-1.5 1.9-1.9c.5-.3.5-1 .1-1.4"/></svg>