<svg xmlns="http://www.w3.org/2000/svg" fill="none" viewBox="0 0 24 25"><path fill="#000" d="m2.24 5.33 4.003 6c.4.61.4 1.322 0 1.932l-4.003 6c-.601.915 0 2.034 1 2.034h3.003c.801 0 1.502-.407 1.902-1.017l4.405-6.508c.6-.814.6-1.933 0-2.848l-4.305-6.61c-.4-.61-1.2-1.017-1.901-1.017H3.34c-1.101 0-1.702 1.22-1.101 2.034"/><path fill="#000" d="m11.24 5.33 4.003 6c.4.61.4 1.322 0 1.932l-4.003 6c-.601.915 0 2.034 1 2.034h3.003c.801 0 1.502-.407 1.902-1.017l4.405-6.508c.6-.814.6-1.933 0-2.848l-4.305-6.61a2.27 2.27 0 0 0-1.901-1.017H12.34c-1.101 0-1.702 1.22-1.101 2.034"/></svg>