<svg xmlns="http://www.w3.org/2000/svg" fill="none" viewBox="0 0 24 25"><path fill="#000" d="M13.856 20.296h-9.11c-1.09 0-2.08-.7-2.476-1.7-.495-1.1-.297-2.5.495-3.4l2.575-2.9-2.575-2.9c-.792-.9-.99-2.3-.495-3.4s1.386-1.7 2.475-1.7h9.11c1.189 0 2.278.5 3.17 1.4l4.158 4.4c1.09 1.2 1.09 3.1 0 4.3l-4.159 4.5c-.891.9-1.98 1.4-3.169 1.4m-9.11-14c-.397 0-.595.4-.694.5-.099.3-.198.8.198 1.2l3.17 3.6c.296.4.296.9 0 1.3l-3.17 3.6c-.297.4-.297.9-.198 1.2.1.2.297.6.693.6h9.11c.694 0 1.288-.3 1.783-.8l4.159-4.4c.396-.4.396-1.1 0-1.5l-4.16-4.4q-.741-.9-1.782-.9z"/></svg>