<svg xmlns="http://www.w3.org/2000/svg" fill="none" viewBox="0 0 24 25"><path fill="#000" d="m22.9 9.06-2.296-6.47c-.3-.687-.898-1.177-1.597-1.275a1.85 1.85 0 0 0-1.797.784l-.699.98c-2.196-1.176-4.892-1.568-7.388-.98-4.093.882-7.288 4.216-7.987 8.236-.5 3.039.4 6.078 2.296 8.333 1.997 2.255 4.892 3.628 7.987 3.628 4.293 0 8.087-2.55 9.685-6.47.2-.393.1-.785-.1-1.08-.2-.293-.6-.49-.999-.49H17.31q-1.349 0-2.097.883c-1.198 1.47-2.995 2.059-4.792 1.765-1.797-.393-3.395-1.863-3.794-3.726-.3-1.47 0-3.04.998-4.118.899-1.176 2.397-1.863 3.894-1.863.6 0 1.298.098 1.797.392l-.799 1.079c-.399.588-.499 1.373-.1 1.96.3.589.999.981 1.698.981l6.989-.098c.299 0 .599-.098.898-.196.799-.392 1.198-1.373.899-2.255"/></svg>