<svg xmlns="http://www.w3.org/2000/svg" fill="none" viewBox="0 0 24 25"><path fill="#000" d="M11.994 22.296H6.29c-.9 0-1.601-.505-2.001-1.212-.4-.808-.3-1.717.2-2.424l4.203-5.96a.87.87 0 0 0 0-.707l-4.303-6.06c-.5-.708-.5-1.617-.1-2.425.4-.707 1.1-1.212 2.001-1.212h5.704c1.101 0 2.202.505 2.802 1.515l4.604 6.566c.8 1.212.8 2.828 0 3.94l-4.604 6.565c-.6.808-1.7 1.414-2.802 1.414M6.29 4.316c-.2 0-.2.101-.3.202 0 .101-.1.202 0 .303l4.203 5.96c.6.909.6 2.121 0 3.03l-4.203 5.96v.303c0 .1.1.202.3.202h5.704q.75 0 1.201-.606l4.603-6.566c.3-.505.3-1.111 0-1.616l-4.603-6.566q-.45-.606-1.2-.606z"/></svg>