<svg xmlns="http://www.w3.org/2000/svg" fill="none" viewBox="0 0 24 25"><path fill="#000" d="M20.5 2.296h-5.4c-1.3 0-2 1.6-1 2.5l2 2-3.1 3.1c-.4.4-.4 1 0 1.4.2.2.5.3.7.3s.5-.1.7-.3l3.1-3.1 2 2c.9.9 2.5.3 2.5-1v-5.4c0-.8-.7-1.5-1.5-1.5m-1 12.1-2 2-3.1-3.1c-.4-.4-1-.4-1.4 0s-.4 1 0 1.4l3.1 3.1-2 2c-.9.9-.3 2.5 1 2.5h5.4c.8 0 1.5-.7 1.5-1.5v-5.4c0-1.3-1.6-1.9-2.5-1m-9.9-1.1-3.1 3.1-2-2c-.9-.9-2.5-.3-2.5 1v5.4c0 .8.7 1.5 1.5 1.5h5.4c1.3 0 2-1.6 1-2.5l-2-2 3.1-3.1c.4-.4.4-1 0-1.4s-1-.4-1.4 0m-1.7-6.5 2-2c.9-.9.3-2.5-1-2.5H3.5c-.8 0-1.5.7-1.5 1.5v5.4c0 1.3 1.6 2 2.5 1l2-2 3.1 3.1c.2.2.5.3.7.3s.5-.1.7-.3c.4-.4.4-1 0-1.4z"/></svg>