<svg xmlns="http://www.w3.org/2000/svg" fill="none" viewBox="0 0 24 25"><path fill="#000" d="M18.5 17.108c-.7.2-1.5.3-2.3.3H7.8c-.8 0-1.6-.1-2.3-.3-.4-.1-.7-.2-1-.4-.4-.2-.7-.3-1-.6v2.6c0 1.9 1.6 3.5 3.5 3.5h10c1.9 0 3.5-1.6 3.5-3.5v-2.6c-.3.2-.7.4-1 .6-.3.1-.7.3-1 .4m.2-14.9H5.3c-1.8 0-3.3 1.5-3.3 3.3v4.1c0 1.7.7 3.2 1.8 4.2.3.3.6.5 1 .8.9.5 1.9.8 3 .8h8.3c1.1 0 2.1-.3 3-.8.4-.2.7-.5 1-.8 1.1-1.1 1.8-2.6 1.8-4.2v-4.1c.1-1.8-1.4-3.3-3.2-3.3"/><path fill="#fff" d="M14.5 12.308h-5c-.6 0-1-.4-1-1s.5-1 1-1h5c.6 0 1 .4 1 1s-.4 1-1 1"/></svg>