<svg width="24" height="24" viewBox="0 0 24 24" fill="none" xmlns="http://www.w3.org/2000/svg">
<path d="M21 20H19.3V14.2C19.3 13.6 18.9 13.2 18.3 13.2C17.7 13.2 17.3 13.6 17.3 14.2V20H15.1V14.2C15.1 13.6 14.7 13.2 14.1 13.2C13.5 13.2 13.1 13.6 13.1 14.2V20H10.9V14.2C10.9 13.6 10.5 13.2 9.9 13.2C9.3 13.2 8.9 13.6 8.9 14.2V20H6.7V14.2C6.7 13.6 6.3 13.2 5.7 13.2C5.1 13.2 4.7 13.6 4.7 14.2V20H3C2.4 20 2 20.4 2 21C2 21.6 2.4 22 3 22H21C21.6 22 22 21.6 22 21C22 20.4 21.6 20 21 20Z" fill="black"/>
<path d="M21 6L13.5 2.3C12.5 1.8 11.4 1.8 10.5 2.3L3 6C2.4 6.3 2 7 2 7.6V9.9C2 10.9 2.8 11.7 3.8 11.7H20.2C21.2 11.7 22 10.9 22 9.9V7.6C22 6.9 21.6 6.3 21 6Z" fill="black"/>
</svg>
