<svg width="24" height="24" viewBox="0 0 24 24" fill="none" xmlns="http://www.w3.org/2000/svg">
<path d="M22.2 5.2C21.7 4.6 21 4.2 20.2 4.2H5.9L5.7 3.8C5.2 2.1 3.7 1 2 1C1.4 1 1 1.4 1 2C1 2.6 1.4 3 2 3C2.8 3 3.6 3.6 3.8 4.4L4.5 6.7L6.7 13.8C7.2 15.6 8.8 16.8 10.7 16.8H17.3C19.3 16.8 20.9 15.4 21.4 13.5L22.8 7.4C22.9 6.7 22.7 5.9 22.2 5.2Z" fill="black"/>
<path d="M9.89999 23C11.3359 23 12.5 21.8359 12.5 20.4C12.5 18.9641 11.3359 17.8 9.89999 17.8C8.46405 17.8 7.29999 18.9641 7.29999 20.4C7.29999 21.8359 8.46405 23 9.89999 23Z" fill="black"/>
<path d="M17.8 23C19.236 23 20.4 21.8359 20.4 20.4C20.4 18.9641 19.236 17.8 17.8 17.8C16.3641 17.8 15.2 18.9641 15.2 20.4C15.2 21.8359 16.3641 23 17.8 23Z" fill="black"/>
</svg>
