<svg width="24" height="25" viewBox="0 0 24 25" fill="none" xmlns="http://www.w3.org/2000/svg">
<path d="M17.3 5.31201H3.8C2.3 5.31201 1 6.61201 1 8.11201V16.512C1 18.012 2.3 19.312 3.8 19.312H17.3C18.8 19.312 20.1 18.012 20.1 16.512V8.11201C20.1 6.61201 18.9 5.31201 17.3 5.31201ZM18.1 16.512C18.1 16.912 17.7 17.312 17.3 17.312H3.8C3.4 17.312 3 16.912 3 16.512V8.11201C3 7.71201 3.4 7.31201 3.8 7.31201H17.3C17.7 7.31201 18.1 7.71201 18.1 8.11201V16.512Z" fill="black"/>
<path d="M22 9.51202C21.4 9.51202 21 9.91202 21 10.512V14.112C21 14.712 21.4 15.112 22 15.112C22.6 15.112 23 14.712 23 14.112V10.512C23 9.91202 22.6 9.51202 22 9.51202Z" fill="black"/>
<path d="M15.5 9.31201H5.59998C4.99998 9.31201 4.59998 9.71201 4.59998 10.312V14.312C4.59998 14.912 4.99998 15.312 5.59998 15.312H15.5C16.1 15.312 16.5 14.912 16.5 14.312V10.312C16.5 9.71201 16.1 9.31201 15.5 9.31201Z" fill="black"/>
</svg>
