<svg width="24" height="25" viewBox="0 0 24 25" fill="none" xmlns="http://www.w3.org/2000/svg">
<path d="M17.6 2.20801H6.4C5.06667 2.20801 4 3.2713 4 4.51181V16.208C4.53333 15.9422 5.15556 15.6764 5.77778 15.6764C5.95556 15.6764 6.04444 15.6764 6.22222 15.6764H17.6C18.9333 15.6764 20 14.6131 20 13.3726V4.51181C20 3.2713 18.9333 2.20801 17.6 2.20801Z" fill="black"/>
<path d="M6.22222 17.808C5.24444 17.808 4 18.508 4 20.108C4 21.008 4.71111 22.208 6.04444 22.208H17.6C18.9333 22.208 20 21.008 20 19.608V17.208C19.3778 17.608 18.6667 17.808 17.9556 17.808H6.22222Z" fill="black"/>
</svg>
