<svg xmlns="http://www.w3.org/2000/svg" fill="none" viewBox="0 0 24 25"><path fill="#000" fill-rule="evenodd" d="M6 5.011v15.514c0 .706.805.995 1.24.598l4.025-3.783a1 1 0 0 1 1.37 0l4.025 3.783c.223.204.52.243.817.118.3-.127.493-.38.523-.657V4.972c0-.895-.776-1.66-1.619-1.66H7.72c-.822 0-1.636.75-1.719 1.7m-1.998-.109c.134-1.9 1.729-3.59 3.717-3.59h8.662c1.977 0 3.619 1.69 3.619 3.66v15.655q0 .035-.003.07c-.154 2.198-2.921 3.533-4.697 1.893l-.006-.006-3.344-3.143L8.6 22.59c-1.782 1.645-4.6.296-4.6-2.065V4.972l.002-.07" clip-rule="evenodd"/></svg>