<svg xmlns="http://www.w3.org/2000/svg" fill="none" viewBox="0 0 24 25"><path fill="#000" fill-rule="evenodd" d="M7.348 4.208C6.647 4.208 6 4.81 6 5.688v9.885c.415-.176.88-.262 1.38-.232h9.185c.701 0 1.348-.602 1.348-1.48V5.688c0-.903-.67-1.48-1.26-1.48zM4 18.728V5.688c0-1.878 1.44-3.48 3.348-3.48h9.304c1.844 0 3.261 1.627 3.261 3.48v8.173c0 1.878-1.44 3.48-3.348 3.48H7.348q-.036 0-.07-.003C6.646 17.294 6 17.832 6 18.728c0 .878.647 1.48 1.348 1.48h9.304c.701 0 1.348-.602 1.348-1.48a1 1 0 1 1 2 0c0 1.878-1.44 3.48-3.348 3.48H7.348C5.44 22.208 4 20.606 4 18.728" clip-rule="evenodd"/></svg>