<svg xmlns="http://www.w3.org/2000/svg" fill="none" viewBox="0 0 24 25"><path fill="#000" d="M8.7 21.976c-3.2 0-5.8-2.6-5.8-5.8v-.5c0-.3-.2-.6-.5-.8-.9-.3-1.4-1-1.4-1.9s.5-1.6 1.4-1.9c.3-.1.5-.4.5-.7v-.6c0-3.2 2.6-5.8 5.8-5.8 1.1 0 2 .9 2 2s-.9 2-2 2c-1 0-1.8.8-1.8 1.8v6.3c0 1 .8 1.8 1.8 1.8 1.1 0 2 .9 2 2s-.9 2.1-2 2.1m6.6 0c-1.1 0-2-.9-2-2s.9-2 2-2c1 0 1.8-.8 1.8-1.8v-6.4c0-1-.8-1.8-1.8-1.8-1.1 0-2-.9-2-2s.9-2 2-2c3.2 0 5.8 2.6 5.8 5.8v.5c0 .3.2.6.5.8.9.3 1.4 1 1.4 1.9s-.5 1.6-1.4 1.9c-.3.1-.5.4-.5.8v.5c0 3.2-2.6 5.8-5.8 5.8"/></svg>