<svg xmlns="http://www.w3.org/2000/svg" fill="none" viewBox="0 0 24 25"><path fill="#000" d="M4 6.663v.396c-1.8 1.09-3 2.97-3 5.149s1.2 4.06 3 5.149v.495c0 .99.3 1.88.9 2.574.8 1.089 2.1 1.782 3.6 1.782.4 0 .7 0 1.1-.099.8-.198 1.4-.99 1.4-1.881V4.188c0-.89-.6-1.683-1.4-1.881-.4-.099-.8-.099-1.2-.099C6 2.208 4 4.188 4 6.663m19 5.745c0-2.2-1.2-4.1-3-5.2v-.5c0-2.5-2-4.5-4.5-4.5-.4 0-.7 0-1.1.1-.9.2-1.4 1-1.4 1.9v16c0 .9.6 1.7 1.4 1.9.3.1.7.1 1.1.1 2.5 0 4.5-2 4.5-4.5v-.4c1.9-.8 3-2.7 3-4.9"/></svg>