<svg xmlns="http://www.w3.org/2000/svg" fill="none" viewBox="0 0 24 25"><path fill="#000" d="M16.7 22.288H7.3c-1.8 0-3.3-1.5-3.3-3.5v-3.3c0-.3.1-.5.3-.7l2.3-2.5c.2-.2.5-.3.7-.3.3 0 .5.1.7.3l1.6 1.7 1.6-1.7c.3-.1.5-.2.8-.2s.5.1.7.3l1.6 1.7 1.6-1.7c.2-.2.5-.3.7-.3.3 0 .5.1.7.3l.6.6v-2.6c0-.6-.2-1.2-.6-1.6l-3.6-3.9c-.4-.4-.9-.6-1.4-.6h-5c-.7 0-1.3.7-1.3 1.5v5.7c0 .6-.4 1-1 1s-1-.4-1-1v-5.7c0-2 1.5-3.5 3.3-3.5h4.9c1.1 0 2.2.5 2.9 1.3l3.6 3.8c.9.8 1.3 1.9 1.3 3v8.5c0 1.9-1.5 3.4-3.3 3.4M6 15.988v2.9c0 .7.6 1.4 1.3 1.4h9.3c.7 0 1.3-.7 1.3-1.5v-2.9l-1.3-1.4-1.5 1.8c-.2.2-.5.3-.7.3-.3 0-.5-.1-.7-.3l-1.7-1.7-1.6 1.7c-.2.2-.5.3-.7.3-.3 0-.5-.1-.7-.3l-1.6-1.7z"/></svg>