<svg xmlns="http://www.w3.org/2000/svg" fill="none" viewBox="0 0 24 25"><path fill="#000" d="M20 9.924v3.273l-1.128-.992c-.41-.297-1.026-.297-1.334 0l-2.358 2.083-2.462-2.182c-.41-.297-1.026-.297-1.333 0l-2.36 2.083-2.46-2.083c-.411-.297-1.027-.297-1.334 0L4 13.197V4.966a2.69 2.69 0 0 1 2.667-2.678h5.64c.924 0 1.847.397 2.462.992l4.103 4.066C19.59 8.04 20 8.933 20 9.924m-1.846 4.364 1.846 1.6v3.7c0 1.5-1.23 2.7-2.667 2.7H6.667c-1.436 0-2.667-1.2-2.667-2.7v-3.7l1.846-1.6 2.36 2.1c.41.4 1.025.4 1.332 0l2.462-2.1 2.359 2.1c.41.4 1.026.4 1.333 0z"/></svg>