<svg xmlns="http://www.w3.org/2000/svg" fill="none" viewBox="0 0 24 24"><path fill="#000" d="M19.85 7.381c-.511-3.056-3.068-5.62-6.238-6.21a8.02 8.02 0 0 0-6.646 1.577C5.023 4.227 4 6.395 4 8.663c0 2.07.818 3.943 2.352 5.422a4.63 4.63 0 0 1 1.33 2.366l.204 1.282C8.193 19.014 9.318 20 10.749 20h2.454c1.33 0 2.557-.986 2.864-2.267l.306-1.282a4.63 4.63 0 0 1 1.33-2.366c1.84-1.775 2.659-4.24 2.147-6.704M14.827 21h-5.76C8.427 21 8 21.4 8 22s.427 1 1.067 1h5.866c.64 0 1.067-.4 1.067-1s-.533-1-1.173-1"/></svg>