<svg xmlns="http://www.w3.org/2000/svg" fill="none" viewBox="0 0 24 25"><path fill="#000" d="M17.622 2.208H6.279C3.89 2.208 2 4.108 2 6.508v11.5c0 2.3 1.89 4.2 4.279 4.2H17.72c2.389 0 4.279-1.9 4.279-4.3v-11.4c-.1-2.4-1.99-4.3-4.378-4.3"/><path fill="#fff" d="M6.3 9.508h1v1c0 .6.4 1 1 1s1-.4 1-1v-1h1c.6 0 1-.4 1-1s-.4-1-1-1h-1v-1c0-.6-.4-1-1-1s-1 .4-1 1v1h-1c-.6 0-1 .4-1 1s.4 1 1 1m11.4 5h-3.3c-.6 0-1 .4-1 1s.4 1 1 1h3.3c.6 0 1-.4 1-1s-.4-1-1-1m.7-8.7c-.4-.4-1-.4-1.4 0l-11.4 11.4c-.4.4-.4 1 0 1.4.2.2.5.3.7.3s.5-.1.7-.3l11.4-11.4c.4-.4.4-1 0-1.4"/></svg>