<svg xmlns="http://www.w3.org/2000/svg" fill="none" viewBox="0 0 24 25"><path fill="#000" d="M20.806 3.608c-.796-.9-1.89-1.4-3.184-1.4H6.279C3.89 2.208 2 4.108 2 6.508v11.5c0 2.3 1.89 4.2 4.279 4.2H17.72c2.389 0 4.279-1.9 4.279-4.3v-11.4c-.1-1.1-.497-2.1-1.194-2.9m-.896 14.3c0 1.3-.995 2.3-2.288 2.3H6.279c-1.294 0-2.289-1-2.289-2.3v-11.4c0-1.3.995-2.3 2.289-2.3H17.72c.697 0 1.294.3 1.692.8.298.4.497.9.497 1.5z"/><path fill="#000" d="M6.3 9.508h1v1c0 .6.4 1 1 1s1-.4 1-1v-1h1c.6 0 1-.4 1-1s-.4-1-1-1h-1v-1c0-.6-.4-1-1-1s-1 .4-1 1v1h-1c-.6 0-1 .4-1 1s.4 1 1 1m11.4 5h-3.3c-.6 0-1 .4-1 1s.4 1 1 1h3.3c.6 0 1-.4 1-1s-.4-1-1-1m-.7-8.7-11.4 11.4c-.4.4-.4 1 0 1.4.2.2.5.3.7.3s.5-.1.7-.3l11.4-11.4c.4-.4.4-1 0-1.4s-1-.4-1.4 0"/></svg>