<svg width="24" height="24" viewBox="0 0 24 24" fill="none" xmlns="http://www.w3.org/2000/svg">
<path d="M18.4179 4.6H16.9254V4C16.9254 3.4 16.5274 3 15.9303 3C15.3333 3 14.9353 3.4 14.9353 4V4.6H11.1542C10.5572 4.6 10.1592 5 10.1592 5.6C10.1592 6.2 10.5572 6.6 11.1542 6.6H15.0348V7.2C15.0348 7.8 15.4328 8.2 16.0299 8.2C16.6269 8.2 17.0249 7.8 17.0249 7.2V6.6H18.5174C19.2139 6.6 19.9104 7.2 19.9104 8V9.4H3.99005V8C3.99005 7.2 4.68657 6.6 5.48259 6.6H6.97512V7.2C6.97512 7.8 7.37313 8.2 7.97015 8.2C8.56716 8.2 8.96517 7.8 8.96517 7.2V5.6V4C8.96517 3.4 8.56716 3 7.97015 3C7.37313 3 6.97512 3.4 6.97512 4V4.6H5.48259C3.49254 4.6 2 6.1 2 8V17.6C2 19.5 3.49254 21 5.48259 21H18.5174C20.408 21 22 19.5 22 17.6V8C21.9005 6.1 20.408 4.6 18.4179 4.6ZM18.4179 19H5.48259C4.68657 19 3.99005 18.4 3.99005 17.6V11.4H19.9104V17.6C19.9104 18.4 19.2139 19 18.4179 19Z" fill="black"/>
</svg>
