<svg xmlns="http://www.w3.org/2000/svg" fill="none" viewBox="0 0 24 24"><path fill="#000" fill-rule="evenodd" d="M3.575 1.785C4.864.5 7.025.86 7.938 2.375l.006.011 2.104 3.595c.62 1.08.463 2.47-.461 3.391l-.349.348c1.236 1.938 3.112 3.855 5.01 5.005l.346-.307a2.83 2.83 0 0 1 3.38-.437l.007.004 3.56 2.07c.881.422 1.345 1.237 1.44 2.051a2.84 2.84 0 0 1-.798 2.327l-1.2 1.196c-1.245 1.241-3.273 1.79-5.003 1.007-2.277-.93-5.693-2.687-8.806-5.79-3.122-3.111-4.88-6.623-5.805-8.77-.789-1.72-.245-3.736.991-4.98l1.187-1.282zM5 3.184 3.817 4.46l-.028.029c-.749.746-.998 1.902-.599 2.764l.011.025c.877 2.038 2.515 5.296 5.386 8.158 2.877 2.867 6.048 4.497 8.17 5.362l.04.018c.864.398 2.024.15 2.772-.597l1.2-1.196a.85.85 0 0 0 .226-.687c-.028-.242-.148-.408-.333-.491a1 1 0 0 1-.09-.047l-3.594-2.09a.826.826 0 0 0-.993.14l-.043.04-.9.798c-.31.274-.757.33-1.125.14-2.697-1.399-5.329-4.141-6.809-6.776a.994.994 0 0 1 .166-1.191l.9-.897a.82.82 0 0 0 .14-.99L6.22 3.397c-.285-.468-.908-.51-1.221-.213m11.256 4.561c-.501-.502-1.275-.682-1.823-.499a1.088 1.088 0 0 1-.688-2.064c1.41-.47 3.028.003 4.05 1.024 1.02 1.022 1.494 2.64 1.024 4.05a1.088 1.088 0 1 1-2.064-.688c.183-.547.003-1.322-.499-1.823" clip-rule="evenodd"/><path fill="#000" fill-rule="evenodd" d="M18.95 5.05a6.92 6.92 0 0 0-6.664-1.776 1.02 1.02 0 0 1-.53-1.97c2.993-.806 6.33-.002 8.636 2.304s3.11 5.643 2.304 8.637a1.02 1.02 0 0 1-1.97-.53 6.92 6.92 0 0 0-1.777-6.664" clip-rule="evenodd"/></svg>