<svg xmlns="http://www.w3.org/2000/svg" fill="none" viewBox="0 0 24 24"><path fill="#000" d="M22.981 18.182c-.1-.903-.598-1.606-1.396-2.107l-3.591-2.108c-1.097-.603-2.494-.402-3.391.401l-.4.402c-1.894-1.205-3.79-3.112-4.987-5.019l.4-.401c.897-.803 1.097-2.208.498-3.312L8.02 2.424c-.4-.803-1.197-1.304-2.095-1.404-.798-.1-1.696.2-2.294.803L2.434 3.026C1.037 4.432.638 6.34 1.337 8.045c.997 2.308 2.693 5.721 5.785 8.832s6.483 4.919 8.777 5.822c.599.2 1.197.301 1.696.301 1.197 0 2.394-.502 3.292-1.405l1.197-1.205c.698-.502.997-1.405.897-2.208"/><path fill="#000" fill-rule="evenodd" d="M16.365 7.635c-.558-.557-1.421-.764-2.049-.555a1 1 0 0 1-.632-1.897c1.42-.473 3.06.003 4.095 1.038s1.511 2.675 1.038 4.095a1 1 0 0 1-1.898-.632c.21-.628.003-1.491-.554-2.049" clip-rule="evenodd"/><path fill="#000" fill-rule="evenodd" d="M18.974 5.026a6.97 6.97 0 0 0-6.714-1.79 1 1 0 0 1-.52-1.931c2.998-.807 6.34-.002 8.648 2.307 2.31 2.309 3.114 5.65 2.307 8.648a1 1 0 1 1-1.931-.52 6.97 6.97 0 0 0-1.79-6.714" clip-rule="evenodd"/></svg>