<svg width="24" height="25" viewBox="0 0 24 25" fill="none" xmlns="http://www.w3.org/2000/svg">
<path d="M18.5 6.81201H17.3L16.4 5.61201C15.8 4.81201 14.8 4.31201 13.8 4.31201H10.2C9.1 4.31201 8.2 4.81201 7.5 5.61201L6.6 6.81201H5.5C3.5 6.81201 2 8.31201 2 10.212V17.612C2 19.512 3.5 21.112 5.5 21.112H18.6C20.5 21.112 22.1 19.612 22.1 17.612V10.212C22 8.31201 20.5 6.81201 18.5 6.81201Z" fill="black"/>
<path d="M12 16.812C13.8226 16.812 15.3 15.3345 15.3 13.512C15.3 11.6895 13.8226 10.212 12 10.212C10.1775 10.212 8.70001 11.6895 8.70001 13.512C8.70001 15.3345 10.1775 16.812 12 16.812Z" fill="white"/>
</svg>
