<svg width="24" height="24" viewBox="0 0 24 24" fill="none" xmlns="http://www.w3.org/2000/svg">
<path d="M12 2C6.5 2 2 6.5 2 12C2 17.5 6.5 22 12 22C17.5 22 22 17.5 22 12C22 6.5 17.5 2 12 2ZM12 20C7.6 20 4 16.4 4 12C4 7.6 7.6 4 12 4C16.4 4 20 7.6 20 12C20 16.4 16.4 20 12 20Z" fill="black"/>
<path d="M16 8.00001C15.6 7.60001 15 7.60001 14.6 8.00001L12 10.6L9.40001 8.00001C9.00001 7.60001 8.40001 7.60001 8.00001 8.00001C7.60001 8.40001 7.60001 9.00001 8.00001 9.40001L10.6 12L8.00001 14.6C7.60001 15 7.60001 15.6 8.00001 16C8.20001 16.2 8.50001 16.3 8.70001 16.3C8.90001 16.3 9.20001 16.2 9.40001 16L12 13.4L14.6 16C14.8 16.2 15.1 16.3 15.3 16.3C15.5 16.3 15.8 16.2 16 16C16.4 15.6 16.4 15 16 14.6L13.4 12L16 9.40001C16.4 9.00001 16.4 8.40001 16 8.00001Z" fill="black"/>
</svg>
