<svg width="24" height="25" viewBox="0 0 24 25" fill="none" xmlns="http://www.w3.org/2000/svg">
<path d="M16.7 22.312H7.3C5.5 22.312 4 20.812 4 18.812V5.81201C4 3.81201 5.5 2.31201 7.3 2.31201H12.2C13.3 2.31201 14.4 2.81201 15.1 3.61201L18.7 7.41201C19.6 8.21201 20 9.31201 20 10.412V18.912C20 20.812 18.5 22.312 16.7 22.312Z" fill="black"/>
<path d="M14.6 18.312H9.40001C8.50001 18.312 7.70001 17.612 7.70001 16.612V13.312C7.70001 12.412 8.40001 11.612 9.40001 11.612H14.6C15.5 11.612 16.3 12.312 16.3 13.312V16.612C16.3 17.612 15.5 18.312 14.6 18.312Z" fill="white"/>
</svg>
