<svg xmlns="http://www.w3.org/2000/svg" fill="none" viewBox="0 0 24 25"><path fill="#000" d="M16.7 22.312H7.3c-1.8 0-3.3-1.5-3.3-3.5v-13c0-2 1.5-3.5 3.3-3.5h4.9c1.1 0 2.2.5 2.9 1.3l3.6 3.8c.9.8 1.3 1.9 1.3 3v8.5c0 1.9-1.5 3.4-3.3 3.4m-9.4-18c-.7 0-1.3.7-1.3 1.5v13.1c0 .7.6 1.4 1.3 1.4h9.3c.7 0 1.3-.7 1.3-1.5v-8.4c0-.6-.2-1.2-.6-1.6l-3.6-3.9c-.4-.4-.9-.6-1.4-.6z"/><path fill="#000" d="M14.6 18.312H9.4c-.9 0-1.7-.7-1.7-1.7v-3.3c0-.9.7-1.7 1.7-1.7h5.2c.9 0 1.7.7 1.7 1.7v3.3c0 1-.8 1.7-1.7 1.7m-4.9-2h4.5v-2.6H9.7z"/></svg>