<svg width="24" height="24" viewBox="0 0 24 24" fill="none" xmlns="http://www.w3.org/2000/svg">
<path d="M19.6 7.5V8.3V9.1V12C19.6 14.9 17.3 17.2 14.4 17.2H8.9H8.1C7.8 17.2 7.6 17.2 7.4 17.3C7.6 18.8 9 20 10.6 20H16.4C17 20 17.7 20.2 18.2 20.6L21.7 23.1C21.8 23.2 22 23.2 22.2 23.2C22.3 23.2 22.4 23.2 22.6 23.1C22.9 23 23 22.7 23 22.4V10.9C23 9 21.5 7.5 19.6 7.5Z" fill="black"/>
<path d="M8.1 15.5H8.9H14.5C16.5 15.5 18.1 13.9 18.1 11.9V9.1V8.3V7.5V5.6C18.1 3.6 16.5 2 14.5 2H4.6C2.6 2 1 3.6 1 5.6V18.3C1 18.6 1.2 18.9 1.4 19C1.5 19 1.7 19 1.8 19C2 19 2.1 19 2.3 18.9L6.1 16.2C6.5 15.9 6.9 15.8 7.3 15.6C7.5 15.6 7.8 15.5 8.1 15.5Z" fill="black"/>
</svg>
