<svg xmlns="http://www.w3.org/2000/svg" fill="none" viewBox="0 0 24 25"><path fill="#000" d="M22 14.676h-2.6v-3.4H22c.6 0 1-.4 1-1s-.4-1-1-1h-2.6v-.8c0-1.6-1.3-2.8-2.8-2.8h-.8v-2.7c0-.6-.4-1-1-1s-1 .4-1 1v2.6h-3.5v-2.6c0-.6-.4-1-1-1s-1 .4-1 1v2.6h-.8c-1.6 0-2.8 1.3-2.8 2.8v.8H2c-.6 0-1 .4-1 1s.4 1 1 1h2.6v3.5H2c-.6 0-1 .4-1 1s.4 1 1 1h2.6v.8c0 1.6 1.3 2.8 2.8 2.8h.8v2.7c0 .6.4 1 1 1s1-.4 1-1v-2.6h3.5v2.6c0 .6.4 1 1 1s1-.4 1-1v-2.6h.8c1.6 0 2.8-1.3 2.8-2.8v-.8H22c.6 0 1-.4 1-1s-.4-1.1-1-1.1"/></svg>