<svg xmlns="http://www.w3.org/2000/svg" fill="none" viewBox="0 0 24 24"><path fill="#000" d="m20.6 11.9-3-3.8h.4c.6 0 1-.4 1-1s-.4-1-1-1h-.8l.4-.8c.4-.7.4-1.5 0-2.2S16.5 2 15.7 2H8.3c-.8 0-1.5.4-1.9 1.1s-.4 1.5 0 2.2l.4.8H6c-.6 0-1 .4-1 1s.4 1 1 1h9l4 5c1.1 1.4 1.2 3.2.4 4.7-.8 1.3-2.2 2.1-3.7 2.1H8.2c-1.5 0-2.9-.8-3.7-2.1-.9-1.5-.7-3.4.4-4.7l2-2.5c.3-.4.3-1.1-.2-1.4-.4-.3-1-.3-1.3.2l-2 2.5c-1.6 2-1.8 4.8-.5 7C3.9 20.8 6 22 8.2 22h7.6c2.2 0 4.3-1.2 5.4-3.1 1.3-2.3 1-5-.6-7M8.1 4.3v-.2s.1-.1.2-.1h7.4c.1 0 .2.1.2.1s.1.1 0 .2l-1 1.8H9.1z"/></svg>