<svg width="24" height="24" viewBox="0 0 24 24" fill="none" xmlns="http://www.w3.org/2000/svg">
<path d="M3.8 22C3.3 22 2.9 21.8 2.5 21.5C2 21 1.9 20.3 2.1 19.7L3.1 16.6C2.4 15.2 2 13.6 2 12C2 6.5 6.5 2 12 2C17.5 2 22 6.5 22 12C22 17.5 17.5 22 12 22C10.4 22 8.8 21.6 7.4 20.9L4.3 21.9C4.2 22 4 22 3.8 22ZM8 18.9C9.2 19.6 10.6 20 12 20C16.4 20 20 16.4 20 12C20 7.6 16.4 4 12 4C7.6 4 4 7.6 4 12C4 13.4 4.4 14.8 5.1 16C5.2 16.2 5.3 16.5 5.2 16.8L4.2 19.9L7.3 18.9C7.3 18.9 7.90219 18.8511 8 18.9Z" fill="black"/>
<path d="M12 13.6C12.8837 13.6 13.6 12.8836 13.6 12C13.6 11.1163 12.8837 10.4 12 10.4C11.1163 10.4 10.4 11.1163 10.4 12C10.4 12.8836 11.1163 13.6 12 13.6Z" fill="black"/>
<path d="M7.1 13.6C7.98366 13.6 8.7 12.8836 8.7 12C8.7 11.1163 7.98366 10.4 7.1 10.4C6.21634 10.4 5.5 11.1163 5.5 12C5.5 12.8836 6.21634 13.6 7.1 13.6Z" fill="black"/>
<path d="M16.9 13.6C17.7837 13.6 18.5 12.8836 18.5 12C18.5 11.1163 17.7837 10.4 16.9 10.4C16.0163 10.4 15.3 11.1163 15.3 12C15.3 12.8836 16.0163 13.6 16.9 13.6Z" fill="black"/>
</svg>
