<svg width="24" height="24" viewBox="0 0 24 24" fill="none" xmlns="http://www.w3.org/2000/svg">
<path d="M22 11.9805C22 17.4698 17.5088 21.9611 12.0195 21.9611C10.223 21.9611 8.52627 21.4621 7.02919 20.6636L3.13678 21.9611C2.43814 22.1607 1.83931 21.5619 2.03892 20.8632L3.33639 16.9708C2.53794 15.4737 2.03892 13.777 2.03892 11.9805C2.03892 6.49124 6.53016 2 12.0195 2C17.5088 2 22 6.49124 22 11.9805Z" fill="black"/>
<path d="M12 13.7C12.9389 13.7 13.7 12.9389 13.7 12C13.7 11.0611 12.9389 10.3 12 10.3C11.0611 10.3 10.3 11.0611 10.3 12C10.3 12.9389 11.0611 13.7 12 13.7Z" fill="white"/>
<path d="M7 13.7C7.93889 13.7 8.7 12.9389 8.7 12C8.7 11.0611 7.93889 10.3 7 10.3C6.06112 10.3 5.3 11.0611 5.3 12C5.3 12.9389 6.06112 13.7 7 13.7Z" fill="white"/>
<path d="M17 13.7C17.9389 13.7 18.7 12.9389 18.7 12C18.7 11.0611 17.9389 10.3 17 10.3C16.0611 10.3 15.3 11.0611 15.3 12C15.3 12.9389 16.0611 13.7 17 13.7Z" fill="white"/>
</svg>
