<svg xmlns="http://www.w3.org/2000/svg" fill="none" viewBox="0 0 24 24"><path fill="#000" d="M3.8 22c-.5 0-.9-.2-1.3-.5-.5-.5-.6-1.2-.4-1.8l1-3.1C2.4 15.2 2 13.6 2 12 2 6.5 6.5 2 12 2s10 4.5 10 10-4.5 10-10 10c-1.6 0-3.2-.4-4.6-1.1l-3.1 1c-.1.1-.3.1-.5.1M8 18.9c1.2.7 2.6 1.1 4 1.1 4.4 0 8-3.6 8-8s-3.6-8-8-8-8 3.6-8 8c0 1.4.4 2.8 1.1 4 .1.2.2.5.1.8l-1 3.1 3.1-1s.602-.049.7 0"/><path fill="#000" d="M12 13.6a1.6 1.6 0 1 0 0-3.2 1.6 1.6 0 0 0 0 3.2m-4.9 0a1.6 1.6 0 1 0 0-3.2 1.6 1.6 0 0 0 0 3.2m9.8 0a1.6 1.6 0 1 0 0-3.2 1.6 1.6 0 0 0 0 3.2"/></svg>