<svg xmlns="http://www.w3.org/2000/svg" fill="none" viewBox="0 0 24 24"><path fill="#000" fill-rule="evenodd" d="M18.438 2.096c2.088-.557 4.023 1.378 3.466 3.466l-.008.027-2.957 9.95c-.447 1.555-1.673 2.911-3.379 3.372l-9.935 2.953c-2.2.682-4.171-1.29-3.49-3.49l2.957-9.942C5.538 6.876 6.764 5.52 8.47 5.059l9.941-2.955zm.527 1.93L9.027 6.98 9 6.988c-.975.26-1.716 1.05-1.987 1.998l-.003.01-2.963 9.968c-.113.362-.008.647.167.822s.46.28.822.167l.013-.004 9.954-2.96.028-.007c.975-.26 1.715-1.05 1.986-1.999l.003-.01 2.955-9.938c.15-.594-.416-1.16-1.01-1.01" clip-rule="evenodd"/><path fill="#000" fill-rule="evenodd" d="M12 10.3a1.7 1.7 0 1 0 0 3.4 1.7 1.7 0 0 0 0-3.4M8.3 12a3.7 3.7 0 1 1 7.4 0 3.7 3.7 0 0 1-7.4 0" clip-rule="evenodd"/></svg>