<svg xmlns="http://www.w3.org/2000/svg" fill="none" viewBox="0 0 24 24"><path fill="#000" d="M8.694 10.203a.99.99 0 0 0-1.42 0c-.406.4-.406 1 0 1.4L11.433 16c.203.2.507.3.71.3.304 0 .608-.1.71-.4l9.94-12.297c.304-.4.304-1.1-.203-1.4-.305-.3-.913-.3-1.319.2l-2.029 2.5c-1.825-1.8-4.462-2.9-7.1-2.9C6.565 2.005 2 6.505 2 12.003S6.564 22 12.143 22c5.578 0 10.142-4.499 10.142-9.998 0-.9-.101-1.8-.405-2.699-.203-.5-.71-.8-1.218-.7-.507.1-.811.7-.71 1.2.203.7.305 1.5.305 2.2 0 4.398-3.652 7.997-8.114 7.997s-8.114-3.599-8.114-7.998 3.65-7.998 8.114-7.998c2.231 0 4.26.9 5.882 2.5l-5.882 7.298z"/></svg>