<svg xmlns="http://www.w3.org/2000/svg" fill="none" viewBox="0 0 24 25"><path fill="#000" d="M13 14.612v-10.2c.3 0 .5.1.8.1.5.1 1-.2 1.2-.8s-.2-1.1-.8-1.2c-.7-.1-1.5-.2-2.2-.2-5.5 0-10 4.5-10 10s4.5 10 10 10c.7 0 1.5-.1 2.2-.2.5-.1.9-.7.8-1.2s-.7-.9-1.2-.8c-.3.1-.5.1-.8.1zm-9-2.3c0-4.1 3.1-7.4 7-7.9v15.8c-3.9-.5-7-3.8-7-7.9m16.1 4.1c-.5-.3-1.1-.2-1.4.3-.6.9-1.3 1.6-2.1 2.2-.5.3-.6.9-.2 1.4.2.3.5.4.8.4.2 0 .4-.1.6-.2 1.1-.7 2-1.7 2.7-2.7.2-.5.1-1.1-.4-1.4m1.7-6c-.1-.5-.6-.9-1.2-.8-.5.1-.9.6-.8 1.2.2.5.2 1 .2 1.5s0 1-.1 1.5.3 1.1.8 1.2h.2c.5 0 .9-.3 1-.8.1-.6.2-1.3.2-1.9-.1-.6-.2-1.3-.3-1.9m-3.1-2.5c.2.3.5.5.8.5.2 0 .4-.1.5-.2.5-.3.6-.9.3-1.4q-1.05-1.65-2.7-2.7c-.5-.3-1.1-.2-1.4.2-.3.5-.2 1.1.2 1.4 1 .6 1.7 1.4 2.3 2.2"/></svg>