<svg width="24" height="25" viewBox="0 0 24 25" fill="none" xmlns="http://www.w3.org/2000/svg">
<path d="M22 18.112H19.8V8.11201C19.8 6.11201 18.2 4.61201 16.3 4.61201H6.3V2.31201C6.3 1.71201 5.9 1.31201 5.3 1.31201C4.7 1.31201 4.3 1.71201 4.3 2.31201V4.51201H2C1.4 4.51201 1 4.91201 1 5.51201C1 6.11201 1.4 6.51201 2 6.51201H4.2V16.512C4.2 18.512 5.8 20.012 7.7 20.012H17.7V22.312C17.7 22.912 18.1 23.312 18.7 23.312C19.3 23.312 19.7 22.912 19.7 22.312V20.112H22C22.6 20.112 23 19.712 23 19.112C23 18.512 22.6 18.112 22 18.112Z" fill="black"/>
</svg>
