<svg xmlns="http://www.w3.org/2000/svg" fill="none" viewBox="0 0 24 24"><path fill="#000" d="M20.118 18.143H18C17.647 16.857 16.5 16 15.088 16 13.412 16 12 17.371 12 19s1.412 3 3.088 3c1.412 0 2.56-.857 2.912-2.143h2.118A.87.87 0 0 0 21 19c0-.514-.353-.857-.882-.857M10.149 18H3.85c-.51 0-.851.5-.851 1 0 .6.426 1 .851 1h6.298c.51 0 .851-.5.851-1 0-.6-.425-1-.851-1M3.851 6h6.298c.51 0 .851-.5.851-1s-.425-1-.851-1H3.85C3.341 4 3 4.5 3 5s.426 1 .851 1m11.237 2C16.5 8 17.648 7.143 18 5.857h2.118c.53 0 .882-.428.882-.857s-.441-.857-.882-.857H18C17.647 2.857 16.5 2 15.088 2 13.412 2 12 3.371 12 5s1.412 3 3.088 3M3.882 12.857H6C6.353 14.057 7.5 15 8.912 15 10.588 15 12 13.629 12 12s-1.412-3-3.088-3C7.5 9 6.352 9.857 6 11.143H3.882A.87.87 0 0 0 3 12c0 .429.441.857.882.857M20.14 11h-6.28c-.516 0-.86.5-.86 1s.43 1 .86 1h6.28c.516 0 .86-.5.86-1s-.344-1-.86-1"/></svg>