<svg xmlns="http://www.w3.org/2000/svg" fill="none" viewBox="0 0 24 25"><path fill="#000" d="M20.118 18.455H18c-.353-1.286-1.5-2.143-2.912-2.143-1.676 0-3.088 1.371-3.088 3s1.412 3 3.088 3c1.412 0 2.56-.857 2.912-2.143h2.118a.87.87 0 0 0 .882-.857c0-.514-.353-.857-.882-.857m-5.03 2.143c-.706 0-1.323-.6-1.323-1.286s.617-1.286 1.323-1.286 1.324.6 1.324 1.286-.618 1.286-1.324 1.286m-4.939-2.286H3.85c-.51 0-.851.5-.851 1 0 .6.426 1 .851 1h6.298c.51 0 .851-.5.851-1 0-.6-.425-1-.851-1m-6.297-12h6.298c.51 0 .851-.5.851-1s-.425-1-.851-1H3.85c-.51 0-.851.5-.851 1s.426 1 .851 1m11.238 2c1.412 0 2.56-.857 2.912-2.143h2.118c.53 0 .882-.428.882-.857s-.441-.857-.882-.857H18c-.353-1.286-1.5-2.143-2.912-2.143-1.676 0-3.088 1.371-3.088 3s1.412 3 3.088 3m0-4.286c.706 0 1.324.6 1.324 1.286s-.618 1.286-1.324 1.286-1.323-.6-1.323-1.286.617-1.286 1.323-1.286M3.882 13.17H6c.353 1.2 1.5 2.142 2.912 2.142 1.676 0 3.088-1.371 3.088-3s-1.412-3-3.088-3c-1.412 0-2.56.857-2.912 2.143H3.882a.87.87 0 0 0-.882.857c0 .429.441.857.882.857m5.03-2.144c.706 0 1.323.6 1.323 1.286s-.617 1.286-1.323 1.286-1.324-.6-1.324-1.286.618-1.286 1.324-1.286m11.228.287h-6.28c-.516 0-.86.5-.86 1s.43 1 .86 1h6.28c.516 0 .86-.5.86-1s-.344-1-.86-1"/></svg>