<svg xmlns="http://www.w3.org/2000/svg" fill="none" viewBox="0 0 24 25"><path fill="#000" d="M10.1 9.776c-.6-1-1.2-1.7-1.9-2.2.5-.6.8-1.4.8-2.2 0-1.9-1.5-3.4-3.4-3.4s-3.3 1.5-3.3 3.4c0 .9.3 1.6.8 2.2-1.3.8-2.1 2.3-2.1 3.9v2.8c0 .6.4 1 1 1s1-.4 1-1v-2.8c0-1.1.6-2.1 1.6-2.5.3-.1.7-.2 1.1-.2 1.2 0 1.8.3 2.8 2l2.7 4.1c.2.3.5.4.8.4.2 0 .4-.1.6-.2.5-.3.6-.9.3-1.4zm-4.5-5.8c.8 0 1.4.6 1.4 1.4s-.6 1.3-1.4 1.3-1.3-.6-1.3-1.3.6-1.4 1.3-1.4"/><path fill="#000" d="M7.5 11.976c-.6 0-1 .4-1 1v8.2c0 .5-.4.8-.8.8s-.8-.4-.8-.8v-4.5c0-.6-.4-1-1-1s-1 .4-1 1v4.5c0 1.6 1.3 2.8 2.8 2.8 1.6 0 2.8-1.3 2.8-2.8v-8.2c0-.6-.5-1-1-1m13.4-4.4c.5-.6.9-1.4.9-2.2 0-1.9-1.5-3.4-3.4-3.4s-3.4 1.5-3.4 3.4c0 .8.3 1.6.8 2.2-.8.5-1.4 1.2-1.9 2.2l-.8 1.2c-.3.5-.2 1.1.3 1.4s1.1.2 1.4-.3l.8-1.2c1-1.6 1.6-1.9 2.8-1.9.4 0 .7.1 1.1.2.9.2 1.5 1.2 1.5 2.3v2.8c0 .6.4 1 1 1s1-.4 1-1v-2.8c0-1.6-.8-3.1-2.1-3.9m-2.5-3.6c.8 0 1.4.6 1.4 1.4s-.6 1.4-1.4 1.4-1.4-.6-1.4-1.4.6-1.4 1.4-1.4"/><path fill="#000" d="M20.2 15.576c-.6 0-1 .4-1 1v4.5c0 .5-.4.8-.8.8s-.8-.4-.8-.8v-8.1c0-.6-.4-1-1-1s-1 .4-1 1v8.2c0 1.6 1.3 2.8 2.8 2.8s2.8-1.3 2.8-2.8v-4.5c0-.6-.5-1.1-1-1.1"/></svg>