<svg xmlns="http://www.w3.org/2000/svg" fill="none" viewBox="0 0 24 25"><path fill="#000" d="M20.7 7.176c-.1-.1-.3-.2-.4-.2.8-.5 1.3-1.3 1.3-2.3 0-1.5-1.2-2.7-2.7-2.7s-2.7 1.2-2.7 2.7c0 1 .5 1.8 1.3 2.3-1.1.4-1.8 1.4-2.7 2.5l-1.5 2 1.5 2.2 2.1-1.6v9.7c0 1.1.8 2.1 1.9 2.2.6 0 1.2-.2 1.6-.6q.6-.6.6-1.5v-5.2l1.3-1.5c.5-.7.8-1.5.8-2.3v-2c-.1-1.6-.9-3.1-2.4-3.7m-8.7 5.8-2.7-3.5c-.9-1.1-1.6-2.1-2.7-2.5.8-.5 1.3-1.3 1.3-2.3 0-1.5-1.3-2.7-2.8-2.7-1.4 0-2.7 1.2-2.7 2.7 0 1 .5 1.8 1.3 2.3-.1 0-.2.1-.3.1-1.5.6-2.4 2.2-2.4 3.8v2c0 .8.3 1.7.8 2.3l1.3 1.5v5.2q0 .9.6 1.5c.4.4.9.6 1.4.6 1.1 0 2.1-.9 2.1-2.1v-9.8l4.1 3.1c.2.2.7.2 1 0 .5-.2.7-.9.3-1.4z"/></svg>