<svg xmlns="http://www.w3.org/2000/svg" fill="none" viewBox="0 0 24 25"><path fill="#000" d="M19.376 5.296H8.516c-1.307 0-2.614.6-3.519 1.5l-3.318 3.7c-.905 1-.905 2.6 0 3.6l3.318 3.7c.905 1 2.212 1.5 3.52 1.5h10.758c2.112 0 3.72-1.6 3.72-3.6v-6.8c.101-2-1.608-3.6-3.62-3.6"/><path fill="#fff" d="M17.5 8.696c-.4-.4-1-.4-1.4 0l-2.1 2.2-2.1-2.2c-.4-.4-1-.4-1.4 0s-.4 1 0 1.4l2 2.2-2.2 2.2c-.4.4-.4 1 0 1.4.2.2.5.3.7.3s.5-.1.7-.3l2.1-2.2 2.1 2.2c.2.2.5.3.7.3s.5-.1.7-.3c.4-.4.4-1 0-1.4l-2-2.2 2.1-2.2c.5-.3.5-1 .1-1.4"/></svg>