<svg xmlns="http://www.w3.org/2000/svg" fill="none" viewBox="0 0 24 24"><path fill="#000" d="M5 14.3c.2.2.4.4.7.4h.1c.3 0 .5-.1.7-.3l2.9-2.9c.3-.3.4-.9.1-1.3-.1-.1-.2-.3-.2-.4l.4-.4c.8-.9 1-2.3.4-3.4L8 2.4C7.6 1.6 6.8 1.1 5.9 1c-.8-.1-1.7.2-2.3.8L2.4 3C1 4.4.6 6.3 1.3 8 2 9.6 3.1 11.9 5 14.3m18 3.8c-.1-.9-.6-1.6-1.4-2.1L18 13.9c-1.1-.6-2.5-.4-3.4.4l-.4.4c-.7-.4-1.4-1-2-1.6L22.7 2.8c.4-.4.4-1 0-1.4s-1-.4-1.4 0L10.1 12.5l-2.9 2.9-5.8 5.8c-.4.4-.4 1 0 1.4.2.2.5.3.7.3s.5-.1.7-.3l5.1-5.1c2.9 2.7 5.9 4.3 8.1 5.1.6.2 1.2.3 1.7.3 1.2 0 2.4-.5 3.3-1.4l1.2-1.2c.6-.5.9-1.4.8-2.2"/></svg>