<svg width="24" height="24" viewBox="0 0 24 24" fill="none" xmlns="http://www.w3.org/2000/svg">
<path d="M5 14.3C5.2 14.5 5.4 14.7 5.7 14.7C5.7 14.7 5.7 14.7 5.8 14.7C6.1 14.7 6.3 14.6 6.5 14.4L9.4 11.5C9.7 11.2 9.8 10.6 9.5 10.2C9.4 10.1 9.3 9.9 9.3 9.8L9.7 9.4C10.5 8.5 10.7 7.1 10.1 6L8 2.4C7.6 1.6 6.8 1.1 5.9 0.999999C5.1 0.899999 4.2 1.2 3.6 1.8L2.4 3C1 4.4 0.6 6.3 1.3 8C2 9.6 3.1 11.9 5 14.3Z" fill="black"/>
<path d="M23 18.1C22.9 17.2 22.4 16.5 21.6 16L18 13.9C16.9 13.3 15.5 13.5 14.6 14.3L14.2 14.7C13.5 14.3 12.8 13.7 12.2 13.1L22.7 2.80001C23.1 2.40001 23.1 1.80001 22.7 1.40001C22.3 1.00001 21.7 1.00001 21.3 1.40001L10.1 12.5L7.2 15.4L1.4 21.2C0.999998 21.6 0.999998 22.2 1.4 22.6C1.6 22.8 1.9 22.9 2.1 22.9C2.3 22.9 2.6 22.8 2.8 22.6L7.9 17.5C10.8 20.2 13.8 21.8 16 22.6C16.6 22.8 17.2 22.9 17.7 22.9C18.9 22.9 20.1 22.4 21 21.5L22.2 20.3C22.8 19.8 23.1 18.9 23 18.1Z" fill="black"/>
</svg>
