<svg xmlns="http://www.w3.org/2000/svg" fill="none" viewBox="0 0 24 25"><path fill="#000" fill-rule="evenodd" d="M3 6.088a1 1 0 0 1 1 1v11.2c0 1.6 1.404 3 3.2 3h8.7a1 1 0 1 1 0 2H7.2c-2.804 0-5.2-2.2-5.2-5v-11.2a1 1 0 0 1 1-1" clip-rule="evenodd"/><path fill="#000" fill-rule="evenodd" d="M6 4.479c0-1.858 1.58-3.19 3.317-3.19h4.924c1.088 0 2.119.36 2.908 1.129l3.654 3.32.03.029A3.93 3.93 0 0 1 22 8.574v7.524c0 1.857-1.58 3.19-3.317 3.19H9.317C7.58 19.288 6 17.955 6 16.098zm3.317-1.19c-.772 0-1.317.57-1.317 1.19v11.619c0 .618.545 1.19 1.317 1.19h9.366c.772 0 1.317-.572 1.317-1.19V8.574c0-.505-.189-1-.558-1.37l-3.652-3.32-.03-.028c-.368-.363-.876-.569-1.519-.569z" clip-rule="evenodd"/></svg>