<svg xmlns="http://www.w3.org/2000/svg" fill="none" viewBox="0 0 24 25"><path fill="#000" d="M8.9 21.312c-1.4 0-2.5-1.1-2.5-2.5v-5c-3 0-5.4-2.3-5.4-5.3 0-2.9 2.3-5.2 5.2-5.2s5.2 2.3 5.2 5.2v10.2c0 .7-.3 1.3-.8 1.8-.4.5-1 .8-1.7.8m-.5-8.7v6.2c0 .4.6.7.9.4.1-.1.2-.2.2-.4v-10.3c0-1.8-1.5-3.2-3.3-3.2S3 6.712 3 8.512s1.4 3.3 3.2 3.3c.3 0 .6-.1.9-.1.8-.2 1.3.4 1.3.9m6.7 8.7c-.7 0-1.3-.3-1.8-.8s-.7-1.1-.7-1.8v-10.2c0-2.9 2.3-5.2 5.2-5.2s5.2 2.3 5.2 5.2-2.4 5.3-5.4 5.2v5c0 1.5-1.1 2.6-2.5 2.6m2.7-16c-1.8 0-3.2 1.4-3.2 3.2v10.2c0 .1.1.3.2.4.3.4.9.1.9-.4v-6.1c0-.7.7-1.1 1.3-1 .3.1.6.1.9.1 1.7.1 3.1-1.4 3.1-3.2s-1.4-3.2-3.2-3.2"/></svg>