<svg width="24" height="24" viewBox="0 0 24 24" fill="none" xmlns="http://www.w3.org/2000/svg">
<path d="M21.3147 15.2869L15.3717 21.2334C14.3503 22.2555 12.7717 22.2555 11.7502 21.2334L3.30003 12.7782C2.4643 12.0348 2 10.9199 2 9.80488V3.67247C2 2.74332 2.74287 2 3.67147 2H9.80019C10.9145 2 12.0288 2.46458 12.7717 3.2079L21.2219 11.6632C22.2433 12.6852 22.2433 14.3577 21.3147 15.2869Z" fill="black"/>
<path d="M8.50812 8.47656C9.10247 7.88221 9.10247 6.91857 8.50812 6.32422C7.91377 5.72986 6.95013 5.72986 6.35577 6.32422C5.76142 6.91857 5.76142 7.88221 6.35577 8.47656C6.95013 9.07092 7.91377 9.07092 8.50812 8.47656Z" fill="white"/>
</svg>
