<svg xmlns="http://www.w3.org/2000/svg" fill="none" viewBox="0 0 24 24"><path fill="#000" d="M21.128 2.784C19.938 1.694 18.451 1 16.765 1c-1.685 0-3.172.694-4.362 1.784L6.057 9.126a5.47 5.47 0 0 0-1.587 3.865v5.153l-3.173 3.171a.96.96 0 0 0 0 1.388c.199.198.397.297.695.297s.495-.1.694-.297l3.47-3.469 5.85-5.847a.96.96 0 0 0 0-1.387.96.96 0 0 0-1.388 0l-4.165 4.162v-3.171c0-.892.397-1.784.992-2.477l6.346-6.343c.793-.793 1.884-1.288 2.974-1.288s2.182.396 2.975 1.288c1.686 1.685 1.686 4.36 0 5.946l-6.346 6.342c-.694.694-1.487.991-2.479.991h-.694a.993.993 0 0 0-.991.991c0 .595.396.991.991.991h.794c1.487 0 2.776-.594 3.867-1.585l6.345-6.343c2.38-2.279 2.38-6.243-.099-8.72"/></svg>