<svg xmlns="http://www.w3.org/2000/svg" fill="none" viewBox="0 0 24 25"><path fill="#000" fill-rule="evenodd" d="M5.364 4.312C4.63 4.312 4 4.953 4 5.645V7.89c0 .737.592 1.352 1.403 1.423h2.233C8.37 9.312 9 8.671 9 7.979V5.645c0-.743-.59-1.333-1.273-1.333zM2 5.645c0-1.82 1.55-3.333 3.364-3.333h2.363C9.591 2.312 11 3.876 11 5.645V7.98c0 1.82-1.55 3.333-3.364 3.333H5.364q-.036 0-.07-.002C3.573 11.188 2 9.834 2 7.889zm14.364-1.333c-.733 0-1.364.641-1.364 1.333V7.98c0 .692.631 1.333 1.364 1.333h2.272c.733 0 1.364-.641 1.364-1.333V5.645c0-.743-.59-1.333-1.273-1.333zM13 5.645c0-1.82 1.55-3.333 3.364-3.333h2.363C20.591 2.312 22 3.876 22 5.645V7.98c0 1.82-1.55 3.333-3.364 3.333h-2.272C14.55 11.312 13 9.8 13 7.979zm-7.636 9.667c-.733 0-1.364.641-1.364 1.333v2.334c0 .626.568 1.26 1.403 1.333h2.233c.733 0 1.364-.641 1.364-1.333v-2.334c0-.743-.59-1.333-1.273-1.333zM2 16.645c0-1.82 1.55-3.333 3.364-3.333h2.363c1.864 0 3.273 1.564 3.273 3.333v2.334c0 1.82-1.55 3.333-3.364 3.333H5.364q-.036 0-.07-.003C3.6 22.19 2 20.858 2 18.98zm14.364-1.333c-.733 0-1.364.641-1.364 1.333v2.334c0 .692.631 1.333 1.364 1.333h2.272c.733 0 1.364-.641 1.364-1.333v-2.334c0-.743-.59-1.333-1.273-1.333zM13 16.645c0-1.82 1.55-3.333 3.364-3.333h2.363c1.864 0 3.273 1.564 3.273 3.333v2.334c0 1.82-1.55 3.333-3.364 3.333h-2.272c-1.813 0-3.364-1.513-3.364-3.333z" clip-rule="evenodd"/></svg>