<svg width="24" height="25" viewBox="0 0 24 25" fill="none" xmlns="http://www.w3.org/2000/svg">
<path d="M16 21.3113H7.3C5.5 21.3113 4 20.0265 4 18.3462V7.27646C4 6.68343 3.5 6.28809 3 6.28809C2.5 6.28809 2 6.68343 2 7.27646V18.3462C2 21.1137 4.4 23.2881 7.3 23.2881H16C16.6 23.2881 17 22.8927 17 22.2997C17 21.7067 16.6 21.3113 16 21.3113Z" fill="black"/>
<path d="M20.9068 6.0094L16.7329 2.27169C16.0373 1.68153 15.1429 1.28809 14.2484 1.28809H8.68323C7.19255 1.28809 6 2.37005 6 3.7471V16.8291C6 18.2061 7.19255 19.2881 8.68323 19.2881H19.3168C20.8075 19.2881 22 18.2061 22 16.8291V9.45202V8.37005C21.9006 7.48481 21.5031 6.69792 20.9068 6.0094Z" fill="black"/>
</svg>
