<svg xmlns="http://www.w3.org/2000/svg" fill="none" viewBox="0 0 24 24"><path fill="#000" d="M20 14.41c-.225-6.058-4.166-10.574-6.53-12.667-1.126-.99-2.927-.99-4.053 0C7.166 3.946 3.225 8.352 3 14.41v.44C3 19.367 6.828 23 11.444 23c4.728 0 8.443-3.634 8.443-8.15.113-.22.113-.33.113-.44m-7.205 5.947c-.563.44-1.239.55-1.914.33-.563-.22-1.013-.44-1.239-.991-.337-.771-.337-1.762 0-2.754.45-1.211 1.464-2.753 1.914-2.863 1.351 1.101 2.252 2.974 2.252 4.515-.113.771-.45 1.322-1.013 1.763m3.152-1.322v-.33c0-2.313-1.238-4.736-3.04-6.278-.563-.44-1.238-.661-2.026-.44-2.14.55-3.378 4.185-3.378 4.295-.337.99-.45 1.982-.337 2.863-1.126-1.101-1.914-2.643-1.914-4.295v-.33c.112-5.287 3.715-9.252 5.741-11.125.113-.11.338-.22.45-.22.113 0 .338.11.564.22 2.139 1.873 5.629 5.838 5.741 11.124v.22c0 1.763-.675 3.195-1.801 4.296"/></svg>