<svg xmlns="http://www.w3.org/2000/svg" fill="none" viewBox="0 0 24 25"><path fill="#000" d="M6.578 23.976c-.811 0-1.521-.302-2.028-.804l-2.74-2.716C1.304 19.953 1 19.15 1 18.445s.304-1.509.811-2.012l3.144-3.318c-.608-2.615 0-5.33 1.522-7.443 2.535-3.318 6.794-4.525 10.648-3.117.305.1.609.402.609.704s0 .704-.305.905L14.388 7.18a2.74 2.74 0 0 0-.811 1.91c0 .604.304 1.208.71 1.61s1.014.603 1.622.603 1.217-.2 1.623-.704l3.245-3.218c.203-.201.609-.302.913-.302.304.101.609.302.71.604 1.318 3.319.406 7.14-2.13 9.654-2.231 2.213-5.476 3.118-8.62 2.414L8.607 23.07c-.507.603-1.217.905-2.028.905"/></svg>