<svg xmlns="http://www.w3.org/2000/svg" fill="none" viewBox="0 0 24 24"><path fill="#000" fill-rule="evenodd" d="M14.653 2.818c0-.825-.498-1.477-1.178-1.719a1.69 1.69 0 0 0-1.954.616L8.881 4.99l-2.15 2.6-3.39 4.22a1 1 0 0 0-.073.103c-.352.573-.326 1.251-.102 1.763.231.527.766 1.062 1.57 1.062h3.51v6.415c0 .845.516 1.48 1.193 1.728a2.03 2.03 0 0 0 1.975-.352q.084-.068.15-.152l4.711-5.906 2.046-2.5.014-.017 1.332-1.704a1 1 0 0 0 .065-.093c.352-.574.326-1.251.102-1.764-.231-.526-.766-1.062-1.57-1.062h-3.611z" clip-rule="evenodd"/></svg>