<svg xmlns="http://www.w3.org/2000/svg" fill="none" viewBox="0 0 24 25"><path fill="#000" fill-rule="evenodd" d="m13.652 3.81-2.226 2.763-2.148 2.6-3.118 3.879h4.085a1 1 0 0 1 1 1v7.085l4.478-5.615 2.043-2.496 1.08-1.381h-4.194a1 1 0 0 1-1-1zm.823-2.398c.68.241 1.177.894 1.177 1.718v6.515h3.612c.804 0 1.339.535 1.57 1.062.224.512.25 1.19-.102 1.764a1 1 0 0 1-.065.093l-1.332 1.703-.014.017-2.046 2.5-4.71 5.907a1 1 0 0 1-.15.151 2.03 2.03 0 0 1-1.976.352 1.81 1.81 0 0 1-1.194-1.728v-6.414h-3.51c-.803 0-1.338-.536-1.569-1.062-.224-.513-.25-1.19.102-1.764a1 1 0 0 1 .073-.103l3.39-4.22 2.15-2.6 2.64-3.276a1.69 1.69 0 0 1 1.954-.615" clip-rule="evenodd"/></svg>