<svg width="24" height="25" viewBox="0 0 24 25" fill="none" xmlns="http://www.w3.org/2000/svg">
<path d="M20.5676 4.78809H14.827L13.3676 3.28809C12.7838 2.68809 11.9081 2.28809 11.0324 2.28809H7.43243C6.07027 2.28809 5 3.38809 5 4.78809V15.6881C5 17.0881 6.07027 18.2881 7.43243 18.2881H20.5676C21.9297 18.2881 23 17.1881 23 15.7881V7.28809C23 5.98809 21.9297 4.78809 20.5676 4.78809Z" fill="black"/>
<path d="M17.9655 20.1689H6.17241C4.41379 20.1689 3.06897 18.7914 3.06897 16.9901V7.34769C3.06897 6.71193 2.65517 6.28809 2.03448 6.28809C1.41379 6.28809 1 6.71193 1 7.34769V16.9901C1 19.957 3.27586 22.2881 6.17241 22.2881H17.9655C18.5862 22.2881 19 21.8642 19 21.2285C19 20.5927 18.4828 20.1689 17.9655 20.1689Z" fill="black"/>
</svg>
