<svg xmlns="http://www.w3.org/2000/svg" fill="none" viewBox="0 0 24 25"><path fill="#000" d="M20.568 4.788h-5.741l-1.46-1.5c-.583-.6-1.459-1-2.335-1h-3.6C6.07 2.288 5 3.388 5 4.788v10.9c0 1.4 1.07 2.6 2.432 2.6h13.136c1.362 0 2.432-1.1 2.432-2.5v-8.5c0-1.3-1.07-2.5-2.432-2.5"/><path fill="#000" d="M17.966 20.169H6.171c-1.758 0-3.103-1.378-3.103-3.179V7.348c0-.636-.414-1.06-1.035-1.06-.62 0-1.034.424-1.034 1.06v9.642c0 2.967 2.276 5.298 5.172 5.298h11.794c.62 0 1.034-.424 1.034-1.06a1.05 1.05 0 0 0-1.035-1.06"/></svg>