<svg xmlns="http://www.w3.org/2000/svg" fill="none" viewBox="0 0 24 24"><path fill="#000" d="M19 6.507V5.38C19 3.502 17.6 2 15.85 2h-7.7C6.4 2 5 3.502 5 5.38v1.127c0 1.22.525 2.254 1.487 2.91l2.713 1.88c.438.282.963.188 1.225-.282.262-.563.175-1.127-.263-1.408L7.45 7.728c-.437-.188-.7-.658-.7-1.221V5.38c0-.845.612-1.502 1.4-1.502h7.7c.787 0 1.4.657 1.4 1.502v1.127c0 .563-.262 1.033-.7 1.315l-4.988 3.38-5.074 3.38C5.525 15.145 5 16.272 5 17.493v1.127C5 20.498 6.4 22 8.15 22h7.7C17.6 22 19 20.498 19 18.62v-1.127c0-1.22-.525-2.254-1.488-2.91l-3.85-2.63 3.85-2.63C18.476 8.762 19 7.729 19 6.508m-1.75 10.986v1.127c0 .845-.613 1.502-1.4 1.502h-7.7c-.788 0-1.4-.657-1.4-1.502v-1.127c0-.563.263-1.033.7-1.315L12 13.08l4.55 3.098c.438.282.7.752.7 1.315"/></svg>