<svg xmlns="http://www.w3.org/2000/svg" fill="none" viewBox="0 0 24 25"><path fill="#000" d="M16.1 5.312H7.9c-3.8 0-6.9 3.1-6.9 6.9v.2c0 3.8 3.1 6.9 6.9 6.9h8.2c3.8 0 6.9-3.1 6.9-6.9v-.2c0-3.8-3.1-6.9-6.9-6.9m4.9 7.1c0 2.7-2.2 4.9-4.9 4.9H7.9c-2.7 0-4.9-2.2-4.9-4.9v-.2c0-2.7 2.2-4.9 4.9-4.9h8.2c2.7 0 4.9 2.2 4.9 4.9z"/><path fill="#000" d="M9.5 11.312h-.7v-.7c0-.6-.4-1-1-1s-1 .4-1 1v.7h-.6c-.6 0-1 .4-1 1s.4 1 1 1h.7v.7c0 .6.4 1 1 1s1-.4 1-1v-.7h.7c.6 0 1-.4 1-1s-.5-1-1.1-1m5.4 1.1a1.3 1.3 0 1 0 0-2.6 1.3 1.3 0 0 0 0 2.6m2.5 2.5a1.3 1.3 0 1 0 0-2.6 1.3 1.3 0 0 0 0 2.6"/></svg>