<svg xmlns="http://www.w3.org/2000/svg" fill="none" viewBox="0 0 24 25"><path fill="#000" d="M18.178 10.208c-1.808 0-3.415 1.042-4.22 2.5h-3.716c-.904-1.562-2.411-2.5-4.32-2.5-2.712 0-4.922 2.188-4.922 5s2.21 5 4.922 5c2.713 0 4.923-2.292 4.923-5v-.417h2.31v.417c0 2.812 2.21 5 4.923 5s4.922-2.292 4.922-5-2.11-5-4.822-5M5.922 18.125c-1.607 0-2.913-1.355-2.913-2.917s1.306-2.917 2.913-2.917c1.608 0 2.914 1.354 2.914 2.917s-1.206 2.917-2.914 2.917m12.256 0c-1.607 0-2.913-1.355-2.913-2.917s1.306-2.917 2.913-2.917 2.913 1.25 2.913 2.917-1.306 2.917-2.913 2.917M1.54 10.114c.093.094.28.094.374.094.375 0 .75-.187.843-.562l.936-2.25c.375-.844 1.124-1.313 1.966-1.313h1.405c.561 0 .936-.375.936-.937a.94.94 0 0 0-.936-.938H5.659c-1.591 0-3.09.938-3.651 2.344l-.936 2.344c-.187.468 0 1.03.468 1.218m15.403-4.001h1.416c.849 0 1.603.476 1.886 1.238l.944 2.286q.284.57.849.571c.094 0 .283 0 .377-.095.472-.19.755-.762.472-1.238l-.943-2.286c-.472-1.429-1.982-2.381-3.585-2.381h-1.416c-.566 0-.943.381-.943.952a.95.95 0 0 0 .943.953"/></svg>