<svg xmlns="http://www.w3.org/2000/svg" fill="none" viewBox="0 0 24 25"><path fill="#000" d="M18.631 2.51a.966.966 0 0 0-1.402 0 .974.974 0 0 0 0 1.407c3.706 3.718 3.706 9.748 0 13.467-3.507 3.517-9.017 3.718-12.724.603l1.302-1.407a7.84 7.84 0 0 0 4.709 1.608c2.004 0 3.907-.804 5.41-2.211s2.204-3.317 2.204-5.327-.801-3.92-2.204-5.427-3.306-2.211-5.41-2.211c-2.004 0-3.907.804-5.41 2.211S2.902 8.64 2.902 10.65q0 2.563 1.502 4.523l-2.103 2.21a.974.974 0 0 0 0 1.408c2.204 2.211 5.21 3.417 8.115 3.417s5.91-1.105 8.115-3.417c4.609-4.523 4.609-11.759.1-16.281"/></svg>