<svg xmlns="http://www.w3.org/2000/svg" fill="none" viewBox="0 0 24 24"><path fill="#000" d="M21.3 6.534H19l.6-2.395c.2-.898-.3-1.796-1.2-2.095-.9-.2-1.8.299-2.1 1.197l-.9 3.293h-4l.6-2.395c.2-.898-.3-1.796-1.2-2.095-.8-.2-1.7.299-1.9 1.197L8 6.534H4.7c-.9 0-1.7.798-1.7 1.696s.8 1.696 1.7 1.696H7l-1.1 4.092H2.7c-.9 0-1.7.798-1.7 1.696s.8 1.696 1.7 1.696H5l-.6 2.395c-.2.898.3 1.796 1.2 2.095.1 0 .3.1.4.1.7 0 1.4-.499 1.6-1.197l3-10.877h4l-1.2 4.092H12c-.9 0-1.7.798-1.7 1.696s.8 1.696 1.7 1.696h.5l-.6 2.395c-.2.898.3 1.796 1.2 2.095.1 0 .3.1.4.1.7 0 1.4-.499 1.6-1.197l.9-3.293h3.2c.9 0 1.7-.798 1.7-1.697 0-.898-.7-1.796-1.6-1.796H17l1.1-4.09h3.2c.9 0 1.7-.799 1.7-1.697s-.8-1.696-1.7-1.696"/></svg>