<svg xmlns="http://www.w3.org/2000/svg" fill="none" viewBox="0 0 24 24"><path fill="#000" fill-rule="evenodd" d="M19.268 2.036a1 1 0 0 1 .695 1.232l-5 18a1 1 0 0 1-1.926-.536l5-18a1 1 0 0 1 1.23-.696m-8.999 0a1 1 0 0 1 .695 1.232l-5 18a1 1 0 0 1-1.927-.536l5-18a1 1 0 0 1 1.232-.696" clip-rule="evenodd"/><path fill="#000" fill-rule="evenodd" d="M9 16a1 1 0 0 1 1-1h10a1 1 0 1 1 0 2H10a1 1 0 0 1-1-1m-8 0a1 1 0 0 1 1-1h4a1 1 0 1 1 0 2H2a1 1 0 0 1-1-1m2-8a1 1 0 0 1 1-1h18a1 1 0 1 1 0 2H4a1 1 0 0 1-1-1" clip-rule="evenodd"/></svg>