<svg xmlns="http://www.w3.org/2000/svg" fill="none" viewBox="0 0 24 25"><path fill="#000" d="m17.6 15.708-2.8 1.5c-.8.4-1.8.7-2.8.7s-1.9-.2-2.8-.7l-2.9-1.5-1-.5-1-.5v1.4c0 1.1.6 2.1 1.6 2.6l4.3 2.2q.9.3 1.8.3c.6 0 1.2-.1 1.7-.4l4.3-2.2c1-.5 1.6-1.5 1.6-2.6v-1.4l-1 .5z"/><path fill="#000" d="m22 8.008-8.2-4.3c-.6-.4-1.2-.5-1.8-.5s-1.2.1-1.8.4L2 8.008c-.6.3-1 .9-1 1.5 0 .7.4 1.3 1 1.6l2.4 1.2 1 .5 1 .5 3.8 2c.6.3 1.2.4 1.8.4s1.2-.2 1.8-.4l3.8-2 1-.5 1-.5 2.4-1.2c.6-.3 1-.9 1-1.6 0-.6-.4-1.2-1-1.5"/></svg>