<svg xmlns="http://www.w3.org/2000/svg" fill="none" viewBox="0 0 24 25"><path fill="#000" d="m22 7.945-8.2-4.288a3.83 3.83 0 0 0-3.6 0L2 7.945c-.6.299-1 .997-1 1.695s.4 1.297 1 1.695l2.4 1.297v3.49c0 1.097.6 2.094 1.6 2.593l4.3 2.194c.5.2 1.1.299 1.7.299s1.2-.1 1.7-.399l4.3-2.194c1-.498 1.6-1.496 1.6-2.593v-1.096c0-.599-.4-.998-1-.998s-1 .4-1 .997v1.097c0 .3-.2.699-.5.798l-4.3 2.194c-.5.3-1.1.3-1.6 0L6.9 16.82c-.3-.2-.5-.498-.5-.798V13.63l3.8 1.995c.6.299 1.2.398 1.8.398s1.2-.1 1.8-.398l8.2-4.289c.6-.299 1-.997 1-1.695s-.4-1.296-1-1.695m-9.1 5.884c-.5.299-1.2.299-1.8 0l-8-4.189 8-4.188q.9-.45 1.8 0l8 4.188z"/></svg>