<svg xmlns="http://www.w3.org/2000/svg" fill="none" viewBox="0 0 24 24"><path fill="#000" d="M16.3 4c-1.7 0-3.2.688-4.3 1.965C10.9 4.688 9.4 4 7.7 4 4.6 4 2 6.555 2 9.601v.59c.4 4.618 5.4 8.45 8.3 10.318.5.294 1.1.491 1.7.491s1.2-.197 1.7-.491c2.9-1.867 7.9-5.7 8.3-10.22v-.59C22 6.555 19.4 4 16.3 4M20 9.994c-.3 3.93-5.3 7.468-7.4 8.746q-.6.294-1.2 0c-2.1-1.376-7-4.913-7.4-8.844V9.6c0-1.965 1.7-3.636 3.7-3.636 1.5 0 2.8.885 3.4 2.162.1.393.5.59.9.59s.8-.197.9-.59a3.76 3.76 0 0 1 3.4-2.162c2 0 3.7 1.67 3.7 3.636z"/></svg>