<svg width="24" height="24" viewBox="0 0 24 24" fill="none" xmlns="http://www.w3.org/2000/svg">
<path d="M16.2857 3C14.5714 3 13.0476 3.75978 12 4.99441C10.9524 3.75978 9.33333 3 7.61905 3C4.57143 3 2 5.56425 2 8.60335C2 8.7933 2 8.98324 2 9.17318C2.38095 13.8268 7.33333 17.7207 10.2857 19.5251C10.7619 19.8101 11.3333 20 12 20C12.5714 20 13.1429 19.8101 13.7143 19.5251C16.6667 17.6257 21.619 13.8268 22 9.17318C22 8.98324 22 8.7933 22 8.60335C22 5.56425 19.4286 3 16.2857 3Z" fill="black"/>
</svg>
