<svg xmlns="http://www.w3.org/2000/svg" fill="none" viewBox="0 0 24 25"><path fill="#000" fill-rule="evenodd" d="M12.743 4.547a1.29 1.29 0 0 0-1.486 0l-.017.012-6.179 3.95A2.31 2.31 0 0 0 4 10.449v8.44c0 .796.63 1.423 1.418 1.423h13.164A1.41 1.41 0 0 0 20 18.888V10.45c0-.779-.412-1.477-1.08-1.953L12.76 4.56zm1.102-1.669a3.29 3.29 0 0 0-3.69 0l-6.17 3.945A4.31 4.31 0 0 0 2 10.45v8.44a3.41 3.41 0 0 0 3.418 3.423h13.164A3.41 3.41 0 0 0 22 18.888V10.45c0-1.549-.835-2.82-1.948-3.601l-.036-.024z" clip-rule="evenodd"/></svg>