<svg xmlns="http://www.w3.org/2000/svg" fill="none" viewBox="0 0 24 25"><path fill="#000" d="M7.1 11.012h9.8c1.5 0 2.6-1.2 2.6-2.6v-2.5c0-1.5-1.2-2.6-2.6-2.6H7.1c-1.5 0-2.6 1.2-2.6 2.6v2.5c0 1.4 1.1 2.6 2.6 2.6m-.6-5.1c0-.3.2-.6.6-.6h9.8c.4 0 .6.3.6.6v2.5c0 .4-.3.6-.6.6H7.1c-.4 0-.6-.3-.6-.6zm12.9 7.4H4.6c-1.4 0-2.6 1.2-2.6 2.6v2.5c0 1.5 1.2 2.6 2.6 2.6h14.7c1.5 0 2.6-1.2 2.6-2.6v-2.5c.1-1.4-1.1-2.6-2.5-2.6m.5 5.1c0 .4-.2.6-.5.6H4.6c-.4 0-.6-.3-.6-.6v-2.5c0-.3.3-.6.6-.6h14.7c.4 0 .6.3.6.6z"/></svg>