<svg xmlns="http://www.w3.org/2000/svg" fill="none" viewBox="0 0 24 25"><path fill="#000" d="M14.1 3.968c-4.6 0-8.4 3.64-8.8 8.292v.708c0 3.54 2.7 6.472 6.1 6.775-.5.101-1 .203-1.5.203C6.1 19.844 3 16.71 3 12.968c0-.607-.4-1.011-1-1.011s-1 .404-1 1.011c0 4.955 4 9 8.9 9 4.7 0 8.5-3.64 8.8-8.292v-.708c0-3.54-2.7-6.472-6.1-6.775.5-.101 1-.203 1.5-.203 3.8 0 6.9 3.135 6.9 6.978 0 .607.4 1.011 1 1.011s1-.404 1-1.011c0-4.955-4-9-8.9-9"/><path fill="#fff" d="M12 14.268a1.4 1.4 0 1 0 0-2.8 1.4 1.4 0 0 0 0 2.8"/></svg>