<svg xmlns="http://www.w3.org/2000/svg" fill="none" viewBox="0 0 24 25"><path fill="#000" d="M14.1 3.968c-4.6 0-8.4 3.6-8.8 8.2v.7c0 3.5 2.7 6.4 6.1 6.7-.5.1-1 .2-1.5.2-3.8-.1-6.9-3.2-6.9-6.9 0-.6-.4-1-1-1s-1 .4-1 1c0 4.9 4 8.9 8.9 8.9 4.7 0 8.5-3.6 8.8-8.2v-.7c0-3.5-2.7-6.4-6.1-6.7.5-.1 1-.2 1.5-.2 3.8 0 6.9 3.1 6.9 6.9 0 .6.4 1 1 1s1-.4 1-1c0-4.9-4-8.9-8.9-8.9m2.6 8.9c0 2.6-2.1 4.7-4.7 4.7s-4.7-2.1-4.7-4.7 2.1-4.8 4.7-4.8 4.7 2.2 4.7 4.8"/><path fill="#000" d="M12 14.268a1.4 1.4 0 1 0 0-2.8 1.4 1.4 0 0 0 0 2.8"/></svg>