<svg xmlns="http://www.w3.org/2000/svg" fill="none" viewBox="0 0 24 24"><path fill="#000" d="M21.8 9.8C19.8 8.1 16.5 6 12 6h-1c-.4 0-.7.3-.9.6s0 .8.2 1.1l8.4 8.4c.2.2.4.3.7.3.2 0 .4-.1.5-.2.6-.4 1.1-.8 1.7-1.3.8-.6 1.2-1.6 1.2-2.6.2-.9-.2-1.8-1-2.5m-4.5 6.5L8.1 7.2 4.3 3.3c-.4-.4-1-.4-1.4 0s-.4 1 0 1.4l2.8 2.8c-1.3.6-2.4 1.4-3.5 2.3Q1 10.85 1 12.5c0 1 .4 2 1.2 2.6 2 1.7 5.3 3.8 9.8 3.8 1.5 0 2.9-.2 4.3-.7l3.5 3.5c.2.2.5.3.7.3.3 0 .5-.1.7-.3.4-.4.4-1 0-1.4zM12 14.8c-1.3 0-2.3-1-2.3-2.3 0-.3 0-.5.1-.8l2.9 2.9c-.2.1-.4.2-.7.2"/></svg>