<svg width="24" height="25" viewBox="0 0 24 25" fill="none" xmlns="http://www.w3.org/2000/svg">
<path d="M19.5 19.612H4.5C2.6 19.612 1 18.012 1 16.012V8.01201C1 5.91201 2.6 4.31201 4.5 4.31201H19.5C21.4 4.31201 23 5.91201 23 7.91201V15.912C23 17.912 21.4 19.612 19.5 19.612ZM4.5 6.41201C3.7 6.41201 3 7.11201 3 7.91201V15.912C3 16.812 3.7 17.512 4.5 17.512H19.5C20.3 17.512 21 16.812 21 15.912V7.91201C21 7.01201 20.3 6.31201 19.5 6.31201H4.5V6.41201Z" fill="black"/>
<path d="M17 16.312H7C6.4 16.312 6 15.912 6 15.312C6 14.712 6.4 14.312 7 14.312H17C17.6 14.312 18 14.712 18 15.312C18 15.912 17.6 16.312 17 16.312Z" fill="black"/>
<path d="M5.3 9.712C5.74183 9.712 6.1 9.35383 6.1 8.912C6.1 8.47017 5.74183 8.112 5.3 8.112C4.85817 8.112 4.5 8.47017 4.5 8.912C4.5 9.35383 4.85817 9.712 5.3 9.712Z" fill="black"/>
<path d="M8.70002 9.712C9.14185 9.712 9.50002 9.35383 9.50002 8.912C9.50002 8.47017 9.14185 8.112 8.70002 8.112C8.2582 8.112 7.90002 8.47017 7.90002 8.912C7.90002 9.35383 8.2582 9.712 8.70002 9.712Z" fill="black"/>
<path d="M12 9.712C12.4418 9.712 12.8 9.35383 12.8 8.912C12.8 8.47017 12.4418 8.112 12 8.112C11.5582 8.112 11.2 8.47017 11.2 8.912C11.2 9.35383 11.5582 9.712 12 9.712Z" fill="black"/>
<path d="M15.3 9.712C15.7418 9.712 16.1 9.35383 16.1 8.912C16.1 8.47017 15.7418 8.112 15.3 8.112C14.8582 8.112 14.5 8.47017 14.5 8.912C14.5 9.35383 14.8582 9.712 15.3 9.712Z" fill="black"/>
<path d="M18.7 9.712C19.1419 9.712 19.5 9.35383 19.5 8.912C19.5 8.47017 19.1419 8.112 18.7 8.112C18.2582 8.112 17.9 8.47017 17.9 8.912C17.9 9.35383 18.2582 9.712 18.7 9.712Z" fill="black"/>
<path d="M7.00001 12.212C7.44184 12.212 7.80001 11.8538 7.80001 11.412C7.80001 10.9702 7.44184 10.612 7.00001 10.612C6.55818 10.612 6.20001 10.9702 6.20001 11.412C6.20001 11.8538 6.55818 12.212 7.00001 12.212Z" fill="black"/>
<path d="M10.3 12.212C10.7418 12.212 11.1 11.8538 11.1 11.412C11.1 10.9702 10.7418 10.612 10.3 10.612C9.85817 10.612 9.5 10.9702 9.5 11.412C9.5 11.8538 9.85817 12.212 10.3 12.212Z" fill="black"/>
<path d="M13.7 12.212C14.1419 12.212 14.5 11.8538 14.5 11.412C14.5 10.9702 14.1419 10.612 13.7 10.612C13.2582 10.612 12.9 10.9702 12.9 11.412C12.9 11.8538 13.2582 12.212 13.7 12.212Z" fill="black"/>
<path d="M17 12.212C17.4418 12.212 17.8 11.8538 17.8 11.412C17.8 10.9702 17.4418 10.612 17 10.612C16.5582 10.612 16.2 10.9702 16.2 11.412C16.2 11.8538 16.5582 12.212 17 12.212Z" fill="black"/>
</svg>
