<svg xmlns="http://www.w3.org/2000/svg" fill="none" viewBox="0 0 24 25"><path fill="#000" d="M19.5 19.612h-15c-1.9 0-3.5-1.6-3.5-3.6v-8c0-2.1 1.6-3.7 3.5-3.7h15c1.9 0 3.5 1.6 3.5 3.6v8c0 2-1.6 3.7-3.5 3.7m-15-13.2c-.8 0-1.5.7-1.5 1.5v8c0 .9.7 1.6 1.5 1.6h15c.8 0 1.5-.7 1.5-1.6v-8c0-.9-.7-1.6-1.5-1.6h-15z"/><path fill="#000" d="M17 16.312H7c-.6 0-1-.4-1-1s.4-1 1-1h10c.6 0 1 .4 1 1s-.4 1-1 1m-11.7-6.6a.8.8 0 1 0 0-1.6.8.8 0 0 0 0 1.6m3.4 0a.8.8 0 1 0 0-1.6.8.8 0 0 0 0 1.6m3.3 0a.8.8 0 1 0 0-1.6.8.8 0 0 0 0 1.6m3.3 0a.8.8 0 1 0 0-1.6.8.8 0 0 0 0 1.6m3.4 0a.8.8 0 1 0 0-1.6.8.8 0 0 0 0 1.6M7 12.212a.8.8 0 1 0 0-1.6.8.8 0 0 0 0 1.6m3.3 0a.8.8 0 1 0 0-1.6.8.8 0 0 0 0 1.6m3.4 0a.8.8 0 1 0 0-1.6.8.8 0 0 0 0 1.6m3.3 0a.8.8 0 1 0 0-1.6.8.8 0 0 0 0 1.6"/></svg>