<svg xmlns="http://www.w3.org/2000/svg" fill="none" viewBox="0 0 24 25"><path fill="#000" d="M17.622 2.4H6.279C3.89 2.4 2 4.3 2 6.7v11.5c0 2.3 1.89 4.2 4.279 4.2H17.72c2.39 0 4.28-1.9 4.28-4.3V6.7c-.1-2.4-1.99-4.3-4.378-4.3M3.99 18.1V6.7c0-1.3.995-2.3 2.289-2.3H7.77v16H6.28c-1.294 0-2.289-1-2.289-2.3m15.92 0c0 1.3-.995 2.3-2.288 2.3h-7.96v-16h7.96c1.293 0 2.288 1 2.288 2.3z"/><path fill="#000" d="M17.7 11.4H12c-.6 0-1 .4-1 1s.4 1 1 1h5.7c.6 0 1-.4 1-1s-.4-1-1-1m0 4.9H12c-.6 0-1 .4-1 1s.4 1 1 1h5.7c.6 0 1-.4 1-1s-.4-1-1-1m0-9.8H12c-.6 0-1 .4-1 1s.4 1 1 1h5.7c.6 0 1-.4 1-1s-.4-1-1-1"/></svg>