<svg width="24" height="25" viewBox="0 0 24 25" fill="none" xmlns="http://www.w3.org/2000/svg">
<path d="M6.3 2.40002H7.7V8.10002H2V6.70002C2 4.30002 3.9 2.40002 6.3 2.40002Z" fill="black"/>
<path d="M7.7 10.1H2V14.8H7.7V10.1Z" fill="black"/>
<path d="M2 16.7H7.7V22.4H6.3C3.9 22.4 2 20.5 2 18.1V16.7Z" fill="black"/>
<path d="M14.4 2.40002H9.7V8.10002H14.4V2.40002Z" fill="black"/>
<path d="M14.4 10.1H9.7V14.8H14.4V10.1Z" fill="black"/>
<path d="M14.4 16.7H9.7V22.4H14.4V16.7Z" fill="black"/>
<path d="M22 6.70002V8.10002H16.3V2.40002H17.7C20.1 2.40002 22 4.30002 22 6.70002Z" fill="black"/>
<path d="M22 10.1H16.3V14.8H22V10.1Z" fill="black"/>
<path d="M16.3 16.7H22V18.1C22 20.4 20.1 22.4 17.7 22.4H16.3V16.7Z" fill="black"/>
</svg>
