<svg width="24" height="25" viewBox="0 0 24 25" fill="none" xmlns="http://www.w3.org/2000/svg">
<path d="M21 4.29602H3C2.4 4.29602 2 3.89602 2 3.29602C2 2.69602 2.4 2.29602 3 2.29602H21C21.6 2.29602 22 2.69602 22 3.29602C22 3.89602 21.6 4.29602 21 4.29602Z" fill="black"/>
<path d="M21 16.296H12C11.4 16.296 11 15.896 11 15.296C11 14.696 11.4 14.296 12 14.296H21C21.6 14.296 22 14.696 22 15.296C22 15.896 21.6 16.296 21 16.296Z" fill="black"/>
<path d="M21 10.296H12C11.4 10.296 11 9.89602 11 9.29602C11 8.69602 11.4 8.29602 12 8.29602H21C21.6 8.29602 22 8.69602 22 9.29602C22 9.89602 21.6 10.296 21 10.296Z" fill="black"/>
<path d="M21 22.296H3C2.4 22.296 2 21.896 2 21.296C2 20.696 2.4 20.296 3 20.296H21C21.6 20.296 22 20.696 22 21.296C22 21.896 21.6 22.296 21 22.296Z" fill="black"/>
<path d="M3.8 17.396C3.5 17.396 3.2 17.296 3 17.196C2.4 16.896 2 16.296 2 15.596V8.99602C2 8.29602 2.4 7.69602 3 7.39602C3.6 7.09602 4.3 7.19602 4.9 7.59602L9.3 10.896C9.7 11.196 10 11.696 10 12.296C10 12.896 9.7 13.396 9.3 13.796L4.9 17.096C4.6 17.296 4.2 17.396 3.8 17.396ZM4 9.39602V15.196L7.9 12.296L4 9.39602Z" fill="black"/>
</svg>
