<svg xmlns="http://www.w3.org/2000/svg" fill="none" viewBox="0 0 24 25"><path fill="#000" d="M3.9 5.996h16.3c1 0 1.9-.8 1.9-1.9 0-1-.8-1.9-1.9-1.9H3.9c-1.1.1-1.9.9-1.9 2 0 1 .8 1.8 1.9 1.8m16.2 7.2h-7.3c-1 0-1.9.8-1.9 1.9 0 1 .8 1.9 1.9 1.9h7.3c1 0 1.9-.8 1.9-1.9s-.8-1.9-1.9-1.9m0-5.5h-7.3c-1 0-1.8.9-1.8 1.9s.8 1.9 1.9 1.9h7.3c1 0 1.9-.8 1.9-1.9-.1-1-.9-1.9-2-1.9m0 10.9H3.9c-1 0-1.9.8-1.9 1.9 0 1 .8 1.9 1.9 1.9h16.3c1 0 1.9-.8 1.9-1.9-.1-1.1-.9-1.9-2-1.9M3 17.196c.3.1.5.2.8.2.4 0 .8-.1 1.1-.4l4.4-3.3c.4-.3.7-.8.7-1.4s-.3-1.1-.7-1.5l-4.4-3.2c-.5-.4-1.3-.5-1.9-.2s-1 .9-1 1.6v6.5c0 .8.4 1.4 1 1.7"/></svg>