<svg width="24" height="25" viewBox="0 0 24 25" fill="none" xmlns="http://www.w3.org/2000/svg">
<path d="M3.9 5.99601H20.2C21.2 5.99601 22.1 5.19601 22.1 4.09601C22.1 3.09601 21.3 2.19601 20.2 2.19601H3.9C2.8 2.29601 2 3.09601 2 4.19601C2 5.19601 2.8 5.99601 3.9 5.99601Z" fill="black"/>
<path d="M20.1 13.196H12.8C11.8 13.196 10.9 13.996 10.9 15.096C10.9 16.096 11.7 16.996 12.8 16.996H20.1C21.1 16.996 22 16.196 22 15.096C22 13.996 21.2 13.196 20.1 13.196Z" fill="black"/>
<path d="M20.1 7.69601H12.8C11.8 7.69601 11 8.59601 11 9.59601C11 10.596 11.8 11.496 12.9 11.496H20.2C21.2 11.496 22.1 10.696 22.1 9.59601C22 8.59601 21.2 7.69601 20.1 7.69601Z" fill="black"/>
<path d="M20.1 18.596H3.9C2.9 18.596 2 19.396 2 20.496C2 21.496 2.8 22.396 3.9 22.396H20.2C21.2 22.396 22.1 21.596 22.1 20.496C22 19.396 21.2 18.596 20.1 18.596Z" fill="black"/>
<path d="M3 17.196C3.3 17.296 3.5 17.396 3.8 17.396C4.2 17.396 4.6 17.296 4.9 16.996L9.3 13.696C9.7 13.396 10 12.896 10 12.296C10 11.696 9.7 11.196 9.3 10.796L4.9 7.59602C4.4 7.19602 3.6 7.09602 3 7.39602C2.4 7.69602 2 8.29602 2 8.99602V15.496C2 16.296 2.4 16.896 3 17.196Z" fill="black"/>
</svg>
