<svg xmlns="http://www.w3.org/2000/svg" fill="none" viewBox="0 0 24 25"><path fill="#000" d="M8.484 23.968c-.301 0-.603-.1-.904-.2-.804-.403-1.205-1.206-1.005-2.01l1.206-5.824H5.973a1.98 1.98 0 0 1-1.808-1.205c-.302-.703-.201-1.506.401-2.008L14.11 2.579c.602-.603 1.607-.804 2.31-.402.804.402 1.205 1.205 1.004 2.008L16.22 10.01h1.808c.804 0 1.507.502 1.808 1.205s.201 1.506-.401 2.008L9.89 23.365a1.98 1.98 0 0 1-1.406.603m.502-10.142c.302 0 .603.1.804.401.2.301.301.502.2.804l-1.305 6.828 9.342-9.941h-2.913c-.301 0-.603-.1-.804-.402a.78.78 0 0 1-.2-.803l1.305-6.829-9.342 10.042z"/></svg>