<svg width="24" height="24" viewBox="0 0 24 24" fill="none" xmlns="http://www.w3.org/2000/svg">
<path d="M3 9C2.4 9 2 9.40336 2 10.0084V19.9916C2 20.5966 2.4 21 3 21C3.6 21 4 20.5966 4 19.9916V10.0084C4 9.40336 3.6 9 3 9Z" fill="black"/>
<path d="M19.7013 8.86869H13.4583L14.6666 5.23232C15.1701 3.71717 13.9618 2 12.25 2C11.5451 2 10.8403 2.30303 10.4375 2.80808L6.00694 7.85859C5.40278 8.56566 5 9.47475 5 10.3838V19.6768C5 20.9899 6.00694 22 7.31596 22H16.6805C17.9895 22 19.1979 21.0909 19.6006 19.7778L21.9166 11.899C22.3194 10.3838 21.2117 8.86869 19.7013 8.86869Z" fill="black"/>
</svg>
