<svg xmlns="http://www.w3.org/2000/svg" fill="none" viewBox="0 0 24 24"><path fill="#000" fill-rule="evenodd" d="M17.973 6.028a3.43 3.43 0 0 0-4.897 0L11.414 7.69a2 2 0 1 1-2.828-2.83l1.662-1.66a7.43 7.43 0 0 1 10.553 0 7.43 7.43 0 0 1 0 10.553l-1.662 1.662a2 2 0 1 1-2.829-2.828l1.663-1.662a3.43 3.43 0 0 0 0-4.896m-1.559 1.558a2 2 0 0 1 0 2.828l-6 6a2 2 0 1 1-2.828-2.828l6-6a2 2 0 0 1 2.828 0m-8.724 1a2 2 0 0 1 0 2.828l-1.662 1.662a3.43 3.43 0 0 0 0 4.897 3.43 3.43 0 0 0 4.896 0l1.662-1.663a2 2 0 0 1 2.828 2.829l-1.662 1.66a7.43 7.43 0 0 1-10.553 0 7.43 7.43 0 0 1 0-10.553l1.662-1.662a2 2 0 0 1 2.829 0" clip-rule="evenodd"/></svg>