<svg xmlns="http://www.w3.org/2000/svg" fill="none" viewBox="0 0 24 24"><path fill="#000" fill-rule="evenodd" d="M5.617 5C4.246 5 3 6.228 3 7.972v8.056C3 17.772 4.246 19 5.617 19H18.48c1.375 0 2.595-1.224 2.518-2.927l-.002-.045V7.972C20.996 6.228 19.75 5 18.379 5zM1 7.972C1 5.303 2.97 3 5.617 3h12.761c2.648 0 4.618 2.303 4.618 4.972v8.034c.11 2.7-1.881 4.994-4.517 4.994H5.617C2.97 21 1 18.697 1 16.028z" clip-rule="evenodd"/><path fill="#000" fill-rule="evenodd" d="M5.13 7.507a1 1 0 0 1 1.363-.377l4.679 2.652a1.68 1.68 0 0 0 1.656 0l4.679-2.652a1 1 0 0 1 .986 1.74l-4.687 2.657-.016.008a3.68 3.68 0 0 1-3.58 0l-.016-.008L5.507 8.87a1 1 0 0 1-.377-1.363" clip-rule="evenodd"/></svg>