<svg xmlns="http://www.w3.org/2000/svg" fill="none" viewBox="0 0 24 25"><path fill="#000" fill-rule="evenodd" d="M6.3 4.312c-1.248 0-2.3 1.052-2.3 2.3v5.5h2.3c1.264 0 2.39.696 2.966 1.7.543.929 1.533 1.6 2.734 1.6 1.192 0 2.177-.662 2.722-1.58.608-1.183 1.79-1.72 2.978-1.72H21a1 1 0 0 1 1 1v4.9c0 2.352-1.948 4.3-4.3 4.3H6.3c-2.352 0-4.3-1.948-4.3-4.3v-11.4c0-2.352 1.948-4.3 4.3-4.3h11.5c2.272 0 4.2 1.968 4.2 4.3v3.3a1 1 0 1 1-2 0v-3.3c0-1.268-1.072-2.3-2.2-2.3zm-2.3 9.8v3.9c0 1.248 1.052 2.3 2.3 2.3h11.4c1.248 0 2.3-1.052 2.3-2.3v-3.9h-2.3c-.602 0-1.008.252-1.206.647l-.03.057c-.857 1.469-2.466 2.596-4.464 2.596s-3.607-1.127-4.464-2.596l-.004-.008a1.44 1.44 0 0 0-1.232-.696z" clip-rule="evenodd"/></svg>