<svg xmlns="http://www.w3.org/2000/svg" fill="none" viewBox="0 0 24 24"><path fill="#000" d="M23 11c-.4-4.895-4.503-8.679-9.406-8.978-3.002-.2-5.904.999-7.905 3.096-2.002 2.198-3.002 5.095-2.602 8.092.6 4.395 4.01 8.29 8.413 8.79h1.393c2.402 0 4.703-.8 6.505-2.397.4-.4.5-1 .1-1.399-.4-.4-1-.5-1.401-.1-1.701 1.499-4.003 2.198-6.304 1.898C8.19 19.602 5.4 16.606 5 13.01c-.2-2.498.388-4.695 2.09-6.493 1.6-1.698 4.002-2.697 6.404-2.498 3.902.2 7.104 3.397 7.505 7.293v1.698c-.1.799-.8 1.398-1.801 1.398-.901 0-1.702-.799-1.702-1.698v-.7a4.48 4.48 0 0 0-4.502-4.494A4.48 4.48 0 0 0 8.49 12.01a4.48 4.48 0 0 0 4.502 4.495c1.301 0 2.402-.6 3.303-1.399.7.9 1.8 1.399 3.002 1.399 1.9 0 3.702-1.506 3.702-3.097 0-.909.056-1.721 0-2.409m-10.107 3.508a2.475 2.475 0 0 1-2.501-2.497c0-1.399 1.1-2.498 2.501-2.498s2.502 1.1 2.502 2.498-1.1 2.497-2.502 2.497"/></svg>