<svg xmlns="http://www.w3.org/2000/svg" fill="none" viewBox="0 0 24 24"><path fill="#000" d="M22 11.175c-.416-4.913-4.414-8.826-9.329-9.16-2.998-.166-5.914 1-7.913 3.165-2.082 2.165-3.082 5.163-2.665 8.077.583 4.413 4.165 8.077 8.662 8.66.417.083.833.083 1.25.083 1.749 0 3.498-.416 4.997-1.332.833-.5 1.083-1.5.584-2.248-.5-.833-1.5-1.083-2.25-.583-1.249.749-2.748.999-4.164.832-2.999-.333-5.414-2.748-5.747-5.745A6.72 6.72 0 0 1 7.174 7.51c1.333-1.415 3.332-2.248 5.33-2.081 3.249.166 5.914 2.83 6.248 6.078v1.416c-.084.333-.417.666-.917.666a.835.835 0 0 1-.833-.833v-.75a4.834 4.834 0 0 0-4.83-4.829c-2.666 0-4.998 2.165-4.998 4.83a4.834 4.834 0 0 0 4.83 4.83c1.167 0 2.167-.417 3-1 .749.666 1.665 1 2.665 1h.166c2.083 0 3.832-1.5 4.165-3.581zm-9.995 2.332c-.833 0-1.5-.666-1.5-1.5 0-.832.667-1.498 1.5-1.498s1.5.666 1.5 1.499-.667 1.499-1.5 1.499"/></svg>