<svg xmlns="http://www.w3.org/2000/svg" fill="none" viewBox="0 0 24 24"><path fill="#000" d="M21.991 4.2c-.706-.5-1.614-.5-2.32-.2l-4.24 1.8-6.257-2.7C8.973 3 8.872 3 8.771 3H8.67c-.101 0-.202 0-.303.1L3.018 5.3C1.808 5.8 1 7 1 8.4v9.2c0 .9.404 1.7 1.211 2.2.404.3.908.4 1.413.4.303 0 .706-.1 1.01-.2l1.917-.8c.504-.2.706-.8.504-1.3s-.807-.7-1.312-.5l-1.917.8c-.202.1-.404 0-.505 0-.1-.1-.303-.3-.303-.6V8.4c0-.6.303-1.1.808-1.3L7.66 5.5v11.7c0 .4.202.8.605.9l6.762 2.8c.1 0 .202.1.303.1s.201 0 .302-.1l5.248-2.2c1.211-.5 2.018-1.8 2.018-3.1V6.4c.303-.9-.1-1.7-.908-2.2M9.78 5.5l4.743 2v11l-4.743-2zm11.404 10.1c0 .6-.303 1.1-.808 1.3l-3.834 1.6v-11l3.935-1.7c.202-.1.404 0 .505 0 0 .1.202.3.202.6z"/></svg>