<svg xmlns="http://www.w3.org/2000/svg" fill="none" viewBox="0 0 24 24"><path fill="#000" fill-rule="evenodd" d="M12 5.5a6.5 6.5 0 1 0 0 13 6.5 6.5 0 0 0 0-13M3.5 12a8.5 8.5 0 1 1 17 0 8.5 8.5 0 0 1-17 0" clip-rule="evenodd"/><path fill="#000" fill-rule="evenodd" d="M12 9.7a2.3 2.3 0 1 0 0 4.6 2.3 2.3 0 0 0 0-4.6M7.7 12a4.3 4.3 0 1 1 8.6 0 4.3 4.3 0 0 1-8.6 0M12 1a1 1 0 0 1 1 1v2.5a1 1 0 1 1-2 0V2a1 1 0 0 1 1-1M1 12a1 1 0 0 1 1-1h2.5a1 1 0 1 1 0 2H2a1 1 0 0 1-1-1m17.5 0a1 1 0 0 1 1-1H22a1 1 0 1 1 0 2h-2.5a1 1 0 0 1-1-1M12 18.5a1 1 0 0 1 1 1V22a1 1 0 1 1-2 0v-2.5a1 1 0 0 1 1-1" clip-rule="evenodd"/></svg>