<svg xmlns="http://www.w3.org/2000/svg" fill="none" viewBox="0 0 24 25"><path fill="#000" d="M20 9.18c0-4.339-3.544-7.972-8-7.972S4 4.74 4 9.18c0 4.34 3.544 7.973 8 7.973a8.3 8.3 0 0 0 2.835-.505v4.44l-2.329-1.412a.92.92 0 0 0-1.012 0l-2.43 1.312v-2.826c0-.605-.406-1.009-1.013-1.009-.608 0-1.013.404-1.013 1.01v3.229c0 .605.304 1.21.911 1.513a1.94 1.94 0 0 0 1.823 0L12 21.593l2.228 1.312q.455.303.911.303c.304 0 .608-.1.912-.202.607-.303.911-.908.911-1.514v-5.954C18.785 14.024 20 11.703 20 9.18m-13.975 0c0-3.33 2.633-5.954 5.975-5.954 3.24 0 5.975 2.624 5.975 5.954S15.342 15.135 12 15.135A5.975 5.975 0 0 1 6.025 9.18"/></svg>