<svg width="24" height="25" viewBox="0 0 24 25" fill="none" xmlns="http://www.w3.org/2000/svg">
<path d="M12 15.908C15 15.908 17.4 13.508 17.4 10.508V6.60801C17.4 3.60801 15 1.20801 12 1.20801C9.00001 1.20801 6.60001 3.60801 6.60001 6.60801V10.508C6.60001 13.508 9.00001 15.908 12 15.908Z" fill="black"/>
<path d="M21 10.508C21 9.908 20.5 9.508 20 9.508C19.5 9.508 19 9.908 19 10.508C19 14.308 15.9 17.408 12 17.408C8.1 17.408 5 14.308 5 10.508C5 9.908 4.5 9.508 4 9.508C3.5 9.508 3 9.908 3 10.508C3 15.108 6.5 18.908 11 19.408V22.208C11 22.808 11.5 23.208 12 23.208C12.6 23.208 13 22.808 13 22.208V19.408C17.5 18.908 21 15.108 21 10.508Z" fill="black"/>
</svg>
