<svg xmlns="http://www.w3.org/2000/svg" fill="none" viewBox="0 0 24 25"><path fill="#000" fill-rule="evenodd" d="M9.232 4.663C9.844 3.745 10.83 3.208 12 3.208c.918 0 1.768.382 2.393 1.007A3.4 3.4 0 0 1 15.4 6.608v4.4c0 .291-.002.485-.07.758a1 1 0 1 0 1.94.485c.13-.52.13-.922.13-1.229V6.608a5.4 5.4 0 0 0-1.593-3.807A5.4 5.4 0 0 0 12 1.208c-1.829 0-3.444.863-4.432 2.345a1 1 0 0 0 1.664 1.11m-.632 5.56v.785c0 1.848 1.552 3.4 3.4 3.4q.36-.001.705-.08zm5.673 5.672a5.5 5.5 0 0 1-2.273.513c-2.952 0-5.4-2.448-5.4-5.4V8.222L1.293 2.915a1 1 0 0 1 1.414-1.414L17.6 16.393l.014.014 4.994 4.994a1 1 0 0 1-1.414 1.414l-4.388-4.388c-1.111.734-2.407 1.185-3.805 1.33v2.351a1 1 0 1 1-2 0v-2.355A8.92 8.92 0 0 1 5.67 17.19C4.124 15.535 3.1 13.4 3.1 10.908a1 1 0 1 1 2 0c0 1.902.77 3.562 2.02 4.905A6.94 6.94 0 0 0 12 17.808h.004c1.258 0 2.394-.297 3.347-.835zm6.527-4.987a1 1 0 1 0-2 0c0 1.153-.267 2.285-.778 3.221a1 1 0 1 0 1.756.958c.69-1.264 1.022-2.732 1.022-4.179" clip-rule="evenodd"/></svg>