<svg xmlns="http://www.w3.org/2000/svg" fill="none" viewBox="0 0 24 25"><path fill="#000" d="M20.1 14.012H13v-8c0-.6-.4-1-1-1s-1 .4-1 1v8H3.9c-1.6 0-2.9 1.3-2.9 3v3.4c0 1.6 1.3 2.9 2.9 2.9H20c1.6 0 2.9-1.3 2.9-2.9v-3.4c.1-1.7-1.2-3-2.8-3m.9 6.4c0 .5-.4.9-.9.9H3.9c-.5 0-.9-.4-.9-.9v-3.4c0-.5.4-.9.9-.9H20c.5 0 .9.4.9.9v3.4z"/><path fill="#000" d="M11.1 17.712H5.6c-.6 0-1 .4-1 1s.4 1 1 1h5.5c.6 0 1-.4 1-1s-.5-1-1-1m-2.3-8.8c.2 0 .5-.1.7-.3.4-.4.4-1 .1-1.4-.3-.3-.5-.8-.5-1.2s.2-.9.4-1.2c.4-.4.3-1-.1-1.4s-1-.3-1.4.1c-.6.7-1 1.6-1 2.5s.3 1.8 1 2.5c.3.2.5.4.8.4"/><path fill="#000" d="M6.1 10.712c.2 0 .5-.1.7-.2.4-.4.5-1 .1-1.4-.8-.9-1.2-2-1.2-3.1s.4-2.2 1.1-3.1c.4-.4.3-1-.1-1.4s-1-.3-1.4.1c-1 1.2-1.6 2.7-1.6 4.4 0 1.6.6 3.2 1.6 4.4.2.2.5.3.8.3m8.4-2.1c.2.2.4.3.7.3s.5-.1.7-.3c.6-.7 1-1.6 1-2.5s-.3-1.8-1-2.5c-.4-.4-1-.4-1.4-.1-.4.4-.4 1-.1 1.4.3.3.4.7.4 1.2s-.2.9-.4 1.2c-.3.3-.3.9.1 1.3"/><path fill="#000" d="M17.3 10.512c.2.2.4.2.7.2s.6-.1.8-.3c1-1.2 1.6-2.7 1.6-4.4 0-1.6-.6-3.2-1.6-4.4-.4-.4-1-.5-1.4-.1s-.5 1-.1 1.4c.7.8 1.1 1.9 1.1 3.1 0 1.1-.4 2.2-1.1 3.1-.5.4-.5 1 0 1.4"/></svg>