<svg xmlns="http://www.w3.org/2000/svg" fill="none" viewBox="0 0 24 24"><path fill="#000" d="M16.4 20.1H3.6c-1.4 0-2.6-1.2-2.6-2.6v-7.3c0-1.4 1.2-2.6 2.6-2.6h12.8c1.4 0 2.6 1.2 2.6 2.6v7.3c0 1.4-1.2 2.6-2.6 2.6M3.6 9.6c-.3 0-.6.3-.6.6v7.3c0 .3.3.6.6.6h12.8c.3 0 .6-.3.6-.6v-7.3c0-.3-.3-.6-.6-.6z"/><path fill="#000" d="M22 16.1c-.6 0-1-.4-1-1V6.7c0-.4-.2-.7-.5-.7H5.1c-.6 0-1-.4-1-1s.4-1 1-1h15.4C21.9 4 23 5.2 23 6.7v8.4c0 .5-.4 1-1 1M10 17c-1.8 0-3.2-1.4-3.2-3.2s1.4-3.2 3.2-3.2 3.2 1.4 3.2 3.2S11.8 17 10 17m0-4.3c-.7 0-1.2.5-1.2 1.2S9.3 15 10 15s1.2-.5 1.2-1.2-.5-1.1-1.2-1.1m-5.1 1.8a.7.7 0 1 0 0-1.4.7.7 0 0 0 0 1.4m10.2 0a.7.7 0 1 0 0-1.4.7.7 0 0 0 0 1.4"/></svg>