<svg width="24" height="25" viewBox="0 0 24 25" fill="none" xmlns="http://www.w3.org/2000/svg">
<path d="M12 22.312C8.1 22.312 5 19.212 5 15.312V9.31201C5 5.41201 8.1 2.31201 12 2.31201C15.9 2.31201 19 5.41201 19 9.31201V15.312C19 19.212 15.9 22.312 12 22.312ZM12 4.31201C9.2 4.31201 7 6.51201 7 9.31201V15.312C7 18.112 9.2 20.312 12 20.312C14.8 20.312 17 18.112 17 15.312V9.31201C17 6.51201 14.8 4.31201 12 4.31201Z" fill="black"/>
<path d="M12 11.712C11.4 11.712 11 11.312 11 10.712V7.41202C11 6.81202 11.4 6.41202 12 6.41202C12.6 6.41202 13 6.81202 13 7.41202V10.712C13 11.212 12.6 11.712 12 11.712Z" fill="black"/>
</svg>
