<svg xmlns="http://www.w3.org/2000/svg" fill="none" viewBox="0 0 24 25"><path fill="#000" fill-rule="evenodd" d="M19.227 3.27c.22-.103.39-.065.516.022.14.098.257.284.257.53v8.921a4 4 0 1 0 1.922 4.253 1 1 0 0 0 .078-.387V3.822c0-1.757-1.74-3.21-3.577-2.383l-8.154 2.895C8.926 4.8 8 6.25 8 7.668v8.075a4 4 0 1 0 2 3.468v-7.283l8.316-2.771a1 1 0 1 0-.632-1.898L10 9.821V7.668c0-.66.473-1.288.927-1.446l8.208-2.913a1 1 0 0 0 .092-.039M18 14.208a2 2 0 1 1 0 4 2 2 0 0 1 0-4m-10 5a2 2 0 1 0-4 0 2 2 0 0 0 4 0" clip-rule="evenodd"/></svg>