<svg xmlns="http://www.w3.org/2000/svg" fill="none" viewBox="0 0 24 24"><path fill="#000" d="M16.961 13.728a.84.84 0 0 0 .642.272h.092c.275 0 .458-.181.642-.362l1.375-1.72v-.09c.367-.544.367-1.268.092-1.81a1.64 1.64 0 0 0-1.467-.906H14.76V2.685c0-.814-.458-1.448-1.192-1.63a1.62 1.62 0 0 0-1.742.634l-2.66 3.26c-.275.361-.183.904.092 1.176zm5.764 7.714-6.233-6.234-3.85-3.85-3.85-3.85-6.234-6.233a.886.886 0 0 0-1.283 0 .886.886 0 0 0 0 1.283l5.683 5.684-2.933 3.666c-.367.55-.367 1.284-.092 1.834s.825.916 1.467.916h3.575v6.6c0 .825.458 1.467 1.192 1.65.183.092.275.092.458.092.55 0 1.008-.275 1.283-.642l4.034-5.133 5.5 5.5a1 1 0 0 0 .641.275 1 1 0 0 0 .642-.275.886.886 0 0 0 0-1.283"/></svg>