<svg xmlns="http://www.w3.org/2000/svg" fill="none" viewBox="0 0 24 25"><path fill="#000" fill-rule="evenodd" d="M2.293 2.5a1 1 0 0 1 1.414 0l4.99 4.992.018.016 12.992 12.993a1 1 0 0 1-1.414 1.414L17 18.622v1.783c0 1.164-.649 2.106-1.553 2.542a2.58 2.58 0 0 1-2.912-.451c-2.258-1.926-4.494-3.53-6.71-4.725l-.034-.02C5 17.285 4.267 16.67 3.76 15.883c-.523-.81-.76-1.834-.76-2.712 0-2.004 1.082-3.777 2.783-4.683.225-.153.453-.296.658-.423l-4.148-4.15a1 1 0 0 1 0-1.414M7.72 9.624l.172-.11L15 16.624v3.782c0 .387-.201.634-.422.74-.211.102-.462.093-.693-.125l-.036-.031c-2.33-1.991-4.683-3.687-7.056-4.969-.601-.357-1.063-.772-1.353-1.222-.277-.43-.44-1.06-.44-1.628 0-1.282.693-2.386 1.76-2.937a1 1 0 0 0 .107-.065c.21-.144.414-.271.635-.409zm5.981-4.234a.85.85 0 0 1 .883-.103c.267.123.416.347.416.608v5.314a1 1 0 1 0 2 0V5.894c0-2.324-2.713-3.436-4.49-2.11a30 30 0 0 0-1.07.816l-.009.007c-.353.278-.685.54-1.013.774a1 1 0 0 0 1.164 1.626 30 30 0 0 0 1.078-.822l.009-.007c.353-.279.685-.54 1.013-.775z" clip-rule="evenodd"/></svg>