<svg xmlns="http://www.w3.org/2000/svg" fill="none" viewBox="0 0 24 24"><path fill="#000" d="M17.4 1h-9c-1.6 0-3.2.908-4 2.321-.3.505-.1 1.11.4 1.413s1.1.1 1.4-.404c.4-.807 1.3-1.312 2.2-1.312h9c1.4 0 2.6 1.211 2.6 2.624v12.716c0 1.413-1.2 2.624-2.6 2.624h-9c-1.4 0-2.6-1.211-2.6-2.624v-.303h.8c.6 0 1-.404 1-1.01 0-.605-.4-1.008-1-1.008H3c-.6 0-1 .403-1 1.009s.4 1.009 1 1.009h.8v.303C3.8 20.88 5.9 23 8.4 23h9c2.5 0 4.6-2.12 4.6-4.642V5.642C22 3.12 19.9 1 17.4 1"/><path fill="#000" d="M3.071 8h.858v6c0 .6.428 1 1.071 1s1.071-.4 1.071-1V8h.858C7.57 8 8 7.6 8 7s-.429-1-1.071-1H3.07C2.43 6 2 6.4 2 7s.429 1 1.071 1"/></svg>