<svg xmlns="http://www.w3.org/2000/svg" fill="none" viewBox="0 0 24 25"><path fill="#000" fill-rule="evenodd" d="M11.957 4.312c-3.354 0-6.009 2.597-6.009 5.677v3.29a1 1 0 0 1-.17.558l-1.625 2.42-.01.015c-.188.268-.167.512-.07.687.1.183.319.353.672.353h14.526a.75.75 0 0 0 .64-.397c.13-.234.11-.447-.013-.61l-.019-.025-1.727-2.42a1 1 0 0 1-.186-.58V9.99a5.65 5.65 0 0 0-1.707-4.005c-1.162-1.016-2.654-1.673-4.302-1.673M3.948 9.989c0-4.274 3.643-7.677 8.01-7.677 2.205 0 4.16.885 5.637 2.185l.03.026a7.65 7.65 0 0 1 2.341 5.466v2.97l1.533 2.148c.677.9.605 1.986.155 2.787-.446.795-1.317 1.418-2.383 1.418H4.745c-2.162 0-3.55-2.302-2.247-4.178l1.45-2.159zM8 21.312a1 1 0 0 1 1-1h6a1 1 0 1 1 0 2H9a1 1 0 0 1-1-1" clip-rule="evenodd"/></svg>