<svg xmlns="http://www.w3.org/2000/svg" fill="none" viewBox="0 0 24 24"><path fill="#000" d="M15.8 7.6c-.4-.4-1.1-.3-1.4.1-.4.4-.3 1.1.1 1.4.9.7 1.4 1.8 1.4 3 0 2.1-1.7 3.9-3.9 3.9s-3.9-1.8-3.9-4c0-1.1.5-2.2 1.4-3 .4-.4.5-1 .1-1.4s-1-.5-1.4-.1C6.9 8.7 6.1 10.3 6.1 12c0 3.2 2.6 5.9 5.9 5.9 3.2 0 5.9-2.6 5.9-5.9 0-1.7-.8-3.3-2.1-4.4"/><path fill="#000" d="M12 2C6.5 2 2 6.5 2 12s4.5 10 10 10 10-4.5 10-10S17.5 2 12 2m0 18c-4.4 0-8-3.6-8-8s3.6-8 8-8 8 3.6 8 8-3.6 8-8 8"/><path fill="#000" d="M12 11.1c.6 0 1-.4 1-1V6.5c0-.6-.4-1-1-1s-1 .4-1 1v3.7c0 .5.4.9 1 .9"/></svg>