<svg xmlns="http://www.w3.org/2000/svg" fill="none" viewBox="0 0 24 25"><path fill="#000" fill-rule="evenodd" d="M4.7 6.208c-.972 0-1.7.777-1.7 1.6v8.8c0 .823.728 1.6 1.7 1.6H12a1 1 0 1 1 0 2H4.7c-2.028 0-3.7-1.623-3.7-3.6v-8.8c0-1.977 1.672-3.6 3.7-3.6h2.7c3.123 0 5.6 2.419 5.6 5.4a1 1 0 1 1-2 0c0-1.819-1.523-3.4-3.6-3.4z" clip-rule="evenodd"/><path fill="#000" fill-rule="evenodd" d="M16.5 6.208c-1.962 0-3.5 1.567-3.5 3.4v7a1 1 0 1 1-2 0v-7c0-2.967 2.462-5.4 5.5-5.4h2.7c2.103 0 3.8 1.6 3.8 3.6v8.8c0 1.977-1.672 3.6-3.7 3.6H12a1 1 0 1 1 0-2h7.3c.972 0 1.7-.777 1.7-1.6v-8.8c0-.8-.703-1.6-1.8-1.6z" clip-rule="evenodd"/></svg>