<svg width="24" height="25" viewBox="0 0 24 25" fill="none" xmlns="http://www.w3.org/2000/svg">
<path d="M11 19.1216V18.1339V10.4302V8.65245C11 6.28208 9.1 4.20801 6.6 4.20801C6.6 4.20801 6.6 4.20801 6.5 4.20801H3.8C2.3 4.20801 1 5.39319 1 6.97344V17.4426C1 18.9241 2.3 20.208 3.8 20.208H11V20.1092V19.1216Z" fill="black"/>
<path d="M20.2688 4.20801H17.543C17.543 4.20801 17.543 4.20801 17.442 4.20801C14.9181 4.20801 13 6.29496 13 8.68006V10.4689V18.2204V19.2142V20.1086V20.208H20.1678C21.7831 20.208 22.9945 19.0155 22.9945 17.4254V6.99062C23.0955 5.40055 21.7831 4.20801 20.2688 4.20801Z" fill="black"/>
</svg>
