<svg width="24" height="25" viewBox="0 0 24 25" fill="none" xmlns="http://www.w3.org/2000/svg">
<path d="M21.3604 13.2881H19.6726H6.76565C5.97137 13.2881 5.1771 13.5738 4.58139 14.05C4.18426 14.3357 3.8864 14.8119 3.68783 15.2881L2.79427 17.3833L2.09928 19.0976C2 19.2881 2 19.4786 2 19.669C2 19.9548 2.09928 20.2405 2.19857 20.4309C2.49642 20.9071 2.99284 21.2881 3.68783 21.2881H18.1833C19.5733 21.2881 20.7647 20.5262 21.2612 19.2881L22.8497 15.4786C23.3461 14.4309 22.5519 13.2881 21.3604 13.2881Z" fill="black"/>
<path d="M1.98522 14.6955C2.18227 14.2807 2.37931 13.8659 2.67488 13.451C2.87192 13.1399 3.06897 12.9325 3.36453 12.6214C4.25123 11.7918 5.4335 11.2733 6.71429 11.2733H19.4236H20.2118H21V9.4066C21 7.43623 19.5222 5.88068 17.6502 5.88068H12.133L10.8522 4.53253C10.1626 3.7029 9.07882 3.28809 7.99507 3.28809H4.34975C2.47783 3.28809 1 4.84364 1 6.81401V17.2881L1.78818 15.1103L1.98522 14.6955Z" fill="black"/>
</svg>
