<svg xmlns="http://www.w3.org/2000/svg" fill="none" viewBox="0 0 24 25"><path fill="#000" fill-rule="evenodd" d="M3 6.54c0-.56.607-1.252 1.44-1.252H8c.61 0 1.258.229 1.645.602l.026.023 1.525 1.37a1 1 0 0 0 .668.257h5.695c.674 0 1.349.461 1.453 1.116a1 1 0 0 0 1.976-.316c-.303-1.89-2.068-2.8-3.429-2.8h-5.311l-1.229-1.104C10.187 3.643 9.012 3.288 8 3.288H4.44C2.63 3.288 1 4.751 1 6.54v11.748q0 .064.008.127c-.113 1.446 1.032 2.873 2.596 2.873h13.794c1.71 0 3.271-1.06 3.923-2.645l1.503-3.756.002-.004c.651-1.65-.604-3.595-2.43-3.595H6.603c-1.066 0-1.98.407-2.725 1.03q-.53.411-.878.975zm2.149 7.322c.45-.38.929-.574 1.454-.574h13.793c.164 0 .348.091.48.29.134.199.151.413.09.57l-1.496 3.739a2.27 2.27 0 0 1-2.072 1.401H3.604c-.164 0-.348-.091-.48-.29-.133-.199-.151-.412-.09-.569l1.498-3.744.002-.004a1.76 1.76 0 0 1 .615-.819" clip-rule="evenodd"/></svg>