<svg xmlns="http://www.w3.org/2000/svg" fill="none" viewBox="0 0 24 25"><path fill="#000" d="M21.7 9.912c-1-3.9-4.2-6.9-8.1-7.5-2.9-.5-5.8.4-8 2.3-2.3 1.9-3.6 4.8-3.6 7.8 0 4.4 2.8 8.3 6.9 9.7.3.1.6.2 1 .2.6 0 1.3-.2 1.8-.6.8-.6 1.3-1.6 1.3-2.6 0-1.4 1.1-2.3 2.6-2.3h2.1c2.4 0 4.3-1.9 4.3-4.3 0-1-.1-1.8-.3-2.7m-4 4.9h-2.1c-2.6 0-4.6 1.9-4.6 4.3 0 .4-.2.7-.5 1-.2.1-.5.3-1 .2-3.3-1.1-5.5-4.3-5.5-7.8 0-2.4 1-4.7 2.9-6.3 1.4-1.2 3.2-1.9 5.1-1.9.4 0 .9 0 1.3.1 3.1.5 5.7 2.9 6.5 6q.3 1.05.3 2.1c-.1 1.3-1.1 2.3-2.4 2.3"/><path fill="#000" d="M8.48 14.59a1.6 1.6 0 1 0-1.57-2.789 1.6 1.6 0 0 0 1.57 2.79m2.196-5.001a1.6 1.6 0 1 0-1.57-2.788 1.6 1.6 0 0 0 1.57 2.789m5.394.706a1.6 1.6 0 1 0-1.569-2.79 1.6 1.6 0 0 0 1.57 2.79"/></svg>