<svg xmlns="http://www.w3.org/2000/svg" fill="none" viewBox="0 0 24 25"><path fill="#000" d="M21.7 9.912c-1-3.9-4.2-6.9-8.1-7.5-2.9-.5-5.8.4-8 2.3-2.3 1.9-3.6 4.8-3.6 7.8 0 4.4 2.8 8.3 6.9 9.7.3.1.6.2 1 .2.6 0 1.3-.2 1.8-.6.8-.6 1.3-1.6 1.3-2.6 0-1.4 1.1-2.3 2.6-2.3h2.1c2.4 0 4.3-1.9 4.3-4.3 0-1-.1-1.8-.3-2.7"/><path fill="#fff" d="M8.48 14.59a1.6 1.6 0 1 0-1.569-2.789 1.6 1.6 0 0 0 1.569 2.79m2.196-5.001a1.6 1.6 0 1 0-1.569-2.788 1.6 1.6 0 0 0 1.569 2.789m5.394.705a1.6 1.6 0 1 0-1.568-2.789 1.6 1.6 0 0 0 1.568 2.79"/></svg>