<svg width="24" height="24" viewBox="0 0 24 24" fill="none" xmlns="http://www.w3.org/2000/svg">
<path d="M4.00671 19H6.52349C7.83221 19 9.04027 18.5033 9.94631 17.6093L18 9.46358L17.2953 8.76821L16.5906 8.07285L13.9732 5.39073L13.1678 4.69536L12.4631 4L4.4094 12.1457C3.50336 13.0397 3 14.2318 3 15.5232V18.0066C3 18.6026 3.40268 19 4.00671 19Z" fill="black"/>
<path d="M15.3564 4.12162L17.8754 6.67568L18.5536 7.33784L19.2318 8L19.91 7.33784C21.3633 5.91892 21.3633 3.55405 19.91 2.13514C19.2318 1.37838 18.263 1 17.2941 1C16.3253 1 15.3564 1.37838 14.6782 2.04054L14 2.7027L14.6782 3.36486L15.3564 4.12162Z" fill="black"/>
<path d="M21 21H3C2.4 21 2 21.4 2 22C2 22.6 2.4 23 3 23H21C21.6 23 22 22.6 22 22C22 21.4 21.6 21 21 21Z" fill="black"/>
</svg>
