<svg width="24" height="25" viewBox="0 0 24 25" fill="none" xmlns="http://www.w3.org/2000/svg">
<path d="M21.9098 3.09167C21.0911 2.37662 20.17 1.96802 19.0443 1.96802C17.9185 1.96802 16.7927 2.47877 15.974 3.29597L4 15.3497L4.71639 16.0648L5.43279 16.7798L8.19602 19.5379L8.91241 20.253L9.6288 20.968L21.7052 8.91425C23.3426 7.27985 23.445 4.62393 21.9098 3.09167Z" fill="black"/>
<path d="M6.6273 20.5959L4.56826 18.5368L3.78386 17.7524L2.99946 16.968C2.80336 17.2622 2.70531 17.6544 2.60726 17.9485L1.03847 22.753C0.940416 23.1452 1.03847 23.4393 1.23456 23.7335C1.43066 23.9296 1.82286 24.0276 2.21506 23.9296L7.0195 22.4588C7.4117 22.3608 7.70585 22.1647 8 22.0666L7.31365 21.3803L6.6273 20.5959Z" fill="black"/>
</svg>
