<svg xmlns="http://www.w3.org/2000/svg" fill="none" viewBox="0 0 24 25"><path fill="#000" d="M21.698 13.403a1.1 1.1 0 0 0-1.51 0l-5.836 5.779-.705-.697a6.6 6.6 0 0 0-2.616-1.595c-1.51-.398-3.12-.597-4.328-.597-.201 0-.503-.2-.503-.399L4.187 6.628l4.529 4.484c.302.199.503.299.805.299s.503-.1.704-.3a1.076 1.076 0 0 0 0-1.494L5.698 5.233l9.36 1.993c.2.1.402.299.402.498 0 1.096.2 2.59.603 4.085.202.797.604 1.495 1.107 2.192.302.399 1.007.498 1.41.2.402-.3.502-.997.2-1.396-.402-.498-.603-.996-.805-1.494-.301-1.196-.503-2.59-.503-3.587-.1-1.196-.905-2.192-2.113-2.391L5.093 3.04c-.805-.199-1.71 0-2.315.698-.704.597-.905 1.494-.704 2.291l2.214 10.263c.201 1.195 1.208 1.992 2.415 2.092 1.007 0 2.516.2 3.824.598.604.199 1.208.598 1.711 1.096l.705.697-.403.399a1.076 1.076 0 0 0 0 1.494c.201.2.503.299.705.299.2 0 .503-.1.704-.299l7.75-7.672c.402-.498.402-1.195 0-1.594"/></svg>