<svg width="24" height="25" viewBox="0 0 24 25" fill="none" xmlns="http://www.w3.org/2000/svg">
<path d="M18.7 5.51201H17H7H5.3C3.5 5.51201 2 7.01201 2 8.81201V15.512C2 17.312 3.5 18.812 5.3 18.812V18.012V17.212V13.912C5.3 13.012 6.1 12.212 7 12.212H17C17.9 12.212 18.7 12.912 18.7 13.912V17.212V18.012V18.812C20.5 18.812 22 17.312 22 15.512V8.81201C22 7.01201 20.5 5.51201 18.7 5.51201Z" fill="black"/>
<path d="M17 3.01201C17 2.01201 16.2 1.31201 15.3 1.31201H8.7C7.8 1.31201 7 2.01201 7 3.01201V3.81201H17V3.01201Z" fill="black"/>
<path d="M7 17.112V17.912V18.712V20.412C7 21.812 8.1 22.912 9.5 22.912H14.5C15.9 22.912 17 21.812 17 20.412V18.712V17.912V17.112V13.812H7V17.112Z" fill="black"/>
<path d="M18.7 9.61201C19.1419 9.61201 19.5 9.25384 19.5 8.81201C19.5 8.37018 19.1419 8.01201 18.7 8.01201C18.2582 8.01201 17.9 8.37018 17.9 8.81201C17.9 9.25384 18.2582 9.61201 18.7 9.61201Z" fill="white"/>
</svg>
