<svg xmlns="http://www.w3.org/2000/svg" fill="none" viewBox="0 0 24 25"><path fill="#000" d="M18.5 5.512h-13c-2 0-3.5 1.5-3.5 3.5v6.7c0 1.9 1.5 3.5 3.5 3.5H6v1.5c0 1.4 1.2 2.6 2.7 2.6h6.7c1.5 0 2.7-1.2 2.7-2.7v-1.5h.5c1.9 0 3.5-1.6 3.5-3.5v-6.6c-.1-2-1.6-3.5-3.6-3.5m-2.5 15.1c0 .4-.3.7-.7.7H8.7c-.4 0-.7-.3-.7-.7v-5.7h8zm4-5c0 .8-.7 1.5-1.5 1.5H18v-3.2c0-.6-.4-1-1-1H7c-.6 0-1 .4-1 1v3.2h-.5c-.8 0-1.5-.7-1.5-1.5v-6.6c0-.8.7-1.5 1.5-1.5h13.1c.8 0 1.5.7 1.5 1.5v6.6zM7 5.012c.6 0 1-.4 1-1 0-.4.3-.7.7-.7h6.7c.3 0 .6.3.6.7 0 .6.4 1 1 1s1-.4 1-1c0-1.5-1.2-2.7-2.7-2.7H8.7c-1.5 0-2.7 1.2-2.7 2.7 0 .5.4 1 1 1"/><path fill="#000" d="M17.8 10.612a.8.8 0 1 0 0-1.6.8.8 0 0 0 0 1.6"/></svg>