<svg xmlns="http://www.w3.org/2000/svg" fill="none" viewBox="0 0 24 25"><path fill="#000" d="M2 6.976h21c0-2.222-1.7-4-3.7-4H4.7c-2 0-3.7 1.778-3.7 4zm20 2H1v9.437c0 1.926 1.7 3.563 3.7 3.563h14.6c2.1 0 3.7-1.637 3.7-3.563V8.976z"/><path fill="#fff" d="M9.7 18.376c-.2 0-.5-.1-.7-.2l-3-2.7c-.2-.2-.3-.5-.3-.8s.1-.5.3-.7l3-2.7c.4-.4 1-.3 1.4.1s.3 1-.1 1.4l-2.2 1.9 2.2 1.9c.4.4.5 1 .1 1.4-.1.3-.4.4-.7.4m4.6 0c-.3 0-.6-.1-.8-.3-.4-.4-.3-1 .1-1.4l2.2-1.9-2.2-1.9c-.4-.4-.5-1-.1-1.4s1-.5 1.4-.1l3.1 2.6c.2.2.3.5.3.8s-.1.6-.3.8l-3 2.6c-.2.1-.5.2-.7.2"/></svg>