<svg xmlns="http://www.w3.org/2000/svg" fill="none" viewBox="0 0 24 24"><path fill="#000" d="M19.63 10.514h-.495V8.532a3.976 3.976 0 0 0-3.964-3.964H13.19V4.17c0-1.783-1.388-3.17-3.172-3.17S6.847 2.387 6.847 4.171v.496H4.964A3.976 3.976 0 0 0 1 8.63v2.973c0 .594.396.99.991.99h1.486c.298 0 .595.1.892.397s.397.595.397.991c0 .595-.595 1.09-1.289 1.09H1.991c-.595 0-.991.397-.991.991v2.973A3.976 3.976 0 0 0 4.964 23h2.973c.595 0 .99-.396.99-.991v-1.486c0-.298.1-.595.397-.892s.595-.397.991-.397c.595 0 1.09.595 1.09 1.288v1.289c0 .594.397.99.991.99h2.973a3.976 3.976 0 0 0 3.964-3.963v-1.982h.496c1.784 0 3.171-1.388 3.171-3.171-.198-1.685-1.586-3.171-3.37-3.171"/></svg>