<svg xmlns="http://www.w3.org/2000/svg" fill="none" viewBox="0 0 24 25"><path fill="#000" d="M7.569 4.296H4.43c-1.86 0-3.43 1.6-3.43 3.5v3.3c0 1.9 1.569 3.5 3.431 3.5h2.353c.785 0 1.569-.3 2.255-.7v2.1c0 1.3-.98 2.3-2.255 2.3H5.216c-.589 0-.98.4-.98 1s.391 1 .98 1h1.568c2.353 0 4.216-1.9 4.216-4.3v-8.2c0-1.9-1.569-3.5-3.431-3.5m12.095 0H16.43c-1.862 0-3.43 1.6-3.43 3.5v3.3c0 1.9 1.568 3.5 3.43 3.5h2.352c.784 0 1.568-.3 2.254-.7v2.1c0 1.3-.98 2.3-2.254 2.3h-1.568c-.588 0-.98.4-.98 1s.392 1 .98 1h1.568c2.352 0 4.214-1.9 4.214-4.3v-8.2c.098-1.9-1.47-3.5-3.332-3.5"/></svg>