<svg xmlns="http://www.w3.org/2000/svg" fill="none" viewBox="0 0 24 25"><path fill="#000" d="M7.7 4.296H4.5c-1.9 0-3.5 1.5-3.5 3.4v3.4c0 1.9 1.6 3.4 3.5 3.4h2.3c.6 0 1-.4 1-1s-.4-1-1-1H4.5c-.8 0-1.5-.6-1.5-1.4v-3.4c0-.8.7-1.4 1.5-1.4h3.2c.8 0 1.5.6 1.5 1.4v8.3c0 1.3-1 2.3-2.3 2.3H5.3c-.6 0-1 .4-1 1s.4 1 1 1h1.6c2.4 0 4.3-1.9 4.3-4.3v-8.3c0-1.9-1.6-3.4-3.5-3.4m11.8 0h-3.2c-1.9 0-3.5 1.5-3.5 3.4v3.4c0 1.9 1.6 3.4 3.5 3.4h2.3c.6 0 1-.4 1-1s-.4-1-1-1h-2.3c-.8 0-1.5-.6-1.5-1.4v-3.4c0-.8.7-1.4 1.5-1.4h3.2c.8 0 1.5.6 1.5 1.4v8.3c0 1.3-1 2.3-2.3 2.3h-1.6c-.6 0-1 .4-1 1s.4 1 1 1h1.6c2.4 0 4.3-1.9 4.3-4.3v-8.3c0-1.9-1.6-3.4-3.5-3.4"/></svg>