<svg width="24" height="25" viewBox="0 0 24 25" fill="none" xmlns="http://www.w3.org/2000/svg">
<path d="M12.4 18.468C11.9 18.268 11.3 18.368 11.1 18.868L9.30001 22.468C9.00001 22.968 9.20001 23.568 9.70001 23.868C9.80001 23.968 10 23.968 10.2 23.968C10.6 23.968 10.9 23.768 11.1 23.468L12.9 19.868C13.1 19.268 12.9 18.668 12.4 18.468Z" fill="black"/>
<path d="M17 18.468C16.5 18.268 15.9 18.368 15.7 18.868L13.9 22.468C13.7 22.968 13.8 23.568 14.3 23.768C14.4 23.868 14.6 23.868 14.8 23.868C15.2 23.868 15.5 23.668 15.7 23.368L17.5 19.768C17.7 19.268 17.5 18.668 17 18.468Z" fill="black"/>
<path d="M7.9 18.468C7.4 18.268 6.8 18.368 6.6 18.868L4.8 22.468C4.6 22.968 4.7 23.568 5.2 23.768C5.3 23.968 5.5 23.968 5.6 23.968C6 23.968 6.3 23.768 6.5 23.468L8.3 19.868C8.6 19.268 8.4 18.668 7.9 18.468Z" fill="black"/>
<path d="M15.2 1.96802C12.4 1.96802 9.9 3.46802 8.5 5.76802C8 5.66802 7.5 5.56802 7 5.56802C3.7 5.56802 1 8.26802 1 11.568C1 14.868 3.7 17.568 7 17.568H15.2C19.5 17.568 23 14.068 23 9.76802C23 5.46802 19.5 1.96802 15.2 1.96802Z" fill="black"/>
</svg>
