<svg xmlns="http://www.w3.org/2000/svg" fill="none" viewBox="0 0 24 25"><path fill="#000" d="M12 5.812c-.6 0-1-.4-1-1v-1.5c0-.6.4-1 1-1s1 .4 1 1v1.5c0 .6-.4 1-1 1m0 11.7c-.6 0-1-.4-1-1v-2.5c0-.6.4-1 1-1s1 .4 1 1v2.5c0 .5-.4 1-1 1m0-5.9c-.6 0-1-.4-1-1v-2.5c0-.6.4-1 1-1s1 .4 1 1v2.5c0 .6-.4 1-1 1m0 10.7c-.6 0-1-.4-1-1v-1.5c0-.6.4-1 1-1s1 .4 1 1v1.5c0 .6-.4 1-1 1m-8.2-4.1c-.2 0-.5 0-.7-.1-.7-.3-1.1-.9-1.1-1.7v-8.2c0-.7.4-1.4 1.1-1.7s1.5-.1 2 .4l4.1 4.1c.4.4.5.8.5 1.3s-.2.9-.5 1.3l-4.1 4.1c-.3.3-.8.5-1.3.5m.2-9.6v7.3l3.7-3.6zm16.2 9.6c-.5 0-.9-.2-1.3-.5l-4.1-4.1c-.7-.7-.7-1.9 0-2.6l4.1-4.1c.5-.5 1.3-.7 2-.4s1.1.9 1.1 1.7v8.2c0 .7-.4 1.4-1.1 1.7-.2.1-.5.1-.7.1m-3.9-5.9 3.7 3.7v-7.4z"/></svg>