<svg width="24" height="25" viewBox="0 0 24 25" fill="none" xmlns="http://www.w3.org/2000/svg">
<path d="M21 4.29602H3C2.4 4.29602 2 3.89602 2 3.29602C2 2.69602 2.4 2.29602 3 2.29602H21C21.6 2.29602 22 2.69602 22 3.29602C22 3.89602 21.6 4.29602 21 4.29602Z" fill="black"/>
<path d="M21 16.296H3C2.4 16.296 2 15.896 2 15.296C2 14.696 2.4 14.296 3 14.296H21C21.6 14.296 22 14.696 22 15.296C22 15.896 21.6 16.296 21 16.296Z" fill="black"/>
<path d="M21 10.296H9.3C8.7 10.296 8.3 9.89602 8.3 9.29602C8.3 8.69602 8.7 8.29602 9.3 8.29602H21C21.6 8.29602 22 8.69602 22 9.29602C22 9.89602 21.6 10.296 21 10.296Z" fill="black"/>
<path d="M21 22.296H9.3C8.7 22.296 8.3 21.896 8.3 21.296C8.3 20.696 8.7 20.296 9.3 20.296H21C21.6 20.296 22 20.696 22 21.296C22 21.896 21.6 22.296 21 22.296Z" fill="black"/>
</svg>
