<svg width="24" height="24" viewBox="0 0 24 24" fill="none" xmlns="http://www.w3.org/2000/svg">
<path fill-rule="evenodd" clip-rule="evenodd" d="M5 3C3.89543 3 3 3.89543 3 5C3 6.10457 3.89543 7 5 7C6.10457 7 7 6.10457 7 5C7 3.89543 6.10457 3 5 3ZM1 5C1 2.79086 2.79086 1 5 1C7.20914 1 9 2.79086 9 5C9 7.20914 7.20914 9 5 9C2.79086 9 1 7.20914 1 5Z" fill="black"/>
<path fill-rule="evenodd" clip-rule="evenodd" d="M19 17C17.8954 17 17 17.8954 17 19C17 20.1046 17.8954 21 19 21C20.1046 21 21 20.1046 21 19C21 17.8954 20.1046 17 19 17ZM15 19C15 16.7909 16.7909 15 19 15C21.2091 15 23 16.7909 23 19C23 21.2091 21.2091 23 19 23C16.7909 23 15 21.2091 15 19Z" fill="black"/>
<path fill-rule="evenodd" clip-rule="evenodd" d="M10 5C10 4.44772 10.4477 4 11 4H17.3C20.3977 4 21.5146 8.05261 18.7904 9.5715L7.18568 16.1742C6.31593 16.6574 6.59954 18 7.70001 18H13C13.5523 18 14 18.4477 14 19C14 19.5523 13.5523 20 13 20H7.70001C4.60231 20 3.48544 15.9474 6.20956 14.4285L17.8143 7.8258C18.6841 7.3426 18.4005 6 17.3 6H11C10.4477 6 10 5.55228 10 5Z" fill="black"/>
</svg>
