<svg xmlns="http://www.w3.org/2000/svg" fill="none" viewBox="0 0 24 24"><path fill="#000" d="M18.6 2H5.4C3.5 2 2 3.5 2 5.4v9.9c0 1.9 1.5 3.4 3.4 3.4h13.2c1.9 0 3.4-1.5 3.4-3.4V5.4C22 3.5 20.5 2 18.6 2M20 15.3c0 .8-.6 1.4-1.4 1.4H5.4c-.8 0-1.4-.6-1.4-1.4V5.4C4 4.6 4.6 4 5.4 4h13.2c.8 0 1.4.6 1.4 1.4zM8.9 20H6.6c-.6 0-1 .4-1 1s.4 1 1 1h2.3c.6 0 1-.4 1-1s-.4-1-1-1m8.5 0h-2.3c-.6 0-1 .4-1 1s.4 1 1 1h2.3c.6 0 1-.4 1-1s-.4-1-1-1"/><path fill="#000" d="M8.9 7c-1.8 0-3.3 1.5-3.3 3.4 0 1.8 1.5 3.3 3.3 3.3s3.3-1.5 3.3-3.3c0-1.9-1.5-3.4-3.3-3.4m0 4.7c-.7 0-1.3-.6-1.3-1.3 0-.8.6-1.4 1.3-1.4s1.3.6 1.3 1.3c0 .8-.6 1.4-1.3 1.4m8.8-6.6c-.6 0-1 .4-1 1v8.5c0 .6.4 1 1 1s1-.4 1-1V6.1c0-.6-.4-1-1-1"/></svg>