<svg width="24" height="25" viewBox="0 0 24 25" fill="none" xmlns="http://www.w3.org/2000/svg">
<path d="M15.3846 16.2881H8.61538C8.30769 16.2881 8 16.6039 8 16.9197V22.2881H16V16.9197C16 16.6039 15.6923 16.2881 15.3846 16.2881Z" fill="black"/>
<path d="M20.8801 6.48809L17.8674 3.48809C17.0639 2.78809 15.9593 2.28809 14.7541 2.28809H5.51492C3.50639 2.28809 2 3.88809 2 5.78809V18.8881C2 20.7881 3.50639 22.2881 5.51492 22.2881H6.11748V21.2881V20.2881V17.1881C6.11748 15.6881 7.32259 14.5881 8.72856 14.5881H15.2563C16.7627 14.5881 17.8674 15.7881 17.8674 17.1881V20.2881V21.2881V22.2881H18.4699C20.378 22.2881 21.9848 20.7881 21.9848 18.8881V9.58809C22.0853 8.38809 21.6836 7.38809 20.8801 6.48809Z" fill="black"/>
</svg>
