<svg xmlns="http://www.w3.org/2000/svg" fill="none" viewBox="0 0 24 25"><path fill="#000" fill-rule="evenodd" d="M2 5.788c0-1.957 1.56-3.5 3.514-3.5h9.15c1.213 0 2.26.537 3.019 1.291l2.991 2.975C21.614 7.37 22 8.458 22 9.588v9.2c0 1.958-1.56 3.5-3.514 3.5h-1.609a1 1 0 0 1-1-1v-4.9c0-.342-.25-.6-.609-.6H8.732a.585.585 0 0 0-.61.6v3.9h5.638a1 1 0 1 1 0 2H5.514c-1.928 0-3.514-1.516-3.514-3.4zm4.123 14.5h-.609c-.888 0-1.514-.684-1.514-1.4v-13.1c0-.842.653-1.5 1.514-1.5h9.15c.599 0 1.16.263 1.609.71l3.016 3 .057.051c.445.38.654.881.654 1.54v9.2c0 .842-.653 1.5-1.514 1.5h-.609v-3.9c0-1.458-1.157-2.6-2.609-2.6H8.732a2.584 2.584 0 0 0-2.61 2.6z" clip-rule="evenodd"/></svg>