<svg xmlns="http://www.w3.org/2000/svg" fill="none" viewBox="0 0 24 25"><path fill="#000" d="M21 17.012c-.6 0-1 .4-1 1v.8c0 .8-.7 1.5-1.5 1.5h-.8c-.6 0-1 .4-1 1s.4 1 1 1h.8c1.9 0 3.5-1.5 3.5-3.5v-.8c0-.5-.4-1-1-1m0-7.7c-.6 0-1 .4-1 1v4.3c0 .6.4 1 1 1s1-.4 1-1v-4.3c0-.6-.4-1-1-1m-2.5-7h-.8c-.6 0-1 .4-1 1s.4 1 1 1h.8c.8 0 1.5.7 1.5 1.5v.8c0 .6.4 1 1 1s1-.4 1-1v-.8c0-2-1.5-3.5-3.5-3.5m-4.5 0h-4c-.6 0-1 .4-1 1s.4 1 1 1h4c.6 0 1-.4 1-1s-.4-1-1-1m-11 5.3c.6 0 1-.4 1-1v-.8c0-.8.7-1.5 1.5-1.5h.8c.6 0 1-.4 1-1s-.4-1-1-1h-.8c-2 0-3.5 1.5-3.5 3.5v.8c0 .5.4 1 1 1m11 12.7h-.5q.3-.6.3-1.5v-4.9c0-1.9-1.5-3.5-3.5-3.5H5.5q-.75 0-1.5.3v-.4c0-.6-.4-1-1-1s-1 .4-1 1v8.5c0 2 1.5 3.5 3.5 3.5H14c.6 0 1-.4 1-1s-.4-1-1-1"/></svg>