<svg xmlns="http://www.w3.org/2000/svg" fill="none" viewBox="0 0 24 25"><path fill="#000" d="m18.872 7.488-4.103-4.1a3.3 3.3 0 0 0-2.461-1.1H6.667C5.23 2.288 4 3.488 4 4.988v14.7c0 1.4 1.23 2.6 2.667 2.6h10.666c1.436 0 2.667-1.2 2.667-2.7v-9.6c0-1-.41-1.9-1.128-2.5"/><path fill="#fff" d="m15.5 17.288-1.1-1.1c.3-.5.4-1 .4-1.6 0-.9-.4-1.8-1-2.4-1.3-1.2-3.5-1.2-4.8.1-.6.6-1 1.5-1 2.4s.4 1.8 1 2.4 1.5 1 2.4 1c.6 0 1.1-.1 1.6-.4l1.1 1.1c.2.2.5.3.7.3s.5-.1.7-.3c.4-.4.4-1.1 0-1.5m-5.1-1.6c-.5-.5-.5-1.4 0-2 .3-.3.6-.4 1-.4s.7.1 1 .4c.5.5.5 1.4 0 2-.6.5-1.4.5-2 0"/></svg>