<svg xmlns="http://www.w3.org/2000/svg" fill="none" viewBox="0 0 24 24"><path fill="#000" fill-rule="evenodd" d="M22.822 5.007c.873-2.494-1.504-4.552-3.806-3.873l-.041.013-15.94 5.458c-2.774.89-2.692 4.797.122 5.644l.028.008 5.348 1.438.034.008c.817.19 1.445.82 1.748 1.794l1.426 5.343.001.002c.747 2.84 4.651 2.85 5.63.184l.008-.022zM19.6 3.047c.933-.262 1.6.545 1.334 1.302L15.49 20.347c-.362.963-1.606.782-1.815-.015l-1.434-5.37-.01-.035c-.46-1.503-1.544-2.778-3.195-3.168L3.72 10.33c-.99-.308-.91-1.556-.07-1.822l.022-.007z" clip-rule="evenodd"/></svg>