<svg xmlns="http://www.w3.org/2000/svg" fill="none" viewBox="0 0 24 27"><path fill="#000" fill-rule="evenodd" d="M10.014 2.821a3.94 3.94 0 0 1 3.899.016L20.1 6.589c1.221.696 1.9 1.954 1.9 3.319v6.91c0 1.32-.645 2.612-1.816 3.227l-6.172 3.742-.026.016a3.94 3.94 0 0 1-3.899-.016L3.9 20.035C2.679 19.339 2 18.081 2 16.716V9.908c0-1.364.678-2.62 1.897-3.317L9.98 2.84zm.987 1.768L4.919 8.338l-.033.02c-.57.321-.886.888-.886 1.55v6.808c0 .662.316 1.229.886 1.55l.026.016 6.186 3.751a1.96 1.96 0 0 0 1.904 0l6.185-3.75q.033-.02.066-.037c.405-.206.747-.73.747-1.428v-6.91c0-.662-.316-1.229-.886-1.55l-.027-.016-6.185-3.751a1.96 1.96 0 0 0-1.901-.002M12 11.23c-1.16 0-2.1.955-2.1 2.134s.94 2.134 2.1 2.134 2.1-.956 2.1-2.134c0-1.179-.94-2.134-2.1-2.134m-4.1 2.134c0-2.301 1.836-4.166 4.1-4.166s4.1 1.865 4.1 4.166c0 2.3-1.836 4.166-4.1 4.166s-4.1-1.865-4.1-4.166" clip-rule="evenodd"/></svg>