<svg xmlns="http://www.w3.org/2000/svg" fill="none" viewBox="0 0 24 24"><path fill="#000" d="M18.1 14.3c-2.1 0-3.9 1.7-3.9 3.9 0 2.1 1.7 3.9 3.9 3.9 2.1 0 3.9-1.7 3.9-3.9s-1.7-3.9-3.9-3.9m0 5.7c-1 0-1.9-.8-1.9-1.9 0-1 .8-1.9 1.9-1.9 1 0 1.9.8 1.9 1.9s-.8 1.9-1.9 1.9m-7.4-9.6c.1 0 .3 0 .4-.1l4-2c.7.9 1.8 1.5 3 1.5C20.3 9.7 22 8 22 5.9S20.3 2 18.1 2c-2.1 0-3.9 1.7-3.9 3.9 0 .2 0 .4.1.6l-4.1 2c-.5.3-.7.9-.4 1.3.1.4.5.6.9.6M18.1 4c1 0 1.9.8 1.9 1.9 0 1-.8 1.9-1.9 1.9-1 0-1.9-.8-1.9-1.9.1-1.1.9-1.9 1.9-1.9m-4.4 11-4.1-2c.1-.3.1-.6.1-1 0-2.1-1.7-3.9-3.9-3.9S2 9.9 2 12s1.7 3.9 3.9 3.9c1.1 0 2.1-.4 2.8-1.2l4.2 2.1c.1.1.3.1.4.1q.6 0 .9-.6c.2-.4 0-1-.5-1.3m-7.8-1.1C4.8 13.9 4 13 4 12s.8-1.9 1.9-1.9c1 0 1.9.8 1.9 1.9-.1 1-.9 1.9-1.9 1.9"/></svg>