<svg xmlns="http://www.w3.org/2000/svg" fill="none" viewBox="0 0 26 24"><path fill="#000" fill-rule="evenodd" d="M15.568 5.089c-.307.149-.578.486-.578 1.009v1.71a1 1 0 0 1-1 1h-3.08c-4.112 0-7.727 3.622-7.903 8.325C4.985 15.206 7.564 14.1 10.36 14.1h3.63a1 1 0 0 1 1 1v2.621c0 .523.271.86.578 1.009s.65.119.926-.142l6.14-5.792c.518-.552.446-1.368.034-1.741l-.014-.014-6.16-5.81a.79.79 0 0 0-.926-.142m-.873-1.8c.986-.478 2.237-.393 3.17.486L24.02 9.58c1.336 1.22 1.264 3.35.04 4.618l-.034.033-6.16 5.812c-.933.879-2.185.964-3.171.485-.986-.478-1.705-1.508-1.705-2.808V16.1h-2.63c-3.032 0-5.802 1.615-7.505 4.418A1 1 0 0 1 1 20v-2.507C1 11.66 5.447 6.807 10.91 6.807h2.08v-.71c0-1.3.719-2.33 1.705-2.808" clip-rule="evenodd"/></svg>