<svg xmlns="http://www.w3.org/2000/svg" fill="none" viewBox="0 0 24 24"><path fill="#000" d="M17.7 22H6.3c-1.2 0-2.3-.5-3.2-1.4-.8-.9-1.2-2.1-1.1-3.3L3.4 5.9C3.6 3.7 5.4 2 7.6 2h8.8c2.2 0 4.1 1.7 4.3 3.9L22 17.3c.1 1.2-.3 2.4-1.1 3.3s-2 1.4-3.2 1.4M7.6 4c-1.2 0-2.1.9-2.2 2.1L4 17.5c-.1.6.2 1.2.6 1.7s1 .7 1.7.7h11.5c.6 0 1.2-.3 1.7-.7.4-.5.6-1.1.6-1.7L18.6 6.1c-.1-1.2-1-2.1-2.2-2.1z"/><path fill="#000" d="M12 11.4c-2.8 0-5.1-2.3-5.1-5.1 0-.6.4-1 1-1s1 .4 1 1c0 1.7 1.4 3.1 3.1 3.1s3.1-1.4 3.1-3.1c0-.6.4-1 1-1s1 .4 1 1c0 2.8-2.3 5.1-5.1 5.1"/></svg>