<svg xmlns="http://www.w3.org/2000/svg" fill="none" viewBox="0 0 24 24"><path fill="#000" d="m9.527 1.081-4.472.771C3.309 2.182 2 3.724 2 5.597v12.667c0 1.872 1.31 3.414 3.055 3.745l4.472.88c.218.111.437.111.655.111a3.8 3.8 0 0 0 2.4-.881c.872-.771 1.418-1.762 1.418-2.974V4.825c0-1.1-.546-2.202-1.418-2.973-.764-.771-1.964-.991-3.055-.771m2.291 18.064c0 .44-.218.991-.545 1.212-.328.33-.873.44-1.31.33l-4.472-.881c-.764 0-1.31-.661-1.31-1.432V5.597c0-.771.546-1.432 1.31-1.652l4.473-.771h.327c.327 0 .764.11.982.33.327.33.545.771.545 1.322zM17.984 3h-1.837C15.46 3 15 3.447 15 4.118s.459 1.119 1.148 1.119h1.836c.918 0 1.72.783 1.72 1.677v9.172c0 .894-.802 1.677-1.72 1.677h-1.837c-.688 0-1.147.447-1.147 1.119 0 .67.459 1.118 1.148 1.118h1.836C20.164 20 22 18.21 22 16.085v-9.17C22 4.788 20.164 3 17.984 3"/><path fill="#000" d="M9 10c-.6 0-1 .444-1 1.111v1.778C8 13.556 8.4 14 9 14s1-.444 1-1.111V11.11c0-.666-.4-1.11-1-1.11"/></svg>