<svg xmlns="http://www.w3.org/2000/svg" fill="none" viewBox="0 0 24 25"><path fill="#000" d="M15.2 1.968c-4.3 0-7.8 3.5-7.8 7.8 0 .6.4 1 1 1s1-.4 1-1c0-3.2 2.6-5.8 5.8-5.8s5.8 2.6 5.8 5.8-2.6 5.8-5.8 5.8H7c-2.2 0-4-1.8-4-4 0-1.8 1.2-3.4 2.9-3.8.5-.2.8-.7.7-1.2-.2-.6-.7-.9-1.2-.7-2.6.7-4.4 3.1-4.4 5.7 0 3.3 2.7 6 6 6h8.2c4.3 0 7.8-3.5 7.8-7.8s-3.5-7.8-7.8-7.8m-8.7 19.2a.9.9 0 1 0 0-1.8.9.9 0 0 0 0 1.8m2.8 2.7a.9.9 0 1 0 0-1.8.9.9 0 0 0 0 1.8m2.7-2.7a.9.9 0 1 0 0-1.8.9.9 0 0 0 0 1.8m2.7 2.7a.9.9 0 1 0 0-1.8.9.9 0 0 0 0 1.8m2.8-2.7a.9.9 0 1 0 0-1.8.9.9 0 0 0 0 1.8"/></svg>