<svg xmlns="http://www.w3.org/2000/svg" fill="none" viewBox="0 0 24 25"><path fill="#000" d="m19.9 13.568-2.4.7-2.2-1.3 2.1-1.2 2.4.7c.1 0 .3.1.4.1.7 0 1.4-.5 1.6-1.2.2-.9-.3-1.8-1.2-2l-1.5-.4.4-1.5c.2-.9-.3-1.8-1.2-2s-1.8.3-2 1.2l-.7 2.4-2.1 1.2v-2.7l1.8-1.8c.7-.7.7-1.7 0-2.4s-1.7-.7-2.4 0l-.9 1.2-1.1-1.1c-.7-.7-1.7-.7-2.4 0s-.7 1.7 0 2.4l1.8 1.8v2.5l-2.1-1.3-.7-2.5c-.2-.9-1.1-1.4-2-1.1-.9.2-1.4 1.2-1.2 2l.4 1.5-1.5.4c-.9.2-1.4 1.2-1.2 2 .3.8.9 1.3 1.7 1.3.1 0 .3 0 .4-.1l2.4-.7 2.2 1.3-2.1 1.2-2.4-.7c-.9-.2-1.8.3-2 1.2s.3 1.8 1.2 2l1.5.4-.4 1.5c-.2.9.3 1.8 1.2 2 .1 0 .3.1.4.1.7 0 1.4-.5 1.6-1.2l.7-2.4 2.1-1.2v2.5l-1.8 1.8c-.7.7-.7 1.7 0 2.4s1.7.7 2.4 0l1.1-1.1 1.1 1.1c.3.3.8.5 1.2.5s.9-.2 1.2-.5c.7-.7.7-1.7 0-2.4l-1.8-1.8v-2.5l2.1 1.2.7 2.4c.2.7.9 1.2 1.6 1.2.1 0 .3 0 .4-.1.9-.2 1.4-1.2 1.2-2l-.4-1.5 1.5-.4c.9-.2 1.4-1.2 1.2-2-.5-.8-1.4-1.4-2.3-1.1"/></svg>