<svg width="24" height="25" viewBox="0 0 24 25" fill="none" xmlns="http://www.w3.org/2000/svg">
<path d="M6.50001 21.168C6.99706 21.168 7.40001 20.7651 7.40001 20.268C7.40001 19.771 6.99706 19.368 6.50001 19.368C6.00295 19.368 5.60001 19.771 5.60001 20.268C5.60001 20.7651 6.00295 21.168 6.50001 21.168Z" fill="black"/>
<path d="M9.29999 23.868C9.79705 23.868 10.2 23.465 10.2 22.968C10.2 22.4709 9.79705 22.068 9.29999 22.068C8.80294 22.068 8.39999 22.4709 8.39999 22.968C8.39999 23.465 8.80294 23.868 9.29999 23.868Z" fill="black"/>
<path d="M12 21.168C12.4971 21.168 12.9 20.7651 12.9 20.268C12.9 19.771 12.4971 19.368 12 19.368C11.5029 19.368 11.1 19.771 11.1 20.268C11.1 20.7651 11.5029 21.168 12 21.168Z" fill="black"/>
<path d="M14.7 23.868C15.197 23.868 15.6 23.465 15.6 22.968C15.6 22.4709 15.197 22.068 14.7 22.068C14.2029 22.068 13.8 22.4709 13.8 22.968C13.8 23.465 14.2029 23.868 14.7 23.868Z" fill="black"/>
<path d="M17.5 21.168C17.9971 21.168 18.4 20.7651 18.4 20.268C18.4 19.771 17.9971 19.368 17.5 19.368C17.0029 19.368 16.6 19.771 16.6 20.268C16.6 20.7651 17.0029 21.168 17.5 21.168Z" fill="black"/>
<path d="M15.2 1.96802C12.4 1.96802 9.9 3.46802 8.5 5.76802C8 5.66802 7.5 5.56802 7 5.56802C3.7 5.56802 1 8.26802 1 11.568C1 14.868 3.7 17.568 7 17.568H15.2C19.5 17.568 23 14.068 23 9.76802C23 5.46802 19.5 1.96802 15.2 1.96802Z" fill="black"/>
</svg>
