<svg xmlns="http://www.w3.org/2000/svg" fill="none" viewBox="0 0 24 24"><path fill="#000" fill-rule="evenodd" d="M17.45 2.348A3 3 0 0 1 19 5v10.2c0 2.387-2.643 3.802-4.587 2.414l-.064-.05-1.067-.9-.044-.04a5.5 5.5 0 0 0-2.965-1.446V19.1c0 1.587-1.16 2.9-2.746 2.9-1.618 0-2.745-1.449-2.745-2.9v-4.112C2.625 14.496 1 12.454 1 10.1c0-1.325.468-2.602 1.469-3.52.808-.824 1.917-1.48 3.313-1.48h3.461c1.534-.093 2.957-.618 4.032-1.459l1.035-.97.063-.054c.97-.77 2.16-.77 3.077-.269m-1.807 1.815-1.032.967-.062.054c-1.437 1.14-3.288 1.804-5.22 1.915l-.056.001H5.782c-.725 0-1.354.332-1.9.896l-.048.047C3.3 8.524 3 9.237 3 10.1c0 1.694 1.343 3 2.782 3a1 1 0 0 1 1 1v5c0 .549.424.9.745.9.354 0 .746-.287.746-.9v-5a1 1 0 0 1 1-1c1.968 0 3.86.676 5.321 2.054l1.008.851C16.18 16.386 17 16 17 15.2V5c0-.42-.225-.741-.51-.897a.75.75 0 0 0-.847.06M22 7a1 1 0 0 1 1 1v4a1 1 0 1 1-2 0V8a1 1 0 0 1 1-1" clip-rule="evenodd"/></svg>