<svg xmlns="http://www.w3.org/2000/svg" fill="none" viewBox="0 0 24 25"><path fill="#000" fill-rule="evenodd" d="M6.7 3.208c-.929 0-1.7.758-1.7 1.755v14.49c0 .997.771 1.755 1.7 1.755h10.6c.929 0 1.7-.758 1.7-1.755V4.963c0-1.022-.795-1.755-1.6-1.755zM3 4.963C3 2.9 4.629 1.208 6.7 1.208h10.7c1.995 0 3.6 1.716 3.6 3.755v14.49c0 2.064-1.629 3.755-3.7 3.755H6.7c-2.071 0-3.7-1.691-3.7-3.755z" clip-rule="evenodd"/><path fill="#000" fill-rule="evenodd" d="M12 11.208a2.6 2.6 0 1 0 0 5.2 2.6 2.6 0 0 0 0-5.2m-4.6 2.6a4.6 4.6 0 1 1 9.2 0 4.6 4.6 0 0 1-9.2 0m.9-7.2a1 1 0 0 1 1-1h5.4a1 1 0 1 1 0 2H9.3a1 1 0 0 1-1-1" clip-rule="evenodd"/></svg>