<svg xmlns="http://www.w3.org/2000/svg" fill="none" viewBox="0 0 24 25"><path fill="#000" d="M19.482 3.808h-6.43v-.6c0-.6-.402-1-1.005-1s-1.004.4-1.004 1v.6h-6.43C3.205 3.808 2 5.008 2 6.508v8.2c0 1.5 1.206 2.6 2.612 2.6H6.12l-2.411 3.3c-.301.5-.2 1.1.201 1.4.301.1.502.2.703.2.302 0 .603-.1.804-.4l3.215-4.5h2.412v3.9c0 .6.402 1 1.004 1 .603 0 1.005-.4 1.005-1v-3.9h2.411l3.216 4.5c.2.3.502.4.803.4.201 0 .402-.1.603-.2.502-.3.603-.9.201-1.4l-2.411-3.3h1.507c1.507 0 2.612-1.2 2.612-2.6v-8.2c.1-1.5-1.105-2.7-2.512-2.7"/></svg>