<svg width="24" height="25" viewBox="0 0 24 25" fill="none" xmlns="http://www.w3.org/2000/svg">
<path d="M21 13.976H3H2H1V18.176C1 19.776 2.3 20.976 3.8 20.976H20.2C21.7 20.976 23 19.676 23 18.176V13.976H22H21Z" fill="black"/>
<path d="M20.2 4.97601H3.8C2.3 4.97601 1 6.27601 1 7.77601V11.976H2H3H21H22H23V7.77601C23 6.27601 21.8 4.97601 20.2 4.97601Z" fill="black"/>
<path d="M11.1 9.57602H5.89999C5.29999 9.57602 4.89999 9.17602 4.89999 8.57602C4.89999 7.97602 5.29999 7.57602 5.89999 7.57602H11.2C11.8 7.57602 12.2 7.97602 12.2 8.57602C12.2 9.17602 11.7 9.57602 11.1 9.57602Z" fill="white"/>
<path d="M11.1 18.376H5.89999C5.29999 18.376 4.89999 17.976 4.89999 17.376C4.89999 16.776 5.29999 16.376 5.89999 16.376H11.2C11.8 16.376 12.2 16.776 12.2 17.376C12.2 17.976 11.7 18.376 11.1 18.376Z" fill="white"/>
</svg>
