<svg xmlns="http://www.w3.org/2000/svg" fill="none" viewBox="0 0 24 24"><path fill="#000" d="m21.8 6.1-.5-1.4C21 3.7 20 3 19 3H5c-1 0-2 .7-2.3 1.7l-.5 1.4c-.4 1.3-.2 2.6.6 3.7.2.4.6.7.9 1v6.4c0 2.2 1.8 3.9 3.9 3.9h2.2c.6 0 1-.4 1-1v-2.9c0-.7.5-1.2 1.2-1.2s1.2.5 1.2 1.2v2.9c0 .6.4 1 1 1h2.2c2.2 0 3.9-1.8 3.9-3.9V14c0-.6-.4-1-1-1s-1 .4-1 1v3.1c0 1.1-.9 1.9-1.9 1.9h-1.2v-1.9c0-1.8-1.4-3.2-3.2-3.2s-3.2 1.4-3.2 3.2V19H7.6c-1.1 0-1.9-.9-1.9-1.9v-5.6h.5c1.1 0 2.2-.5 2.9-1.3.7.9 1.8 1.4 2.9 1.4s2.2-.5 2.9-1.3c.7.8 1.8 1.3 2.9 1.3 1.4 0 2.6-.6 3.4-1.7.8-1.2 1-2.5.6-3.8m-2.2 2.6c-.4.6-1 .9-1.7.9-.9 0-1.7-.6-1.9-1.4-.1-.5-.6-.8-1.1-.8s-.9.3-1.1.8c-.2.8-1 1.4-1.8 1.4s-1.6-.6-1.8-1.4c-.2-.5-.6-.8-1.1-.8s-1 .3-1.1.8c-.2.8-1 1.4-1.8 1.4q-1.05 0-1.8-.9c-.4-.6-.5-1.3-.3-2l.5-1.4c.1-.2.2-.3.4-.3h14c.2 0 .4.1.4.3l.5 1.4c.2.7.1 1.4-.3 2"/></svg>