<svg xmlns="http://www.w3.org/2000/svg" fill="none" viewBox="0 0 24 25"><path fill="#000" d="M12 7.768c.6 0 1-.4 1-1v-1.8c0-.6-.4-1-1-1s-1 .4-1 1v1.8c0 .5.4 1 1 1m-7.6 2.5c.2.2.5.3.7.3s.5-.1.7-.3c.4-.4.4-1 0-1.4l-1.2-1.2c-.4-.4-1-.4-1.4 0s-.4 1 0 1.4zm14.4.3c.3 0 .5-.1.7-.3l1.3-1.3c.4-.4.4-1 0-1.4s-1-.4-1.4 0l-1.3 1.3c-.4.4-.4 1 0 1.4.2.2.5.3.7.3m3.2 4.9h-2.8c-.3-3.7-3.4-6.6-7.2-6.6s-6.9 2.9-7.2 6.6H2c-.6 0-1 .4-1 1s.4 1 1 1h20c.6 0 1-.4 1-1s-.4-1-1-1m-3.8 4.5H5.8c-.6 0-1 .4-1 1s.4 1 1 1h12.4c.6 0 1-.4 1-1s-.5-1-1-1"/></svg>