<svg xmlns="http://www.w3.org/2000/svg" fill="none" viewBox="0 0 24 25"><path fill="#000" d="M15.7 13.468v-7.8c0-2-1.6-3.7-3.7-3.7-1 0-1.9.4-2.6 1.1s-1.1 1.6-1.1 2.6v7.8c-1.5 1.1-2.3 2.8-2.3 4.6 0 3.2 2.7 5.9 6 5.9s6-2.7 6-5.9c0-1.8-.8-3.5-2.3-4.6m-3.7 8.5c-2.2 0-4-1.8-4-3.9 0-1.3.7-2.5 1.8-3.3.3-.2.5-.5.5-.8v-8.3c0-.4.2-.9.5-1.2s.7-.5 1.2-.5c1 0 1.7.8 1.7 1.7v8.3c0 .3.2.7.5.8 1.1.7 1.8 1.9 1.8 3.3 0 2.1-1.8 3.9-4 3.9"/><path fill="#000" d="M12 20.968a2.9 2.9 0 1 0 0-5.8 2.9 2.9 0 0 0 0 5.8"/></svg>