<svg width="24" height="25" viewBox="0 0 24 25" fill="none" xmlns="http://www.w3.org/2000/svg">
<path d="M15.7 13.468V5.66802C15.7 3.66802 14.1 1.96802 12 1.96802C11 1.96802 10.1 2.36802 9.4 3.06802C8.7 3.76802 8.3 4.66802 8.3 5.66802V13.468C6.8 14.568 6 16.268 6 18.068C6 21.268 8.7 23.968 12 23.968C15.3 23.968 18 21.268 18 18.068C18 16.268 17.2 14.568 15.7 13.468Z" fill="black"/>
<path d="M12 20.968C13.6016 20.968 14.9 19.6697 14.9 18.068C14.9 16.4664 13.6016 15.168 12 15.168C10.3984 15.168 9.10001 16.4664 9.10001 18.068C9.10001 19.6697 10.3984 20.968 12 20.968Z" fill="white"/>
</svg>
