<svg xmlns="http://www.w3.org/2000/svg" fill="none" viewBox="0 0 24 25"><g fill="#000" clip-path="url(#a)"><path d="M22 16.268c-.6 0-1 .4-1 1v2.7c0 1.1-.9 2.1-2.1 2.1h-2.7c-.6 0-1 .4-1 1s.4 1 1 1h2.7c2.2 0 4.1-1.8 4.1-4.1v-2.7c0-.6-.4-1-1-1m-14.2 5.7H5.1c-1.2 0-2.1-.9-2.1-2.1v-2.7c0-.6-.4-1-1-1s-1 .4-1 1v2.7c0 2.3 1.8 4.1 4.1 4.1h2.7c.6 0 1-.4 1-1s-.5-1-1-1M2 9.768c.6 0 1-.4 1-1v-2.7c0-1.2.9-2.1 2.1-2.1h2.7c.6 0 1-.4 1-1s-.4-1-1-1H5.1c-2.3 0-4.1 1.8-4.1 4.1v2.7c0 .5.4 1 1 1m16.9-7.8h-2.7c-.6 0-1 .4-1 1s.4 1 1 1h2.7c1.2 0 2.1.9 2.1 2.1v2.7c0 .6.4 1 1 1s1-.4 1-1v-2.7c0-2.3-1.8-4.1-4.1-4.1"/><path d="M18.2 10.868c.6 0 1-.4 1-1v-1.6c0-1-.8-1.8-1.8-1.8H6.6c-1 0-1.8.8-1.8 1.8v1.7c0 .6.4 1 1 1s1-.4 1-1v-1.5h2.3v9.7H8c-.6 0-1 .4-1 1s.4 1 1 1h8c.6 0 1-.4 1-1s-.4-1-1-1h-1.2v-9.7h2.3v1.4c.1.6.5 1 1.1 1"/></g><defs><clipPath id="a"><path fill="#fff" d="M0 .968h24v24H0z"/></clipPath></defs></svg>