<svg xmlns="http://www.w3.org/2000/svg" fill="none" viewBox="0 0 24 25"><path fill="#000" d="M15.2 1.968c-4.3 0-7.8 3.4-7.8 7.5 0 .6.4 1 1 1s1-.4 1-1c0-3 2.6-5.5 5.8-5.5s5.8 2.5 5.8 5.5-2.6 5.5-5.8 5.5c-.6 0-1 .4-1 1s.4 1 1 1c4.3 0 7.8-3.4 7.8-7.5s-3.5-7.5-7.8-7.5"/><path fill="#000" d="M14.7 17.568h-3.2l2.5-2.6c.4-.4.3-1-.1-1.4s-1-.3-1.4.1l-1.3 1.3H7c-2.2 0-4-1.7-4-3.8 0-1.7 1.2-3.2 2.9-3.6.5-.1.8-.7.7-1.2s-.7-.9-1.2-.7c-2.6.7-4.4 3-4.4 5.5 0 3.2 2.7 5.8 6 5.8h2.4l-.9.9c-.3.3-.3.7-.2 1.1q.3.6.9.6h3.2l-2.4 2.7c-.4.4-.3 1 .1 1.4.1.2.4.3.6.3.3 0 .5-.1.7-.3l4-4.3c.3-.3.3-.7.2-1.1s-.5-.7-.9-.7"/></svg>