<svg width="24" height="24" viewBox="0 0 24 24" fill="none" xmlns="http://www.w3.org/2000/svg">
<path d="M19 6.41667V4.5C19 3.08333 17.9889 2 16.6667 2H7.33333C6.01111 2 5 3.08333 5 4.5V6.41667C5 7.58333 5.54444 8.66667 6.47778 9.25L10.5222 12L6.47778 14.75C5.54444 15.3333 5 16.4167 5 17.5833V19.5C5 20.9167 6.01111 22 7.33333 22H16.6667C17.9889 22 19 20.9167 19 19.5V17.5833C19 16.4167 18.4556 15.3333 17.5222 14.75L13.4778 12L17.5222 9.25C18.4556 8.66667 19 7.58333 19 6.41667Z" fill="black"/>
</svg>
