<svg xmlns="http://www.w3.org/2000/svg" fill="none" viewBox="0 0 24 25"><path fill="#000" d="M19.989 21.296H4.01c-.607 0-1.011.4-1.011 1s.404 1 1.011 1h15.98c.607 0 1.011-.4 1.011-1s-.404-1-1.011-1m1.01-20h-3.6c-.6 0-1 .393-1 .983s.4.982 1 .982h.8v6.977c0 2.653-1.7 4.914-4.1 5.7-2.7-.295-4.3-3.145-4.3-5.7V3.261h.4c.6 0 1-.393 1-.982 0-.59-.4-.983-1-.983H3c-.6 0-1 .393-1 .983s.4.982 1 .982h.8v6.977c0 4.422 3.7 8.058 8.2 8.058s8.2-3.636 8.2-8.058V3.261h.8c.6 0 1-.393 1-.982 0-.59-.4-.983-1-.983M5.8 10.238V3.261h2.1v6.977c0 2.064.8 4.226 2.2 5.798-2.5-.786-4.3-3.046-4.3-5.798"/></svg>