<svg xmlns="http://www.w3.org/2000/svg" fill="none" viewBox="0 0 24 25"><path fill="#000" d="M17.4 8.812H8.9v-1.4c0-1.7 1.4-3.1 3.1-3.1 1.4 0 2.7 1 3 2.4.1.5.6.9 1.2.8.5-.1.9-.6.8-1.2-.5-2.3-2.6-4-5-4-2.8 0-5.1 2.3-5.1 5.1v1.5h-.3c-2 0-3.6 1.6-3.6 3.6v6.3c0 2 1.6 3.6 3.6 3.6h10.9c2 0 3.6-1.6 3.6-3.6v-6.3c-.1-2.1-1.7-3.7-3.7-3.7m1.8 9.9c0 .9-.9 1.6-1.8 1.6H6.6c-.9 0-1.6-.7-1.6-1.6v-6.3c0-.9.7-1.6 1.6-1.6h11c.9 0 1.6.7 1.6 1.6z"/><path fill="#000" d="M12 15.412c-.6 0-1 .4-1 1v1.6c0 .6.4 1 1 1s1-.4 1-1v-1.6c0-.6-.4-1-1-1"/></svg>