<svg xmlns="http://www.w3.org/2000/svg" fill="none" viewBox="0 0 24 25"><path fill="#000" d="m20 5.276-6.2-2.9c-1.1-.5-2.5-.5-3.6 0L4 5.276c-1.4.7-2.2 2.3-2 3.9.5 3.3 2.1 9.5 7.8 14.1.7.5 1.5.7 2.2.7s1.5-.3 2.1-.8c5.7-4.6 7.4-10.8 7.8-14.1.3-1.5-.5-3.1-1.9-3.8"/><path fill="#fff" d="M14.7 9.276c-.4-.4-1-.4-1.4 0l-1.3 1.3-1.3-1.3c-.4-.4-1-.4-1.4 0s-.4 1 0 1.4l1.3 1.3-1.3 1.3c-.4.4-.4 1 0 1.4.2.2.4.3.7.3s.5-.1.7-.3l1.3-1.3 1.3 1.3c.2.2.5.3.7.3s.5-.1.7-.3c.4-.4.4-1 0-1.4l-1.3-1.3 1.3-1.3c.4-.4.4-1 0-1.4"/></svg>