<svg xmlns="http://www.w3.org/2000/svg" fill="none" viewBox="0 0 24 25"><path fill="#000" d="M14.7 9.276c-.4-.4-1-.4-1.4 0l-1.3 1.3-1.3-1.3c-.4-.4-1-.4-1.4 0s-.4 1 0 1.4l1.3 1.3-1.3 1.3c-.4.4-.4 1 0 1.4.2.2.4.3.7.3s.5-.1.7-.3l1.3-1.3 1.3 1.3c.2.2.5.3.7.3s.5-.1.7-.3c.4-.4.4-1 0-1.4l-1.3-1.3 1.3-1.3c.4-.4.4-1 0-1.4"/><path fill="#000" d="M20.037 5.255 13.835 2.35c-1.1-.5-2.501-.5-3.602 0L4.031 5.255c-1.4.7-2.2 2.302-2 3.904.5 3.304 2.1 9.511 7.802 14.116.7.5 1.5.701 2.2.701s1.501-.3 2.102-.8c5.702-4.606 7.402-10.813 7.802-14.117.3-1.502-.5-3.103-1.9-3.804m-7.103 16.418c-.5.4-1.2.4-1.7 0C6.032 17.47 4.53 11.863 4.03 8.86c-.1-.801.3-1.502.9-1.802l6.203-2.904c.3-.1.6-.2.9-.2s.6.1.9.2l6.202 2.904c.6.3 1 1 .9 1.702-.5 3.103-2 8.71-7.102 12.914"/></svg>