<svg xmlns="http://www.w3.org/2000/svg" fill="none" viewBox="0 0 24 24"><path fill="#000" d="M18.181 5.184h-.524C16.505 3.232 14.41 2 12 2 9.695 2 7.495 3.232 6.343 5.184h-.524C3.2 5.184 1 7.34 1 10.01s2.2 4.724 4.819 4.724h2.514c.629 0 1.048-.41 1.048-1.027 0-.616-.42-1.027-1.048-1.027H5.82c-1.467 0-2.724-1.232-2.724-2.67 0-1.54 1.257-2.67 2.724-2.67.314 0 .524 0 .838.102.524.206 1.048-.102 1.257-.616C8.648 5.081 10.22 4.054 12 4.054s3.457 1.027 4.086 2.67c.21.514.733.72 1.257.617.21-.103.524-.103.838-.103 1.571 0 2.724 1.232 2.724 2.67 0 1.54-1.257 2.67-2.724 2.67h-5.133V9.292c0-.616-.42-1.027-1.048-1.027s-1.048.41-1.048 1.027v8.216l-.943-.924a1.027 1.027 0 0 0-1.466 0 .98.98 0 0 0 0 1.438l2.724 2.67c.21.205.524.308.733.308.21 0 .524-.103.733-.308l2.724-2.67a.98.98 0 0 0 0-1.438 1.027 1.027 0 0 0-1.466 0l-.943.821v-2.67h5.133c2.724 0 4.819-2.157 4.819-4.724s-2.095-4.827-4.819-4.827"/></svg>