<svg xmlns="http://www.w3.org/2000/svg" fill="none" viewBox="0 0 24 25"><path fill="#000" d="M7.9 20.976H5.5c-.5 0-1-.3-1.2-.7-.3-.4-.3-.8-.1-1.3 1.2-2.8 3.9-4.7 7-4.7s5.7-2.6 5.7-5.7-2.6-5.6-5.8-5.6c-3.1 0-5.7 2.6-5.7 5.7 0 1.8.8 3.4 2.1 4.4-2.3.9-4.3 2.8-5.3 5.2-.4 1-.3 2.2.3 3.1.7 1 1.7 1.6 2.9 1.6h2.4c.6 0 1-.4 1-1s-.3-1-.9-1m-.5-12.3c0-2 1.7-3.7 3.7-3.7s3.7 1.7 3.7 3.7-1.7 3.7-3.7 3.7-3.7-1.7-3.7-3.7"/><path fill="#000" d="M21.2 11.976c-1-1-2.7-1-3.7 0l-5.3 5.3c-1.2 1.2-1.9 2.9-1.9 4.7 0 .6.4 1 1 1 1.8 0 3.4-.7 4.7-1.9l5.3-5.3c.5-.5.8-1.2.8-1.9s-.4-1.4-.9-1.9m-1.4 2.4-5.3 5.3q-.9.9-2.1 1.2.3-1.2 1.2-2.1l5.3-5.3c.1-.1.3-.2.5-.2s.3.1.4.2.2.3.2.4-.1.3-.2.5"/></svg>