<svg xmlns="http://www.w3.org/2000/svg" fill="none" viewBox="0 0 24 25"><path fill="#000" d="M12.4 22.176c-.2-.3-.4-.5-.5-.8-.5-.9-.7-1.9-.7-2.9 0-1.5.6-2.9 1.5-4 .2-.2.3-.4.5-.5 0-.1.5-.4.8-.6 1.8-1.1 2.9-3.1 2.7-5.2-.1-.9-.4-1.8-.8-2.4-.8-1.3-2.1-2.3-3.7-2.6-3.6-.7-6.8 2-6.8 5.5 0 1.9.9 3.5 2.3 4.5-2.5.9-4.5 2.8-5.6 5.3-.4 1-.3 2.1.3 3 .8.9 1.8 1.5 3 1.5h7.8c-.3-.3-.6-.5-.8-.8"/><path fill="#000" d="M17.4 13.776c-.4 0-.8.1-1.2.2-.3.1-.7.2-1 .4-.3.1-.5.3-.8.5-1 .8-1.6 2.1-1.6 3.5 0 1.1.4 2.1 1 2.9.3.3.6.6.9.8.7.5 1.5.8 2.3.8h.3c2.5 0 4.6-2.1 4.6-4.6.1-2.4-2-4.5-4.5-4.5"/><path fill="#fff" d="M19.7 17.576h-1.4v-1.4c0-.5-.4-.8-.8-.8s-.8.4-.8.8v1.4h-1.4c-.5 0-.8.4-.8.8 0 .5.4.8.8.8h1.4v1.4c0 .5.4.8.8.8s.8-.4.8-.8v-1.4h1.4c.5 0 .8-.4.8-.8s-.4-.8-.8-.8"/></svg>