<svg xmlns="http://www.w3.org/2000/svg" fill="none" viewBox="0 0 24 25"><path fill="#000" d="M12 2.976c-5.5 0-10 4.5-10 10s4.5 10 10 10 10-4.5 10-10-4.5-10-10-10m0 18c-4.4 0-8-3.6-8-8s3.6-8 8-8 8 3.6 8 8-3.6 8-8 8"/><path fill="#000" d="M17.5 16.376c-.7-.7-1.5-1.2-2.4-1.6.7-.8 1.2-1.8 1.2-3 0-2.4-1.9-4.3-4.3-4.3s-4.3 1.9-4.3 4.3c0 1.2.5 2.2 1.2 3-.9.4-1.7.9-2.4 1.6-.4.4-.4 1 0 1.4.2.2.5.3.7.3.3 0 .5-.1.7-.3 1.1-1.1 2.5-1.7 4.1-1.7 1.5 0 3 .6 4.1 1.7.4.4 1 .4 1.4 0s.4-1 0-1.4m-7.8-4.6c0-1.3 1-2.3 2.3-2.3s2.3 1 2.3 2.3-1 2.3-2.3 2.3-2.3-1-2.3-2.3"/></svg>