<svg xmlns="http://www.w3.org/2000/svg" fill="none" viewBox="0 0 24 25"><path fill="#000" d="M20.68 18.384c-1.003-2.449-2.907-4.286-5.212-5.204 1.302-1.02 2.104-2.653 2.104-4.388 0-3.265-2.505-5.816-5.612-5.816S6.347 5.527 6.347 8.69c0 1.735.802 3.368 2.105 4.388-2.305.918-4.21 2.755-5.211 5.204-.401 1.02-.301 2.245.3 3.163.602 1.02 1.704 1.531 2.907 1.531h11.124c1.203 0 2.205-.612 2.907-1.53.601-.919.701-2.041.2-3.062M8.351 8.69c0-2.04 1.603-3.673 3.608-3.673s3.608 1.633 3.608 3.673-1.604 3.674-3.608 3.674S8.352 10.73 8.352 8.69m10.423 11.735c-.3.408-.702.714-1.203.714H6.347c-.5 0-.902-.204-1.202-.714-.3-.408-.3-.816-.1-1.224 1.202-2.96 3.908-4.796 6.915-4.796 3.006 0 5.712 1.836 6.915 4.694.2.408.1.918-.1 1.326"/></svg>