<svg width="24" height="25" viewBox="0 0 24 25" fill="none" xmlns="http://www.w3.org/2000/svg">
<path d="M13 7.08535V17.5387C13 19.1387 14.2468 20.312 15.7013 20.312H18.2987C19.8571 20.312 21 19.032 21 17.5387V7.08535C21 5.48534 19.7532 4.31201 18.2987 4.31201H15.7013C14.2468 4.31201 13 5.48534 13 7.08535Z" fill="black"/>
<path d="M11 19.712V4.91201C11 3.51201 9.75325 2.31201 8.2987 2.31201H5.7013C4.24675 2.31201 3 3.51201 3 4.91201V19.612C3 21.112 4.24675 22.312 5.7013 22.312H8.2987C9.75325 22.312 11 21.112 11 19.712Z" fill="black"/>
</svg>
