<svg xmlns="http://www.w3.org/2000/svg" fill="none" viewBox="0 0 24 25"><path fill="#000" d="M13 9.812v9.8c0 1.5 1.2 2.6 2.6 2.6h2.5c1.5 0 2.6-1.2 2.6-2.6v-9.8c0-1.5-1.2-2.6-2.6-2.6h-2.5c-1.4 0-2.6 1.2-2.6 2.6m5.1-.6c.4 0 .6.3.6.6v9.8c0 .4-.3.6-.6.6h-2.5c-.4 0-.6-.3-.6-.6v-9.8c0-.4.3-.6.6-.6zm-7.4 10.5v-14.8c0-1.4-1.2-2.6-2.6-2.6H5.6c-1.4 0-2.6 1.2-2.6 2.6v14.7c0 1.5 1.2 2.7 2.6 2.7h2.5c1.4 0 2.6-1.2 2.6-2.6m-5.1.6c-.3 0-.6-.3-.6-.6v-14.8c0-.3.3-.6.6-.6h2.5c.4 0 .6.3.6.6v14.7c0 .4-.3.6-.6.6H5.6z"/></svg>