<svg xmlns="http://www.w3.org/2000/svg" fill="none" viewBox="0 0 24 25"><path fill="#000" d="M13 7.085V17.54c0 1.6 1.247 2.773 2.701 2.773H18.3c1.558 0 2.701-1.28 2.701-2.773V7.085c0-1.6-1.247-2.773-2.701-2.773h-2.6c-1.453 0-2.7 1.173-2.7 2.773m5.299-.64c.415 0 .623.32.623.64V17.54c0 .426-.312.64-.623.64H15.7c-.415 0-.623-.32-.623-.64V7.085c0-.426.312-.64.623-.64zM11 19.712v-14.8c0-1.4-1.247-2.6-2.701-2.6H5.7c-1.453 0-2.7 1.2-2.7 2.6v14.7c0 1.5 1.247 2.7 2.701 2.7H8.3c1.454 0 2.701-1.2 2.701-2.6m-5.299.5c-.311 0-.623-.2-.623-.5v-14.8c0-.3.312-.6.623-.6H8.3c.415 0 .623.3.623.6v14.7c0 .4-.312.6-.623.6z"/></svg>