<svg xmlns="http://www.w3.org/2000/svg" fill="none" viewBox="0 0 24 25"><path fill="#000" fill-rule="evenodd" d="M2.707 1.5a1 1 0 0 0-1.414 1.415L3.34 4.963A3.69 3.69 0 0 0 1 8.408v7.6a3.69 3.69 0 0 0 3.7 3.7h7.8c1.517 0 2.813-.9 3.386-2.2l5.407 5.407a1 1 0 0 0 1.414-1.414zM14.2 15.823 5.086 6.708H4.7c-.948 0-1.7.752-1.7 1.7v7.6c0 .948.752 1.7 1.7 1.7h7.8c.948 0 1.7-.752 1.7-1.7zM12.5 4.708h-2a1 1 0 1 0 0 2h2c.948 0 1.7.752 1.7 1.7v2a1 1 0 1 0 2 0v-.532l4.887-2.443c.1-.028.16-.004.183.01q.02.015.022.021c.002.003.008.014.008.044v9.7a1 1 0 1 0 2 0v-9.7c0-1.607-1.603-2.442-2.951-1.936a1 1 0 0 0-.096.042l-4.125 2.062A3.69 3.69 0 0 0 12.5 4.708" clip-rule="evenodd"/></svg>