<svg xmlns="http://www.w3.org/2000/svg" fill="none" viewBox="0 0 24 25"><path fill="#000" d="M13.9 11.608c.2.2.4.3.7.3.1 0 .3 0 .4-.1q.6-.3.6-.9v-1.7c0-2-1.6-3.6-3.6-3.6h-1.7c-.4 0-.8.2-.9.6-.2.4-.1.8.2 1.1zm1.4 3-5.6-5.5-6.5-6.6c-.4-.4-1-.4-1.4 0s-.4 1 0 1.4l1.8 1.8c-1.5.5-2.6 1.8-2.6 3.5v7.2c0 2 1.6 3.6 3.6 3.6H12c1.6 0 2.9-1 3.4-2.4l4.4 4.4c.2.2.5.3.7.3s.5-.1.7-.3c.4-.4.4-1 0-1.4zm6.7-7.8c-.7-.4-1.6-.5-2.3-.1 0 0-.1 0-.1.1l-2.6 1.8c-.3.2-.4.5-.4.8v3.4c0 .6.2 1.2.7 1.6l3 3c.3.3.9.5 1.3.3.3-.1.6-.2.8-.4q.6-.6.6-1.5v-7.3c0-.7-.4-1.3-1-1.7"/></svg>