<svg xmlns="http://www.w3.org/2000/svg" fill="none" viewBox="0 0 24 25"><path fill="#000" fill-rule="evenodd" d="M10.75 2.947c1.754-1.56 4.55-.284 4.55 2.061v14.4c0 2.218-2.66 3.622-4.53 2.077-2.363-1.87-4.607-3.43-6.933-4.69C2.105 15.92 1 14.078 1 12.208c0-1.96 1.097-3.813 2.846-4.69C6.462 6.16 8.698 4.606 10.75 2.946m2.55 2.061c0-.644-.779-.968-1.227-.56l-.044.037C9.89 6.218 7.533 7.858 4.76 9.295l-.013.007C3.7 9.826 3 10.97 3 12.208c0 1.124.689 2.276 1.747 2.806l.03.015C7.242 16.365 9.591 18 12.02 19.924l.02.016c.528.44 1.259.046 1.259-.532zm3.932 4.361a1 1 0 0 1 1.408-.128c.877.73 1.26 1.842 1.26 2.868 0 1.105-.536 2.15-1.193 2.807a1 1 0 0 1-1.414-1.414c.343-.343.607-.898.607-1.393 0-.574-.217-1.063-.54-1.332a1 1 0 0 1-.128-1.408" clip-rule="evenodd"/><path fill="#000" fill-rule="evenodd" d="M17.183 5.81a1 1 0 0 1 1.316-.519A7.51 7.51 0 0 1 23 12.208c0 3.113-1.851 5.771-4.615 6.923a1 1 0 0 1-.77-1.846A5.45 5.45 0 0 0 21 12.208a5.51 5.51 0 0 0-3.299-5.083 1 1 0 0 1-.518-1.316" clip-rule="evenodd"/></svg>