<svg xmlns="http://www.w3.org/2000/svg" fill="none" viewBox="0 0 24 25"><path fill="#000" d="M6.7 7.368c-1.5 0-3-.4-4.3-1.5-.4-.4-.5-1-.1-1.4s1-.5 1.4-.1c2.3 1.9 4.9 1 7.9-.1 3.1-1.1 6.7-2.3 10 0 .5.3.6.9.2 1.4-.3.5-.9.6-1.4.2-2.5-1.7-5.3-.8-8.2.2-1.8.7-3.7 1.3-5.5 1.3m0 7.8c-1.5 0-2.9-.4-4.3-1.5-.4-.4-.5-1-.1-1.4s1-.5 1.4-.1c2.3 1.9 4.9 1 7.9-.1 3.1-1.1 6.7-2.3 10 0 .5.3.6.9.2 1.4-.3.5-.9.6-1.4.2-2.4-1.7-5.2-.7-8.2.3-1.8.6-3.7 1.2-5.5 1.2m0 7.8c-1.5 0-2.9-.4-4.3-1.5-.4-.4-.5-1-.1-1.4s1-.5 1.4-.1c2.3 1.9 4.9 1 7.9-.1 3.1-1.1 6.7-2.3 10 0 .5.3.6.9.2 1.4-.3.5-.9.6-1.4.2-2.5-1.7-5.3-.8-8.2.2-1.8.6-3.7 1.3-5.5 1.3"/></svg>