<svg xmlns="http://www.w3.org/2000/svg" fill="none" viewBox="0 0 24 25"><path fill="#000" d="M7 8.568c-1.5 0-2.9-.4-4.3-1.4-.8-.6-1-1.7-.4-2.5s1.7-1 2.5-.4c1.7 1.2 3.5.7 6.4-.2 3-.9 6.3-2 9.6.1.8.5 1.1 1.6.5 2.5-.5.8-1.6 1.1-2.5.5-1.9-1.2-4.1-.5-6.6.3-1.6.5-3.4 1.1-5.2 1.1m0 7c-1.5 0-2.9-.4-4.3-1.4-.8-.6-1-1.7-.4-2.5s1.7-1 2.5-.4c1.7 1.2 3.5.7 6.4-.2 3-.9 6.3-2 9.6.1.8.5 1.1 1.6.5 2.5-.5.8-1.6 1.1-2.5.5-1.9-1.2-4.1-.5-6.6.3-1.6.6-3.4 1.1-5.2 1.1m0 7c-1.5 0-2.9-.4-4.3-1.4-.8-.6-1-1.7-.4-2.5s1.7-1 2.5-.4c1.6 1.2 3.4.7 6.3-.2 3-.9 6.3-2 9.6.1.8.5 1.1 1.6.5 2.5-.5.8-1.6 1.1-2.5.5-1.9-1.2-4.1-.5-6.6.3-1.5.6-3.3 1.1-5.1 1.1"/></svg>