<svg width="24" height="25" viewBox="0 0 24 25" fill="none" xmlns="http://www.w3.org/2000/svg">
<path d="M18.8718 7.48809L14.7692 3.38809C14.1538 2.68809 13.2308 2.28809 12.3077 2.28809H6.66667C5.23077 2.28809 4 3.48809 4 4.98809V19.6881C4 21.0881 5.23077 22.2881 6.66667 22.2881H17.3333C18.7692 22.2881 20 21.0881 20 19.5881V11.1881V9.98809C20 8.98809 19.5897 8.08809 18.8718 7.48809Z" fill="black"/>
<path d="M14.8 13.2881H8.79999C8.19999 13.2881 7.79999 13.6881 7.79999 14.2881C7.79999 14.8881 8.19999 15.2881 8.79999 15.2881H14.8C15.4 15.2881 15.8 14.8881 15.8 14.2881C15.8 13.6881 15.3 13.2881 14.8 13.2881Z" fill="white"/>
<path d="M11.8 16.2881H8.79999C8.19999 16.2881 7.79999 16.6881 7.79999 17.2881C7.79999 17.8881 8.19999 18.2881 8.79999 18.2881H11.8C12.4 18.2881 12.8 17.8881 12.8 17.2881C12.8 16.6881 12.3 16.2881 11.8 16.2881Z" fill="white"/>
</svg>
