<svg xmlns="http://www.w3.org/2000/svg" fill="none" viewBox="0 0 24 25"><path fill="#000" fill-rule="evenodd" d="M2 6.852c0-1.959 1.513-3.564 3.486-3.564h3.48c1.129 0 2.209.394 3.019 1.341l1.164 1.12h5.365C20.487 5.75 22 7.356 22 9.315v8.41c0 1.959-1.513 3.564-3.486 3.564H5.486C3.513 21.288 2 19.683 2 17.724zm3.486-1.564C4.676 5.288 4 5.94 4 6.852v10.872c0 .913.675 1.564 1.486 1.564h13.028c.81 0 1.486-.651 1.486-1.564v-8.41c0-.913-.675-1.564-1.486-1.564h-5.768a1 1 0 0 1-.694-.28l-1.491-1.436a1 1 0 0 1-.076-.081c-.379-.456-.874-.665-1.518-.665z" clip-rule="evenodd"/><path fill="#000" fill-rule="evenodd" d="M12 10.988a2.3 2.3 0 1 0 0 4.6 2.3 2.3 0 0 0 0-4.6m-4.3 2.3a4.3 4.3 0 1 1 8.6 0 4.3 4.3 0 0 1-8.6 0" clip-rule="evenodd"/><path fill="#000" fill-rule="evenodd" d="M14.537 10.217a1 1 0 0 1 .134 1.408l-3.8 4.6a1 1 0 0 1-1.542-1.274l3.8-4.6a1 1 0 0 1 1.408-.134" clip-rule="evenodd"/></svg>