<svg xmlns="http://www.w3.org/2000/svg" fill="none" viewBox="0 0 24 25"><path fill="#000" d="M3.8 23.312c-1.5 0-2.8-1.3-2.8-2.8v-3.6c0-1.6 1.3-2.8 2.8-2.8 1.6 0 2.8 1.3 2.8 2.8v3.6c0 1.5-1.2 2.8-2.8 2.8m0-7.3c-.5 0-.8.4-.8.8v3.6c0 .5.4.9.8.9s.8-.4.8-.8v-3.6c0-.5-.3-.9-.8-.9m8.2 7.3c-1.6 0-2.8-1.3-2.8-2.8v-9.1c0-1.6 1.3-2.8 2.8-2.8 1.6 0 2.8 1.3 2.8 2.8v9.1c0 1.5-1.2 2.8-2.8 2.8m0-12.7c-.5 0-.8.4-.8.8v9.1c0 .5.4.8.8.8s.8-.4.8-.8v-9.1c0-.5-.3-.8-.8-.8m8.2 12.7c-1.6 0-2.8-1.3-2.8-2.8v-16.4c0-1.6 1.3-2.8 2.8-2.8s2.8 1.3 2.8 2.8v16.4c0 1.5-1.3 2.8-2.8 2.8m0-20c-.5 0-.8.4-.8.8v16.4c0 .5.4.8.8.8s.8-.4.8-.8v-16.4c0-.4-.4-.8-.8-.8"/></svg>