<svg width="24" height="25" viewBox="0 0 24 25" fill="none" xmlns="http://www.w3.org/2000/svg">
<path d="M19.9 5.31202L13.9 1.81202C12.7 1.11202 11.2 1.11202 10 1.81202L4.1 5.31202C2.8 6.01202 2 7.51202 2 9.01202V15.612C2 17.112 2.8 18.612 4.1 19.312L10.1 22.812C10.7 23.112 11.3 23.312 12 23.312C12.7 23.312 13.3 23.112 13.9 22.812L19.9 19.312C21.2 18.612 22 17.112 22 15.612V9.01202C22 7.51202 21.2 6.01202 19.9 5.31202Z" fill="black"/>
<path d="M19.9 7.91201C19.6 7.51201 19 7.31201 18.5 7.51201L12 11.112L5.5 7.51201C5 7.31201 4.4 7.51201 4.1 7.91201C3.8 8.31201 4 9.01201 4.5 9.31201L11 12.812V20.112C11 20.712 11.4 21.112 12 21.112C12.6 21.112 13 20.712 13 20.112V12.812L19.5 9.31201C20 9.01201 20.1 8.41201 19.9 7.91201Z" fill="white"/>
</svg>
