<svg width="24" height="24" viewBox="0 0 24 24" fill="none" xmlns="http://www.w3.org/2000/svg">
<path d="M4.579 21.91L15.6414 18.6828C17.1163 18.2218 18.2226 17.1153 18.6835 15.6401L21.91 4.57546C22.371 3.10018 20.9882 1.6249 19.421 2.08592L8.35864 5.3131C6.88366 5.77413 5.77743 6.88059 5.31649 8.35587L2.08997 19.4205C1.62904 20.988 3.01184 22.371 4.579 21.91Z" fill="black"/>
<path d="M12 15C13.6569 15 15 13.6569 15 12C15 10.3431 13.6569 9 12 9C10.3431 9 9 10.3431 9 12C9 13.6569 10.3431 15 12 15Z" fill="white"/>
</svg>
