<svg width="24" height="24" viewBox="0 0 24 24" fill="none" xmlns="http://www.w3.org/2000/svg">
<path d="M15.3 22H5.5C3.5 22 2 20.5 2 18.5V8.70001C2 6.80001 3.5 5.20001 5.5 5.20001H15.3C17.2 5.20001 18.8 6.70001 18.8 8.70001V18.5C18.7 20.5 17.2 22 15.3 22ZM5.5 7.30001C4.7 7.30001 4 7.90001 4 8.70001V18.5C4 19.3 4.7 20 5.5 20H15.3C16.1 20 16.8 19.3 16.8 18.5V8.70001C16.8 7.90001 16.1 7.20001 15.3 7.20001H5.5V7.30001Z" fill="black"/>
<path d="M21 17.9C20.4 17.9 20 17.5 20 16.9V6.3C20 5 19 4 17.7 4H7.10001C6.50001 4 6.10001 3.6 6.10001 3C6.10001 2.4 6.50001 2 7.10001 2H17.7C20.1 2 22 3.9 22 6.3V16.9C22 17.5 21.6 17.9 21 17.9Z" fill="black"/>
</svg>
