<svg width="24" height="25" viewBox="0 0 24 25" fill="none" xmlns="http://www.w3.org/2000/svg">
<path fill-rule="evenodd" clip-rule="evenodd" d="M3 6.08807C3.55228 6.08807 4 6.53579 4 7.08807V18.2881C4 19.8889 5.40416 21.2881 7.2 21.2881H15.9C16.4523 21.2881 16.9 21.7358 16.9 22.2881C16.9 22.8404 16.4523 23.2881 15.9 23.2881H7.2C4.39584 23.2881 2 21.0873 2 18.2881V7.08807C2 6.53579 2.44772 6.08807 3 6.08807Z" fill="black"/>
<path fill-rule="evenodd" clip-rule="evenodd" d="M6 4.47856C6 2.6211 7.57934 1.28809 9.31724 1.28809H14.2414C15.3295 1.28809 16.3598 1.64839 17.1486 2.41788L20.8035 5.73841C20.8136 5.74761 20.8235 5.75702 20.8333 5.76663C21.6141 6.53686 22 7.56022 22 8.5738V16.0976C22 17.9551 20.4207 19.2881 18.6828 19.2881H9.31724C7.57934 19.2881 6 17.9551 6 16.0976V4.47856ZM9.31724 3.28809C8.5448 3.28809 8 3.85983 8 4.47856V16.0976C8 16.7163 8.5448 17.2881 9.31724 17.2881H18.6828C19.4552 17.2881 20 16.7163 20 16.0976V8.5738C20 8.06947 19.811 7.57469 19.4418 7.20346L15.7896 3.88538C15.7795 3.87618 15.7696 3.86677 15.7598 3.85716C15.3921 3.49439 14.8839 3.28809 14.2414 3.28809H9.31724Z" fill="black"/>
</svg>
