<svg width="24" height="24" viewBox="0 0 24 24" fill="none" xmlns="http://www.w3.org/2000/svg">
<path d="M9.99216 18.0838C10.4941 18.6946 11.1969 19 12 19C12.8031 19 13.5059 18.6946 14.0078 18.0838L19.5294 11.3653C20.0314 10.7545 20.1318 9.83832 19.8306 9.12575C19.5294 8.41317 18.8267 7.90419 18.0235 7.90419H15.7145V4.34132C15.7145 3.01796 14.7106 2 13.4055 2H10.6949C9.3898 2 8.28549 3.01796 8.28549 4.34132V7.90419H5.97647C5.17333 8.00599 4.47059 8.41317 4.16941 9.12575C3.86824 9.83832 3.96863 10.7545 4.47059 11.3653L9.99216 18.0838Z" fill="black"/>
<path d="M20.9055 15.1C20.3085 15.1 19.9104 15.5 19.9104 16.1V18.6C19.9104 19.4 19.2139 20.1 18.4179 20.1H5.48259C4.68657 20 3.99005 19.3 3.99005 18.5V16C3.99005 15.4 3.59204 15 2.99502 15C2.39801 15 2 15.4 2 16V18.5C2 20.5 3.49254 22 5.48259 22H18.5174C20.408 22 22 20.5 22 18.5V16C21.9005 15.5 21.5025 15.1 20.9055 15.1Z" fill="black"/>
</svg>
