<svg width="24" height="25" viewBox="0 0 24 25" fill="none" xmlns="http://www.w3.org/2000/svg">
<path fill-rule="evenodd" clip-rule="evenodd" d="M4 5.68809C4 3.88644 5.40423 2.28809 7.31339 2.28809H12.3425C13.3927 2.28809 14.4567 2.67989 15.2604 3.47893L15.2701 3.48859L18.8866 7.18414C19.6883 7.98458 20.0956 9.15706 19.9809 10.2452V18.8881C19.9809 20.6897 18.5767 22.2881 16.6675 22.2881H7.31339C5.40423 22.2881 4 20.6897 4 18.8881V5.68809ZM7.31339 4.28809C6.60742 4.28809 6 4.88974 6 5.68809V18.8881C6 19.6864 6.60742 20.2881 7.31339 20.2881H16.6675C17.3735 20.2881 17.9809 19.6864 17.9809 18.8881V10.1881C17.9809 10.1464 17.9835 10.1047 17.9888 10.0633C18.0504 9.57265 17.8563 8.98011 17.4712 8.59724L17.4615 8.58758L13.8459 4.89292C13.443 4.49478 12.8996 4.28809 12.3425 4.28809H7.31339Z" fill="black"/>
</svg>
