<svg width="24" height="25" viewBox="0 0 24 25" fill="none" xmlns="http://www.w3.org/2000/svg">
<path d="M20.3705 14.2323L18.4404 14.8353V18.4534C18.4404 18.9559 18.0341 19.3579 17.5262 19.3579H13.5645V22.0715C13.5645 22.574 13.1582 22.976 12.6503 22.976H5.84429C5.33638 22.976 4.93006 22.574 4.93006 22.0715V16.2423C3.71107 14.9358 3 13.1268 3 11.1167C3 6.5941 6.65695 2.97601 11.2281 2.97601C12.0408 2.97601 12.8534 3.07652 13.4629 3.37802C15.6977 4.08154 17.4246 5.68958 18.4404 7.80013L20.8784 13.0263C21.1832 13.4283 20.8784 14.0313 20.3705 14.2323Z" fill="black"/>
</svg>
