<svg width="24" height="25" viewBox="0 0 24 25" fill="none" xmlns="http://www.w3.org/2000/svg">
<path d="M15.8 23.968C13.3 23.968 11 22.668 9.69999 20.568C8.39999 18.468 8.29999 15.868 9.39999 13.568L14.9 2.46802C15.2 1.76802 16.3 1.76802 16.7 2.46802L22.2 13.568C23.3 15.768 23.2 18.468 21.9 20.568C20.6 22.668 18.3 23.968 15.8 23.968Z" fill="black"/>
<path d="M4.80001 12.968C3.50001 12.968 2.30001 12.268 1.60001 11.168C0.900014 10.068 0.800014 8.66802 1.40001 7.46802L3.90001 2.46802C4.20001 1.76802 5.40001 1.76802 5.70001 2.46802L8.20001 7.46802C8.80001 8.66802 8.70001 10.068 8.00001 11.168C7.40001 12.368 6.10001 12.968 4.80001 12.968Z" fill="black"/>
</svg>
