<svg width="24" height="25" viewBox="0 0 24 25" fill="none" xmlns="http://www.w3.org/2000/svg">
<path d="M17.4 8.81201H17V7.41201C17.1 4.61201 14.8 2.31201 12 2.31201C9.2 2.31201 6.9 4.61201 6.9 7.41201V8.91201H6.6C4.6 8.91201 3 10.512 3 12.512V18.812C3 20.812 4.6 22.412 6.6 22.412H17.5C19.5 22.412 21.1 20.812 21.1 18.812V12.512C21 10.412 19.4 8.81201 17.4 8.81201ZM8.9 7.41201C8.9 5.71201 10.3 4.31201 12 4.31201C13.7 4.31201 15.1 5.71201 15.1 7.41201V8.91201H8.9V7.41201Z" fill="black"/>
<path d="M12 19.012C11.4 19.012 11 18.612 11 18.012V16.412C11 15.812 11.4 15.412 12 15.412C12.6 15.412 13 15.812 13 16.412V18.012C13 18.612 12.6 19.012 12 19.012Z" fill="white"/>
</svg>
