<svg width="24" height="25" viewBox="0 0 24 25" fill="none" xmlns="http://www.w3.org/2000/svg">
<path fill-rule="evenodd" clip-rule="evenodd" d="M12 4.31201C7.58172 4.31201 4 7.89373 4 12.312C4 16.7303 7.58172 20.312 12 20.312C16.4183 20.312 20 16.7303 20 12.312C20 7.89373 16.4183 4.31201 12 4.31201ZM2 12.312C2 6.78916 6.47715 2.31201 12 2.31201C17.5228 2.31201 22 6.78916 22 12.312C22 17.8349 17.5228 22.312 12 22.312C6.47715 22.312 2 17.8349 2 12.312Z" fill="black"/>
<path d="M7.30001 13.912C8.18367 13.912 8.90001 13.1957 8.90001 12.312C8.90001 11.4284 8.18367 10.712 7.30001 10.712C6.41636 10.712 5.70001 11.4284 5.70001 12.312C5.70001 13.1957 6.41636 13.912 7.30001 13.912Z" fill="black"/>
<path d="M12 13.912C12.8836 13.912 13.6 13.1957 13.6 12.312C13.6 11.4284 12.8836 10.712 12 10.712C11.1163 10.712 10.4 11.4284 10.4 12.312C10.4 13.1957 11.1163 13.912 12 13.912Z" fill="black"/>
<path d="M16.7 13.912C17.5837 13.912 18.3 13.1957 18.3 12.312C18.3 11.4284 17.5837 10.712 16.7 10.712C15.8163 10.712 15.1 11.4284 15.1 12.312C15.1 13.1957 15.8163 13.912 16.7 13.912Z" fill="black"/>
</svg>
