<svg width="24" height="24" viewBox="0 0 24 24" fill="none" xmlns="http://www.w3.org/2000/svg">
<path d="M12 2C6.5 2 2 6.5 2 12C2 17.5 6.5 22 12 22C17.5 22 22 17.5 22 12C22 6.5 17.5 2 12 2Z" fill="black"/>
<path d="M7.1 13.6C7.98366 13.6 8.7 12.8836 8.7 12C8.7 11.1163 7.98366 10.4 7.1 10.4C6.21634 10.4 5.5 11.1163 5.5 12C5.5 12.8836 6.21634 13.6 7.1 13.6Z" fill="white"/>
<path d="M12 13.6C12.8837 13.6 13.6 12.8836 13.6 12C13.6 11.1163 12.8837 10.4 12 10.4C11.1164 10.4 10.4 11.1163 10.4 12C10.4 12.8836 11.1164 13.6 12 13.6Z" fill="white"/>
<path d="M16.9 13.6C17.7836 13.6 18.5 12.8836 18.5 12C18.5 11.1163 17.7836 10.4 16.9 10.4C16.0163 10.4 15.3 11.1163 15.3 12C15.3 12.8836 16.0163 13.6 16.9 13.6Z" fill="white"/>
</svg>
