<svg width="24" height="24" viewBox="0 0 24 24" fill="none" xmlns="http://www.w3.org/2000/svg">
<path d="M18.4 1H5.6C3.1 1 1 3.1 1 5.6V22C1 22.4 1.2 22.7 1.5 22.9C1.7 23 1.8 23 2 23C2.2 23 2.4 22.9 2.6 22.8L7.5 19.3C8.3 18.8 9.2 18.5 10.1 18.5H18.4C21 18.5 23 16.4 23 13.9V5.6C23 3.1 20.9 1 18.4 1Z" fill="black"/>
<path d="M16.5 8.5H7.5C6.9 8.5 6.5 8.1 6.5 7.5C6.5 6.9 6.9 6.5 7.5 6.5H16.6C17.2 6.5 17.6 6.9 17.6 7.5C17.6 8.1 17.1 8.5 16.5 8.5Z" fill="white"/>
<path d="M12 13H7.5C6.9 13 6.5 12.6 6.5 12C6.5 11.4 6.9 11 7.5 11H12C12.6 11 13 11.4 13 12C13 12.6 12.6 13 12 13Z" fill="white"/>
</svg>
