<svg width="24" height="24" viewBox="0 0 24 24" fill="none" xmlns="http://www.w3.org/2000/svg">
<path fill-rule="evenodd" clip-rule="evenodd" d="M1 5.66667C1 3.11438 3.11438 1 5.66667 1H18.3333C20.8856 1 23 3.11438 23 5.66667V13.7778C23 16.3301 20.8856 18.4444 18.3333 18.4444H10.1111C9.07144 18.4444 8.17945 18.7265 7.48889 19.2444L7.47706 19.2532L2.58817 22.8087C2.28399 23.03 1.88139 23.0618 1.54622 22.8911C1.21105 22.7204 1 22.3761 1 22V5.66667ZM3 20.0362L6.29505 17.6398C7.38113 16.8276 8.70899 16.4444 10.1111 16.4444H18.3333C19.781 16.4444 21 15.2255 21 13.7778V5.66667C21 4.21895 19.781 3 18.3333 3H5.66667C4.21895 3 3 4.21895 3 5.66667V20.0362Z" fill="black"/>
<path fill-rule="evenodd" clip-rule="evenodd" d="M6 7C6 6.44772 6.44771 6 7 6H17C17.5523 6 18 6.44772 18 7C18 7.55228 17.5523 8 17 8H7C6.44771 8 6 7.55228 6 7Z" fill="black"/>
<path fill-rule="evenodd" clip-rule="evenodd" d="M6 12C6 11.4477 6.44771 11 7 11H12C12.5523 11 13 11.4477 13 12C13 12.5523 12.5523 13 12 13H7C6.44771 13 6 12.5523 6 12Z" fill="black"/>
</svg>
