<svg width="24" height="24" viewBox="0 0 24 24" fill="none" xmlns="http://www.w3.org/2000/svg">
<path d="M16.4 20.1H3.6C2.2 20.1 1 18.9 1 17.5V10.2C1 8.8 2.2 7.6 3.6 7.6H16.4C17.8 7.6 19 8.8 19 10.2V17.5C19 18.9 17.8 20.1 16.4 20.1Z" fill="black"/>
<path d="M22 16.1C21.4 16.1 21 15.7 21 15.1V6.7C21 6.3 20.8 6 20.5 6H5.09998C4.49998 6 4.09998 5.6 4.09998 5C4.09998 4.4 4.49998 4 5.09998 4H20.5C21.9 4 23 5.2 23 6.7V15.1C23 15.6 22.6 16.1 22 16.1Z" fill="black"/>
<path d="M10 16.8C8.3 16.8 7 15.5 7 13.8C7 12.1 8.3 10.8 10 10.8C11.7 10.8 13 12.1 13 13.8C13 15.5 11.7 16.8 10 16.8Z" fill="white"/>
<path d="M4.29998 14.5C4.68657 14.5 4.99998 14.1866 4.99998 13.8C4.99998 13.4134 4.68657 13.1 4.29998 13.1C3.91338 13.1 3.59998 13.4134 3.59998 13.8C3.59998 14.1866 3.91338 14.5 4.29998 14.5Z" fill="white"/>
<path d="M15.7 14.5C16.0866 14.5 16.4 14.1866 16.4 13.8C16.4 13.4134 16.0866 13.1 15.7 13.1C15.3134 13.1 15 13.4134 15 13.8C15 14.1866 15.3134 14.5 15.7 14.5Z" fill="white"/>
</svg>
