<svg width="24" height="25" viewBox="0 0 24 25" fill="none" xmlns="http://www.w3.org/2000/svg">
<path d="M20.3 17.712H3.7C2.2 17.712 1 16.512 1 15.012V7.01201C1 5.51201 2.2 4.31201 3.7 4.31201H20.3C21.8 4.31201 23 5.51201 23 7.01201V15.012C23 16.512 21.8 17.712 20.3 17.712Z" fill="black"/>
<path d="M15.6 21.012H8.40002C7.80002 21.012 7.40002 20.612 7.40002 20.012C7.40002 19.412 7.80002 19.012 8.40002 19.012H15.7C16.3 19.012 16.7 19.412 16.7 20.012C16.7 20.612 16.2 21.012 15.6 21.012Z" fill="black"/>
</svg>
