<svg width="24" height="24" viewBox="0 0 24 24" fill="none" xmlns="http://www.w3.org/2000/svg">
<path d="M17.6 1H9C6.6 1 4.6 3.10959 4.6 5.621V6.02283H5.6H6.5H6.6C7 6.02283 7.4 6.42466 7.4 7.0274C7.4 7.52968 7 8.03196 6.5 8.03196H6.4H5.5H4.5H3C2.4 8.03196 2 8.43379 2 9.03653C2 9.63927 2.4 10.0411 3 10.0411H4.6V14.0594H5.6H6.5H6.6C7.1 14.0594 7.5 14.5616 7.5 15.0639C7.5 15.5662 7.1 16.0685 6.6 16.0685H6.5H5.5H4.5H3C2.5 16.0685 2 16.5708 2 17.0731C2 17.5753 2.4 18.0776 3 18.0776H4.6V18.379C4.6 20.9909 6.6 23 9 23H17.6C20 23 22 20.8904 22 18.379V5.621C22 3.10959 20 1 17.6 1Z" fill="black"/>
</svg>
