<svg width="24" height="24" viewBox="0 0 24 24" fill="none" xmlns="http://www.w3.org/2000/svg">
<path d="M12 2C6.5 2 2 6.5 2 12C2 17.5 6.5 22 12 22C17.5 22 22 17.5 22 12C22 6.5 17.5 2 12 2ZM12 17.9C8.8 17.9 6.1 15.3 6.1 12C6.1 10.3 6.9 8.6 8.2 7.5C8.6 7.2 9.3 7.2 9.6 7.6C10 8.1 9.9 8.7 9.5 9.1C8.6 9.8 8.1 10.9 8.1 12.1C8.1 14.2 9.8 16 12 16C14.2 16 15.9 14.3 15.9 12.1C15.9 11 15.4 9.9 14.5 9.1C14.1 8.8 14 8.1 14.4 7.7C14.8 7.3 15.4 7.2 15.8 7.6C17.1 8.7 17.9 10.4 17.9 12.1C17.9 15.3 15.2 17.9 12 17.9ZM12 5.5C12.5 5.5 13 5.9 13 6.5V10.2C13 10.7 12.5 11.2 12 11.2C11.5 11.2 11 10.7 11 10.2V6.5C11 5.9 11.5 5.5 12 5.5Z" fill="black"/>
</svg>
