<svg width="24" height="24" viewBox="0 0 24 24" fill="none" xmlns="http://www.w3.org/2000/svg">
<path d="M15.8 7.6C15.4 7.2 14.7 7.3 14.4 7.7C14 8.1 14.1 8.8 14.5 9.1C15.4 9.8 15.9 10.9 15.9 12.1C15.9 14.2 14.2 16 12 16C9.80001 16 8.10001 14.2 8.10001 12C8.10001 10.9 8.60001 9.8 9.50001 9C9.90001 8.6 10 8 9.60001 7.6C9.20001 7.2 8.60001 7.1 8.20001 7.5C6.90001 8.7 6.10001 10.3 6.10001 12C6.10001 15.2 8.70001 17.9 12 17.9C15.2 17.9 17.9 15.3 17.9 12C17.9 10.3 17.1 8.7 15.8 7.6Z" fill="black"/>
<path d="M12 2C6.5 2 2 6.5 2 12C2 17.5 6.5 22 12 22C17.5 22 22 17.5 22 12C22 6.5 17.5 2 12 2ZM12 20C7.6 20 4 16.4 4 12C4 7.6 7.6 4 12 4C16.4 4 20 7.6 20 12C20 16.4 16.4 20 12 20Z" fill="black"/>
<path d="M12 11.1C12.6 11.1 13 10.7 13 10.1V6.5C13 5.9 12.6 5.5 12 5.5C11.4 5.5 11 5.9 11 6.5V10.2C11 10.7 11.4 11.1 12 11.1Z" fill="black"/>
</svg>
