<svg width="24" height="24" viewBox="0 0 24 24" fill="none" xmlns="http://www.w3.org/2000/svg">
<path d="M3.8 19.4H6.3C7.6 19.4 8.8 18.9 9.7 18L20 7.7C21.5 6.2 21.5 3.7 20 2.2C19.3 1.4 18.3 1 17.3 1C16.3 1 15.3 1.4 14.5 2.1L4.2 12.5C3.3 13.4 2.8 14.7 2.8 16V18.5C2.8 19 3.3 19.4 3.8 19.4ZM4.8 15.9C4.8 15.1 5.1 14.4 5.6 13.9L13.8 5.7L15.2 7C15.4 7.2 15.7 7.3 15.9 7.3C16.2 7.3 16.4 7.2 16.6 7C17 6.6 17 6 16.6 5.6L15.2 4.2L15.9 3.5C16.3 3.2 16.8 3 17.3 3C17.8 3 18.3 3.2 18.6 3.6C19.3 4.3 19.3 5.6 18.6 6.3L8.3 16.6C7.8 17.1 7 17.4 6.3 17.4H4.8V15.9Z" fill="black"/>
<path d="M22 21H2C1.4 21 1 21.4 1 22C1 22.6 1.4 23 2 23H22C22.6 23 23 22.6 23 22C23 21.4 22.6 21 22 21Z" fill="black"/>
</svg>
