<svg width="24" height="25" viewBox="0 0 24 25" fill="none" xmlns="http://www.w3.org/2000/svg">
<path fill-rule="evenodd" clip-rule="evenodd" d="M2 5.09952C2 1.93204 5.38912 0.325964 8.01447 1.72116C8.02971 1.72926 8.04473 1.73774 8.05952 1.74662L20.0302 8.92584C22.6566 10.4076 22.6566 13.9647 20.0302 15.4465L8.05952 22.6258L8.04675 22.6333C5.37836 24.1803 2 22.4123 2 19.3727V5.09952ZM7.0548 3.47616C5.55465 2.69583 4 3.68228 4 5.09952V19.3727C4 20.723 5.57579 21.7488 7.03774 20.9065L19.0136 13.7241C19.0223 13.7189 19.031 13.7139 19.0398 13.709C20.3201 12.9928 20.3201 11.3796 19.0398 10.6634C19.0347 10.6606 19.0297 10.6577 19.0247 10.6548C19.021 10.6527 19.0173 10.6505 19.0136 10.6483L7.0548 3.47616Z" fill="black"/>
</svg>
