<svg width="24" height="25" viewBox="0 0 24 25" fill="none" xmlns="http://www.w3.org/2000/svg">
<path d="M3 4.29602H21C21.6 4.29602 22 3.89602 22 3.29602C22 2.69602 21.6 2.29602 21 2.29602H3C2.4 2.29602 2 2.69602 2 3.29602C2 3.89602 2.4 4.29602 3 4.29602Z" fill="black"/>
<path d="M3 16.296H12C12.6 16.296 13 15.896 13 15.296C13 14.696 12.6 14.296 12 14.296H3C2.4 14.296 2 14.696 2 15.296C2 15.896 2.4 16.296 3 16.296Z" fill="black"/>
<path d="M3 10.296H12C12.6 10.296 13 9.89602 13 9.29602C13 8.69602 12.6 8.29602 12 8.29602H3C2.4 8.29602 2 8.69602 2 9.29602C2 9.89602 2.4 10.296 3 10.296Z" fill="black"/>
<path d="M3 22.296H21C21.6 22.296 22 21.896 22 21.296C22 20.696 21.6 20.296 21 20.296H3C2.4 20.296 2 20.696 2 21.296C2 21.896 2.4 22.296 3 22.296Z" fill="black"/>
<path d="M19.1 16.996L14.7 13.696C14.3 13.396 14 12.896 14 12.296C14 11.696 14.3 11.196 14.7 10.796L19.1 7.49602C19.7 7.09602 20.4 6.99602 21 7.29602C21.6 7.59602 22 8.19602 22 8.89602V15.396C22 17.196 20.2 17.896 19.1 16.996ZM16.1 12.296L20 15.196V9.39602L16.1 12.296Z" fill="black"/>
</svg>
