<svg width="24" height="24" viewBox="0 0 24 24" fill="none" xmlns="http://www.w3.org/2000/svg">
<path d="M5 9C7.20914 9 9 7.20914 9 5C9 2.79086 7.20914 1 5 1C2.79086 1 1 2.79086 1 5C1 7.20914 2.79086 9 5 9Z" fill="black"/>
<path d="M19 23C21.2091 23 23 21.2091 23 19C23 16.7909 21.2091 15 19 15C16.7909 15 15 16.7909 15 19C15 21.2091 16.7909 23 19 23Z" fill="black"/>
<path d="M13 18H7.69998C6.99998 18 6.79998 17.4 6.69998 17.3C6.69998 17.1 6.59998 16.5 7.19998 16.2L18.8 9.7C20 9 20.6 7.7 20.2 6.3C19.8 4.9 18.7 4 17.3 4H11C10.4 4 9.99998 4.4 9.99998 5C9.99998 5.6 10.4 6 11 6H17.3C18 6 18.2 6.6 18.3 6.7C18.4 6.8 18.4 7.5 17.8 7.8L6.19998 14.4C4.99998 15.1 4.39998 16.4 4.79998 17.8C5.09998 19.1 6.29998 20 7.69998 20H13C13.6 20 14 19.6 14 19C14 18.4 13.6 18 13 18Z" fill="black"/>
</svg>
