<svg width="24" height="24" viewBox="0 0 24 24" fill="none" xmlns="http://www.w3.org/2000/svg">
<path d="M18.6 2H5.4C3.5 2 2 3.5 2 5.4V15.3C2 17.2 3.5 18.7 5.4 18.7H18.6C20.5 18.7 22 17.2 22 15.3V5.4C22 3.5 20.5 2 18.6 2Z" fill="black"/>
<path d="M8.89998 20H6.59998C5.99998 20 5.59998 20.4 5.59998 21C5.59998 21.6 5.99998 22 6.59998 22H8.89998C9.49998 22 9.89998 21.6 9.89998 21C9.89998 20.4 9.49998 20 8.89998 20Z" fill="black"/>
<path d="M17.4 20H15.1C14.5 20 14.1 20.4 14.1 21C14.1 21.6 14.5 22 15.1 22H17.4C18 22 18.4 21.6 18.4 21C18.4 20.4 18 20 17.4 20Z" fill="black"/>
<path d="M8.89998 7C7.09998 7 5.59998 8.5 5.59998 10.4C5.59998 12.2 7.09998 13.7 8.89998 13.7C10.7 13.7 12.2 12.2 12.2 10.4C12.2 8.5 10.7 7 8.89998 7ZM8.89998 11.7C8.19998 11.7 7.59998 11.1 7.59998 10.4C7.59998 9.6 8.19998 9 8.89998 9C9.59998 9 10.2 9.6 10.2 10.3C10.2 11.1 9.59998 11.7 8.89998 11.7Z" fill="white"/>
<path d="M17.7 5.1C17.1 5.1 16.7 5.5 16.7 6.1V14.6C16.7 15.2 17.1 15.6 17.7 15.6C18.3 15.6 18.7 15.2 18.7 14.6V6.1C18.7 5.5 18.3 5.1 17.7 5.1Z" fill="white"/>
</svg>
