<svg width="24" height="24" viewBox="0 0 24 24" fill="none" xmlns="http://www.w3.org/2000/svg">
<path d="M9.48 1.02571L4.42 2.01228C2.99 2.23151 2 3.54693 2 4.97197V19.0031C2 20.4282 2.99 21.7436 4.42 21.9628L9.48 22.9494C11.24 23.2782 12.78 21.9628 13 20.2089V19.8801V4.09503V3.76617C12.78 2.01228 11.24 0.806474 9.48 1.02571Z" fill="black"/>
<path d="M18.8979 4H15V20H18.8979C20.6176 20 21.9933 18.6133 21.9933 17.0133V6.98667C22.108 5.28 20.7322 4 18.8979 4Z" fill="black"/>
<path d="M9.23527 13.9908C8.57167 13.9908 8.12927 13.5484 8.12927 12.8848V11.1152C8.12927 10.4516 8.57167 10.0092 9.23527 10.0092C9.89887 10.0092 10.3413 10.4516 10.3413 11.1152V12.9954C10.3413 13.5484 9.89887 13.9908 9.23527 13.9908Z" fill="white"/>
</svg>
