<svg width="24" height="24" viewBox="0 0 24 24" fill="none" xmlns="http://www.w3.org/2000/svg">
<path d="M16.9324 10H18.5405H19.8649H21C20.8108 9.71622 20.6216 9.43243 20.3378 9.14865L14.8514 3.66216C14.5676 3.37838 14.2838 3.18919 14 3V4.04054V5.36486V6.97297C14 8.67568 15.3243 10 16.9324 10Z" fill="black"/>
<path d="M21.9256 12.2488H21.8265H20.9343H19.943H16.8699C14.0942 12.2488 11.8141 9.9602 11.8141 7.17413V4.18905V3.19403V2.199V2.0995C11.6159 2 11.3185 2 11.1202 2H7.05576C4.28005 2 2 4.28856 2 7.07463V16.9254C2 19.7114 4.28005 22 7.05576 22H16.8699C19.6456 22 21.9256 19.7114 21.9256 16.9254V12.9453C22.0248 12.6468 22.0248 12.4478 21.9256 12.2488Z" fill="black"/>
</svg>
