<svg width="24" height="24" viewBox="0 0 24 24" fill="none" xmlns="http://www.w3.org/2000/svg">
<path d="M15 10.5C14.2 11.2 13.1 11.5 12 11.5C10.9 11.5 9.9 11.1 9 10.5C8.2 11.2 7.1 11.5 6 11.5C5.3 11.5 4.6 11.3 4 11V16.9C4 19.2 5.7 21 7.8 21H9.9C10.4 21 10.8 20.6 10.8 20V17C10.8 16.3 11.3 15.7 12 15.7C12.7 15.7 13.2 16.3 13.2 17V20C13.2 20.5 13.6 21 14.1 21H16.2C18.3 21 20 19.2 20 17.1V11.1C19.4 11.4 18.7 11.6 18 11.6C16.8 11.6 15.8 11.2 15 10.5Z" fill="black"/>
<path d="M21.8 5.4L21.3 4C21.1 3.4 20.5 3 19.8 3H4.20001C3.50001 3 2.90001 3.4 2.70001 4L2.20001 5.4C1.70001 6.7 2.20001 8.1 3.30001 8.9C3.90001 9.4 4.70001 9.6 5.50001 9.6C6.60001 9.6 7.50001 9.1 8.10001 8.4C8.30001 8.2 8.50001 8.1 8.80001 8.1C9.00001 8.1 9.30001 8.2 9.50001 8.4C10 9.2 10.9 9.7 12 9.7C13.1 9.7 14 9.2 14.6 8.5C14.8 8.3 15 8.2 15.3 8.2C15.6 8.2 15.8 8.3 16 8.5C16.6 9.2 17.5 9.7 18.6 9.7C19.5 9.7 20.2 9.4 20.8 9C21.8 8.1 22.3 6.8 21.8 5.4Z" fill="black"/>
</svg>
