<svg width="24" height="24" viewBox="0 0 24 24" fill="none" xmlns="http://www.w3.org/2000/svg">
<path d="M21.8 9.85938C19.8 8.03125 16.5 6 12 6C7.5 6 4.2 8.03125 2.2 9.85938C1.4 10.4688 1 11.4844 1 12.5C1 13.5156 1.4 14.5312 2.2 15.1406C4.2 16.8672 7.5 19 12 19C16.5 19 19.8 16.9688 21.8 15.1406C22.6 14.5312 23 13.5156 23 12.5C23 11.4844 22.6 10.4688 21.8 9.85938Z" fill="black"/>
<path d="M12 14.7C13.2703 14.7 14.3 13.6703 14.3 12.4C14.3 11.1298 13.2703 10.1 12 10.1C10.7298 10.1 9.70001 11.1298 9.70001 12.4C9.70001 13.6703 10.7298 14.7 12 14.7Z" fill="white"/>
</svg>
