<svg width="24" height="24" viewBox="0 0 24 24" fill="none" xmlns="http://www.w3.org/2000/svg">
<path d="M19 8.7H16.2C14.4 8.7 12.9 10.2 12.9 12V12.1C12.9 13.9 14.4 15.4 16.2 15.4H18V16C18 17.2 17.1 18.1 16.1 18.1H5.9C4.9 18 4 17.1 4 15.9V8.1C4 6.9 4.9 6 5.9 6H16.1C16.8 6 17.5 6.4 17.8 7.2C18 7.7 18.6 7.9 19.1 7.7C19.6 7.5 19.8 6.9 19.6 6.4C19 4.9 17.6 4 16.1 4H5.9C3.8 4 2 5.8 2 8.1V15.9C2 18.2 3.8 20 5.9 20H16.1C18.3 20 20 18.2 20 15.9V15.1C20.9 14.7 21.5 13.8 21.5 12.8V11.2C21.5 9.8 20.4 8.7 19 8.7ZM14.9 12.1V11.9C14.9 11.2 15.5 10.6 16.2 10.6H19C19.3 10.6 19.5 10.8 19.5 11.1V12.8C19.5 13.1 19.3 13.3 19 13.3H16.2C15.5 13.3 14.9 12.8 14.9 12.1Z" fill="black"/>
</svg>
